<svg class="sprite-cards" version="1.1" viewbox="0 0 30 45" xmlns="http://www.w3.org/2000/svg"
     xmlns:xlink="http://www.w3.org/1999/xlink">
    <text id="s-2" x="5" y="15">&#9824;2</text>
    <text id="s-3" x="5" y="15">&#9824;3</text>
    <text id="s-4" x="5" y="15">&#9824;4</text>
    <text id="s-5" x="5" y="15">&#9824;5</text>
    <text id="s-6" x="5" y="15">&#9824;6</text>
    <text id="s-7" x="5" y="15">&#9824;7</text>
    <text id="s-8" x="5" y="15">&#9824;8</text>
    <text id="s-9" x="5" y="15">&#9824;9</text>
    <text id="s-10" x="5" y="15">&#9824;10</text>
    <text id="s-j" x="5" y="15">&#9824;J</text>
    <text id="s-q" x="5" y="15">&#9824;Q</text>
    <text id="s-k" x="5" y="15">&#9824;K</text>
    <text id="s-a" x="5" y="15">&#9824;A</text>
    <text id="c-2" x="5" y="15">&#9827;2</text>
    <text id="c-3" x="5" y="15">&#9827;3</text>
    <text id="c-4" x="5" y="15">&#9827;4</text>
    <text id="c-5" x="5" y="15">&#9827;5</text>
    <text id="c-6" x="5" y="15">&#9827;6</text>
    <text id="c-7" x="5" y="15">&#9827;7</text>
    <text id="c-8" x="5" y="15">&#9827;8</text>
    <text id="c-9" x="5" y="15">&#9827;9</text>
    <text id="c-10" x="5" y="15">&#9827;10</text>
    <text id="c-j" x="5" y="15">&#9827;J</text>
    <text id="c-q" x="5" y="15">&#9827;Q</text>
    <text id="c-k" x="5" y="15">&#9827;K</text>
    <text id="c-a" x="5" y="15">&#9827;A</text>
    <text id="h-2" x="5" y="15">&#9829;2</text>
    <text id="h-3" x="5" y="15">&#9829;3</text>
    <text id="h-4" x="5" y="15">&#9829;4</text>
    <text id="h-5" x="5" y="15">&#9829;5</text>
    <text id="h-6" x="5" y="15">&#9829;6</text>
    <text id="h-7" x="5" y="15">&#9829;7</text>
    <text id="h-8" x="5" y="15">&#9829;8</text>
    <text id="h-9" x="5" y="15">&#9829;9</text>
    <text id="h-10" x="5" y="15">&#9829;10</text>
    <text id="h-j" x="5" y="15">&#9829;J</text>
    <text id="h-Q" x="5" y="15">&#9829;Q</text>
    <text id="h-K" x="5" y="15">&#9829;K</text>
    <text id="h-A" x="5" y="15">&#9829;A</text>
    <text id="d-2" x="5" y="15">&#9830;2</text>
    <text id="d-3" x="5" y="15">&#9830;3</text>
    <text id="d-4" x="5" y="15">&#9830;4</text>
    <text id="d-5" x="5" y="15">&#9830;5</text>
    <text id="d-6" x="5" y="15">&#9830;6</text>
    <text id="d-7" x="5" y="15">&#9830;7</text>
    <text id="d-8" x="5" y="15">&#9830;8</text>
    <text id="d-9" x="5" y="15">&#9830;9</text>
    <text id="d-10" x="5" y="15">&#9830;10</text>
    <text id="d-j" x="5" y="15">&#9830;J</text>
    <text id="d-q" x="5" y="15">&#9830;Q</text>
    <text id="d-k" x="5" y="15">&#9830;K</text>
    <text id="d-a" x="5" y="15">&#9830;A</text>
</svg>
