<?xml version="1.0" encoding="UTF-8" standalone="no"?><!DOCTYPE svg PUBLIC "-//W3C//DTD SVG 1.1//EN" "http://www.w3.org/Graphics/SVG/1.1/DTD/svg11.dtd"><svg width="100%" height="100%" viewBox="0 0 300 400" version="1.1" xmlns="http://www.w3.org/2000/svg" xmlns:xlink="http://www.w3.org/1999/xlink" xml:space="preserve" xmlns:serif="http://www.serif.com/" style="fill-rule:evenodd;clip-rule:evenodd;stroke-linejoin:round;stroke-miterlimit:2;"><rect id="C-10" x="0" y="0" width="300" height="400" style="fill:none;"/><g><path d="M27.373,28.299l0,44.059l7.444,0l0,-51.931l-7.444,0l-7.373,5.379l0,7.907l7.373,-5.414Z" style="fill-rule:nonzero;"/><path d="M62.093,57.398c-0.143,5.248 -2.576,7.896 -7.302,7.943c-4.749,-0.047 -7.171,-2.695 -7.266,-7.943l0,-22.011c0.095,-5.2 2.517,-7.848 7.266,-7.943c4.726,0.095 7.159,2.743 7.302,7.943l0,22.011Zm-22.012,0.428c0.048,4.773 1.579,8.453 4.595,11.041c2.826,2.565 6.197,3.871 10.115,3.918c4.037,-0.047 7.468,-1.353 10.294,-3.918c2.873,-2.588 4.357,-6.268 4.452,-11.041l0,-22.902c-0.095,-4.797 -1.579,-8.489 -4.452,-11.077c-2.826,-2.565 -6.257,-3.847 -10.294,-3.847c-3.918,0 -7.289,1.282 -10.115,3.847c-3.016,2.588 -4.547,6.28 -4.595,11.077l0,22.902Z" style="fill-rule:nonzero;"/></g><g><path d="M272.627,371.701l0,-44.059l-7.444,0l0,51.931l7.444,0l7.373,-5.379l0,-7.907l-7.373,5.414Z" style="fill-rule:nonzero;"/><path d="M237.907,342.602c0.143,-5.248 2.576,-7.896 7.302,-7.943c4.749,0.047 7.171,2.695 7.266,7.943l0,22.011c-0.095,5.2 -2.517,7.848 -7.266,7.943c-4.726,-0.095 -7.159,-2.743 -7.302,-7.943l0,-22.011Zm22.012,-0.428c-0.048,-4.773 -1.579,-8.453 -4.595,-11.041c-2.826,-2.565 -6.197,-3.871 -10.115,-3.918c-4.037,0.047 -7.468,1.353 -10.294,3.918c-2.873,2.588 -4.357,6.268 -4.452,11.041l0,22.902c0.095,4.797 1.579,8.489 4.452,11.077c2.826,2.565 6.257,3.847 10.294,3.847c3.918,0 7.289,-1.282 10.115,-3.847c3.016,-2.588 4.547,-6.28 4.595,-11.077l0,-22.902Z" style="fill-rule:nonzero;"/></g><g id="Club"><path d="M115.274,119.68l-44.776,0l0.422,-1.795c5.808,-1.232 9.663,-2.447 11.564,-3.644c2.851,-1.795 5.183,-4.453 6.996,-7.973c1.813,-3.52 2.719,-7.234 2.719,-11.141c0,-0.563 -0.017,-1.373 -0.052,-2.429c-2.148,4.365 -4.761,7.551 -7.842,9.557c-3.08,2.007 -6.221,3.01 -9.425,3.01c-4.083,0 -7.551,-1.426 -10.402,-4.277c-2.851,-2.851 -4.277,-6.354 -4.277,-10.508c0,-4.083 1.303,-7.524 3.907,-10.323c2.605,-2.798 5.562,-4.198 8.871,-4.198c2.112,0 4.981,0.898 8.607,2.693c-1.478,-2.464 -2.438,-4.321 -2.878,-5.57c-0.44,-1.25 -0.66,-2.596 -0.66,-4.04c0,-4.013 1.391,-7.41 4.172,-10.191c2.781,-2.78 6.248,-4.171 10.402,-4.171c4.154,0 7.647,1.391 10.481,4.171c2.834,2.781 4.251,6.09 4.251,9.927c0,3.133 -1.215,6.425 -3.644,9.874c2.957,-1.408 4.735,-2.2 5.333,-2.376c0.951,-0.281 2.025,-0.422 3.221,-0.422c3.521,0 6.574,1.382 9.162,4.145c2.587,2.763 3.881,6.187 3.881,10.27c0,4.224 -1.417,7.771 -4.251,10.64c-2.834,2.869 -6.239,4.303 -10.217,4.303c-2.218,0 -4.497,-0.537 -6.838,-1.61c-2.341,-1.074 -4.374,-2.508 -6.099,-4.304c-1.232,-1.302 -2.763,-3.502 -4.594,-6.6c0.141,5.597 0.995,10.024 2.561,13.28c1.567,3.256 3.969,5.958 7.208,8.105c2.182,1.443 6.107,2.71 11.775,3.802l0.422,1.795Z"/></g><g id="Club1" serif:id="Club"><path d="M229.766,119.68l-44.776,0l0.422,-1.795c5.809,-1.232 9.663,-2.447 11.564,-3.644c2.851,-1.795 5.183,-4.453 6.996,-7.973c1.813,-3.52 2.72,-7.234 2.72,-11.141c0,-0.563 -0.018,-1.373 -0.053,-2.429c-2.147,4.365 -4.761,7.551 -7.841,9.557c-3.08,2.007 -6.222,3.01 -9.426,3.01c-4.083,0 -7.55,-1.426 -10.402,-4.277c-2.851,-2.851 -4.277,-6.354 -4.277,-10.508c0,-4.083 1.303,-7.524 3.908,-10.323c2.605,-2.798 5.562,-4.198 8.871,-4.198c2.112,0 4.981,0.898 8.606,2.693c-1.478,-2.464 -2.437,-4.321 -2.877,-5.57c-0.44,-1.25 -0.66,-2.596 -0.66,-4.04c0,-4.013 1.39,-7.41 4.171,-10.191c2.781,-2.78 6.248,-4.171 10.402,-4.171c4.154,0 7.648,1.391 10.481,4.171c2.834,2.781 4.251,6.09 4.251,9.927c0,3.133 -1.214,6.425 -3.643,9.874c2.957,-1.408 4.734,-2.2 5.333,-2.376c0.95,-0.281 2.024,-0.422 3.221,-0.422c3.52,0 6.574,1.382 9.161,4.145c2.587,2.763 3.881,6.187 3.881,10.27c0,4.224 -1.417,7.771 -4.251,10.64c-2.833,2.869 -6.239,4.303 -10.217,4.303c-2.218,0 -4.497,-0.537 -6.838,-1.61c-2.341,-1.074 -4.374,-2.508 -6.099,-4.304c-1.232,-1.302 -2.763,-3.502 -4.593,-6.6c0.14,5.597 0.994,10.024 2.56,13.28c1.567,3.256 3.969,5.958 7.208,8.105c2.183,1.443 6.108,2.71 11.775,3.802l0.422,1.795Z"/></g><g id="Club2" serif:id="Club"><path d="M115.274,194.893l-44.776,0l0.422,-1.795c5.808,-1.232 9.663,-2.446 11.564,-3.643c2.851,-1.796 5.183,-4.453 6.996,-7.974c1.813,-3.52 2.719,-7.233 2.719,-11.141c0,-0.563 -0.017,-1.373 -0.052,-2.429c-2.148,4.365 -4.761,7.551 -7.842,9.557c-3.08,2.007 -6.221,3.01 -9.425,3.01c-4.083,0 -7.551,-1.425 -10.402,-4.277c-2.851,-2.851 -4.277,-6.354 -4.277,-10.507c0,-4.084 1.303,-7.525 3.907,-10.323c2.605,-2.799 5.562,-4.198 8.871,-4.198c2.112,0 4.981,0.897 8.607,2.693c-1.478,-2.464 -2.438,-4.321 -2.878,-5.571c-0.44,-1.25 -0.66,-2.596 -0.66,-4.039c0,-4.013 1.391,-7.41 4.172,-10.191c2.781,-2.781 6.248,-4.172 10.402,-4.172c4.154,0 7.647,1.391 10.481,4.172c2.834,2.781 4.251,6.09 4.251,9.927c0,3.133 -1.215,6.424 -3.644,9.874c2.957,-1.408 4.735,-2.2 5.333,-2.376c0.951,-0.282 2.025,-0.423 3.221,-0.423c3.521,0 6.574,1.382 9.162,4.145c2.587,2.764 3.881,6.187 3.881,10.27c0,4.225 -1.417,7.771 -4.251,10.64c-2.834,2.869 -6.239,4.303 -10.217,4.303c-2.218,0 -4.497,-0.536 -6.838,-1.61c-2.341,-1.074 -4.374,-2.508 -6.099,-4.303c-1.232,-1.303 -2.763,-3.503 -4.594,-6.601c0.141,5.597 0.995,10.024 2.561,13.28c1.567,3.256 3.969,5.958 7.208,8.105c2.182,1.444 6.107,2.711 11.775,3.802l0.422,1.795Z"/></g><g id="Club3" serif:id="Club"><path d="M229.766,194.893l-44.776,0l0.422,-1.795c5.809,-1.232 9.663,-2.446 11.564,-3.643c2.851,-1.796 5.183,-4.453 6.996,-7.974c1.813,-3.52 2.72,-7.233 2.72,-11.141c0,-0.563 -0.018,-1.373 -0.053,-2.429c-2.147,4.365 -4.761,7.551 -7.841,9.557c-3.08,2.007 -6.222,3.01 -9.426,3.01c-4.083,0 -7.55,-1.425 -10.402,-4.277c-2.851,-2.851 -4.277,-6.354 -4.277,-10.507c0,-4.084 1.303,-7.525 3.908,-10.323c2.605,-2.799 5.562,-4.198 8.871,-4.198c2.112,0 4.981,0.897 8.606,2.693c-1.478,-2.464 -2.437,-4.321 -2.877,-5.571c-0.44,-1.25 -0.66,-2.596 -0.66,-4.039c0,-4.013 1.39,-7.41 4.171,-10.191c2.781,-2.781 6.248,-4.172 10.402,-4.172c4.154,0 7.648,1.391 10.481,4.172c2.834,2.781 4.251,6.09 4.251,9.927c0,3.133 -1.214,6.424 -3.643,9.874c2.957,-1.408 4.734,-2.2 5.333,-2.376c0.95,-0.282 2.024,-0.423 3.221,-0.423c3.52,0 6.574,1.382 9.161,4.145c2.587,2.764 3.881,6.187 3.881,10.27c0,4.225 -1.417,7.771 -4.251,10.64c-2.833,2.869 -6.239,4.303 -10.217,4.303c-2.218,0 -4.497,-0.536 -6.838,-1.61c-2.341,-1.074 -4.374,-2.508 -6.099,-4.303c-1.232,-1.303 -2.763,-3.503 -4.593,-6.601c0.14,5.597 0.994,10.024 2.56,13.28c1.567,3.256 3.969,5.958 7.208,8.105c2.183,1.444 6.108,2.711 11.775,3.802l0.422,1.795Z"/></g><g id="Club4" serif:id="Club"><path d="M172.52,157.287l-44.776,0l0.422,-1.796c5.808,-1.232 9.663,-2.446 11.564,-3.643c2.851,-1.795 5.183,-4.453 6.996,-7.973c1.813,-3.52 2.72,-7.234 2.72,-11.142c0,-0.563 -0.018,-1.372 -0.053,-2.428c-2.148,4.365 -4.761,7.55 -7.841,9.557c-3.081,2.006 -6.222,3.01 -9.426,3.01c-4.083,0 -7.55,-1.426 -10.402,-4.277c-2.851,-2.852 -4.277,-6.354 -4.277,-10.508c0,-4.084 1.303,-7.525 3.908,-10.323c2.605,-2.799 5.561,-4.198 8.87,-4.198c2.113,0 4.981,0.898 8.607,2.693c-1.478,-2.464 -2.437,-4.321 -2.877,-5.571c-0.441,-1.249 -0.661,-2.596 -0.661,-4.039c0,-4.013 1.391,-7.41 4.172,-10.191c2.781,-2.781 6.248,-4.171 10.402,-4.171c4.154,0 7.648,1.39 10.481,4.171c2.834,2.781 4.251,6.09 4.251,9.927c0,3.133 -1.215,6.424 -3.643,9.874c2.956,-1.408 4.734,-2.2 5.333,-2.376c0.95,-0.282 2.024,-0.422 3.221,-0.422c3.52,0 6.573,1.381 9.161,4.145c2.587,2.763 3.881,6.186 3.881,10.27c0,4.224 -1.417,7.77 -4.251,10.639c-2.834,2.869 -6.239,4.304 -10.217,4.304c-2.218,0 -4.497,-0.537 -6.838,-1.611c-2.341,-1.073 -4.374,-2.508 -6.099,-4.303c-1.232,-1.303 -2.763,-3.503 -4.594,-6.6c0.141,5.597 0.995,10.023 2.561,13.279c1.567,3.257 3.969,5.958 7.208,8.106c2.182,1.443 6.107,2.71 11.775,3.801l0.422,1.796Z"/></g><g id="Club5" serif:id="Club"><path d="M172.52,307.713l-44.776,0l0.422,-1.795c5.808,-1.232 9.663,-2.447 11.564,-3.643c2.851,-1.796 5.183,-4.453 6.996,-7.974c1.813,-3.52 2.72,-7.234 2.72,-11.141c0,-0.563 -0.018,-1.373 -0.053,-2.429c-2.148,4.365 -4.761,7.551 -7.841,9.557c-3.081,2.007 -6.222,3.01 -9.426,3.01c-4.083,0 -7.55,-1.425 -10.402,-4.277c-2.851,-2.851 -4.277,-6.354 -4.277,-10.508c0,-4.083 1.303,-7.524 3.908,-10.322c2.605,-2.799 5.561,-4.198 8.87,-4.198c2.113,0 4.981,0.897 8.607,2.693c-1.478,-2.464 -2.437,-4.321 -2.877,-5.571c-0.441,-1.25 -0.661,-2.596 -0.661,-4.039c0,-4.013 1.391,-7.41 4.172,-10.191c2.781,-2.781 6.248,-4.172 10.402,-4.172c4.154,0 7.648,1.391 10.481,4.172c2.834,2.781 4.251,6.09 4.251,9.927c0,3.133 -1.215,6.424 -3.643,9.874c2.956,-1.408 4.734,-2.2 5.333,-2.376c0.95,-0.282 2.024,-0.423 3.221,-0.423c3.52,0 6.573,1.382 9.161,4.145c2.587,2.763 3.881,6.187 3.881,10.27c0,4.224 -1.417,7.771 -4.251,10.64c-2.834,2.869 -6.239,4.303 -10.217,4.303c-2.218,0 -4.497,-0.536 -6.838,-1.61c-2.341,-1.074 -4.374,-2.508 -6.099,-4.303c-1.232,-1.303 -2.763,-3.503 -4.594,-6.601c0.141,5.597 0.995,10.024 2.561,13.28c1.567,3.256 3.969,5.958 7.208,8.105c2.182,1.444 6.107,2.711 11.775,3.802l0.422,1.795Z"/></g><g id="Club6" serif:id="Club"><path d="M115.274,270.107l-44.776,0l0.422,-1.796c5.808,-1.232 9.663,-2.446 11.564,-3.643c2.851,-1.795 5.183,-4.453 6.996,-7.973c1.813,-3.52 2.719,-7.234 2.719,-11.142c0,-0.563 -0.017,-1.372 -0.052,-2.428c-2.148,4.365 -4.761,7.55 -7.842,9.557c-3.08,2.006 -6.221,3.01 -9.425,3.01c-4.083,0 -7.551,-1.426 -10.402,-4.277c-2.851,-2.852 -4.277,-6.354 -4.277,-10.508c0,-4.084 1.303,-7.525 3.907,-10.323c2.605,-2.799 5.562,-4.198 8.871,-4.198c2.112,0 4.981,0.898 8.607,2.693c-1.478,-2.464 -2.438,-4.321 -2.878,-5.571c-0.44,-1.249 -0.66,-2.596 -0.66,-4.039c0,-4.013 1.391,-7.41 4.172,-10.191c2.781,-2.781 6.248,-4.171 10.402,-4.171c4.154,0 7.647,1.39 10.481,4.171c2.834,2.781 4.251,6.09 4.251,9.927c0,3.133 -1.215,6.424 -3.644,9.874c2.957,-1.408 4.735,-2.2 5.333,-2.376c0.951,-0.282 2.025,-0.423 3.221,-0.423c3.521,0 6.574,1.382 9.162,4.145c2.587,2.764 3.881,6.187 3.881,10.271c0,4.224 -1.417,7.77 -4.251,10.639c-2.834,2.869 -6.239,4.304 -10.217,4.304c-2.218,0 -4.497,-0.537 -6.838,-1.611c-2.341,-1.073 -4.374,-2.508 -6.099,-4.303c-1.232,-1.303 -2.763,-3.503 -4.594,-6.6c0.141,5.597 0.995,10.023 2.561,13.279c1.567,3.257 3.969,5.958 7.208,8.106c2.182,1.443 6.107,2.71 11.775,3.801l0.422,1.796Z"/></g><g id="Club7" serif:id="Club"><path d="M229.766,270.107l-44.776,0l0.422,-1.796c5.809,-1.232 9.663,-2.446 11.564,-3.643c2.851,-1.795 5.183,-4.453 6.996,-7.973c1.813,-3.52 2.72,-7.234 2.72,-11.142c0,-0.563 -0.018,-1.372 -0.053,-2.428c-2.147,4.365 -4.761,7.55 -7.841,9.557c-3.08,2.006 -6.222,3.01 -9.426,3.01c-4.083,0 -7.55,-1.426 -10.402,-4.277c-2.851,-2.852 -4.277,-6.354 -4.277,-10.508c0,-4.084 1.303,-7.525 3.908,-10.323c2.605,-2.799 5.562,-4.198 8.871,-4.198c2.112,0 4.981,0.898 8.606,2.693c-1.478,-2.464 -2.437,-4.321 -2.877,-5.571c-0.44,-1.249 -0.66,-2.596 -0.66,-4.039c0,-4.013 1.39,-7.41 4.171,-10.191c2.781,-2.781 6.248,-4.171 10.402,-4.171c4.154,0 7.648,1.39 10.481,4.171c2.834,2.781 4.251,6.09 4.251,9.927c0,3.133 -1.214,6.424 -3.643,9.874c2.957,-1.408 4.734,-2.2 5.333,-2.376c0.95,-0.282 2.024,-0.423 3.221,-0.423c3.52,0 6.574,1.382 9.161,4.145c2.587,2.764 3.881,6.187 3.881,10.271c0,4.224 -1.417,7.77 -4.251,10.639c-2.833,2.869 -6.239,4.304 -10.217,4.304c-2.218,0 -4.497,-0.537 -6.838,-1.611c-2.341,-1.073 -4.374,-2.508 -6.099,-4.303c-1.232,-1.303 -2.763,-3.503 -4.593,-6.6c0.14,5.597 0.994,10.023 2.56,13.279c1.567,3.257 3.969,5.958 7.208,8.106c2.183,1.443 6.108,2.71 11.775,3.801l0.422,1.796Z"/></g><g id="Club8" serif:id="Club"><path d="M115.274,345.32l-44.776,0l0.422,-1.795c5.808,-1.232 9.663,-2.447 11.564,-3.644c2.851,-1.795 5.183,-4.453 6.996,-7.973c1.813,-3.52 2.719,-7.234 2.719,-11.141c0,-0.563 -0.017,-1.373 -0.052,-2.429c-2.148,4.365 -4.761,7.551 -7.842,9.557c-3.08,2.007 -6.221,3.01 -9.425,3.01c-4.083,0 -7.551,-1.426 -10.402,-4.277c-2.851,-2.852 -4.277,-6.354 -4.277,-10.508c0,-4.083 1.303,-7.524 3.907,-10.323c2.605,-2.798 5.562,-4.198 8.871,-4.198c2.112,0 4.981,0.898 8.607,2.693c-1.478,-2.464 -2.438,-4.321 -2.878,-5.57c-0.44,-1.25 -0.66,-2.596 -0.66,-4.04c0,-4.013 1.391,-7.41 4.172,-10.191c2.781,-2.781 6.248,-4.171 10.402,-4.171c4.154,0 7.647,1.39 10.481,4.171c2.834,2.781 4.251,6.09 4.251,9.927c0,3.133 -1.215,6.425 -3.644,9.874c2.957,-1.408 4.735,-2.2 5.333,-2.376c0.951,-0.281 2.025,-0.422 3.221,-0.422c3.521,0 6.574,1.381 9.162,4.145c2.587,2.763 3.881,6.187 3.881,10.27c0,4.224 -1.417,7.771 -4.251,10.64c-2.834,2.869 -6.239,4.303 -10.217,4.303c-2.218,0 -4.497,-0.537 -6.838,-1.61c-2.341,-1.074 -4.374,-2.509 -6.099,-4.304c-1.232,-1.302 -2.763,-3.502 -4.594,-6.6c0.141,5.597 0.995,10.024 2.561,13.28c1.567,3.256 3.969,5.958 7.208,8.105c2.182,1.443 6.107,2.71 11.775,3.802l0.422,1.795Z"/></g><g id="Club9" serif:id="Club"><path d="M229.766,345.32l-44.776,0l0.422,-1.795c5.809,-1.232 9.663,-2.447 11.564,-3.644c2.851,-1.795 5.183,-4.453 6.996,-7.973c1.813,-3.52 2.72,-7.234 2.72,-11.141c0,-0.563 -0.018,-1.373 -0.053,-2.429c-2.147,4.365 -4.761,7.551 -7.841,9.557c-3.08,2.007 -6.222,3.01 -9.426,3.01c-4.083,0 -7.55,-1.426 -10.402,-4.277c-2.851,-2.852 -4.277,-6.354 -4.277,-10.508c0,-4.083 1.303,-7.524 3.908,-10.323c2.605,-2.798 5.562,-4.198 8.871,-4.198c2.112,0 4.981,0.898 8.606,2.693c-1.478,-2.464 -2.437,-4.321 -2.877,-5.57c-0.44,-1.25 -0.66,-2.596 -0.66,-4.04c0,-4.013 1.39,-7.41 4.171,-10.191c2.781,-2.781 6.248,-4.171 10.402,-4.171c4.154,0 7.648,1.39 10.481,4.171c2.834,2.781 4.251,6.09 4.251,9.927c0,3.133 -1.214,6.425 -3.643,9.874c2.957,-1.408 4.734,-2.2 5.333,-2.376c0.95,-0.281 2.024,-0.422 3.221,-0.422c3.52,0 6.574,1.381 9.161,4.145c2.587,2.763 3.881,6.187 3.881,10.27c0,4.224 -1.417,7.771 -4.251,10.64c-2.833,2.869 -6.239,4.303 -10.217,4.303c-2.218,0 -4.497,-0.537 -6.838,-1.61c-2.341,-1.074 -4.374,-2.509 -6.099,-4.304c-1.232,-1.302 -2.763,-3.502 -4.593,-6.6c0.14,5.597 0.994,10.024 2.56,13.28c1.567,3.256 3.969,5.958 7.208,8.105c2.183,1.443 6.108,2.71 11.775,3.802l0.422,1.795Z"/></g></svg>