<?xml version="1.0" encoding="UTF-8" standalone="no"?><!DOCTYPE svg PUBLIC "-//W3C//DTD SVG 1.1//EN" "http://www.w3.org/Graphics/SVG/1.1/DTD/svg11.dtd"><svg width="100%" height="100%" viewBox="0 0 300 400" version="1.1" xmlns="http://www.w3.org/2000/svg" xmlns:xlink="http://www.w3.org/1999/xlink" xml:space="preserve" xmlns:serif="http://www.serif.com/" style="fill-rule:evenodd;clip-rule:evenodd;stroke-linejoin:round;stroke-miterlimit:2;"><rect id="C-2" x="0" y="0" width="300" height="400" style="fill:none;"/><path d="M22.28,71.93l29.598,0l0,-7.444l-19.839,0l16.704,-20.943c2.09,-2.659 3.135,-5.699 3.135,-9.118c-0.048,-4.274 -1.484,-7.8 -4.31,-10.578c-2.778,-2.802 -6.399,-4.227 -10.863,-4.274c-3.99,0.047 -7.349,1.448 -10.08,4.202c-2.707,2.826 -4.156,6.4 -4.345,10.721l7.408,0c0.261,-2.374 1.092,-4.214 2.493,-5.52c1.354,-1.306 3.051,-1.959 5.094,-1.959c2.303,0.047 4.084,0.795 5.342,2.244c1.211,1.448 1.817,3.146 1.817,5.093c0,0.736 -0.095,1.52 -0.285,2.351c-0.285,0.878 -0.819,1.828 -1.603,2.849l-20.266,25.36l0,7.016Z" style="fill-rule:nonzero;"/><path d="M277.72,328.07l-29.598,0l0,7.444l19.839,0l-16.704,20.943c-2.09,2.659 -3.135,5.699 -3.135,9.118c0.048,4.274 1.484,7.8 4.31,10.578c2.778,2.802 6.399,4.227 10.863,4.274c3.99,-0.047 7.349,-1.448 10.08,-4.202c2.707,-2.826 4.156,-6.4 4.345,-10.721l-7.408,0c-0.261,2.374 -1.092,4.214 -2.493,5.52c-1.354,1.306 -3.051,1.959 -5.094,1.959c-2.303,-0.047 -4.084,-0.795 -5.342,-2.244c-1.211,-1.448 -1.817,-3.146 -1.817,-5.093c0,-0.736 0.095,-1.52 0.285,-2.351c0.285,-0.878 0.819,-1.828 1.603,-2.849l20.266,-25.36l0,-7.016Z" style="fill-rule:nonzero;"/><g id="Club"><path d="M172.52,134.893l-44.776,0l0.422,-1.795c5.808,-1.232 9.663,-2.446 11.564,-3.643c2.851,-1.796 5.183,-4.453 6.996,-7.974c1.813,-3.52 2.72,-7.233 2.72,-11.141c0,-0.563 -0.018,-1.373 -0.053,-2.429c-2.148,4.365 -4.761,7.551 -7.841,9.557c-3.081,2.007 -6.222,3.01 -9.426,3.01c-4.083,0 -7.55,-1.425 -10.402,-4.277c-2.851,-2.851 -4.277,-6.354 -4.277,-10.507c0,-4.084 1.303,-7.525 3.908,-10.323c2.605,-2.799 5.561,-4.198 8.87,-4.198c2.113,0 4.981,0.897 8.607,2.693c-1.478,-2.464 -2.437,-4.321 -2.877,-5.571c-0.441,-1.25 -0.661,-2.596 -0.661,-4.039c0,-4.013 1.391,-7.41 4.172,-10.191c2.781,-2.781 6.248,-4.172 10.402,-4.172c4.154,0 7.648,1.391 10.481,4.172c2.834,2.781 4.251,6.09 4.251,9.927c0,3.133 -1.215,6.424 -3.643,9.874c2.956,-1.408 4.734,-2.2 5.333,-2.376c0.95,-0.282 2.024,-0.423 3.221,-0.423c3.52,0 6.573,1.382 9.161,4.145c2.587,2.764 3.881,6.187 3.881,10.27c0,4.225 -1.417,7.771 -4.251,10.64c-2.834,2.869 -6.239,4.303 -10.217,4.303c-2.218,0 -4.497,-0.536 -6.838,-1.61c-2.341,-1.074 -4.374,-2.508 -6.099,-4.303c-1.232,-1.303 -2.763,-3.503 -4.594,-6.601c0.141,5.597 0.995,10.024 2.561,13.28c1.567,3.256 3.969,5.958 7.208,8.105c2.182,1.444 6.107,2.711 11.775,3.802l0.422,1.795Z"/></g><g id="Club1" serif:id="Club"><path d="M172.52,330.107l-44.776,0l0.422,-1.796c5.808,-1.232 9.663,-2.446 11.564,-3.643c2.851,-1.795 5.183,-4.453 6.996,-7.973c1.813,-3.52 2.72,-7.234 2.72,-11.142c0,-0.563 -0.018,-1.372 -0.053,-2.428c-2.148,4.365 -4.761,7.55 -7.841,9.557c-3.081,2.006 -6.222,3.01 -9.426,3.01c-4.083,0 -7.55,-1.426 -10.402,-4.277c-2.851,-2.852 -4.277,-6.354 -4.277,-10.508c0,-4.084 1.303,-7.525 3.908,-10.323c2.605,-2.799 5.561,-4.198 8.87,-4.198c2.113,0 4.981,0.898 8.607,2.693c-1.478,-2.464 -2.437,-4.321 -2.877,-5.571c-0.441,-1.249 -0.661,-2.596 -0.661,-4.039c0,-4.013 1.391,-7.41 4.172,-10.191c2.781,-2.781 6.248,-4.171 10.402,-4.171c4.154,0 7.648,1.39 10.481,4.171c2.834,2.781 4.251,6.09 4.251,9.927c0,3.133 -1.215,6.424 -3.643,9.874c2.956,-1.408 4.734,-2.2 5.333,-2.376c0.95,-0.282 2.024,-0.423 3.221,-0.423c3.52,0 6.573,1.382 9.161,4.145c2.587,2.764 3.881,6.187 3.881,10.271c0,4.224 -1.417,7.77 -4.251,10.639c-2.834,2.869 -6.239,4.304 -10.217,4.304c-2.218,0 -4.497,-0.537 -6.838,-1.611c-2.341,-1.073 -4.374,-2.508 -6.099,-4.303c-1.232,-1.303 -2.763,-3.503 -4.594,-6.6c0.141,5.597 0.995,10.023 2.561,13.279c1.567,3.257 3.969,5.958 7.208,8.106c2.182,1.443 6.107,2.71 11.775,3.801l0.422,1.796Z"/></g></svg>