<?xml version="1.0" encoding="UTF-8" standalone="no"?><!DOCTYPE svg PUBLIC "-//W3C//DTD SVG 1.1//EN" "http://www.w3.org/Graphics/SVG/1.1/DTD/svg11.dtd"><svg width="100%" height="100%" viewBox="0 0 300 400" version="1.1" xmlns="http://www.w3.org/2000/svg" xmlns:xlink="http://www.w3.org/1999/xlink" xml:space="preserve" xmlns:serif="http://www.serif.com/" style="fill-rule:evenodd;clip-rule:evenodd;stroke-linejoin:round;stroke-miterlimit:2;"><rect id="C-3" x="0" y="0" width="300" height="400" style="fill:none;"/><path d="M32.751,48.458l3.134,0c2.304,0 4.203,0.701 5.699,2.102c1.52,1.448 2.304,3.49 2.351,6.126c-0.047,2.588 -0.831,4.583 -2.351,5.984c-1.496,1.496 -3.336,2.244 -5.52,2.244c-2.043,0 -3.681,-0.558 -4.916,-1.674c-1.211,-1.069 -2.149,-2.47 -2.813,-4.203l-7.445,0c0.808,4.322 2.577,7.622 5.307,9.902c2.731,2.279 5.865,3.419 9.404,3.419c4.582,-0.048 8.334,-1.508 11.255,-4.381c2.968,-2.802 4.476,-6.637 4.523,-11.505c0,-2.184 -0.463,-4.274 -1.389,-6.268c-0.974,-1.995 -2.553,-3.704 -4.737,-5.129c2.137,-1.449 3.621,-3.099 4.452,-4.951c0.712,-1.852 1.069,-3.776 1.069,-5.77c-0.048,-3.942 -1.401,-7.361 -4.061,-10.258c-2.778,-2.968 -6.53,-4.476 -11.255,-4.523c-3.728,0.047 -6.934,1.377 -9.617,3.989c-2.73,2.635 -4.286,5.877 -4.666,9.723l7.444,0c0.475,-2.137 1.401,-3.716 2.779,-4.737c1.306,-1.021 2.754,-1.531 4.345,-1.531c2.208,0.047 4.013,0.748 5.414,2.101c1.401,1.401 2.125,3.194 2.173,5.378c0,2.161 -0.701,3.918 -2.102,5.272c-1.401,1.401 -3.372,2.101 -5.912,2.101l-2.565,0l0,6.589Z" style="fill-rule:nonzero;"/><path d="M267.249,351.542l-3.134,0c-2.304,0 -4.203,-0.701 -5.699,-2.102c-1.52,-1.448 -2.304,-3.49 -2.351,-6.126c0.047,-2.588 0.831,-4.583 2.351,-5.984c1.496,-1.496 3.336,-2.244 5.52,-2.244c2.043,0 3.681,0.558 4.916,1.674c1.211,1.069 2.149,2.47 2.813,4.203l7.445,0c-0.808,-4.322 -2.577,-7.622 -5.307,-9.902c-2.731,-2.279 -5.865,-3.419 -9.404,-3.419c-4.582,0.048 -8.334,1.508 -11.255,4.381c-2.968,2.802 -4.476,6.637 -4.523,11.505c0,2.184 0.463,4.274 1.389,6.268c0.974,1.995 2.553,3.704 4.737,5.129c-2.137,1.449 -3.621,3.099 -4.452,4.951c-0.712,1.852 -1.069,3.776 -1.069,5.77c0.048,3.942 1.401,7.361 4.061,10.258c2.778,2.968 6.53,4.476 11.255,4.523c3.728,-0.047 6.934,-1.377 9.617,-3.989c2.73,-2.635 4.286,-5.877 4.666,-9.723l-7.444,0c-0.475,2.137 -1.401,3.716 -2.779,4.737c-1.306,1.021 -2.754,1.531 -4.345,1.531c-2.208,-0.047 -4.013,-0.748 -5.414,-2.101c-1.401,-1.401 -2.125,-3.194 -2.173,-5.378c0,-2.161 0.701,-3.918 2.102,-5.272c1.401,-1.401 3.372,-2.101 5.912,-2.101l2.565,0l0,-6.589Z" style="fill-rule:nonzero;"/><g id="Club"><path d="M172.52,134.893l-44.776,0l0.422,-1.795c5.808,-1.232 9.663,-2.446 11.564,-3.643c2.851,-1.796 5.183,-4.453 6.996,-7.974c1.813,-3.52 2.72,-7.233 2.72,-11.141c0,-0.563 -0.018,-1.373 -0.053,-2.429c-2.148,4.365 -4.761,7.551 -7.841,9.557c-3.081,2.007 -6.222,3.01 -9.426,3.01c-4.083,0 -7.55,-1.425 -10.402,-4.277c-2.851,-2.851 -4.277,-6.354 -4.277,-10.507c0,-4.084 1.303,-7.525 3.908,-10.323c2.605,-2.799 5.561,-4.198 8.87,-4.198c2.113,0 4.981,0.897 8.607,2.693c-1.478,-2.464 -2.437,-4.321 -2.877,-5.571c-0.441,-1.25 -0.661,-2.596 -0.661,-4.039c0,-4.013 1.391,-7.41 4.172,-10.191c2.781,-2.781 6.248,-4.172 10.402,-4.172c4.154,0 7.648,1.391 10.481,4.172c2.834,2.781 4.251,6.09 4.251,9.927c0,3.133 -1.215,6.424 -3.643,9.874c2.956,-1.408 4.734,-2.2 5.333,-2.376c0.95,-0.282 2.024,-0.423 3.221,-0.423c3.52,0 6.573,1.382 9.161,4.145c2.587,2.764 3.881,6.187 3.881,10.27c0,4.225 -1.417,7.771 -4.251,10.64c-2.834,2.869 -6.239,4.303 -10.217,4.303c-2.218,0 -4.497,-0.536 -6.838,-1.61c-2.341,-1.074 -4.374,-2.508 -6.099,-4.303c-1.232,-1.303 -2.763,-3.503 -4.594,-6.601c0.141,5.597 0.995,10.024 2.561,13.28c1.567,3.256 3.969,5.958 7.208,8.105c2.182,1.444 6.107,2.711 11.775,3.802l0.422,1.795Z" style="fill-rule:nonzero;"/></g><g id="Club1" serif:id="Club"><path d="M172.52,232.5l-44.776,0l0.422,-1.795c5.808,-1.232 9.663,-2.447 11.564,-3.644c2.851,-1.795 5.183,-4.453 6.996,-7.973c1.813,-3.52 2.72,-7.234 2.72,-11.141c0,-0.563 -0.018,-1.373 -0.053,-2.429c-2.148,4.365 -4.761,7.551 -7.841,9.557c-3.081,2.007 -6.222,3.01 -9.426,3.01c-4.083,0 -7.55,-1.426 -10.402,-4.277c-2.851,-2.851 -4.277,-6.354 -4.277,-10.508c0,-4.083 1.303,-7.524 3.908,-10.323c2.605,-2.798 5.561,-4.198 8.87,-4.198c2.113,0 4.981,0.898 8.607,2.693c-1.478,-2.464 -2.437,-4.321 -2.877,-5.57c-0.441,-1.25 -0.661,-2.596 -0.661,-4.04c0,-4.013 1.391,-7.41 4.172,-10.191c2.781,-2.781 6.248,-4.171 10.402,-4.171c4.154,0 7.648,1.39 10.481,4.171c2.834,2.781 4.251,6.09 4.251,9.927c0,3.133 -1.215,6.425 -3.643,9.874c2.956,-1.408 4.734,-2.2 5.333,-2.376c0.95,-0.281 2.024,-0.422 3.221,-0.422c3.52,0 6.573,1.382 9.161,4.145c2.587,2.763 3.881,6.187 3.881,10.27c0,4.224 -1.417,7.771 -4.251,10.64c-2.834,2.869 -6.239,4.303 -10.217,4.303c-2.218,0 -4.497,-0.537 -6.838,-1.61c-2.341,-1.074 -4.374,-2.509 -6.099,-4.304c-1.232,-1.302 -2.763,-3.502 -4.594,-6.6c0.141,5.597 0.995,10.024 2.561,13.28c1.567,3.256 3.969,5.958 7.208,8.105c2.182,1.443 6.107,2.71 11.775,3.802l0.422,1.795Z" style="fill-rule:nonzero;"/></g><g id="Club2" serif:id="Club"><path d="M172.52,330.107l-44.776,0l0.422,-1.796c5.808,-1.232 9.663,-2.446 11.564,-3.643c2.851,-1.795 5.183,-4.453 6.996,-7.973c1.813,-3.52 2.72,-7.234 2.72,-11.142c0,-0.563 -0.018,-1.372 -0.053,-2.428c-2.148,4.365 -4.761,7.55 -7.841,9.557c-3.081,2.006 -6.222,3.01 -9.426,3.01c-4.083,0 -7.55,-1.426 -10.402,-4.277c-2.851,-2.852 -4.277,-6.354 -4.277,-10.508c0,-4.084 1.303,-7.525 3.908,-10.323c2.605,-2.799 5.561,-4.198 8.87,-4.198c2.113,0 4.981,0.898 8.607,2.693c-1.478,-2.464 -2.437,-4.321 -2.877,-5.571c-0.441,-1.249 -0.661,-2.596 -0.661,-4.039c0,-4.013 1.391,-7.41 4.172,-10.191c2.781,-2.781 6.248,-4.171 10.402,-4.171c4.154,0 7.648,1.39 10.481,4.171c2.834,2.781 4.251,6.09 4.251,9.927c0,3.133 -1.215,6.424 -3.643,9.874c2.956,-1.408 4.734,-2.2 5.333,-2.376c0.95,-0.282 2.024,-0.423 3.221,-0.423c3.52,0 6.573,1.382 9.161,4.145c2.587,2.764 3.881,6.187 3.881,10.271c0,4.224 -1.417,7.77 -4.251,10.639c-2.834,2.869 -6.239,4.304 -10.217,4.304c-2.218,0 -4.497,-0.537 -6.838,-1.611c-2.341,-1.073 -4.374,-2.508 -6.099,-4.303c-1.232,-1.303 -2.763,-3.503 -4.594,-6.6c0.141,5.597 0.995,10.023 2.561,13.279c1.567,3.257 3.969,5.958 7.208,8.106c2.182,1.443 6.107,2.71 11.775,3.801l0.422,1.796Z" style="fill-rule:nonzero;"/></g></svg>