<?xml version="1.0" encoding="UTF-8" standalone="no"?><!DOCTYPE svg PUBLIC "-//W3C//DTD SVG 1.1//EN" "http://www.w3.org/Graphics/SVG/1.1/DTD/svg11.dtd"><svg width="100%" height="100%" viewBox="0 0 300 400" version="1.1" xmlns="http://www.w3.org/2000/svg" xmlns:xlink="http://www.w3.org/1999/xlink" xml:space="preserve" xmlns:serif="http://www.serif.com/" style="fill-rule:evenodd;clip-rule:evenodd;stroke-linejoin:round;stroke-miterlimit:2;"><rect id="C-5" x="0" y="0" width="300" height="400" style="fill:none;"/><path d="M20.926,48.067l7.017,0c0.878,-1.591 1.876,-2.707 2.992,-3.348c1.116,-0.618 2.35,-0.926 3.704,-0.926c1.52,0 2.79,0.213 3.811,0.641c1.021,0.522 1.793,1.223 2.315,2.101c0.974,1.852 1.437,4.262 1.389,7.23c0,1.211 -0.024,2.458 -0.071,3.74c-0.095,1.306 -0.356,2.517 -0.784,3.633c-0.403,1.116 -1.116,2.019 -2.137,2.707c-1.068,0.713 -2.493,1.069 -4.274,1.069c-4.155,-0.048 -6.637,-2.066 -7.444,-6.055l-7.444,0c0.712,4.773 2.553,8.227 5.521,10.365c2.92,2.089 6.138,3.134 9.652,3.134c2.612,-0.048 4.868,-0.653 6.767,-1.817c1.948,-1.116 3.432,-2.35 4.453,-3.704c1.163,-1.377 1.994,-2.956 2.493,-4.737c0.475,-1.805 0.712,-4.393 0.712,-7.765c0,-2.184 -0.071,-4.024 -0.213,-5.52c-0.143,-1.473 -0.38,-2.719 -0.713,-3.74c-0.641,-1.876 -1.686,-3.526 -3.134,-4.951c-0.974,-1.069 -2.244,-1.971 -3.811,-2.707c-1.662,-0.665 -3.491,-1.021 -5.485,-1.069c-3.111,0 -5.877,0.95 -8.299,2.85l0,-11.754l20.658,0l0,-7.444l-27.675,0l0,28.067Z" style="fill-rule:nonzero;"/><path d="M279.074,351.933l-7.017,0c-0.878,1.591 -1.876,2.707 -2.992,3.348c-1.116,0.618 -2.35,0.926 -3.704,0.926c-1.52,0 -2.79,-0.213 -3.811,-0.641c-1.021,-0.522 -1.793,-1.223 -2.315,-2.101c-0.974,-1.852 -1.437,-4.262 -1.389,-7.23c0,-1.211 0.024,-2.458 0.071,-3.74c0.095,-1.306 0.356,-2.517 0.784,-3.633c0.403,-1.116 1.116,-2.019 2.137,-2.707c1.068,-0.713 2.493,-1.069 4.274,-1.069c4.155,0.048 6.637,2.066 7.444,6.055l7.444,0c-0.712,-4.773 -2.553,-8.227 -5.521,-10.365c-2.92,-2.089 -6.138,-3.134 -9.652,-3.134c-2.612,0.048 -4.868,0.653 -6.767,1.817c-1.948,1.116 -3.432,2.35 -4.453,3.704c-1.163,1.377 -1.994,2.956 -2.493,4.737c-0.475,1.805 -0.712,4.393 -0.712,7.765c0,2.184 0.071,4.024 0.213,5.52c0.143,1.473 0.38,2.719 0.713,3.74c0.641,1.876 1.686,3.526 3.134,4.951c0.974,1.069 2.244,1.971 3.811,2.707c1.662,0.665 3.491,1.021 5.485,1.069c3.111,0 5.877,-0.95 8.299,-2.85l0,11.754l-20.658,0l0,7.444l27.675,0l0,-28.067Z" style="fill-rule:nonzero;"/><g id="Club"><path d="M115.274,134.893l-44.776,0l0.422,-1.795c5.808,-1.232 9.663,-2.446 11.564,-3.643c2.851,-1.796 5.183,-4.453 6.996,-7.974c1.813,-3.52 2.719,-7.233 2.719,-11.141c0,-0.563 -0.017,-1.373 -0.052,-2.429c-2.148,4.365 -4.761,7.551 -7.842,9.557c-3.08,2.007 -6.221,3.01 -9.425,3.01c-4.083,0 -7.551,-1.425 -10.402,-4.277c-2.851,-2.851 -4.277,-6.354 -4.277,-10.507c0,-4.084 1.303,-7.525 3.907,-10.323c2.605,-2.799 5.562,-4.198 8.871,-4.198c2.112,0 4.981,0.897 8.607,2.693c-1.478,-2.464 -2.438,-4.321 -2.878,-5.571c-0.44,-1.25 -0.66,-2.596 -0.66,-4.039c0,-4.013 1.391,-7.41 4.172,-10.191c2.781,-2.781 6.248,-4.172 10.402,-4.172c4.154,0 7.647,1.391 10.481,4.172c2.834,2.781 4.251,6.09 4.251,9.927c0,3.133 -1.215,6.424 -3.644,9.874c2.957,-1.408 4.735,-2.2 5.333,-2.376c0.951,-0.282 2.025,-0.423 3.221,-0.423c3.521,0 6.574,1.382 9.162,4.145c2.587,2.764 3.881,6.187 3.881,10.27c0,4.225 -1.417,7.771 -4.251,10.64c-2.834,2.869 -6.239,4.303 -10.217,4.303c-2.218,0 -4.497,-0.536 -6.838,-1.61c-2.341,-1.074 -4.374,-2.508 -6.099,-4.303c-1.232,-1.303 -2.763,-3.503 -4.594,-6.601c0.141,5.597 0.995,10.024 2.561,13.28c1.567,3.256 3.969,5.958 7.208,8.105c2.182,1.444 6.107,2.711 11.775,3.802l0.422,1.795Z"/></g><g id="Club1" serif:id="Club"><path d="M229.766,134.893l-44.776,0l0.422,-1.795c5.809,-1.232 9.663,-2.446 11.564,-3.643c2.851,-1.796 5.183,-4.453 6.996,-7.974c1.813,-3.52 2.72,-7.233 2.72,-11.141c0,-0.563 -0.018,-1.373 -0.053,-2.429c-2.147,4.365 -4.761,7.551 -7.841,9.557c-3.08,2.007 -6.222,3.01 -9.426,3.01c-4.083,0 -7.55,-1.425 -10.402,-4.277c-2.851,-2.851 -4.277,-6.354 -4.277,-10.507c0,-4.084 1.303,-7.525 3.908,-10.323c2.605,-2.799 5.562,-4.198 8.871,-4.198c2.112,0 4.981,0.897 8.606,2.693c-1.478,-2.464 -2.437,-4.321 -2.877,-5.571c-0.44,-1.25 -0.66,-2.596 -0.66,-4.039c0,-4.013 1.39,-7.41 4.171,-10.191c2.781,-2.781 6.248,-4.172 10.402,-4.172c4.154,0 7.648,1.391 10.481,4.172c2.834,2.781 4.251,6.09 4.251,9.927c0,3.133 -1.214,6.424 -3.643,9.874c2.957,-1.408 4.734,-2.2 5.333,-2.376c0.95,-0.282 2.024,-0.423 3.221,-0.423c3.52,0 6.574,1.382 9.161,4.145c2.587,2.764 3.881,6.187 3.881,10.27c0,4.225 -1.417,7.771 -4.251,10.64c-2.833,2.869 -6.239,4.303 -10.217,4.303c-2.218,0 -4.497,-0.536 -6.838,-1.61c-2.341,-1.074 -4.374,-2.508 -6.099,-4.303c-1.232,-1.303 -2.763,-3.503 -4.593,-6.601c0.14,5.597 0.994,10.024 2.56,13.28c1.567,3.256 3.969,5.958 7.208,8.105c2.183,1.444 6.108,2.711 11.775,3.802l0.422,1.795Z"/></g><g id="Club2" serif:id="Club"><path d="M172.52,232.5l-44.776,0l0.422,-1.795c5.808,-1.232 9.663,-2.447 11.564,-3.644c2.851,-1.795 5.183,-4.453 6.996,-7.973c1.813,-3.52 2.72,-7.234 2.72,-11.141c0,-0.563 -0.018,-1.373 -0.053,-2.429c-2.148,4.365 -4.761,7.551 -7.841,9.557c-3.081,2.007 -6.222,3.01 -9.426,3.01c-4.083,0 -7.55,-1.426 -10.402,-4.277c-2.851,-2.851 -4.277,-6.354 -4.277,-10.508c0,-4.083 1.303,-7.524 3.908,-10.323c2.605,-2.798 5.561,-4.198 8.87,-4.198c2.113,0 4.981,0.898 8.607,2.693c-1.478,-2.464 -2.437,-4.321 -2.877,-5.57c-0.441,-1.25 -0.661,-2.596 -0.661,-4.04c0,-4.013 1.391,-7.41 4.172,-10.191c2.781,-2.781 6.248,-4.171 10.402,-4.171c4.154,0 7.648,1.39 10.481,4.171c2.834,2.781 4.251,6.09 4.251,9.927c0,3.133 -1.215,6.425 -3.643,9.874c2.956,-1.408 4.734,-2.2 5.333,-2.376c0.95,-0.281 2.024,-0.422 3.221,-0.422c3.52,0 6.573,1.382 9.161,4.145c2.587,2.763 3.881,6.187 3.881,10.27c0,4.224 -1.417,7.771 -4.251,10.64c-2.834,2.869 -6.239,4.303 -10.217,4.303c-2.218,0 -4.497,-0.537 -6.838,-1.61c-2.341,-1.074 -4.374,-2.509 -6.099,-4.304c-1.232,-1.302 -2.763,-3.502 -4.594,-6.6c0.141,5.597 0.995,10.024 2.561,13.28c1.567,3.256 3.969,5.958 7.208,8.105c2.182,1.443 6.107,2.71 11.775,3.802l0.422,1.795Z"/></g><g id="Club3" serif:id="Club"><path d="M115.274,330.107l-44.776,0l0.422,-1.796c5.808,-1.232 9.663,-2.446 11.564,-3.643c2.851,-1.795 5.183,-4.453 6.996,-7.973c1.813,-3.52 2.719,-7.234 2.719,-11.142c0,-0.563 -0.017,-1.372 -0.052,-2.428c-2.148,4.365 -4.761,7.55 -7.842,9.557c-3.08,2.006 -6.221,3.01 -9.425,3.01c-4.083,0 -7.551,-1.426 -10.402,-4.277c-2.851,-2.852 -4.277,-6.354 -4.277,-10.508c0,-4.084 1.303,-7.525 3.907,-10.323c2.605,-2.799 5.562,-4.198 8.871,-4.198c2.112,0 4.981,0.898 8.607,2.693c-1.478,-2.464 -2.438,-4.321 -2.878,-5.571c-0.44,-1.249 -0.66,-2.596 -0.66,-4.039c0,-4.013 1.391,-7.41 4.172,-10.191c2.781,-2.781 6.248,-4.171 10.402,-4.171c4.154,0 7.647,1.39 10.481,4.171c2.834,2.781 4.251,6.09 4.251,9.927c0,3.133 -1.215,6.424 -3.644,9.874c2.957,-1.408 4.735,-2.2 5.333,-2.376c0.951,-0.282 2.025,-0.423 3.221,-0.423c3.521,0 6.574,1.382 9.162,4.145c2.587,2.764 3.881,6.187 3.881,10.271c0,4.224 -1.417,7.77 -4.251,10.639c-2.834,2.869 -6.239,4.304 -10.217,4.304c-2.218,0 -4.497,-0.537 -6.838,-1.611c-2.341,-1.073 -4.374,-2.508 -6.099,-4.303c-1.232,-1.303 -2.763,-3.503 -4.594,-6.6c0.141,5.597 0.995,10.023 2.561,13.279c1.567,3.257 3.969,5.958 7.208,8.106c2.182,1.443 6.107,2.71 11.775,3.801l0.422,1.796Z"/></g><g id="Club4" serif:id="Club"><path d="M229.766,330.107l-44.776,0l0.422,-1.796c5.809,-1.232 9.663,-2.446 11.564,-3.643c2.851,-1.795 5.183,-4.453 6.996,-7.973c1.813,-3.52 2.72,-7.234 2.72,-11.142c0,-0.563 -0.018,-1.372 -0.053,-2.428c-2.147,4.365 -4.761,7.55 -7.841,9.557c-3.08,2.006 -6.222,3.01 -9.426,3.01c-4.083,0 -7.55,-1.426 -10.402,-4.277c-2.851,-2.852 -4.277,-6.354 -4.277,-10.508c0,-4.084 1.303,-7.525 3.908,-10.323c2.605,-2.799 5.562,-4.198 8.871,-4.198c2.112,0 4.981,0.898 8.606,2.693c-1.478,-2.464 -2.437,-4.321 -2.877,-5.571c-0.44,-1.249 -0.66,-2.596 -0.66,-4.039c0,-4.013 1.39,-7.41 4.171,-10.191c2.781,-2.781 6.248,-4.171 10.402,-4.171c4.154,0 7.648,1.39 10.481,4.171c2.834,2.781 4.251,6.09 4.251,9.927c0,3.133 -1.214,6.424 -3.643,9.874c2.957,-1.408 4.734,-2.2 5.333,-2.376c0.95,-0.282 2.024,-0.423 3.221,-0.423c3.52,0 6.574,1.382 9.161,4.145c2.587,2.764 3.881,6.187 3.881,10.271c0,4.224 -1.417,7.77 -4.251,10.639c-2.833,2.869 -6.239,4.304 -10.217,4.304c-2.218,0 -4.497,-0.537 -6.838,-1.611c-2.341,-1.073 -4.374,-2.508 -6.099,-4.303c-1.232,-1.303 -2.763,-3.503 -4.593,-6.6c0.14,5.597 0.994,10.023 2.56,13.279c1.567,3.257 3.969,5.958 7.208,8.106c2.183,1.443 6.108,2.71 11.775,3.801l0.422,1.796Z"/></g></svg>