<?xml version="1.0" encoding="UTF-8" standalone="no"?><!DOCTYPE svg PUBLIC "-//W3C//DTD SVG 1.1//EN" "http://www.w3.org/Graphics/SVG/1.1/DTD/svg11.dtd"><svg width="100%" height="100%" viewBox="0 0 300 400" version="1.1" xmlns="http://www.w3.org/2000/svg" xmlns:xlink="http://www.w3.org/1999/xlink" xml:space="preserve" xmlns:serif="http://www.serif.com/" style="fill-rule:evenodd;clip-rule:evenodd;stroke-linejoin:round;stroke-miterlimit:2;"><rect id="C-6" x="0" y="0" width="300" height="400" style="fill:none;"/><path d="M22.707,57.398c0.047,4.773 1.579,8.454 4.595,11.042c2.825,2.564 6.197,3.87 10.115,3.918c4.037,-0.048 7.468,-1.354 10.294,-3.918c2.873,-2.588 4.357,-6.269 4.452,-11.042l0,-4.737c0.047,-5.01 -1.093,-8.678 -3.42,-11.005c-2.374,-2.28 -5.271,-3.42 -8.69,-3.42c-3.063,-0.047 -6.364,0.487 -9.902,1.603l0,-4.88c0.095,-5.2 2.517,-7.847 7.266,-7.942c3.372,0.047 5.639,1.496 6.803,4.345l7.658,0c-0.736,-3.823 -2.434,-6.755 -5.094,-8.798c-2.73,-1.994 -5.853,-2.991 -9.367,-2.991c-3.918,0 -7.29,1.282 -10.115,3.846c-3.016,2.589 -4.548,6.281 -4.595,11.077l0,22.902Zm7.444,-4.665c0.095,-5.201 2.517,-7.848 7.266,-7.943c4.725,0.095 7.159,2.742 7.302,7.943l0,4.238c-0.143,5.248 -2.577,7.895 -7.302,7.943c-4.749,-0.048 -7.171,-2.695 -7.266,-7.943l0,-4.238Z" style="fill-rule:nonzero;"/><path d="M277.293,342.602c-0.047,-4.773 -1.579,-8.454 -4.595,-11.042c-2.825,-2.564 -6.197,-3.87 -10.115,-3.918c-4.037,0.048 -7.468,1.354 -10.294,3.918c-2.873,2.588 -4.357,6.269 -4.452,11.042l0,4.737c-0.047,5.01 1.093,8.678 3.42,11.005c2.374,2.28 5.271,3.42 8.69,3.42c3.063,0.047 6.364,-0.487 9.902,-1.603l0,4.88c-0.095,5.2 -2.517,7.847 -7.266,7.942c-3.372,-0.047 -5.639,-1.496 -6.803,-4.345l-7.658,0c0.736,3.823 2.434,6.755 5.094,8.798c2.73,1.994 5.853,2.991 9.367,2.991c3.918,0 7.29,-1.282 10.115,-3.846c3.016,-2.589 4.548,-6.281 4.595,-11.077l0,-22.902Zm-7.444,4.665c-0.095,5.201 -2.517,7.848 -7.266,7.943c-4.725,-0.095 -7.159,-2.742 -7.302,-7.943l0,-4.238c0.143,-5.248 2.577,-7.895 7.302,-7.943c4.749,0.048 7.171,2.695 7.266,7.943l0,4.238Z" style="fill-rule:nonzero;"/><g id="Club"><path d="M115.274,119.68l-44.776,0l0.422,-1.795c5.808,-1.232 9.663,-2.447 11.564,-3.644c2.851,-1.795 5.183,-4.453 6.996,-7.973c1.813,-3.52 2.719,-7.234 2.719,-11.141c0,-0.563 -0.017,-1.373 -0.052,-2.429c-2.148,4.365 -4.761,7.551 -7.842,9.557c-3.08,2.007 -6.221,3.01 -9.425,3.01c-4.083,0 -7.551,-1.426 -10.402,-4.277c-2.851,-2.851 -4.277,-6.354 -4.277,-10.508c0,-4.083 1.303,-7.524 3.907,-10.323c2.605,-2.798 5.562,-4.198 8.871,-4.198c2.112,0 4.981,0.898 8.607,2.693c-1.478,-2.464 -2.438,-4.321 -2.878,-5.57c-0.44,-1.25 -0.66,-2.596 -0.66,-4.04c0,-4.013 1.391,-7.41 4.172,-10.191c2.781,-2.78 6.248,-4.171 10.402,-4.171c4.154,0 7.647,1.391 10.481,4.171c2.834,2.781 4.251,6.09 4.251,9.927c0,3.133 -1.215,6.425 -3.644,9.874c2.957,-1.408 4.735,-2.2 5.333,-2.376c0.951,-0.281 2.025,-0.422 3.221,-0.422c3.521,0 6.574,1.382 9.162,4.145c2.587,2.763 3.881,6.187 3.881,10.27c0,4.224 -1.417,7.771 -4.251,10.64c-2.834,2.869 -6.239,4.303 -10.217,4.303c-2.218,0 -4.497,-0.537 -6.838,-1.61c-2.341,-1.074 -4.374,-2.508 -6.099,-4.304c-1.232,-1.302 -2.763,-3.502 -4.594,-6.6c0.141,5.597 0.995,10.024 2.561,13.28c1.567,3.256 3.969,5.958 7.208,8.105c2.182,1.443 6.107,2.71 11.775,3.802l0.422,1.795Z"/></g><g id="Club1" serif:id="Club"><path d="M115.274,232.5l-44.776,0l0.422,-1.795c5.808,-1.232 9.663,-2.447 11.564,-3.644c2.851,-1.795 5.183,-4.453 6.996,-7.973c1.813,-3.52 2.719,-7.234 2.719,-11.141c0,-0.563 -0.017,-1.373 -0.052,-2.429c-2.148,4.365 -4.761,7.551 -7.842,9.557c-3.08,2.007 -6.221,3.01 -9.425,3.01c-4.083,0 -7.551,-1.426 -10.402,-4.277c-2.851,-2.851 -4.277,-6.354 -4.277,-10.508c0,-4.083 1.303,-7.524 3.907,-10.323c2.605,-2.798 5.562,-4.198 8.871,-4.198c2.112,0 4.981,0.898 8.607,2.693c-1.478,-2.464 -2.438,-4.321 -2.878,-5.57c-0.44,-1.25 -0.66,-2.596 -0.66,-4.04c0,-4.013 1.391,-7.41 4.172,-10.191c2.781,-2.781 6.248,-4.171 10.402,-4.171c4.154,0 7.647,1.39 10.481,4.171c2.834,2.781 4.251,6.09 4.251,9.927c0,3.133 -1.215,6.425 -3.644,9.874c2.957,-1.408 4.735,-2.2 5.333,-2.376c0.951,-0.281 2.025,-0.422 3.221,-0.422c3.521,0 6.574,1.382 9.162,4.145c2.587,2.763 3.881,6.187 3.881,10.27c0,4.224 -1.417,7.771 -4.251,10.64c-2.834,2.869 -6.239,4.303 -10.217,4.303c-2.218,0 -4.497,-0.537 -6.838,-1.61c-2.341,-1.074 -4.374,-2.509 -6.099,-4.304c-1.232,-1.302 -2.763,-3.502 -4.594,-6.6c0.141,5.597 0.995,10.024 2.561,13.28c1.567,3.256 3.969,5.958 7.208,8.105c2.182,1.443 6.107,2.71 11.775,3.802l0.422,1.795Z"/></g><g id="Club2" serif:id="Club"><path d="M115.274,345.32l-44.776,0l0.422,-1.795c5.808,-1.232 9.663,-2.447 11.564,-3.644c2.851,-1.795 5.183,-4.453 6.996,-7.973c1.813,-3.52 2.719,-7.234 2.719,-11.141c0,-0.563 -0.017,-1.373 -0.052,-2.429c-2.148,4.365 -4.761,7.551 -7.842,9.557c-3.08,2.007 -6.221,3.01 -9.425,3.01c-4.083,0 -7.551,-1.426 -10.402,-4.277c-2.851,-2.852 -4.277,-6.354 -4.277,-10.508c0,-4.083 1.303,-7.524 3.907,-10.323c2.605,-2.798 5.562,-4.198 8.871,-4.198c2.112,0 4.981,0.898 8.607,2.693c-1.478,-2.464 -2.438,-4.321 -2.878,-5.57c-0.44,-1.25 -0.66,-2.596 -0.66,-4.04c0,-4.013 1.391,-7.41 4.172,-10.191c2.781,-2.781 6.248,-4.171 10.402,-4.171c4.154,0 7.647,1.39 10.481,4.171c2.834,2.781 4.251,6.09 4.251,9.927c0,3.133 -1.215,6.425 -3.644,9.874c2.957,-1.408 4.735,-2.2 5.333,-2.376c0.951,-0.281 2.025,-0.422 3.221,-0.422c3.521,0 6.574,1.381 9.162,4.145c2.587,2.763 3.881,6.187 3.881,10.27c0,4.224 -1.417,7.771 -4.251,10.64c-2.834,2.869 -6.239,4.303 -10.217,4.303c-2.218,0 -4.497,-0.537 -6.838,-1.61c-2.341,-1.074 -4.374,-2.509 -6.099,-4.304c-1.232,-1.302 -2.763,-3.502 -4.594,-6.6c0.141,5.597 0.995,10.024 2.561,13.28c1.567,3.256 3.969,5.958 7.208,8.105c2.182,1.443 6.107,2.71 11.775,3.802l0.422,1.795Z"/></g><g id="Club3" serif:id="Club"><path d="M229.766,119.68l-44.776,0l0.422,-1.795c5.809,-1.232 9.663,-2.447 11.564,-3.644c2.851,-1.795 5.183,-4.453 6.996,-7.973c1.813,-3.52 2.72,-7.234 2.72,-11.141c0,-0.563 -0.018,-1.373 -0.053,-2.429c-2.147,4.365 -4.761,7.551 -7.841,9.557c-3.08,2.007 -6.222,3.01 -9.426,3.01c-4.083,0 -7.55,-1.426 -10.402,-4.277c-2.851,-2.851 -4.277,-6.354 -4.277,-10.508c0,-4.083 1.303,-7.524 3.908,-10.323c2.605,-2.798 5.562,-4.198 8.871,-4.198c2.112,0 4.981,0.898 8.606,2.693c-1.478,-2.464 -2.437,-4.321 -2.877,-5.57c-0.44,-1.25 -0.66,-2.596 -0.66,-4.04c0,-4.013 1.39,-7.41 4.171,-10.191c2.781,-2.78 6.248,-4.171 10.402,-4.171c4.154,0 7.648,1.391 10.481,4.171c2.834,2.781 4.251,6.09 4.251,9.927c0,3.133 -1.214,6.425 -3.643,9.874c2.957,-1.408 4.734,-2.2 5.333,-2.376c0.95,-0.281 2.024,-0.422 3.221,-0.422c3.52,0 6.574,1.382 9.161,4.145c2.587,2.763 3.881,6.187 3.881,10.27c0,4.224 -1.417,7.771 -4.251,10.64c-2.833,2.869 -6.239,4.303 -10.217,4.303c-2.218,0 -4.497,-0.537 -6.838,-1.61c-2.341,-1.074 -4.374,-2.508 -6.099,-4.304c-1.232,-1.302 -2.763,-3.502 -4.593,-6.6c0.14,5.597 0.994,10.024 2.56,13.28c1.567,3.256 3.969,5.958 7.208,8.105c2.183,1.443 6.108,2.71 11.775,3.802l0.422,1.795Z"/></g><g id="Club4" serif:id="Club"><path d="M229.766,232.5l-44.776,0l0.422,-1.795c5.809,-1.232 9.663,-2.447 11.564,-3.644c2.851,-1.795 5.183,-4.453 6.996,-7.973c1.813,-3.52 2.72,-7.234 2.72,-11.141c0,-0.563 -0.018,-1.373 -0.053,-2.429c-2.147,4.365 -4.761,7.551 -7.841,9.557c-3.08,2.007 -6.222,3.01 -9.426,3.01c-4.083,0 -7.55,-1.426 -10.402,-4.277c-2.851,-2.851 -4.277,-6.354 -4.277,-10.508c0,-4.083 1.303,-7.524 3.908,-10.323c2.605,-2.798 5.562,-4.198 8.871,-4.198c2.112,0 4.981,0.898 8.606,2.693c-1.478,-2.464 -2.437,-4.321 -2.877,-5.57c-0.44,-1.25 -0.66,-2.596 -0.66,-4.04c0,-4.013 1.39,-7.41 4.171,-10.191c2.781,-2.781 6.248,-4.171 10.402,-4.171c4.154,0 7.648,1.39 10.481,4.171c2.834,2.781 4.251,6.09 4.251,9.927c0,3.133 -1.214,6.425 -3.643,9.874c2.957,-1.408 4.734,-2.2 5.333,-2.376c0.95,-0.281 2.024,-0.422 3.221,-0.422c3.52,0 6.574,1.382 9.161,4.145c2.587,2.763 3.881,6.187 3.881,10.27c0,4.224 -1.417,7.771 -4.251,10.64c-2.833,2.869 -6.239,4.303 -10.217,4.303c-2.218,0 -4.497,-0.537 -6.838,-1.61c-2.341,-1.074 -4.374,-2.509 -6.099,-4.304c-1.232,-1.302 -2.763,-3.502 -4.593,-6.6c0.14,5.597 0.994,10.024 2.56,13.28c1.567,3.256 3.969,5.958 7.208,8.105c2.183,1.443 6.108,2.71 11.775,3.802l0.422,1.795Z"/></g><g id="Club5" serif:id="Club"><path d="M229.766,345.32l-44.776,0l0.422,-1.795c5.809,-1.232 9.663,-2.447 11.564,-3.644c2.851,-1.795 5.183,-4.453 6.996,-7.973c1.813,-3.52 2.72,-7.234 2.72,-11.141c0,-0.563 -0.018,-1.373 -0.053,-2.429c-2.147,4.365 -4.761,7.551 -7.841,9.557c-3.08,2.007 -6.222,3.01 -9.426,3.01c-4.083,0 -7.55,-1.426 -10.402,-4.277c-2.851,-2.852 -4.277,-6.354 -4.277,-10.508c0,-4.083 1.303,-7.524 3.908,-10.323c2.605,-2.798 5.562,-4.198 8.871,-4.198c2.112,0 4.981,0.898 8.606,2.693c-1.478,-2.464 -2.437,-4.321 -2.877,-5.57c-0.44,-1.25 -0.66,-2.596 -0.66,-4.04c0,-4.013 1.39,-7.41 4.171,-10.191c2.781,-2.781 6.248,-4.171 10.402,-4.171c4.154,0 7.648,1.39 10.481,4.171c2.834,2.781 4.251,6.09 4.251,9.927c0,3.133 -1.214,6.425 -3.643,9.874c2.957,-1.408 4.734,-2.2 5.333,-2.376c0.95,-0.281 2.024,-0.422 3.221,-0.422c3.52,0 6.574,1.381 9.161,4.145c2.587,2.763 3.881,6.187 3.881,10.27c0,4.224 -1.417,7.771 -4.251,10.64c-2.833,2.869 -6.239,4.303 -10.217,4.303c-2.218,0 -4.497,-0.537 -6.838,-1.61c-2.341,-1.074 -4.374,-2.509 -6.099,-4.304c-1.232,-1.302 -2.763,-3.502 -4.593,-6.6c0.14,5.597 0.994,10.024 2.56,13.28c1.567,3.256 3.969,5.958 7.208,8.105c2.183,1.443 6.108,2.71 11.775,3.802l0.422,1.795Z"/></g></svg>