<?xml version="1.0" encoding="UTF-8" standalone="no"?><!DOCTYPE svg PUBLIC "-//W3C//DTD SVG 1.1//EN" "http://www.w3.org/Graphics/SVG/1.1/DTD/svg11.dtd"><svg width="100%" height="100%" viewBox="0 0 300 400" version="1.1" xmlns="http://www.w3.org/2000/svg" xmlns:xlink="http://www.w3.org/1999/xlink" xml:space="preserve" xmlns:serif="http://www.serif.com/" style="fill-rule:evenodd;clip-rule:evenodd;stroke-linejoin:round;stroke-miterlimit:2;"><rect id="C-7" x="0" y="0" width="300" height="400" style="fill:none;"/><path d="M23.633,34.959l7.444,0l0,-7.515l13.784,0l-17.559,44.486l8.299,0l17.595,-44.486l0,-7.444l-29.563,0l0,14.959Z" style="fill-rule:nonzero;"/><path d="M276.367,365.041l-7.444,0l0,7.515l-13.784,0l17.559,-44.486l-8.299,0l-17.595,44.486l0,7.444l29.563,0l0,-14.959Z" style="fill-rule:nonzero;"/><g id="Club"><path d="M115.274,119.68l-44.776,0l0.422,-1.795c5.808,-1.232 9.663,-2.447 11.564,-3.644c2.851,-1.795 5.183,-4.453 6.996,-7.973c1.813,-3.52 2.719,-7.234 2.719,-11.141c0,-0.563 -0.017,-1.373 -0.052,-2.429c-2.148,4.365 -4.761,7.551 -7.842,9.557c-3.08,2.007 -6.221,3.01 -9.425,3.01c-4.083,0 -7.551,-1.426 -10.402,-4.277c-2.851,-2.851 -4.277,-6.354 -4.277,-10.508c0,-4.083 1.303,-7.524 3.907,-10.323c2.605,-2.798 5.562,-4.198 8.871,-4.198c2.112,0 4.981,0.898 8.607,2.693c-1.478,-2.464 -2.438,-4.321 -2.878,-5.57c-0.44,-1.25 -0.66,-2.596 -0.66,-4.04c0,-4.013 1.391,-7.41 4.172,-10.191c2.781,-2.78 6.248,-4.171 10.402,-4.171c4.154,0 7.647,1.391 10.481,4.171c2.834,2.781 4.251,6.09 4.251,9.927c0,3.133 -1.215,6.425 -3.644,9.874c2.957,-1.408 4.735,-2.2 5.333,-2.376c0.951,-0.281 2.025,-0.422 3.221,-0.422c3.521,0 6.574,1.382 9.162,4.145c2.587,2.763 3.881,6.187 3.881,10.27c0,4.224 -1.417,7.771 -4.251,10.64c-2.834,2.869 -6.239,4.303 -10.217,4.303c-2.218,0 -4.497,-0.537 -6.838,-1.61c-2.341,-1.074 -4.374,-2.508 -6.099,-4.304c-1.232,-1.302 -2.763,-3.502 -4.594,-6.6c0.141,5.597 0.995,10.024 2.561,13.28c1.567,3.256 3.969,5.958 7.208,8.105c2.182,1.443 6.107,2.71 11.775,3.802l0.422,1.795Z"/></g><g id="Club1" serif:id="Club"><path d="M115.274,232.5l-44.776,0l0.422,-1.795c5.808,-1.232 9.663,-2.447 11.564,-3.644c2.851,-1.795 5.183,-4.453 6.996,-7.973c1.813,-3.52 2.719,-7.234 2.719,-11.141c0,-0.563 -0.017,-1.373 -0.052,-2.429c-2.148,4.365 -4.761,7.551 -7.842,9.557c-3.08,2.007 -6.221,3.01 -9.425,3.01c-4.083,0 -7.551,-1.426 -10.402,-4.277c-2.851,-2.851 -4.277,-6.354 -4.277,-10.508c0,-4.083 1.303,-7.524 3.907,-10.323c2.605,-2.798 5.562,-4.198 8.871,-4.198c2.112,0 4.981,0.898 8.607,2.693c-1.478,-2.464 -2.438,-4.321 -2.878,-5.57c-0.44,-1.25 -0.66,-2.596 -0.66,-4.04c0,-4.013 1.391,-7.41 4.172,-10.191c2.781,-2.781 6.248,-4.171 10.402,-4.171c4.154,0 7.647,1.39 10.481,4.171c2.834,2.781 4.251,6.09 4.251,9.927c0,3.133 -1.215,6.425 -3.644,9.874c2.957,-1.408 4.735,-2.2 5.333,-2.376c0.951,-0.281 2.025,-0.422 3.221,-0.422c3.521,0 6.574,1.382 9.162,4.145c2.587,2.763 3.881,6.187 3.881,10.27c0,4.224 -1.417,7.771 -4.251,10.64c-2.834,2.869 -6.239,4.303 -10.217,4.303c-2.218,0 -4.497,-0.537 -6.838,-1.61c-2.341,-1.074 -4.374,-2.509 -6.099,-4.304c-1.232,-1.302 -2.763,-3.502 -4.594,-6.6c0.141,5.597 0.995,10.024 2.561,13.28c1.567,3.256 3.969,5.958 7.208,8.105c2.182,1.443 6.107,2.71 11.775,3.802l0.422,1.795Z"/></g><g id="Club2" serif:id="Club"><path d="M115.274,345.32l-44.776,0l0.422,-1.795c5.808,-1.232 9.663,-2.447 11.564,-3.644c2.851,-1.795 5.183,-4.453 6.996,-7.973c1.813,-3.52 2.719,-7.234 2.719,-11.141c0,-0.563 -0.017,-1.373 -0.052,-2.429c-2.148,4.365 -4.761,7.551 -7.842,9.557c-3.08,2.007 -6.221,3.01 -9.425,3.01c-4.083,0 -7.551,-1.426 -10.402,-4.277c-2.851,-2.852 -4.277,-6.354 -4.277,-10.508c0,-4.083 1.303,-7.524 3.907,-10.323c2.605,-2.798 5.562,-4.198 8.871,-4.198c2.112,0 4.981,0.898 8.607,2.693c-1.478,-2.464 -2.438,-4.321 -2.878,-5.57c-0.44,-1.25 -0.66,-2.596 -0.66,-4.04c0,-4.013 1.391,-7.41 4.172,-10.191c2.781,-2.781 6.248,-4.171 10.402,-4.171c4.154,0 7.647,1.39 10.481,4.171c2.834,2.781 4.251,6.09 4.251,9.927c0,3.133 -1.215,6.425 -3.644,9.874c2.957,-1.408 4.735,-2.2 5.333,-2.376c0.951,-0.281 2.025,-0.422 3.221,-0.422c3.521,0 6.574,1.381 9.162,4.145c2.587,2.763 3.881,6.187 3.881,10.27c0,4.224 -1.417,7.771 -4.251,10.64c-2.834,2.869 -6.239,4.303 -10.217,4.303c-2.218,0 -4.497,-0.537 -6.838,-1.61c-2.341,-1.074 -4.374,-2.509 -6.099,-4.304c-1.232,-1.302 -2.763,-3.502 -4.594,-6.6c0.141,5.597 0.995,10.024 2.561,13.28c1.567,3.256 3.969,5.958 7.208,8.105c2.182,1.443 6.107,2.71 11.775,3.802l0.422,1.795Z"/></g><g id="Club3" serif:id="Club"><path d="M229.766,119.68l-44.776,0l0.422,-1.795c5.809,-1.232 9.663,-2.447 11.564,-3.644c2.851,-1.795 5.183,-4.453 6.996,-7.973c1.813,-3.52 2.72,-7.234 2.72,-11.141c0,-0.563 -0.018,-1.373 -0.053,-2.429c-2.147,4.365 -4.761,7.551 -7.841,9.557c-3.08,2.007 -6.222,3.01 -9.426,3.01c-4.083,0 -7.55,-1.426 -10.402,-4.277c-2.851,-2.851 -4.277,-6.354 -4.277,-10.508c0,-4.083 1.303,-7.524 3.908,-10.323c2.605,-2.798 5.562,-4.198 8.871,-4.198c2.112,0 4.981,0.898 8.606,2.693c-1.478,-2.464 -2.437,-4.321 -2.877,-5.57c-0.44,-1.25 -0.66,-2.596 -0.66,-4.04c0,-4.013 1.39,-7.41 4.171,-10.191c2.781,-2.78 6.248,-4.171 10.402,-4.171c4.154,0 7.648,1.391 10.481,4.171c2.834,2.781 4.251,6.09 4.251,9.927c0,3.133 -1.214,6.425 -3.643,9.874c2.957,-1.408 4.734,-2.2 5.333,-2.376c0.95,-0.281 2.024,-0.422 3.221,-0.422c3.52,0 6.574,1.382 9.161,4.145c2.587,2.763 3.881,6.187 3.881,10.27c0,4.224 -1.417,7.771 -4.251,10.64c-2.833,2.869 -6.239,4.303 -10.217,4.303c-2.218,0 -4.497,-0.537 -6.838,-1.61c-2.341,-1.074 -4.374,-2.508 -6.099,-4.304c-1.232,-1.302 -2.763,-3.502 -4.593,-6.6c0.14,5.597 0.994,10.024 2.56,13.28c1.567,3.256 3.969,5.958 7.208,8.105c2.183,1.443 6.108,2.71 11.775,3.802l0.422,1.795Z"/></g><g id="Club4" serif:id="Club"><path d="M229.766,232.5l-44.776,0l0.422,-1.795c5.809,-1.232 9.663,-2.447 11.564,-3.644c2.851,-1.795 5.183,-4.453 6.996,-7.973c1.813,-3.52 2.72,-7.234 2.72,-11.141c0,-0.563 -0.018,-1.373 -0.053,-2.429c-2.147,4.365 -4.761,7.551 -7.841,9.557c-3.08,2.007 -6.222,3.01 -9.426,3.01c-4.083,0 -7.55,-1.426 -10.402,-4.277c-2.851,-2.851 -4.277,-6.354 -4.277,-10.508c0,-4.083 1.303,-7.524 3.908,-10.323c2.605,-2.798 5.562,-4.198 8.871,-4.198c2.112,0 4.981,0.898 8.606,2.693c-1.478,-2.464 -2.437,-4.321 -2.877,-5.57c-0.44,-1.25 -0.66,-2.596 -0.66,-4.04c0,-4.013 1.39,-7.41 4.171,-10.191c2.781,-2.781 6.248,-4.171 10.402,-4.171c4.154,0 7.648,1.39 10.481,4.171c2.834,2.781 4.251,6.09 4.251,9.927c0,3.133 -1.214,6.425 -3.643,9.874c2.957,-1.408 4.734,-2.2 5.333,-2.376c0.95,-0.281 2.024,-0.422 3.221,-0.422c3.52,0 6.574,1.382 9.161,4.145c2.587,2.763 3.881,6.187 3.881,10.27c0,4.224 -1.417,7.771 -4.251,10.64c-2.833,2.869 -6.239,4.303 -10.217,4.303c-2.218,0 -4.497,-0.537 -6.838,-1.61c-2.341,-1.074 -4.374,-2.509 -6.099,-4.304c-1.232,-1.302 -2.763,-3.502 -4.593,-6.6c0.14,5.597 0.994,10.024 2.56,13.28c1.567,3.256 3.969,5.958 7.208,8.105c2.183,1.443 6.108,2.71 11.775,3.802l0.422,1.795Z"/></g><g id="Club5" serif:id="Club"><path d="M172.52,176.09l-44.776,0l0.422,-1.795c5.808,-1.232 9.663,-2.447 11.564,-3.644c2.851,-1.795 5.183,-4.453 6.996,-7.973c1.813,-3.52 2.72,-7.234 2.72,-11.141c0,-0.563 -0.018,-1.373 -0.053,-2.429c-2.148,4.365 -4.761,7.551 -7.841,9.557c-3.081,2.007 -6.222,3.01 -9.426,3.01c-4.083,0 -7.55,-1.426 -10.402,-4.277c-2.851,-2.851 -4.277,-6.354 -4.277,-10.508c0,-4.083 1.303,-7.524 3.908,-10.323c2.605,-2.798 5.561,-4.198 8.87,-4.198c2.113,0 4.981,0.898 8.607,2.693c-1.478,-2.464 -2.437,-4.321 -2.877,-5.57c-0.441,-1.25 -0.661,-2.596 -0.661,-4.04c0,-4.013 1.391,-7.41 4.172,-10.191c2.781,-2.781 6.248,-4.171 10.402,-4.171c4.154,0 7.648,1.39 10.481,4.171c2.834,2.781 4.251,6.09 4.251,9.927c0,3.133 -1.215,6.425 -3.643,9.874c2.956,-1.408 4.734,-2.2 5.333,-2.376c0.95,-0.281 2.024,-0.422 3.221,-0.422c3.52,0 6.573,1.382 9.161,4.145c2.587,2.763 3.881,6.187 3.881,10.27c0,4.224 -1.417,7.771 -4.251,10.64c-2.834,2.869 -6.239,4.303 -10.217,4.303c-2.218,0 -4.497,-0.537 -6.838,-1.61c-2.341,-1.074 -4.374,-2.508 -6.099,-4.304c-1.232,-1.302 -2.763,-3.502 -4.594,-6.6c0.141,5.597 0.995,10.024 2.561,13.28c1.567,3.256 3.969,5.958 7.208,8.105c2.182,1.443 6.107,2.71 11.775,3.802l0.422,1.795Z"/></g><g id="Club6" serif:id="Club"><path d="M229.766,345.32l-44.776,0l0.422,-1.795c5.809,-1.232 9.663,-2.447 11.564,-3.644c2.851,-1.795 5.183,-4.453 6.996,-7.973c1.813,-3.52 2.72,-7.234 2.72,-11.141c0,-0.563 -0.018,-1.373 -0.053,-2.429c-2.147,4.365 -4.761,7.551 -7.841,9.557c-3.08,2.007 -6.222,3.01 -9.426,3.01c-4.083,0 -7.55,-1.426 -10.402,-4.277c-2.851,-2.852 -4.277,-6.354 -4.277,-10.508c0,-4.083 1.303,-7.524 3.908,-10.323c2.605,-2.798 5.562,-4.198 8.871,-4.198c2.112,0 4.981,0.898 8.606,2.693c-1.478,-2.464 -2.437,-4.321 -2.877,-5.57c-0.44,-1.25 -0.66,-2.596 -0.66,-4.04c0,-4.013 1.39,-7.41 4.171,-10.191c2.781,-2.781 6.248,-4.171 10.402,-4.171c4.154,0 7.648,1.39 10.481,4.171c2.834,2.781 4.251,6.09 4.251,9.927c0,3.133 -1.214,6.425 -3.643,9.874c2.957,-1.408 4.734,-2.2 5.333,-2.376c0.95,-0.281 2.024,-0.422 3.221,-0.422c3.52,0 6.574,1.381 9.161,4.145c2.587,2.763 3.881,6.187 3.881,10.27c0,4.224 -1.417,7.771 -4.251,10.64c-2.833,2.869 -6.239,4.303 -10.217,4.303c-2.218,0 -4.497,-0.537 -6.838,-1.61c-2.341,-1.074 -4.374,-2.509 -6.099,-4.304c-1.232,-1.302 -2.763,-3.502 -4.593,-6.6c0.14,5.597 0.994,10.024 2.56,13.28c1.567,3.256 3.969,5.958 7.208,8.105c2.183,1.443 6.108,2.71 11.775,3.802l0.422,1.795Z"/></g></svg>