<?xml version="1.0" encoding="UTF-8" standalone="no"?><!DOCTYPE svg PUBLIC "-//W3C//DTD SVG 1.1//EN" "http://www.w3.org/Graphics/SVG/1.1/DTD/svg11.dtd"><svg width="100%" height="100%" viewBox="0 0 300 400" version="1.1" xmlns="http://www.w3.org/2000/svg" xmlns:xlink="http://www.w3.org/1999/xlink" xml:space="preserve" xmlns:serif="http://www.serif.com/" style="fill-rule:evenodd;clip-rule:evenodd;stroke-linejoin:round;stroke-miterlimit:2;"><rect id="C-8" x="0" y="0" width="300" height="400" style="fill:none;"/><path d="M28.406,34.853c0.047,-2.47 0.819,-4.334 2.315,-5.592c1.472,-1.211 3.17,-1.817 5.093,-1.817c1.995,0 3.728,0.606 5.2,1.817c1.449,1.258 2.197,3.122 2.244,5.592c-0.047,2.398 -0.795,4.226 -2.244,5.485c-1.472,1.306 -3.205,1.959 -5.2,1.959c-1.923,0 -3.621,-0.653 -5.093,-1.959c-1.496,-1.259 -2.268,-3.087 -2.315,-5.485Zm-8.406,22.332c0.047,4.678 1.627,8.417 4.737,11.219c2.968,2.873 6.661,4.334 11.077,4.381c4.441,-0.047 8.192,-1.508 11.255,-4.381c3.016,-2.802 4.548,-6.541 4.595,-11.219c-0.047,-5.01 -2.09,-8.905 -6.126,-11.683c1.543,-1.353 2.802,-2.909 3.775,-4.666c0.926,-1.638 1.389,-3.585 1.389,-5.841c-0.047,-4.322 -1.46,-7.895 -4.238,-10.721c-2.755,-2.802 -6.304,-4.227 -10.65,-4.274c-4.274,0.047 -7.764,1.472 -10.471,4.274c-2.874,2.826 -4.334,6.399 -4.381,10.721c0,2.256 0.51,4.203 1.531,5.841c0.879,1.757 2.09,3.313 3.633,4.666c-4.036,2.778 -6.079,6.673 -6.126,11.683Zm7.444,-0.071c0.048,-2.422 0.902,-4.393 2.565,-5.913c1.59,-1.496 3.526,-2.268 5.805,-2.315c2.351,0.047 4.322,0.819 5.913,2.315c1.614,1.52 2.445,3.491 2.493,5.913c-0.048,2.374 -0.879,4.321 -2.493,5.841c-1.591,1.591 -3.562,2.386 -5.913,2.386c-2.279,0 -4.215,-0.795 -5.805,-2.386c-1.663,-1.52 -2.517,-3.467 -2.565,-5.841Z" style="fill-rule:nonzero;"/><path d="M271.594,365.147c-0.047,2.47 -0.819,4.334 -2.315,5.592c-1.472,1.211 -3.17,1.817 -5.093,1.817c-1.995,0 -3.728,-0.606 -5.2,-1.817c-1.449,-1.258 -2.197,-3.122 -2.244,-5.592c0.047,-2.398 0.795,-4.226 2.244,-5.485c1.472,-1.306 3.205,-1.959 5.2,-1.959c1.923,0 3.621,0.653 5.093,1.959c1.496,1.259 2.268,3.087 2.315,5.485Zm8.406,-22.332c-0.047,-4.678 -1.627,-8.417 -4.737,-11.219c-2.968,-2.873 -6.661,-4.334 -11.077,-4.381c-4.441,0.047 -8.192,1.508 -11.255,4.381c-3.016,2.802 -4.548,6.541 -4.595,11.219c0.047,5.01 2.09,8.905 6.126,11.683c-1.543,1.353 -2.802,2.909 -3.775,4.666c-0.926,1.638 -1.389,3.585 -1.389,5.841c0.047,4.322 1.46,7.895 4.238,10.721c2.755,2.802 6.304,4.227 10.65,4.274c4.274,-0.047 7.764,-1.472 10.471,-4.274c2.874,-2.826 4.334,-6.399 4.381,-10.721c0,-2.256 -0.51,-4.203 -1.531,-5.841c-0.879,-1.757 -2.09,-3.313 -3.633,-4.666c4.036,-2.778 6.079,-6.673 6.126,-11.683Zm-7.444,0.071c-0.048,2.422 -0.902,4.393 -2.565,5.913c-1.59,1.496 -3.526,2.268 -5.805,2.315c-2.351,-0.047 -4.322,-0.819 -5.913,-2.315c-1.614,-1.52 -2.445,-3.491 -2.493,-5.913c0.048,-2.374 0.879,-4.321 2.493,-5.841c1.591,-1.591 3.562,-2.386 5.913,-2.386c2.279,0 4.215,0.795 5.805,2.386c1.663,1.52 2.517,3.467 2.565,5.841Z" style="fill-rule:nonzero;"/><g id="Club"><path d="M115.274,119.68l-44.776,0l0.422,-1.795c5.808,-1.232 9.663,-2.447 11.564,-3.644c2.851,-1.795 5.183,-4.453 6.996,-7.973c1.813,-3.52 2.719,-7.234 2.719,-11.141c0,-0.563 -0.017,-1.373 -0.052,-2.429c-2.148,4.365 -4.761,7.551 -7.842,9.557c-3.08,2.007 -6.221,3.01 -9.425,3.01c-4.083,0 -7.551,-1.426 -10.402,-4.277c-2.851,-2.851 -4.277,-6.354 -4.277,-10.508c0,-4.083 1.303,-7.524 3.907,-10.323c2.605,-2.798 5.562,-4.198 8.871,-4.198c2.112,0 4.981,0.898 8.607,2.693c-1.478,-2.464 -2.438,-4.321 -2.878,-5.57c-0.44,-1.25 -0.66,-2.596 -0.66,-4.04c0,-4.013 1.391,-7.41 4.172,-10.191c2.781,-2.78 6.248,-4.171 10.402,-4.171c4.154,0 7.647,1.391 10.481,4.171c2.834,2.781 4.251,6.09 4.251,9.927c0,3.133 -1.215,6.425 -3.644,9.874c2.957,-1.408 4.735,-2.2 5.333,-2.376c0.951,-0.281 2.025,-0.422 3.221,-0.422c3.521,0 6.574,1.382 9.162,4.145c2.587,2.763 3.881,6.187 3.881,10.27c0,4.224 -1.417,7.771 -4.251,10.64c-2.834,2.869 -6.239,4.303 -10.217,4.303c-2.218,0 -4.497,-0.537 -6.838,-1.61c-2.341,-1.074 -4.374,-2.508 -6.099,-4.304c-1.232,-1.302 -2.763,-3.502 -4.594,-6.6c0.141,5.597 0.995,10.024 2.561,13.28c1.567,3.256 3.969,5.958 7.208,8.105c2.182,1.443 6.107,2.71 11.775,3.802l0.422,1.795Z" style="fill-rule:nonzero;"/></g><g id="Club1" serif:id="Club"><path d="M229.766,119.68l-44.776,0l0.422,-1.795c5.809,-1.232 9.663,-2.447 11.564,-3.644c2.851,-1.795 5.183,-4.453 6.996,-7.973c1.813,-3.52 2.72,-7.234 2.72,-11.141c0,-0.563 -0.018,-1.373 -0.053,-2.429c-2.147,4.365 -4.761,7.551 -7.841,9.557c-3.08,2.007 -6.222,3.01 -9.426,3.01c-4.083,0 -7.55,-1.426 -10.402,-4.277c-2.851,-2.851 -4.277,-6.354 -4.277,-10.508c0,-4.083 1.303,-7.524 3.908,-10.323c2.605,-2.798 5.562,-4.198 8.871,-4.198c2.112,0 4.981,0.898 8.606,2.693c-1.478,-2.464 -2.437,-4.321 -2.877,-5.57c-0.44,-1.25 -0.66,-2.596 -0.66,-4.04c0,-4.013 1.39,-7.41 4.171,-10.191c2.781,-2.78 6.248,-4.171 10.402,-4.171c4.154,0 7.648,1.391 10.481,4.171c2.834,2.781 4.251,6.09 4.251,9.927c0,3.133 -1.214,6.425 -3.643,9.874c2.957,-1.408 4.734,-2.2 5.333,-2.376c0.95,-0.281 2.024,-0.422 3.221,-0.422c3.52,0 6.574,1.382 9.161,4.145c2.587,2.763 3.881,6.187 3.881,10.27c0,4.224 -1.417,7.771 -4.251,10.64c-2.833,2.869 -6.239,4.303 -10.217,4.303c-2.218,0 -4.497,-0.537 -6.838,-1.61c-2.341,-1.074 -4.374,-2.508 -6.099,-4.304c-1.232,-1.302 -2.763,-3.502 -4.593,-6.6c0.14,5.597 0.994,10.024 2.56,13.28c1.567,3.256 3.969,5.958 7.208,8.105c2.183,1.443 6.108,2.71 11.775,3.802l0.422,1.795Z" style="fill-rule:nonzero;"/></g><g id="Club2" serif:id="Club"><path d="M115.274,194.893l-44.776,0l0.422,-1.795c5.808,-1.232 9.663,-2.446 11.564,-3.643c2.851,-1.796 5.183,-4.453 6.996,-7.974c1.813,-3.52 2.719,-7.233 2.719,-11.141c0,-0.563 -0.017,-1.373 -0.052,-2.429c-2.148,4.365 -4.761,7.551 -7.842,9.557c-3.08,2.007 -6.221,3.01 -9.425,3.01c-4.083,0 -7.551,-1.425 -10.402,-4.277c-2.851,-2.851 -4.277,-6.354 -4.277,-10.507c0,-4.084 1.303,-7.525 3.907,-10.323c2.605,-2.799 5.562,-4.198 8.871,-4.198c2.112,0 4.981,0.897 8.607,2.693c-1.478,-2.464 -2.438,-4.321 -2.878,-5.571c-0.44,-1.25 -0.66,-2.596 -0.66,-4.039c0,-4.013 1.391,-7.41 4.172,-10.191c2.781,-2.781 6.248,-4.172 10.402,-4.172c4.154,0 7.647,1.391 10.481,4.172c2.834,2.781 4.251,6.09 4.251,9.927c0,3.133 -1.215,6.424 -3.644,9.874c2.957,-1.408 4.735,-2.2 5.333,-2.376c0.951,-0.282 2.025,-0.423 3.221,-0.423c3.521,0 6.574,1.382 9.162,4.145c2.587,2.764 3.881,6.187 3.881,10.27c0,4.225 -1.417,7.771 -4.251,10.64c-2.834,2.869 -6.239,4.303 -10.217,4.303c-2.218,0 -4.497,-0.536 -6.838,-1.61c-2.341,-1.074 -4.374,-2.508 -6.099,-4.303c-1.232,-1.303 -2.763,-3.503 -4.594,-6.601c0.141,5.597 0.995,10.024 2.561,13.28c1.567,3.256 3.969,5.958 7.208,8.105c2.182,1.444 6.107,2.711 11.775,3.802l0.422,1.795Z" style="fill-rule:nonzero;"/></g><g id="Club3" serif:id="Club"><path d="M229.766,194.893l-44.776,0l0.422,-1.795c5.809,-1.232 9.663,-2.446 11.564,-3.643c2.851,-1.796 5.183,-4.453 6.996,-7.974c1.813,-3.52 2.72,-7.233 2.72,-11.141c0,-0.563 -0.018,-1.373 -0.053,-2.429c-2.147,4.365 -4.761,7.551 -7.841,9.557c-3.08,2.007 -6.222,3.01 -9.426,3.01c-4.083,0 -7.55,-1.425 -10.402,-4.277c-2.851,-2.851 -4.277,-6.354 -4.277,-10.507c0,-4.084 1.303,-7.525 3.908,-10.323c2.605,-2.799 5.562,-4.198 8.871,-4.198c2.112,0 4.981,0.897 8.606,2.693c-1.478,-2.464 -2.437,-4.321 -2.877,-5.571c-0.44,-1.25 -0.66,-2.596 -0.66,-4.039c0,-4.013 1.39,-7.41 4.171,-10.191c2.781,-2.781 6.248,-4.172 10.402,-4.172c4.154,0 7.648,1.391 10.481,4.172c2.834,2.781 4.251,6.09 4.251,9.927c0,3.133 -1.214,6.424 -3.643,9.874c2.957,-1.408 4.734,-2.2 5.333,-2.376c0.95,-0.282 2.024,-0.423 3.221,-0.423c3.52,0 6.574,1.382 9.161,4.145c2.587,2.764 3.881,6.187 3.881,10.27c0,4.225 -1.417,7.771 -4.251,10.64c-2.833,2.869 -6.239,4.303 -10.217,4.303c-2.218,0 -4.497,-0.536 -6.838,-1.61c-2.341,-1.074 -4.374,-2.508 -6.099,-4.303c-1.232,-1.303 -2.763,-3.503 -4.593,-6.601c0.14,5.597 0.994,10.024 2.56,13.28c1.567,3.256 3.969,5.958 7.208,8.105c2.183,1.444 6.108,2.711 11.775,3.802l0.422,1.795Z" style="fill-rule:nonzero;"/></g><g id="Club4" serif:id="Club"><path d="M115.274,270.107l-44.776,0l0.422,-1.796c5.808,-1.232 9.663,-2.446 11.564,-3.643c2.851,-1.795 5.183,-4.453 6.996,-7.973c1.813,-3.52 2.719,-7.234 2.719,-11.142c0,-0.563 -0.017,-1.372 -0.052,-2.428c-2.148,4.365 -4.761,7.55 -7.842,9.557c-3.08,2.006 -6.221,3.01 -9.425,3.01c-4.083,0 -7.551,-1.426 -10.402,-4.277c-2.851,-2.852 -4.277,-6.354 -4.277,-10.508c0,-4.084 1.303,-7.525 3.907,-10.323c2.605,-2.799 5.562,-4.198 8.871,-4.198c2.112,0 4.981,0.898 8.607,2.693c-1.478,-2.464 -2.438,-4.321 -2.878,-5.571c-0.44,-1.249 -0.66,-2.596 -0.66,-4.039c0,-4.013 1.391,-7.41 4.172,-10.191c2.781,-2.781 6.248,-4.171 10.402,-4.171c4.154,0 7.647,1.39 10.481,4.171c2.834,2.781 4.251,6.09 4.251,9.927c0,3.133 -1.215,6.424 -3.644,9.874c2.957,-1.408 4.735,-2.2 5.333,-2.376c0.951,-0.282 2.025,-0.423 3.221,-0.423c3.521,0 6.574,1.382 9.162,4.145c2.587,2.764 3.881,6.187 3.881,10.271c0,4.224 -1.417,7.77 -4.251,10.639c-2.834,2.869 -6.239,4.304 -10.217,4.304c-2.218,0 -4.497,-0.537 -6.838,-1.611c-2.341,-1.073 -4.374,-2.508 -6.099,-4.303c-1.232,-1.303 -2.763,-3.503 -4.594,-6.6c0.141,5.597 0.995,10.023 2.561,13.279c1.567,3.257 3.969,5.958 7.208,8.106c2.182,1.443 6.107,2.71 11.775,3.801l0.422,1.796Z" style="fill-rule:nonzero;"/></g><g id="Club5" serif:id="Club"><path d="M229.766,270.107l-44.776,0l0.422,-1.796c5.809,-1.232 9.663,-2.446 11.564,-3.643c2.851,-1.795 5.183,-4.453 6.996,-7.973c1.813,-3.52 2.72,-7.234 2.72,-11.142c0,-0.563 -0.018,-1.372 -0.053,-2.428c-2.147,4.365 -4.761,7.55 -7.841,9.557c-3.08,2.006 -6.222,3.01 -9.426,3.01c-4.083,0 -7.55,-1.426 -10.402,-4.277c-2.851,-2.852 -4.277,-6.354 -4.277,-10.508c0,-4.084 1.303,-7.525 3.908,-10.323c2.605,-2.799 5.562,-4.198 8.871,-4.198c2.112,0 4.981,0.898 8.606,2.693c-1.478,-2.464 -2.437,-4.321 -2.877,-5.571c-0.44,-1.249 -0.66,-2.596 -0.66,-4.039c0,-4.013 1.39,-7.41 4.171,-10.191c2.781,-2.781 6.248,-4.171 10.402,-4.171c4.154,0 7.648,1.39 10.481,4.171c2.834,2.781 4.251,6.09 4.251,9.927c0,3.133 -1.214,6.424 -3.643,9.874c2.957,-1.408 4.734,-2.2 5.333,-2.376c0.95,-0.282 2.024,-0.423 3.221,-0.423c3.52,0 6.574,1.382 9.161,4.145c2.587,2.764 3.881,6.187 3.881,10.271c0,4.224 -1.417,7.77 -4.251,10.639c-2.833,2.869 -6.239,4.304 -10.217,4.304c-2.218,0 -4.497,-0.537 -6.838,-1.611c-2.341,-1.073 -4.374,-2.508 -6.099,-4.303c-1.232,-1.303 -2.763,-3.503 -4.593,-6.6c0.14,5.597 0.994,10.023 2.56,13.279c1.567,3.257 3.969,5.958 7.208,8.106c2.183,1.443 6.108,2.71 11.775,3.801l0.422,1.796Z" style="fill-rule:nonzero;"/></g><g id="Club6" serif:id="Club"><path d="M115.274,345.32l-44.776,0l0.422,-1.795c5.808,-1.232 9.663,-2.447 11.564,-3.644c2.851,-1.795 5.183,-4.453 6.996,-7.973c1.813,-3.52 2.719,-7.234 2.719,-11.141c0,-0.563 -0.017,-1.373 -0.052,-2.429c-2.148,4.365 -4.761,7.551 -7.842,9.557c-3.08,2.007 -6.221,3.01 -9.425,3.01c-4.083,0 -7.551,-1.426 -10.402,-4.277c-2.851,-2.852 -4.277,-6.354 -4.277,-10.508c0,-4.083 1.303,-7.524 3.907,-10.323c2.605,-2.798 5.562,-4.198 8.871,-4.198c2.112,0 4.981,0.898 8.607,2.693c-1.478,-2.464 -2.438,-4.321 -2.878,-5.57c-0.44,-1.25 -0.66,-2.596 -0.66,-4.04c0,-4.013 1.391,-7.41 4.172,-10.191c2.781,-2.781 6.248,-4.171 10.402,-4.171c4.154,0 7.647,1.39 10.481,4.171c2.834,2.781 4.251,6.09 4.251,9.927c0,3.133 -1.215,6.425 -3.644,9.874c2.957,-1.408 4.735,-2.2 5.333,-2.376c0.951,-0.281 2.025,-0.422 3.221,-0.422c3.521,0 6.574,1.381 9.162,4.145c2.587,2.763 3.881,6.187 3.881,10.27c0,4.224 -1.417,7.771 -4.251,10.64c-2.834,2.869 -6.239,4.303 -10.217,4.303c-2.218,0 -4.497,-0.537 -6.838,-1.61c-2.341,-1.074 -4.374,-2.509 -6.099,-4.304c-1.232,-1.302 -2.763,-3.502 -4.594,-6.6c0.141,5.597 0.995,10.024 2.561,13.28c1.567,3.256 3.969,5.958 7.208,8.105c2.182,1.443 6.107,2.71 11.775,3.802l0.422,1.795Z" style="fill-rule:nonzero;"/></g><g id="Club7" serif:id="Club"><path d="M229.766,345.32l-44.776,0l0.422,-1.795c5.809,-1.232 9.663,-2.447 11.564,-3.644c2.851,-1.795 5.183,-4.453 6.996,-7.973c1.813,-3.52 2.72,-7.234 2.72,-11.141c0,-0.563 -0.018,-1.373 -0.053,-2.429c-2.147,4.365 -4.761,7.551 -7.841,9.557c-3.08,2.007 -6.222,3.01 -9.426,3.01c-4.083,0 -7.55,-1.426 -10.402,-4.277c-2.851,-2.852 -4.277,-6.354 -4.277,-10.508c0,-4.083 1.303,-7.524 3.908,-10.323c2.605,-2.798 5.562,-4.198 8.871,-4.198c2.112,0 4.981,0.898 8.606,2.693c-1.478,-2.464 -2.437,-4.321 -2.877,-5.57c-0.44,-1.25 -0.66,-2.596 -0.66,-4.04c0,-4.013 1.39,-7.41 4.171,-10.191c2.781,-2.781 6.248,-4.171 10.402,-4.171c4.154,0 7.648,1.39 10.481,4.171c2.834,2.781 4.251,6.09 4.251,9.927c0,3.133 -1.214,6.425 -3.643,9.874c2.957,-1.408 4.734,-2.2 5.333,-2.376c0.95,-0.281 2.024,-0.422 3.221,-0.422c3.52,0 6.574,1.381 9.161,4.145c2.587,2.763 3.881,6.187 3.881,10.27c0,4.224 -1.417,7.771 -4.251,10.64c-2.833,2.869 -6.239,4.303 -10.217,4.303c-2.218,0 -4.497,-0.537 -6.838,-1.61c-2.341,-1.074 -4.374,-2.509 -6.099,-4.304c-1.232,-1.302 -2.763,-3.502 -4.593,-6.6c0.14,5.597 0.994,10.024 2.56,13.28c1.567,3.256 3.969,5.958 7.208,8.105c2.183,1.443 6.108,2.71 11.775,3.802l0.422,1.795Z" style="fill-rule:nonzero;"/></g></svg>