<?xml version="1.0" encoding="UTF-8" standalone="no"?><!DOCTYPE svg PUBLIC "-//W3C//DTD SVG 1.1//EN" "http://www.w3.org/Graphics/SVG/1.1/DTD/svg11.dtd"><svg width="100%" height="100%" viewBox="0 0 301 400" version="1.1" xmlns="http://www.w3.org/2000/svg" xmlns:xlink="http://www.w3.org/1999/xlink" xml:space="preserve" xmlns:serif="http://www.serif.com/" style="fill-rule:evenodd;clip-rule:evenodd;stroke-linejoin:round;stroke-miterlimit:2;"><rect id="C-9" x="0.958" y="0" width="300" height="400" style="fill:none;"/><path d="M20.959,39.697c-0.047,4.986 1.116,8.631 3.491,10.934c2.374,2.375 5.247,3.538 8.619,3.491c3.063,0.047 6.364,-0.487 9.902,-1.603l0,4.879c-0.143,5.248 -2.576,7.896 -7.302,7.943c-3.348,0 -5.604,-1.448 -6.767,-4.345l-7.658,0c0.784,3.775 2.529,6.66 5.236,8.655c2.683,2.042 5.746,3.087 9.189,3.134c4.037,-0.047 7.468,-1.353 10.294,-3.918c2.873,-2.588 4.357,-6.268 4.452,-11.041l0,-22.902c-0.095,-4.797 -1.579,-8.489 -4.452,-11.077c-2.826,-2.565 -6.257,-3.847 -10.294,-3.847c-3.918,0 -7.289,1.282 -10.115,3.847c-3.016,2.588 -4.547,6.28 -4.595,11.077l0,4.773Zm7.444,-4.31c0.095,-5.2 2.517,-7.848 7.266,-7.943c4.726,0.095 7.159,2.743 7.302,7.943l0,4.238c-0.143,5.248 -2.576,7.896 -7.302,7.943c-4.749,-0.047 -7.171,-2.695 -7.266,-7.943l0,-4.238Z" style="fill-rule:nonzero;"/><path d="M280.956,360.303c0.048,-4.986 -1.116,-8.631 -3.49,-10.934c-2.375,-2.375 -5.248,-3.538 -8.62,-3.491c-3.063,-0.047 -6.363,0.487 -9.901,1.603l0,-4.879c0.142,-5.248 2.576,-7.896 7.301,-7.943c3.348,0 5.604,1.448 6.768,4.345l7.657,0c-0.783,-3.775 -2.528,-6.66 -5.235,-8.655c-2.684,-2.042 -5.747,-3.087 -9.19,-3.134c-4.036,0.047 -7.467,1.353 -10.293,3.918c-2.873,2.588 -4.357,6.268 -4.452,11.041l0,22.902c0.095,4.797 1.579,8.489 4.452,11.077c2.826,2.565 6.257,3.847 10.293,3.847c3.918,0 7.29,-1.282 10.116,-3.847c3.015,-2.588 4.547,-6.28 4.594,-11.077l0,-4.773Zm-7.444,4.31c-0.095,5.2 -2.517,7.848 -7.266,7.943c-4.725,-0.095 -7.159,-2.743 -7.301,-7.943l0,-4.238c0.142,-5.248 2.576,-7.896 7.301,-7.943c4.749,0.047 7.171,2.695 7.266,7.943l0,4.238Z" style="fill-rule:nonzero;"/><g id="Club"><path d="M116.232,119.68l-44.777,0l0.423,-1.795c5.808,-1.232 9.663,-2.447 11.564,-3.644c2.851,-1.795 5.183,-4.453 6.996,-7.973c1.813,-3.52 2.719,-7.234 2.719,-11.141c0,-0.563 -0.017,-1.373 -0.053,-2.429c-2.147,4.365 -4.761,7.551 -7.841,9.557c-3.08,2.007 -6.222,3.01 -9.425,3.01c-4.083,0 -7.551,-1.426 -10.402,-4.277c-2.851,-2.851 -4.277,-6.354 -4.277,-10.508c0,-4.083 1.302,-7.524 3.907,-10.323c2.605,-2.798 5.562,-4.198 8.871,-4.198c2.112,0 4.981,0.898 8.607,2.693c-1.479,-2.464 -2.438,-4.321 -2.878,-5.57c-0.44,-1.25 -0.66,-2.596 -0.66,-4.04c0,-4.013 1.391,-7.41 4.172,-10.191c2.78,-2.78 6.248,-4.171 10.402,-4.171c4.153,0 7.647,1.391 10.481,4.171c2.834,2.781 4.251,6.09 4.251,9.927c0,3.133 -1.215,6.425 -3.644,9.874c2.957,-1.408 4.735,-2.2 5.333,-2.376c0.951,-0.281 2.024,-0.422 3.221,-0.422c3.52,0 6.574,1.382 9.161,4.145c2.588,2.763 3.881,6.187 3.881,10.27c0,4.224 -1.416,7.771 -4.25,10.64c-2.834,2.869 -6.24,4.303 -10.217,4.303c-2.218,0 -4.497,-0.537 -6.838,-1.61c-2.341,-1.074 -4.374,-2.508 -6.099,-4.304c-1.232,-1.302 -2.763,-3.502 -4.594,-6.6c0.141,5.597 0.995,10.024 2.561,13.28c1.566,3.256 3.969,5.958 7.208,8.105c2.182,1.443 6.107,2.71 11.775,3.802l0.422,1.795Z"/></g><g id="Club1" serif:id="Club"><path d="M230.724,119.68l-44.776,0l0.422,-1.795c5.808,-1.232 9.663,-2.447 11.564,-3.644c2.851,-1.795 5.183,-4.453 6.996,-7.973c1.813,-3.52 2.72,-7.234 2.72,-11.141c0,-0.563 -0.018,-1.373 -0.053,-2.429c-2.148,4.365 -4.761,7.551 -7.841,9.557c-3.081,2.007 -6.222,3.01 -9.426,3.01c-4.083,0 -7.551,-1.426 -10.402,-4.277c-2.851,-2.851 -4.277,-6.354 -4.277,-10.508c0,-4.083 1.303,-7.524 3.908,-10.323c2.604,-2.798 5.561,-4.198 8.87,-4.198c2.112,0 4.981,0.898 8.607,2.693c-1.478,-2.464 -2.438,-4.321 -2.878,-5.57c-0.44,-1.25 -0.66,-2.596 -0.66,-4.04c0,-4.013 1.391,-7.41 4.172,-10.191c2.781,-2.78 6.248,-4.171 10.402,-4.171c4.154,0 7.648,1.391 10.481,4.171c2.834,2.781 4.251,6.09 4.251,9.927c0,3.133 -1.215,6.425 -3.644,9.874c2.957,-1.408 4.735,-2.2 5.334,-2.376c0.95,-0.281 2.024,-0.422 3.221,-0.422c3.52,0 6.573,1.382 9.161,4.145c2.587,2.763 3.881,6.187 3.881,10.27c0,4.224 -1.417,7.771 -4.251,10.64c-2.834,2.869 -6.239,4.303 -10.217,4.303c-2.218,0 -4.497,-0.537 -6.838,-1.61c-2.341,-1.074 -4.374,-2.508 -6.099,-4.304c-1.232,-1.302 -2.763,-3.502 -4.594,-6.6c0.141,5.597 0.995,10.024 2.561,13.28c1.567,3.256 3.969,5.958 7.208,8.105c2.182,1.443 6.107,2.71 11.775,3.802l0.422,1.795Z"/></g><g id="Club2" serif:id="Club"><path d="M116.232,194.893l-44.777,0l0.423,-1.795c5.808,-1.232 9.663,-2.446 11.564,-3.643c2.851,-1.796 5.183,-4.453 6.996,-7.974c1.813,-3.52 2.719,-7.233 2.719,-11.141c0,-0.563 -0.017,-1.373 -0.053,-2.429c-2.147,4.365 -4.761,7.551 -7.841,9.557c-3.08,2.007 -6.222,3.01 -9.425,3.01c-4.083,0 -7.551,-1.425 -10.402,-4.277c-2.851,-2.851 -4.277,-6.354 -4.277,-10.507c0,-4.084 1.302,-7.525 3.907,-10.323c2.605,-2.799 5.562,-4.198 8.871,-4.198c2.112,0 4.981,0.897 8.607,2.693c-1.479,-2.464 -2.438,-4.321 -2.878,-5.571c-0.44,-1.25 -0.66,-2.596 -0.66,-4.039c0,-4.013 1.391,-7.41 4.172,-10.191c2.78,-2.781 6.248,-4.172 10.402,-4.172c4.153,0 7.647,1.391 10.481,4.172c2.834,2.781 4.251,6.09 4.251,9.927c0,3.133 -1.215,6.424 -3.644,9.874c2.957,-1.408 4.735,-2.2 5.333,-2.376c0.951,-0.282 2.024,-0.423 3.221,-0.423c3.52,0 6.574,1.382 9.161,4.145c2.588,2.764 3.881,6.187 3.881,10.27c0,4.225 -1.416,7.771 -4.25,10.64c-2.834,2.869 -6.24,4.303 -10.217,4.303c-2.218,0 -4.497,-0.536 -6.838,-1.61c-2.341,-1.074 -4.374,-2.508 -6.099,-4.303c-1.232,-1.303 -2.763,-3.503 -4.594,-6.601c0.141,5.597 0.995,10.024 2.561,13.28c1.566,3.256 3.969,5.958 7.208,8.105c2.182,1.444 6.107,2.711 11.775,3.802l0.422,1.795Z"/></g><g id="Club3" serif:id="Club"><path d="M230.724,194.893l-44.776,0l0.422,-1.795c5.808,-1.232 9.663,-2.446 11.564,-3.643c2.851,-1.796 5.183,-4.453 6.996,-7.974c1.813,-3.52 2.72,-7.233 2.72,-11.141c0,-0.563 -0.018,-1.373 -0.053,-2.429c-2.148,4.365 -4.761,7.551 -7.841,9.557c-3.081,2.007 -6.222,3.01 -9.426,3.01c-4.083,0 -7.551,-1.425 -10.402,-4.277c-2.851,-2.851 -4.277,-6.354 -4.277,-10.507c0,-4.084 1.303,-7.525 3.908,-10.323c2.604,-2.799 5.561,-4.198 8.87,-4.198c2.112,0 4.981,0.897 8.607,2.693c-1.478,-2.464 -2.438,-4.321 -2.878,-5.571c-0.44,-1.25 -0.66,-2.596 -0.66,-4.039c0,-4.013 1.391,-7.41 4.172,-10.191c2.781,-2.781 6.248,-4.172 10.402,-4.172c4.154,0 7.648,1.391 10.481,4.172c2.834,2.781 4.251,6.09 4.251,9.927c0,3.133 -1.215,6.424 -3.644,9.874c2.957,-1.408 4.735,-2.2 5.334,-2.376c0.95,-0.282 2.024,-0.423 3.221,-0.423c3.52,0 6.573,1.382 9.161,4.145c2.587,2.764 3.881,6.187 3.881,10.27c0,4.225 -1.417,7.771 -4.251,10.64c-2.834,2.869 -6.239,4.303 -10.217,4.303c-2.218,0 -4.497,-0.536 -6.838,-1.61c-2.341,-1.074 -4.374,-2.508 -6.099,-4.303c-1.232,-1.303 -2.763,-3.503 -4.594,-6.601c0.141,5.597 0.995,10.024 2.561,13.28c1.567,3.256 3.969,5.958 7.208,8.105c2.182,1.444 6.107,2.711 11.775,3.802l0.422,1.795Z"/></g><g id="Club4" serif:id="Club"><path d="M173.478,232.5l-44.776,0l0.422,-1.795c5.808,-1.232 9.663,-2.447 11.564,-3.644c2.851,-1.795 5.183,-4.453 6.996,-7.973c1.813,-3.52 2.719,-7.234 2.719,-11.141c0,-0.563 -0.017,-1.373 -0.052,-2.429c-2.148,4.365 -4.761,7.551 -7.842,9.557c-3.08,2.007 -6.222,3.01 -9.425,3.01c-4.083,0 -7.551,-1.426 -10.402,-4.277c-2.851,-2.851 -4.277,-6.354 -4.277,-10.508c0,-4.083 1.302,-7.524 3.907,-10.323c2.605,-2.798 5.562,-4.198 8.871,-4.198c2.112,0 4.981,0.898 8.607,2.693c-1.478,-2.464 -2.438,-4.321 -2.878,-5.57c-0.44,-1.25 -0.66,-2.596 -0.66,-4.04c0,-4.013 1.391,-7.41 4.172,-10.191c2.781,-2.781 6.248,-4.171 10.402,-4.171c4.154,0 7.647,1.39 10.481,4.171c2.834,2.781 4.251,6.09 4.251,9.927c0,3.133 -1.215,6.425 -3.644,9.874c2.957,-1.408 4.735,-2.2 5.333,-2.376c0.951,-0.281 2.025,-0.422 3.221,-0.422c3.521,0 6.574,1.382 9.162,4.145c2.587,2.763 3.881,6.187 3.881,10.27c0,4.224 -1.417,7.771 -4.251,10.64c-2.834,2.869 -6.24,4.303 -10.217,4.303c-2.218,0 -4.497,-0.537 -6.838,-1.61c-2.341,-1.074 -4.374,-2.509 -6.099,-4.304c-1.232,-1.302 -2.763,-3.502 -4.594,-6.6c0.141,5.597 0.995,10.024 2.561,13.28c1.567,3.256 3.969,5.958 7.208,8.105c2.182,1.443 6.107,2.71 11.775,3.802l0.422,1.795Z"/></g><g id="Club5" serif:id="Club"><path d="M116.232,270.107l-44.777,0l0.423,-1.796c5.808,-1.232 9.663,-2.446 11.564,-3.643c2.851,-1.795 5.183,-4.453 6.996,-7.973c1.813,-3.52 2.719,-7.234 2.719,-11.142c0,-0.563 -0.017,-1.372 -0.053,-2.428c-2.147,4.365 -4.761,7.55 -7.841,9.557c-3.08,2.006 -6.222,3.01 -9.425,3.01c-4.083,0 -7.551,-1.426 -10.402,-4.277c-2.851,-2.852 -4.277,-6.354 -4.277,-10.508c0,-4.084 1.302,-7.525 3.907,-10.323c2.605,-2.799 5.562,-4.198 8.871,-4.198c2.112,0 4.981,0.898 8.607,2.693c-1.479,-2.464 -2.438,-4.321 -2.878,-5.571c-0.44,-1.249 -0.66,-2.596 -0.66,-4.039c0,-4.013 1.391,-7.41 4.172,-10.191c2.78,-2.781 6.248,-4.171 10.402,-4.171c4.153,0 7.647,1.39 10.481,4.171c2.834,2.781 4.251,6.09 4.251,9.927c0,3.133 -1.215,6.424 -3.644,9.874c2.957,-1.408 4.735,-2.2 5.333,-2.376c0.951,-0.282 2.024,-0.423 3.221,-0.423c3.52,0 6.574,1.382 9.161,4.145c2.588,2.764 3.881,6.187 3.881,10.271c0,4.224 -1.416,7.77 -4.25,10.639c-2.834,2.869 -6.24,4.304 -10.217,4.304c-2.218,0 -4.497,-0.537 -6.838,-1.611c-2.341,-1.073 -4.374,-2.508 -6.099,-4.303c-1.232,-1.303 -2.763,-3.503 -4.594,-6.6c0.141,5.597 0.995,10.023 2.561,13.279c1.566,3.257 3.969,5.958 7.208,8.106c2.182,1.443 6.107,2.71 11.775,3.801l0.422,1.796Z"/></g><g id="Club6" serif:id="Club"><path d="M230.724,270.107l-44.776,0l0.422,-1.796c5.808,-1.232 9.663,-2.446 11.564,-3.643c2.851,-1.795 5.183,-4.453 6.996,-7.973c1.813,-3.52 2.72,-7.234 2.72,-11.142c0,-0.563 -0.018,-1.372 -0.053,-2.428c-2.148,4.365 -4.761,7.55 -7.841,9.557c-3.081,2.006 -6.222,3.01 -9.426,3.01c-4.083,0 -7.551,-1.426 -10.402,-4.277c-2.851,-2.852 -4.277,-6.354 -4.277,-10.508c0,-4.084 1.303,-7.525 3.908,-10.323c2.604,-2.799 5.561,-4.198 8.87,-4.198c2.112,0 4.981,0.898 8.607,2.693c-1.478,-2.464 -2.438,-4.321 -2.878,-5.571c-0.44,-1.249 -0.66,-2.596 -0.66,-4.039c0,-4.013 1.391,-7.41 4.172,-10.191c2.781,-2.781 6.248,-4.171 10.402,-4.171c4.154,0 7.648,1.39 10.481,4.171c2.834,2.781 4.251,6.09 4.251,9.927c0,3.133 -1.215,6.424 -3.644,9.874c2.957,-1.408 4.735,-2.2 5.334,-2.376c0.95,-0.282 2.024,-0.423 3.221,-0.423c3.52,0 6.573,1.382 9.161,4.145c2.587,2.764 3.881,6.187 3.881,10.271c0,4.224 -1.417,7.77 -4.251,10.639c-2.834,2.869 -6.239,4.304 -10.217,4.304c-2.218,0 -4.497,-0.537 -6.838,-1.611c-2.341,-1.073 -4.374,-2.508 -6.099,-4.303c-1.232,-1.303 -2.763,-3.503 -4.594,-6.6c0.141,5.597 0.995,10.023 2.561,13.279c1.567,3.257 3.969,5.958 7.208,8.106c2.182,1.443 6.107,2.71 11.775,3.801l0.422,1.796Z"/></g><g id="Club7" serif:id="Club"><path d="M116.232,345.32l-44.777,0l0.423,-1.795c5.808,-1.232 9.663,-2.447 11.564,-3.644c2.851,-1.795 5.183,-4.453 6.996,-7.973c1.813,-3.52 2.719,-7.234 2.719,-11.141c0,-0.563 -0.017,-1.373 -0.053,-2.429c-2.147,4.365 -4.761,7.551 -7.841,9.557c-3.08,2.007 -6.222,3.01 -9.425,3.01c-4.083,0 -7.551,-1.426 -10.402,-4.277c-2.851,-2.852 -4.277,-6.354 -4.277,-10.508c0,-4.083 1.302,-7.524 3.907,-10.323c2.605,-2.798 5.562,-4.198 8.871,-4.198c2.112,0 4.981,0.898 8.607,2.693c-1.479,-2.464 -2.438,-4.321 -2.878,-5.57c-0.44,-1.25 -0.66,-2.596 -0.66,-4.04c0,-4.013 1.391,-7.41 4.172,-10.191c2.78,-2.781 6.248,-4.171 10.402,-4.171c4.153,0 7.647,1.39 10.481,4.171c2.834,2.781 4.251,6.09 4.251,9.927c0,3.133 -1.215,6.425 -3.644,9.874c2.957,-1.408 4.735,-2.2 5.333,-2.376c0.951,-0.281 2.024,-0.422 3.221,-0.422c3.52,0 6.574,1.381 9.161,4.145c2.588,2.763 3.881,6.187 3.881,10.27c0,4.224 -1.416,7.771 -4.25,10.64c-2.834,2.869 -6.24,4.303 -10.217,4.303c-2.218,0 -4.497,-0.537 -6.838,-1.61c-2.341,-1.074 -4.374,-2.509 -6.099,-4.304c-1.232,-1.302 -2.763,-3.502 -4.594,-6.6c0.141,5.597 0.995,10.024 2.561,13.28c1.566,3.256 3.969,5.958 7.208,8.105c2.182,1.443 6.107,2.71 11.775,3.802l0.422,1.795Z"/></g><g id="Club8" serif:id="Club"><path d="M230.724,345.32l-44.776,0l0.422,-1.795c5.808,-1.232 9.663,-2.447 11.564,-3.644c2.851,-1.795 5.183,-4.453 6.996,-7.973c1.813,-3.52 2.72,-7.234 2.72,-11.141c0,-0.563 -0.018,-1.373 -0.053,-2.429c-2.148,4.365 -4.761,7.551 -7.841,9.557c-3.081,2.007 -6.222,3.01 -9.426,3.01c-4.083,0 -7.551,-1.426 -10.402,-4.277c-2.851,-2.852 -4.277,-6.354 -4.277,-10.508c0,-4.083 1.303,-7.524 3.908,-10.323c2.604,-2.798 5.561,-4.198 8.87,-4.198c2.112,0 4.981,0.898 8.607,2.693c-1.478,-2.464 -2.438,-4.321 -2.878,-5.57c-0.44,-1.25 -0.66,-2.596 -0.66,-4.04c0,-4.013 1.391,-7.41 4.172,-10.191c2.781,-2.781 6.248,-4.171 10.402,-4.171c4.154,0 7.648,1.39 10.481,4.171c2.834,2.781 4.251,6.09 4.251,9.927c0,3.133 -1.215,6.425 -3.644,9.874c2.957,-1.408 4.735,-2.2 5.334,-2.376c0.95,-0.281 2.024,-0.422 3.221,-0.422c3.52,0 6.573,1.381 9.161,4.145c2.587,2.763 3.881,6.187 3.881,10.27c0,4.224 -1.417,7.771 -4.251,10.64c-2.834,2.869 -6.239,4.303 -10.217,4.303c-2.218,0 -4.497,-0.537 -6.838,-1.61c-2.341,-1.074 -4.374,-2.509 -6.099,-4.304c-1.232,-1.302 -2.763,-3.502 -4.594,-6.6c0.141,5.597 0.995,10.024 2.561,13.28c1.567,3.256 3.969,5.958 7.208,8.105c2.182,1.443 6.107,2.71 11.775,3.802l0.422,1.795Z"/></g></svg>