<?xml version="1.0" encoding="UTF-8" standalone="no"?><!DOCTYPE svg PUBLIC "-//W3C//DTD SVG 1.1//EN" "http://www.w3.org/Graphics/SVG/1.1/DTD/svg11.dtd"><svg width="100%" height="100%" viewBox="0 0 300 400" version="1.1" xmlns="http://www.w3.org/2000/svg" xmlns:xlink="http://www.w3.org/1999/xlink" xml:space="preserve" xmlns:serif="http://www.serif.com/" style="fill-rule:evenodd;clip-rule:evenodd;stroke-linejoin:round;stroke-miterlimit:2;"><rect id="C-A" x="0" y="0" width="300" height="400" style="fill:none;"/><path d="M34.603,53.338l7.516,-22.688l0.142,0l7.515,22.688l-15.173,0Zm21.442,18.592l8.299,0l-18.877,-51.93l-6.59,0l-18.877,51.93l8.335,0l3.989,-11.611l19.696,0l4.025,11.611Z" style="fill-rule:nonzero;"/><path d="M265.397,346.662l-7.516,22.688l-0.142,0l-7.515,-22.688l15.173,0Zm-21.442,-18.592l-8.299,0l18.877,51.93l6.59,0l18.877,-51.93l-8.335,0l-3.989,11.611l-19.696,0l-4.025,-11.611Z" style="fill-rule:nonzero;"/><g id="Club"><path d="M195.041,265l-89.554,0l0.845,-3.591c11.617,-2.464 19.326,-4.893 23.128,-7.286c5.702,-3.591 10.367,-8.906 13.992,-15.947c3.626,-7.04 5.439,-14.468 5.439,-22.282c0,-1.127 -0.035,-2.746 -0.105,-4.858c-4.295,8.73 -9.523,15.101 -15.683,19.114c-6.16,4.013 -12.444,6.02 -18.85,6.02c-8.167,0 -15.102,-2.852 -20.805,-8.554c-5.702,-5.703 -8.554,-12.708 -8.554,-21.016c0,-8.166 2.605,-15.048 7.815,-20.645c5.21,-5.598 11.124,-8.396 17.742,-8.396c4.224,0 9.962,1.795 17.214,5.386c-2.957,-4.928 -4.876,-8.642 -5.756,-11.142c-0.88,-2.499 -1.32,-5.192 -1.32,-8.078c0,-8.026 2.781,-14.82 8.343,-20.382c5.562,-5.562 12.496,-8.343 20.804,-8.343c8.308,0 15.295,2.781 20.963,8.343c5.667,5.562 8.501,12.18 8.501,19.854c0,6.265 -2.429,12.848 -7.287,19.748c5.914,-2.816 9.469,-4.4 10.666,-4.752c1.901,-0.564 4.048,-0.845 6.442,-0.845c7.04,0 13.148,2.763 18.323,8.29c5.174,5.526 7.762,12.373 7.762,20.54c0,8.448 -2.834,15.541 -8.502,21.279c-5.667,5.738 -12.479,8.607 -20.434,8.607c-4.436,0 -8.994,-1.073 -13.676,-3.221c-4.682,-2.147 -8.748,-5.016 -12.197,-8.607c-2.465,-2.605 -5.527,-7.005 -9.188,-13.2c0.281,11.194 1.989,20.047 5.122,26.559c3.133,6.513 7.938,11.916 14.415,16.211c4.365,2.886 12.215,5.421 23.55,7.603l0.845,3.591Z"/></g></svg>