<?xml version="1.0" encoding="UTF-8" standalone="no"?><!DOCTYPE svg PUBLIC "-//W3C//DTD SVG 1.1//EN" "http://www.w3.org/Graphics/SVG/1.1/DTD/svg11.dtd"><svg width="100%" height="100%" viewBox="0 0 301 401" version="1.1" xmlns="http://www.w3.org/2000/svg" xmlns:xlink="http://www.w3.org/1999/xlink" xml:space="preserve" xmlns:serif="http://www.serif.com/" style="fill-rule:evenodd;clip-rule:evenodd;stroke-linejoin:round;stroke-miterlimit:2;"><rect id="C-D" x="0.039" y="0.039" width="300" height="400" style="fill:none;"/><g id="Club"><path d="M165.658,221.233l-55.11,0l0.52,-2.209c7.149,-1.517 11.893,-3.012 14.233,-4.485c3.509,-2.209 6.379,-5.48 8.61,-9.813c2.232,-4.332 3.347,-8.903 3.347,-13.712c0,-0.693 -0.021,-1.69 -0.065,-2.99c-2.642,5.373 -5.859,9.294 -9.65,11.763c-3.791,2.47 -7.658,3.704 -11.601,3.704c-5.025,0 -9.293,-1.754 -12.802,-5.264c-3.51,-3.509 -5.264,-7.82 -5.264,-12.932c0,-5.026 1.603,-9.261 4.809,-12.705c3.206,-3.445 6.845,-5.167 10.918,-5.167c2.599,0 6.13,1.105 10.593,3.315c-1.82,-3.033 -3,-5.319 -3.542,-6.857c-0.542,-1.538 -0.812,-3.195 -0.812,-4.971c0,-4.939 1.711,-9.12 5.134,-12.543c3.422,-3.423 7.69,-5.134 12.802,-5.134c5.113,0 9.413,1.711 12.9,5.134c3.488,3.423 5.232,7.495 5.232,12.218c0,3.856 -1.495,7.907 -4.484,12.153c3.639,-1.733 5.827,-2.708 6.563,-2.925c1.17,-0.346 2.492,-0.52 3.965,-0.52c4.332,0 8.091,1.701 11.275,5.102c3.184,3.401 4.777,7.614 4.777,12.64c0,5.199 -1.744,9.564 -5.232,13.095c-3.488,3.531 -7.679,5.296 -12.575,5.296c-2.729,0 -5.535,-0.66 -8.416,-1.982c-2.881,-1.321 -5.383,-3.087 -7.506,-5.296c-1.516,-1.603 -3.401,-4.311 -5.654,-8.124c0.173,6.889 1.224,12.337 3.152,16.345c1.928,4.007 4.885,7.333 8.871,9.975c2.686,1.777 7.517,3.336 14.492,4.68l0.52,2.209Z"/></g><path d="M185.096,280.039l27.161,0c5.999,0 11.065,-1.316 15.198,-3.95c4.171,-2.451 7.426,-5.56 9.767,-9.328c0.878,-1.427 1.628,-2.798 2.25,-4.115c0.585,-1.354 1.024,-2.89 1.317,-4.609c0.622,-3.402 0.933,-9.401 0.933,-17.998c0,-8.084 -0.202,-13.772 -0.604,-17.064c-0.512,-3.292 -1.738,-6.438 -3.676,-9.438c-5.414,-8.925 -13.535,-13.424 -24.362,-13.498l-27.984,0l0,80Zm12.126,-68.532l14.486,0c6.145,-0.146 10.901,2.103 14.266,6.749c1.646,1.866 2.689,4.298 3.128,7.298c0.329,2.999 0.493,7.974 0.493,14.924c0,7.133 -0.164,11.999 -0.493,14.596c-0.366,2.633 -1.226,4.81 -2.579,6.529c-3.073,4.646 -8.011,6.969 -14.815,6.969l-14.486,0l0,-57.065Z" style="fill-rule:nonzero;"/><path d="M23.681,72.184l17.776,0c3.926,0 7.242,-0.862 9.947,-2.586c2.729,-1.604 4.86,-3.639 6.392,-6.105c0.575,-0.934 1.066,-1.831 1.473,-2.693c0.383,-0.886 0.67,-1.891 0.862,-3.017c0.407,-2.226 0.61,-6.152 0.61,-11.778c0,-5.291 -0.132,-9.014 -0.395,-11.169c-0.335,-2.154 -1.137,-4.213 -2.406,-6.176c-3.543,-5.842 -8.858,-8.786 -15.944,-8.834l-18.315,0l0,52.358Zm7.936,-44.853l9.481,0c4.022,-0.096 7.134,1.377 9.337,4.417c1.077,1.221 1.759,2.813 2.047,4.776c0.215,1.963 0.323,5.219 0.323,9.768c0,4.668 -0.108,7.852 -0.323,9.552c-0.24,1.724 -0.802,3.148 -1.688,4.274c-2.011,3.04 -5.243,4.56 -9.696,4.56l-9.481,0l0,-37.347Z" style="fill-rule:nonzero;"/><path d="M276.397,327.681l-17.776,0c-3.926,0 -7.242,0.862 -9.947,2.586c-2.729,1.604 -4.86,3.639 -6.392,6.105c-0.575,0.934 -1.065,1.831 -1.472,2.693c-0.384,0.886 -0.671,1.892 -0.862,3.017c-0.407,2.226 -0.611,6.152 -0.611,11.778c0,5.291 0.132,9.014 0.395,11.169c0.335,2.154 1.137,4.213 2.406,6.176c3.543,5.842 8.858,8.786 15.945,8.834l18.314,0l0,-52.358Zm-7.936,44.853l-9.481,0c-4.022,0.096 -7.134,-1.377 -9.336,-4.417c-1.078,-1.221 -1.76,-2.813 -2.047,-4.776c-0.216,-1.963 -0.324,-5.219 -0.324,-9.768c0,-4.668 0.108,-7.852 0.324,-9.552c0.239,-1.724 0.802,-3.148 1.687,-4.273c2.011,-3.041 5.243,-4.561 9.696,-4.561l9.481,0l0,37.347Z" style="fill-rule:nonzero;"/></svg>