<?xml version="1.0" encoding="UTF-8" standalone="no"?><!DOCTYPE svg PUBLIC "-//W3C//DTD SVG 1.1//EN" "http://www.w3.org/Graphics/SVG/1.1/DTD/svg11.dtd"><svg width="100%" height="100%" viewBox="0 0 300 401" version="1.1" xmlns="http://www.w3.org/2000/svg" xmlns:xlink="http://www.w3.org/1999/xlink" xml:space="preserve" xmlns:serif="http://www.serif.com/" style="fill-rule:evenodd;clip-rule:evenodd;stroke-linejoin:round;stroke-miterlimit:2;"><rect id="C-J" x="0" y="0.039" width="300" height="400" style="fill:none;"/><g id="Club"><path d="M165.619,221.233l-55.11,0l0.52,-2.209c7.149,-1.517 11.893,-3.012 14.232,-4.485c3.51,-2.209 6.38,-5.48 8.611,-9.813c2.232,-4.332 3.347,-8.903 3.347,-13.712c0,-0.693 -0.021,-1.69 -0.065,-2.99c-2.643,5.373 -5.859,9.294 -9.65,11.763c-3.791,2.47 -7.658,3.704 -11.601,3.704c-5.025,0 -9.293,-1.754 -12.802,-5.264c-3.51,-3.509 -5.264,-7.82 -5.264,-12.932c0,-5.026 1.603,-9.261 4.809,-12.705c3.206,-3.445 6.845,-5.167 10.918,-5.167c2.599,0 6.13,1.105 10.593,3.315c-1.82,-3.033 -3.001,-5.319 -3.542,-6.857c-0.542,-1.538 -0.812,-3.195 -0.812,-4.971c0,-4.939 1.711,-9.12 5.134,-12.543c3.422,-3.423 7.69,-5.134 12.802,-5.134c5.113,0 9.413,1.711 12.9,5.134c3.488,3.423 5.232,7.495 5.232,12.218c0,3.856 -1.495,7.907 -4.484,12.153c3.639,-1.733 5.827,-2.708 6.563,-2.925c1.17,-0.346 2.492,-0.52 3.965,-0.52c4.332,0 8.091,1.701 11.275,5.102c3.184,3.401 4.777,7.614 4.777,12.64c0,5.199 -1.744,9.564 -5.232,13.095c-3.488,3.531 -7.679,5.296 -12.575,5.296c-2.73,0 -5.535,-0.66 -8.416,-1.982c-2.881,-1.321 -5.383,-3.087 -7.506,-5.296c-1.516,-1.603 -3.401,-4.311 -5.654,-8.124c0.173,6.889 1.224,12.337 3.152,16.345c1.928,4.007 4.885,7.333 8.871,9.975c2.686,1.777 7.517,3.336 14.492,4.68l0.52,2.209Z" style="fill-rule:nonzero;"/></g><path d="M157.329,241.485l-9.687,7.021c4.535,6.675 11.41,10.122 20.626,10.34c6.675,-0.073 12.535,-2.34 17.578,-6.803c5.079,-4.354 7.691,-10.522 7.836,-18.503l0,-54.694l-12.027,0l0,53.496c0,2.685 -0.417,4.916 -1.251,6.694c-0.799,1.85 -1.905,3.338 -3.32,4.463c-2.903,2.285 -5.95,3.392 -9.143,3.319c-2.395,0 -4.481,-0.562 -6.259,-1.687c-1.777,-0.943 -3.229,-2.158 -4.353,-3.646Z" style="fill-rule:nonzero;"/><path d="M33.446,60.822l-6.34,4.594c2.968,4.369 7.468,6.625 13.499,6.768c4.369,-0.048 8.204,-1.532 11.504,-4.453c3.325,-2.849 5.034,-6.886 5.129,-12.11l0,-35.795l-7.871,0l0,35.012c0,1.757 -0.273,3.217 -0.819,4.381c-0.523,1.211 -1.247,2.184 -2.173,2.92c-1.9,1.496 -3.894,2.221 -5.984,2.173c-1.567,0 -2.932,-0.368 -4.096,-1.104c-1.163,-0.617 -2.113,-1.413 -2.849,-2.386Z" style="fill-rule:nonzero;"/><path d="M266.554,339.257l6.34,-4.594c-2.968,-4.37 -7.468,-6.625 -13.499,-6.768c-4.369,0.048 -8.204,1.532 -11.504,4.452c-3.325,2.85 -5.034,6.886 -5.129,12.11l0,35.796l7.871,0l0,-35.012c0,-1.757 0.273,-3.217 0.819,-4.381c0.523,-1.211 1.247,-2.185 2.173,-2.921c1.9,-1.496 3.894,-2.22 5.984,-2.172c1.567,0 2.932,0.368 4.096,1.104c1.163,0.617 2.113,1.413 2.849,2.386Z" style="fill-rule:nonzero;"/></svg>