<?xml version="1.0" encoding="UTF-8" standalone="no"?><!DOCTYPE svg PUBLIC "-//W3C//DTD SVG 1.1//EN" "http://www.w3.org/Graphics/SVG/1.1/DTD/svg11.dtd"><svg width="100%" height="100%" viewBox="0 0 301 401" version="1.1" xmlns="http://www.w3.org/2000/svg" xmlns:xlink="http://www.w3.org/1999/xlink" xml:space="preserve" xmlns:serif="http://www.serif.com/" style="fill-rule:evenodd;clip-rule:evenodd;stroke-linejoin:round;stroke-miterlimit:2;"><rect id="C-K" x="0.25" y="0.039" width="300" height="400" style="fill:none;"/><g id="Club"><path d="M157.723,221.233l-55.109,0l0.52,-2.209c7.148,-1.517 11.893,-3.012 14.232,-4.485c3.509,-2.209 6.38,-5.48 8.611,-9.813c2.231,-4.332 3.347,-8.903 3.347,-13.712c0,-0.693 -0.022,-1.69 -0.065,-2.99c-2.643,5.373 -5.86,9.294 -9.651,11.763c-3.791,2.47 -7.658,3.704 -11.6,3.704c-5.026,0 -9.293,-1.754 -12.803,-5.264c-3.509,-3.509 -5.264,-7.82 -5.264,-12.932c0,-5.026 1.603,-9.261 4.809,-12.705c3.206,-3.445 6.846,-5.167 10.918,-5.167c2.6,0 6.131,1.105 10.593,3.315c-1.819,-3.033 -3,-5.319 -3.542,-6.857c-0.541,-1.538 -0.812,-3.195 -0.812,-4.971c0,-4.939 1.711,-9.12 5.134,-12.543c3.423,-3.423 7.69,-5.134 12.803,-5.134c5.112,0 9.412,1.711 12.9,5.134c3.487,3.423 5.231,7.495 5.231,12.218c0,3.856 -1.494,7.907 -4.484,12.153c3.639,-1.733 5.827,-2.708 6.564,-2.925c1.17,-0.346 2.491,-0.52 3.964,-0.52c4.333,0 8.091,1.701 11.276,5.102c3.184,3.401 4.776,7.614 4.776,12.64c0,5.199 -1.744,9.564 -5.231,13.095c-3.488,3.531 -7.68,5.296 -12.575,5.296c-2.73,0 -5.535,-0.66 -8.416,-1.982c-2.882,-1.321 -5.384,-3.087 -7.506,-5.296c-1.517,-1.603 -3.402,-4.311 -5.654,-8.124c0.173,6.889 1.224,12.337 3.151,16.345c1.928,4.007 4.885,7.333 8.871,9.975c2.686,1.777 7.517,3.336 14.493,4.68l0.519,2.209Z"/></g><text x="167.296px" y="280.478px" style="font-family:'Arial-BoldMT', 'Arial', sans-serif;font-weight:700;font-size:112.373px;">K</text><path d="M22.191,71.97l7.872,0l0,-15.814l9.118,-9.581l14.14,25.395l9.332,0l-18.379,-31.45l16.634,-20.481l-9.332,0l-21.371,26.749l-0.142,0l0,-26.749l-7.872,0l0,51.931Z" style="fill-rule:nonzero;"/><path d="M278.309,328.109l-7.871,0l0,15.814l-9.119,9.581l-14.14,-25.395l-9.332,0l18.379,31.45l-16.633,20.48l9.331,0l21.371,-26.748l0.143,0l0,26.748l7.871,0l0,-51.93Z" style="fill-rule:nonzero;"/></svg>