<?xml version="1.0" encoding="UTF-8" standalone="no"?><!DOCTYPE svg PUBLIC "-//W3C//DTD SVG 1.1//EN" "http://www.w3.org/Graphics/SVG/1.1/DTD/svg11.dtd"><svg width="100%" height="100%" viewBox="0 0 300 400" version="1.1" xmlns="http://www.w3.org/2000/svg" xmlns:xlink="http://www.w3.org/1999/xlink" xml:space="preserve" xmlns:serif="http://www.serif.com/" style="fill-rule:evenodd;clip-rule:evenodd;stroke-linejoin:round;stroke-miterlimit:2;"><rect id="D-2" x="0" y="0" width="300" height="400" style="fill:none;"/><path d="M22.28,71.93l29.598,0l0,-7.444l-19.839,0l16.704,-20.943c2.09,-2.659 3.135,-5.699 3.135,-9.118c-0.048,-4.274 -1.484,-7.8 -4.31,-10.578c-2.778,-2.802 -6.399,-4.227 -10.863,-4.274c-3.99,0.047 -7.349,1.448 -10.08,4.202c-2.707,2.826 -4.156,6.4 -4.345,10.721l7.408,0c0.261,-2.374 1.092,-4.214 2.493,-5.52c1.354,-1.306 3.051,-1.959 5.094,-1.959c2.303,0.047 4.084,0.795 5.342,2.244c1.211,1.448 1.817,3.146 1.817,5.093c0,0.736 -0.095,1.52 -0.285,2.351c-0.285,0.878 -0.819,1.828 -1.603,2.849l-20.266,25.36l0,7.016Z" style="fill:#cb0000;fill-rule:nonzero;"/><path d="M277.72,328.07l-29.598,0l0,7.444l19.839,0l-16.704,20.943c-2.09,2.659 -3.135,5.699 -3.135,9.118c0.048,4.274 1.484,7.8 4.31,10.578c2.778,2.802 6.399,4.227 10.863,4.274c3.99,-0.047 7.349,-1.448 10.08,-4.202c2.707,-2.826 4.156,-6.4 4.345,-10.721l-7.408,0c-0.261,2.374 -1.092,4.214 -2.493,5.52c-1.354,1.306 -3.051,1.959 -5.094,1.959c-2.303,-0.047 -4.084,-0.795 -5.342,-2.244c-1.211,-1.448 -1.817,-3.146 -1.817,-5.093c0,-0.736 0.095,-1.52 0.285,-2.351c0.285,-0.878 0.819,-1.828 1.603,-2.849l20.266,-25.36l0,-7.016Z" style="fill:#cb0000;fill-rule:nonzero;"/><g id="Diamond"><path d="M149.896,265.107c3.073,5.213 6.854,10.807 11.343,16.781c5.179,6.905 9.357,12.136 12.534,15.693c-2.555,2.693 -6.733,7.907 -12.534,15.641c-4.696,6.284 -8.459,11.913 -11.291,16.885c-0.932,-1.796 -2.21,-3.885 -3.832,-6.267c-2.797,-4.144 -6.267,-8.96 -10.411,-14.45c-0.898,-1.209 -4.057,-5.145 -9.478,-11.809c3.487,-3.971 7.976,-9.634 13.466,-16.988c4.075,-5.456 7.476,-10.618 10.203,-15.486Z" style="fill:#cb0000;"/></g><g id="Diamond1" serif:id="Diamond"><path d="M149.896,69.893c3.073,5.214 6.854,10.808 11.343,16.781c5.179,6.906 9.357,12.137 12.534,15.693c-2.555,2.694 -6.733,7.907 -12.534,15.642c-4.696,6.284 -8.459,11.912 -11.291,16.884c-0.932,-1.795 -2.21,-3.884 -3.832,-6.267c-2.797,-4.143 -6.267,-8.96 -10.411,-14.45c-0.898,-1.208 -4.057,-5.145 -9.478,-11.809c3.487,-3.97 7.976,-9.633 13.466,-16.988c4.075,-5.455 7.476,-10.617 10.203,-15.486Z" style="fill:#cb0000;"/></g></svg>