<?xml version="1.0" encoding="UTF-8" standalone="no"?><!DOCTYPE svg PUBLIC "-//W3C//DTD SVG 1.1//EN" "http://www.w3.org/Graphics/SVG/1.1/DTD/svg11.dtd"><svg width="100%" height="100%" viewBox="0 0 300 400" version="1.1" xmlns="http://www.w3.org/2000/svg" xmlns:xlink="http://www.w3.org/1999/xlink" xml:space="preserve" xmlns:serif="http://www.serif.com/" style="fill-rule:evenodd;clip-rule:evenodd;stroke-linejoin:round;stroke-miterlimit:2;"><rect id="D-3" x="0" y="0" width="300" height="400" style="fill:none;"/><path d="M32.751,48.458l3.134,0c2.304,0 4.203,0.701 5.699,2.102c1.52,1.448 2.304,3.49 2.351,6.126c-0.047,2.588 -0.831,4.583 -2.351,5.984c-1.496,1.496 -3.336,2.244 -5.52,2.244c-2.043,0 -3.681,-0.558 -4.916,-1.674c-1.211,-1.069 -2.149,-2.47 -2.813,-4.203l-7.445,0c0.808,4.322 2.577,7.622 5.307,9.902c2.731,2.279 5.865,3.419 9.404,3.419c4.582,-0.048 8.334,-1.508 11.255,-4.381c2.968,-2.802 4.476,-6.637 4.523,-11.505c0,-2.184 -0.463,-4.274 -1.389,-6.268c-0.974,-1.995 -2.553,-3.704 -4.737,-5.129c2.137,-1.449 3.621,-3.099 4.452,-4.951c0.712,-1.852 1.069,-3.776 1.069,-5.77c-0.048,-3.942 -1.401,-7.361 -4.061,-10.258c-2.778,-2.968 -6.53,-4.476 -11.255,-4.523c-3.728,0.047 -6.934,1.377 -9.617,3.989c-2.73,2.635 -4.286,5.877 -4.666,9.723l7.444,0c0.475,-2.137 1.401,-3.716 2.779,-4.737c1.306,-1.021 2.754,-1.531 4.345,-1.531c2.208,0.047 4.013,0.748 5.414,2.101c1.401,1.401 2.125,3.194 2.173,5.378c0,2.161 -0.701,3.918 -2.102,5.272c-1.401,1.401 -3.372,2.101 -5.912,2.101l-2.565,0l0,6.589Z" style="fill:#cb0000;fill-rule:nonzero;"/><path d="M267.249,351.542l-3.134,0c-2.304,0 -4.203,-0.701 -5.699,-2.102c-1.52,-1.448 -2.304,-3.49 -2.351,-6.126c0.047,-2.588 0.831,-4.583 2.351,-5.984c1.496,-1.496 3.336,-2.244 5.52,-2.244c2.043,0 3.681,0.558 4.916,1.674c1.211,1.069 2.149,2.47 2.813,4.203l7.445,0c-0.808,-4.322 -2.577,-7.622 -5.307,-9.902c-2.731,-2.279 -5.865,-3.419 -9.404,-3.419c-4.582,0.048 -8.334,1.508 -11.255,4.381c-2.968,2.802 -4.476,6.637 -4.523,11.505c0,2.184 0.463,4.274 1.389,6.268c0.974,1.995 2.553,3.704 4.737,5.129c-2.137,1.449 -3.621,3.099 -4.452,4.951c-0.712,1.852 -1.069,3.776 -1.069,5.77c0.048,3.942 1.401,7.361 4.061,10.258c2.778,2.968 6.53,4.476 11.255,4.523c3.728,-0.047 6.934,-1.377 9.617,-3.989c2.73,-2.635 4.286,-5.877 4.666,-9.723l-7.444,0c-0.475,2.137 -1.401,3.716 -2.779,4.737c-1.306,1.021 -2.754,1.531 -4.345,1.531c-2.208,-0.047 -4.013,-0.748 -5.414,-2.101c-1.401,-1.401 -2.125,-3.194 -2.173,-5.378c0,-2.161 0.701,-3.918 2.102,-5.272c1.401,-1.401 3.372,-2.101 5.912,-2.101l2.565,0l0,-6.589Z" style="fill:#cb0000;fill-rule:nonzero;"/><g id="Diamond"><path d="M149.896,69.893c3.073,5.214 6.854,10.808 11.343,16.781c5.179,6.906 9.357,12.137 12.534,15.693c-2.555,2.694 -6.733,7.907 -12.534,15.642c-4.696,6.284 -8.459,11.912 -11.291,16.884c-0.932,-1.795 -2.21,-3.884 -3.832,-6.267c-2.797,-4.143 -6.267,-8.96 -10.411,-14.45c-0.898,-1.208 -4.057,-5.145 -9.478,-11.809c3.487,-3.97 7.976,-9.633 13.466,-16.988c4.075,-5.455 7.476,-10.617 10.203,-15.486Z" style="fill:#cb0000;"/></g><g id="Diamond1" serif:id="Diamond"><path d="M149.896,167.5c3.073,5.214 6.854,10.807 11.343,16.781c5.179,6.906 9.357,12.137 12.534,15.693c-2.555,2.693 -6.733,7.907 -12.534,15.642c-4.696,6.284 -8.459,11.912 -11.291,16.884c-0.932,-1.795 -2.21,-3.884 -3.832,-6.267c-2.797,-4.143 -6.267,-8.96 -10.411,-14.45c-0.898,-1.209 -4.057,-5.145 -9.478,-11.809c3.487,-3.971 7.976,-9.633 13.466,-16.988c4.075,-5.455 7.476,-10.617 10.203,-15.486Z" style="fill:#cb0000;"/></g><g id="Diamond2" serif:id="Diamond"><path d="M149.896,265.107c3.073,5.213 6.854,10.807 11.343,16.781c5.179,6.905 9.357,12.136 12.534,15.693c-2.555,2.693 -6.733,7.907 -12.534,15.641c-4.696,6.284 -8.459,11.913 -11.291,16.885c-0.932,-1.796 -2.21,-3.885 -3.832,-6.267c-2.797,-4.144 -6.267,-8.96 -10.411,-14.45c-0.898,-1.209 -4.057,-5.145 -9.478,-11.809c3.487,-3.971 7.976,-9.634 13.466,-16.988c4.075,-5.456 7.476,-10.618 10.203,-15.486Z" style="fill:#cb0000;"/></g></svg>