<?xml version="1.0" encoding="UTF-8" standalone="no"?><!DOCTYPE svg PUBLIC "-//W3C//DTD SVG 1.1//EN" "http://www.w3.org/Graphics/SVG/1.1/DTD/svg11.dtd"><svg width="100%" height="100%" viewBox="0 0 300 400" version="1.1" xmlns="http://www.w3.org/2000/svg" xmlns:xlink="http://www.w3.org/1999/xlink" xml:space="preserve" xmlns:serif="http://www.serif.com/" style="fill-rule:evenodd;clip-rule:evenodd;stroke-linejoin:round;stroke-miterlimit:2;"><rect id="D-5" x="0" y="0" width="300" height="400" style="fill:none;"/><path d="M20.926,48.067l7.017,0c0.878,-1.591 1.876,-2.707 2.992,-3.348c1.116,-0.618 2.35,-0.926 3.704,-0.926c1.52,0 2.79,0.213 3.811,0.641c1.021,0.522 1.793,1.223 2.315,2.101c0.974,1.852 1.437,4.262 1.389,7.23c0,1.211 -0.024,2.458 -0.071,3.74c-0.095,1.306 -0.356,2.517 -0.784,3.633c-0.403,1.116 -1.116,2.019 -2.137,2.707c-1.068,0.713 -2.493,1.069 -4.274,1.069c-4.155,-0.048 -6.637,-2.066 -7.444,-6.055l-7.444,0c0.712,4.773 2.553,8.227 5.521,10.365c2.92,2.089 6.138,3.134 9.652,3.134c2.612,-0.048 4.868,-0.653 6.767,-1.817c1.948,-1.116 3.432,-2.35 4.453,-3.704c1.163,-1.377 1.994,-2.956 2.493,-4.737c0.475,-1.805 0.712,-4.393 0.712,-7.765c0,-2.184 -0.071,-4.024 -0.213,-5.52c-0.143,-1.473 -0.38,-2.719 -0.713,-3.74c-0.641,-1.876 -1.686,-3.526 -3.134,-4.951c-0.974,-1.069 -2.244,-1.971 -3.811,-2.707c-1.662,-0.665 -3.491,-1.021 -5.485,-1.069c-3.111,0 -5.877,0.95 -8.299,2.85l0,-11.754l20.658,0l0,-7.444l-27.675,0l0,28.067Z" style="fill:#cb0000;fill-rule:nonzero;"/><path d="M279.074,351.933l-7.017,0c-0.878,1.591 -1.876,2.707 -2.992,3.348c-1.116,0.618 -2.35,0.926 -3.704,0.926c-1.52,0 -2.79,-0.213 -3.811,-0.641c-1.021,-0.522 -1.793,-1.223 -2.315,-2.101c-0.974,-1.852 -1.437,-4.262 -1.389,-7.23c0,-1.211 0.024,-2.458 0.071,-3.74c0.095,-1.306 0.356,-2.517 0.784,-3.633c0.403,-1.116 1.116,-2.019 2.137,-2.707c1.068,-0.713 2.493,-1.069 4.274,-1.069c4.155,0.048 6.637,2.066 7.444,6.055l7.444,0c-0.712,-4.773 -2.553,-8.227 -5.521,-10.365c-2.92,-2.089 -6.138,-3.134 -9.652,-3.134c-2.612,0.048 -4.868,0.653 -6.767,1.817c-1.948,1.116 -3.432,2.35 -4.453,3.704c-1.163,1.377 -1.994,2.956 -2.493,4.737c-0.475,1.805 -0.712,4.393 -0.712,7.765c0,2.184 0.071,4.024 0.213,5.52c0.143,1.473 0.38,2.719 0.713,3.74c0.641,1.876 1.686,3.526 3.134,4.951c0.974,1.069 2.244,1.971 3.811,2.707c1.662,0.665 3.491,1.021 5.485,1.069c3.111,0 5.877,-0.95 8.299,-2.85l0,11.754l-20.658,0l0,7.444l27.675,0l0,-28.067Z" style="fill:#cb0000;fill-rule:nonzero;"/><g id="Diamond"><path d="M92.65,69.893c3.073,5.214 6.854,10.808 11.343,16.781c5.179,6.906 9.357,12.137 12.534,15.693c-2.555,2.694 -6.733,7.907 -12.534,15.642c-4.696,6.284 -8.46,11.912 -11.291,16.884c-0.932,-1.795 -2.21,-3.884 -3.833,-6.267c-2.796,-4.143 -6.267,-8.96 -10.41,-14.45c-0.898,-1.208 -4.057,-5.145 -9.478,-11.809c3.487,-3.97 7.976,-9.633 13.466,-16.988c4.074,-5.455 7.476,-10.617 10.203,-15.486Z" style="fill:#cb0000;fill-rule:nonzero;"/></g><g id="Diamond1" serif:id="Diamond"><path d="M207.143,69.893c3.073,5.214 6.853,10.808 11.342,16.781c5.179,6.906 9.357,12.137 12.534,15.693c-2.555,2.694 -6.733,7.907 -12.534,15.642c-4.696,6.284 -8.459,11.912 -11.291,16.884c-0.932,-1.795 -2.209,-3.884 -3.832,-6.267c-2.797,-4.143 -6.267,-8.96 -10.411,-14.45c-0.897,-1.208 -4.057,-5.145 -9.478,-11.809c3.488,-3.97 7.976,-9.633 13.466,-16.988c4.075,-5.455 7.476,-10.617 10.204,-15.486Z" style="fill:#cb0000;fill-rule:nonzero;"/></g><g id="Diamond2" serif:id="Diamond"><path d="M149.896,167.5c3.073,5.214 6.854,10.807 11.343,16.781c5.179,6.906 9.357,12.137 12.534,15.693c-2.555,2.693 -6.733,7.907 -12.534,15.642c-4.696,6.284 -8.459,11.912 -11.291,16.884c-0.932,-1.795 -2.21,-3.884 -3.832,-6.267c-2.797,-4.143 -6.267,-8.96 -10.411,-14.45c-0.898,-1.209 -4.057,-5.145 -9.478,-11.809c3.487,-3.971 7.976,-9.633 13.466,-16.988c4.075,-5.455 7.476,-10.617 10.203,-15.486Z" style="fill:#cb0000;fill-rule:nonzero;"/></g><g id="Diamond3" serif:id="Diamond"><path d="M92.65,265.107c3.073,5.213 6.854,10.807 11.343,16.781c5.179,6.905 9.357,12.136 12.534,15.693c-2.555,2.693 -6.733,7.907 -12.534,15.641c-4.696,6.284 -8.46,11.913 -11.291,16.885c-0.932,-1.796 -2.21,-3.885 -3.833,-6.267c-2.796,-4.144 -6.267,-8.96 -10.41,-14.45c-0.898,-1.209 -4.057,-5.145 -9.478,-11.809c3.487,-3.971 7.976,-9.634 13.466,-16.988c4.074,-5.456 7.476,-10.618 10.203,-15.486Z" style="fill:#cb0000;fill-rule:nonzero;"/></g><g id="Diamond4" serif:id="Diamond"><path d="M207.143,265.107c3.073,5.213 6.853,10.807 11.342,16.781c5.179,6.905 9.357,12.136 12.534,15.693c-2.555,2.693 -6.733,7.907 -12.534,15.641c-4.696,6.284 -8.459,11.913 -11.291,16.885c-0.932,-1.796 -2.209,-3.885 -3.832,-6.267c-2.797,-4.144 -6.267,-8.96 -10.411,-14.45c-0.897,-1.209 -4.057,-5.145 -9.478,-11.809c3.488,-3.971 7.976,-9.634 13.466,-16.988c4.075,-5.456 7.476,-10.618 10.204,-15.486Z" style="fill:#cb0000;fill-rule:nonzero;"/></g></svg>