<?xml version="1.0" encoding="UTF-8" standalone="no"?><!DOCTYPE svg PUBLIC "-//W3C//DTD SVG 1.1//EN" "http://www.w3.org/Graphics/SVG/1.1/DTD/svg11.dtd"><svg width="100%" height="100%" viewBox="0 0 300 400" version="1.1" xmlns="http://www.w3.org/2000/svg" xmlns:xlink="http://www.w3.org/1999/xlink" xml:space="preserve" xmlns:serif="http://www.serif.com/" style="fill-rule:evenodd;clip-rule:evenodd;stroke-linejoin:round;stroke-miterlimit:2;"><rect id="D-6" x="0" y="0" width="300" height="400" style="fill:none;"/><path d="M22.707,57.398c0.047,4.773 1.579,8.454 4.595,11.042c2.825,2.564 6.197,3.87 10.115,3.918c4.037,-0.048 7.468,-1.354 10.294,-3.918c2.873,-2.588 4.357,-6.269 4.452,-11.042l0,-4.737c0.047,-5.01 -1.093,-8.678 -3.42,-11.005c-2.374,-2.28 -5.271,-3.42 -8.69,-3.42c-3.063,-0.047 -6.364,0.487 -9.902,1.603l0,-4.88c0.095,-5.2 2.517,-7.847 7.266,-7.942c3.372,0.047 5.639,1.496 6.803,4.345l7.658,0c-0.736,-3.823 -2.434,-6.755 -5.094,-8.798c-2.73,-1.994 -5.853,-2.991 -9.367,-2.991c-3.918,0 -7.29,1.282 -10.115,3.846c-3.016,2.589 -4.548,6.281 -4.595,11.077l0,22.902Zm7.444,-4.665c0.095,-5.201 2.517,-7.848 7.266,-7.943c4.725,0.095 7.159,2.742 7.302,7.943l0,4.238c-0.143,5.248 -2.577,7.895 -7.302,7.943c-4.749,-0.048 -7.171,-2.695 -7.266,-7.943l0,-4.238Z" style="fill:#cb0000;fill-rule:nonzero;"/><path d="M277.293,342.602c-0.047,-4.773 -1.579,-8.454 -4.595,-11.042c-2.825,-2.564 -6.197,-3.87 -10.115,-3.918c-4.037,0.048 -7.468,1.354 -10.294,3.918c-2.873,2.588 -4.357,6.269 -4.452,11.042l0,4.737c-0.047,5.01 1.093,8.678 3.42,11.005c2.374,2.28 5.271,3.42 8.69,3.42c3.063,0.047 6.364,-0.487 9.902,-1.603l0,4.88c-0.095,5.2 -2.517,7.847 -7.266,7.942c-3.372,-0.047 -5.639,-1.496 -6.803,-4.345l-7.658,0c0.736,3.823 2.434,6.755 5.094,8.798c2.73,1.994 5.853,2.991 9.367,2.991c3.918,0 7.29,-1.282 10.115,-3.846c3.016,-2.589 4.548,-6.281 4.595,-11.077l0,-22.902Zm-7.444,4.665c-0.095,5.201 -2.517,7.848 -7.266,7.943c-4.725,-0.095 -7.159,-2.742 -7.302,-7.943l0,-4.238c0.143,-5.248 2.577,-7.895 7.302,-7.943c4.749,0.048 7.171,2.695 7.266,7.943l0,4.238Z" style="fill:#cb0000;fill-rule:nonzero;"/><g id="Diamond"><path d="M92.65,54.68c3.073,5.214 6.854,10.807 11.343,16.781c5.179,6.906 9.357,12.137 12.534,15.693c-2.555,2.693 -6.733,7.907 -12.534,15.642c-4.696,6.284 -8.46,11.912 -11.291,16.884c-0.932,-1.795 -2.21,-3.884 -3.833,-6.267c-2.796,-4.143 -6.267,-8.96 -10.41,-14.45c-0.898,-1.209 -4.057,-5.145 -9.478,-11.809c3.487,-3.971 7.976,-9.633 13.466,-16.988c4.074,-5.455 7.476,-10.617 10.203,-15.486Z" style="fill:#cb0000;fill-rule:nonzero;"/></g><g id="Diamond1" serif:id="Diamond"><path d="M207.143,54.68c3.073,5.214 6.853,10.807 11.342,16.781c5.179,6.906 9.357,12.137 12.534,15.693c-2.555,2.693 -6.733,7.907 -12.534,15.642c-4.696,6.284 -8.459,11.912 -11.291,16.884c-0.932,-1.795 -2.209,-3.884 -3.832,-6.267c-2.797,-4.143 -6.267,-8.96 -10.411,-14.45c-0.897,-1.209 -4.057,-5.145 -9.478,-11.809c3.488,-3.971 7.976,-9.633 13.466,-16.988c4.075,-5.455 7.476,-10.617 10.204,-15.486Z" style="fill:#cb0000;fill-rule:nonzero;"/></g><g id="Diamond2" serif:id="Diamond"><path d="M92.65,167.5c3.073,5.214 6.854,10.807 11.343,16.781c5.179,6.906 9.357,12.137 12.534,15.693c-2.555,2.693 -6.733,7.907 -12.534,15.642c-4.696,6.284 -8.46,11.912 -11.291,16.884c-0.932,-1.795 -2.21,-3.884 -3.833,-6.267c-2.796,-4.143 -6.267,-8.96 -10.41,-14.45c-0.898,-1.209 -4.057,-5.145 -9.478,-11.809c3.487,-3.971 7.976,-9.633 13.466,-16.988c4.074,-5.455 7.476,-10.617 10.203,-15.486Z" style="fill:#cb0000;fill-rule:nonzero;"/></g><g id="Diamond3" serif:id="Diamond"><path d="M207.143,167.5c3.073,5.214 6.853,10.807 11.342,16.781c5.179,6.906 9.357,12.137 12.534,15.693c-2.555,2.693 -6.733,7.907 -12.534,15.642c-4.696,6.284 -8.459,11.912 -11.291,16.884c-0.932,-1.795 -2.209,-3.884 -3.832,-6.267c-2.797,-4.143 -6.267,-8.96 -10.411,-14.45c-0.897,-1.209 -4.057,-5.145 -9.478,-11.809c3.488,-3.971 7.976,-9.633 13.466,-16.988c4.075,-5.455 7.476,-10.617 10.204,-15.486Z" style="fill:#cb0000;fill-rule:nonzero;"/></g><g id="Diamond4" serif:id="Diamond"><path d="M92.65,280.32c3.073,5.214 6.854,10.807 11.343,16.781c5.179,6.906 9.357,12.137 12.534,15.693c-2.555,2.693 -6.733,7.907 -12.534,15.641c-4.696,6.285 -8.46,11.913 -11.291,16.885c-0.932,-1.796 -2.21,-3.885 -3.833,-6.267c-2.796,-4.143 -6.267,-8.96 -10.41,-14.45c-0.898,-1.209 -4.057,-5.145 -9.478,-11.809c3.487,-3.971 7.976,-9.633 13.466,-16.988c4.074,-5.455 7.476,-10.618 10.203,-15.486Z" style="fill:#cb0000;fill-rule:nonzero;"/></g><g id="Diamond5" serif:id="Diamond"><path d="M207.143,280.32c3.073,5.214 6.853,10.807 11.342,16.781c5.179,6.906 9.357,12.137 12.534,15.693c-2.555,2.693 -6.733,7.907 -12.534,15.641c-4.696,6.285 -8.459,11.913 -11.291,16.885c-0.932,-1.796 -2.209,-3.885 -3.832,-6.267c-2.797,-4.143 -6.267,-8.96 -10.411,-14.45c-0.897,-1.209 -4.057,-5.145 -9.478,-11.809c3.488,-3.971 7.976,-9.633 13.466,-16.988c4.075,-5.455 7.476,-10.618 10.204,-15.486Z" style="fill:#cb0000;fill-rule:nonzero;"/></g></svg>