<?xml version="1.0" encoding="UTF-8" standalone="no"?><!DOCTYPE svg PUBLIC "-//W3C//DTD SVG 1.1//EN" "http://www.w3.org/Graphics/SVG/1.1/DTD/svg11.dtd"><svg width="100%" height="100%" viewBox="0 0 300 400" version="1.1" xmlns="http://www.w3.org/2000/svg" xmlns:xlink="http://www.w3.org/1999/xlink" xml:space="preserve" xmlns:serif="http://www.serif.com/" style="fill-rule:evenodd;clip-rule:evenodd;stroke-linejoin:round;stroke-miterlimit:2;"><rect id="D-7" x="0" y="0" width="300" height="400" style="fill:none;"/><path d="M23.633,34.959l7.444,0l0,-7.515l13.784,0l-17.559,44.486l8.299,0l17.595,-44.486l0,-7.444l-29.563,0l0,14.959Z" style="fill:#cb0000;fill-rule:nonzero;"/><path d="M276.367,365.041l-7.444,0l0,7.515l-13.784,0l17.559,-44.486l-8.299,0l-17.595,44.486l0,7.444l29.563,0l0,-14.959Z" style="fill:#cb0000;fill-rule:nonzero;"/><g id="Diamond"><path d="M92.65,54.68c3.073,5.214 6.854,10.807 11.343,16.781c5.179,6.906 9.357,12.137 12.534,15.693c-2.555,2.693 -6.733,7.907 -12.534,15.642c-4.696,6.284 -8.46,11.912 -11.291,16.884c-0.932,-1.795 -2.21,-3.884 -3.833,-6.267c-2.796,-4.143 -6.267,-8.96 -10.41,-14.45c-0.898,-1.209 -4.057,-5.145 -9.478,-11.809c3.487,-3.971 7.976,-9.633 13.466,-16.988c4.074,-5.455 7.476,-10.617 10.203,-15.486Z" style="fill:#cb0000;"/></g><g id="Diamond1" serif:id="Diamond"><path d="M207.143,54.68c3.073,5.214 6.853,10.807 11.342,16.781c5.179,6.906 9.357,12.137 12.534,15.693c-2.555,2.693 -6.733,7.907 -12.534,15.642c-4.696,6.284 -8.459,11.912 -11.291,16.884c-0.932,-1.795 -2.209,-3.884 -3.832,-6.267c-2.797,-4.143 -6.267,-8.96 -10.411,-14.45c-0.897,-1.209 -4.057,-5.145 -9.478,-11.809c3.488,-3.971 7.976,-9.633 13.466,-16.988c4.075,-5.455 7.476,-10.617 10.204,-15.486Z" style="fill:#cb0000;"/></g><g id="Diamond2" serif:id="Diamond"><path d="M92.65,167.5c3.073,5.214 6.854,10.807 11.343,16.781c5.179,6.906 9.357,12.137 12.534,15.693c-2.555,2.693 -6.733,7.907 -12.534,15.642c-4.696,6.284 -8.46,11.912 -11.291,16.884c-0.932,-1.795 -2.21,-3.884 -3.833,-6.267c-2.796,-4.143 -6.267,-8.96 -10.41,-14.45c-0.898,-1.209 -4.057,-5.145 -9.478,-11.809c3.487,-3.971 7.976,-9.633 13.466,-16.988c4.074,-5.455 7.476,-10.617 10.203,-15.486Z" style="fill:#cb0000;"/></g><g id="Diamond3" serif:id="Diamond"><path d="M207.143,167.5c3.073,5.214 6.853,10.807 11.342,16.781c5.179,6.906 9.357,12.137 12.534,15.693c-2.555,2.693 -6.733,7.907 -12.534,15.642c-4.696,6.284 -8.459,11.912 -11.291,16.884c-0.932,-1.795 -2.209,-3.884 -3.832,-6.267c-2.797,-4.143 -6.267,-8.96 -10.411,-14.45c-0.897,-1.209 -4.057,-5.145 -9.478,-11.809c3.488,-3.971 7.976,-9.633 13.466,-16.988c4.075,-5.455 7.476,-10.617 10.204,-15.486Z" style="fill:#cb0000;"/></g><g id="Diamond4" serif:id="Diamond"><path d="M149.896,111.09c3.073,5.214 6.854,10.807 11.343,16.781c5.179,6.906 9.357,12.137 12.534,15.693c-2.555,2.693 -6.733,7.907 -12.534,15.642c-4.696,6.284 -8.459,11.912 -11.291,16.884c-0.932,-1.795 -2.21,-3.884 -3.832,-6.267c-2.797,-4.143 -6.267,-8.96 -10.411,-14.45c-0.898,-1.209 -4.057,-5.145 -9.478,-11.809c3.487,-3.971 7.976,-9.633 13.466,-16.988c4.075,-5.455 7.476,-10.617 10.203,-15.486Z" style="fill:#cb0000;"/></g><g id="Diamond5" serif:id="Diamond"><path d="M92.65,280.32c3.073,5.214 6.854,10.807 11.343,16.781c5.179,6.906 9.357,12.137 12.534,15.693c-2.555,2.693 -6.733,7.907 -12.534,15.641c-4.696,6.285 -8.46,11.913 -11.291,16.885c-0.932,-1.796 -2.21,-3.885 -3.833,-6.267c-2.796,-4.143 -6.267,-8.96 -10.41,-14.45c-0.898,-1.209 -4.057,-5.145 -9.478,-11.809c3.487,-3.971 7.976,-9.633 13.466,-16.988c4.074,-5.455 7.476,-10.618 10.203,-15.486Z" style="fill:#cb0000;"/></g><g id="Diamond6" serif:id="Diamond"><path d="M207.143,280.32c3.073,5.214 6.853,10.807 11.342,16.781c5.179,6.906 9.357,12.137 12.534,15.693c-2.555,2.693 -6.733,7.907 -12.534,15.641c-4.696,6.285 -8.459,11.913 -11.291,16.885c-0.932,-1.796 -2.209,-3.885 -3.832,-6.267c-2.797,-4.143 -6.267,-8.96 -10.411,-14.45c-0.897,-1.209 -4.057,-5.145 -9.478,-11.809c3.488,-3.971 7.976,-9.633 13.466,-16.988c4.075,-5.455 7.476,-10.618 10.204,-15.486Z" style="fill:#cb0000;"/></g></svg>