<?xml version="1.0" encoding="UTF-8" standalone="no"?><!DOCTYPE svg PUBLIC "-//W3C//DTD SVG 1.1//EN" "http://www.w3.org/Graphics/SVG/1.1/DTD/svg11.dtd"><svg width="100%" height="100%" viewBox="0 0 300 400" version="1.1" xmlns="http://www.w3.org/2000/svg" xmlns:xlink="http://www.w3.org/1999/xlink" xml:space="preserve" xmlns:serif="http://www.serif.com/" style="fill-rule:evenodd;clip-rule:evenodd;stroke-linejoin:round;stroke-miterlimit:2;"><rect id="D-8" x="0" y="0" width="300" height="400" style="fill:none;"/><path d="M28.406,34.853c0.047,-2.47 0.819,-4.334 2.315,-5.592c1.472,-1.211 3.17,-1.817 5.093,-1.817c1.995,0 3.728,0.606 5.2,1.817c1.449,1.258 2.197,3.122 2.244,5.592c-0.047,2.398 -0.795,4.226 -2.244,5.485c-1.472,1.306 -3.205,1.959 -5.2,1.959c-1.923,0 -3.621,-0.653 -5.093,-1.959c-1.496,-1.259 -2.268,-3.087 -2.315,-5.485Zm-8.406,22.332c0.047,4.678 1.627,8.417 4.737,11.219c2.968,2.873 6.661,4.334 11.077,4.381c4.441,-0.047 8.192,-1.508 11.255,-4.381c3.016,-2.802 4.548,-6.541 4.595,-11.219c-0.047,-5.01 -2.09,-8.905 -6.126,-11.683c1.543,-1.353 2.802,-2.909 3.775,-4.666c0.926,-1.638 1.389,-3.585 1.389,-5.841c-0.047,-4.322 -1.46,-7.895 -4.238,-10.721c-2.755,-2.802 -6.304,-4.227 -10.65,-4.274c-4.274,0.047 -7.764,1.472 -10.471,4.274c-2.874,2.826 -4.334,6.399 -4.381,10.721c0,2.256 0.51,4.203 1.531,5.841c0.879,1.757 2.09,3.313 3.633,4.666c-4.036,2.778 -6.079,6.673 -6.126,11.683Zm7.444,-0.071c0.048,-2.422 0.902,-4.393 2.565,-5.913c1.59,-1.496 3.526,-2.268 5.805,-2.315c2.351,0.047 4.322,0.819 5.913,2.315c1.614,1.52 2.445,3.491 2.493,5.913c-0.048,2.374 -0.879,4.321 -2.493,5.841c-1.591,1.591 -3.562,2.386 -5.913,2.386c-2.279,0 -4.215,-0.795 -5.805,-2.386c-1.663,-1.52 -2.517,-3.467 -2.565,-5.841Z" style="fill:#cb0000;fill-rule:nonzero;"/><path d="M271.594,365.147c-0.047,2.47 -0.819,4.334 -2.315,5.592c-1.472,1.211 -3.17,1.817 -5.093,1.817c-1.995,0 -3.728,-0.606 -5.2,-1.817c-1.449,-1.258 -2.197,-3.122 -2.244,-5.592c0.047,-2.398 0.795,-4.226 2.244,-5.485c1.472,-1.306 3.205,-1.959 5.2,-1.959c1.923,0 3.621,0.653 5.093,1.959c1.496,1.259 2.268,3.087 2.315,5.485Zm8.406,-22.332c-0.047,-4.678 -1.627,-8.417 -4.737,-11.219c-2.968,-2.873 -6.661,-4.334 -11.077,-4.381c-4.441,0.047 -8.192,1.508 -11.255,4.381c-3.016,2.802 -4.548,6.541 -4.595,11.219c0.047,5.01 2.09,8.905 6.126,11.683c-1.543,1.353 -2.802,2.909 -3.775,4.666c-0.926,1.638 -1.389,3.585 -1.389,5.841c0.047,4.322 1.46,7.895 4.238,10.721c2.755,2.802 6.304,4.227 10.65,4.274c4.274,-0.047 7.764,-1.472 10.471,-4.274c2.874,-2.826 4.334,-6.399 4.381,-10.721c0,-2.256 -0.51,-4.203 -1.531,-5.841c-0.879,-1.757 -2.09,-3.313 -3.633,-4.666c4.036,-2.778 6.079,-6.673 6.126,-11.683Zm-7.444,0.071c-0.048,2.422 -0.902,4.393 -2.565,5.913c-1.59,1.496 -3.526,2.268 -5.805,2.315c-2.351,-0.047 -4.322,-0.819 -5.913,-2.315c-1.614,-1.52 -2.445,-3.491 -2.493,-5.913c0.048,-2.374 0.879,-4.321 2.493,-5.841c1.591,-1.591 3.562,-2.386 5.913,-2.386c2.279,0 4.215,0.795 5.805,2.386c1.663,1.52 2.517,3.467 2.565,5.841Z" style="fill:#cb0000;fill-rule:nonzero;"/><g id="Diamond"><path d="M92.65,54.68c3.073,5.214 6.854,10.807 11.343,16.781c5.179,6.906 9.357,12.137 12.534,15.693c-2.555,2.693 -6.733,7.907 -12.534,15.642c-4.696,6.284 -8.46,11.912 -11.291,16.884c-0.932,-1.795 -2.21,-3.884 -3.833,-6.267c-2.796,-4.143 -6.267,-8.96 -10.41,-14.45c-0.898,-1.209 -4.057,-5.145 -9.478,-11.809c3.487,-3.971 7.976,-9.633 13.466,-16.988c4.074,-5.455 7.476,-10.617 10.203,-15.486Z" style="fill:#cb0000;fill-rule:nonzero;"/></g><g id="Diamond1" serif:id="Diamond"><path d="M207.143,54.68c3.073,5.214 6.853,10.807 11.342,16.781c5.179,6.906 9.357,12.137 12.534,15.693c-2.555,2.693 -6.733,7.907 -12.534,15.642c-4.696,6.284 -8.459,11.912 -11.291,16.884c-0.932,-1.795 -2.209,-3.884 -3.832,-6.267c-2.797,-4.143 -6.267,-8.96 -10.411,-14.45c-0.897,-1.209 -4.057,-5.145 -9.478,-11.809c3.488,-3.971 7.976,-9.633 13.466,-16.988c4.075,-5.455 7.476,-10.617 10.204,-15.486Z" style="fill:#cb0000;fill-rule:nonzero;"/></g><g id="Diamond2" serif:id="Diamond"><path d="M92.65,129.893c3.073,5.214 6.854,10.808 11.343,16.781c5.179,6.906 9.357,12.137 12.534,15.693c-2.555,2.694 -6.733,7.907 -12.534,15.642c-4.696,6.284 -8.46,11.912 -11.291,16.884c-0.932,-1.795 -2.21,-3.884 -3.833,-6.267c-2.796,-4.143 -6.267,-8.96 -10.41,-14.45c-0.898,-1.208 -4.057,-5.145 -9.478,-11.809c3.487,-3.97 7.976,-9.633 13.466,-16.988c4.074,-5.455 7.476,-10.617 10.203,-15.486Z" style="fill:#cb0000;fill-rule:nonzero;"/></g><g id="Diamond3" serif:id="Diamond"><path d="M207.143,129.893c3.073,5.214 6.853,10.808 11.342,16.781c5.179,6.906 9.357,12.137 12.534,15.693c-2.555,2.694 -6.733,7.907 -12.534,15.642c-4.696,6.284 -8.459,11.912 -11.291,16.884c-0.932,-1.795 -2.209,-3.884 -3.832,-6.267c-2.797,-4.143 -6.267,-8.96 -10.411,-14.45c-0.897,-1.208 -4.057,-5.145 -9.478,-11.809c3.488,-3.97 7.976,-9.633 13.466,-16.988c4.075,-5.455 7.476,-10.617 10.204,-15.486Z" style="fill:#cb0000;fill-rule:nonzero;"/></g><g id="Diamond4" serif:id="Diamond"><path d="M92.65,205.107c3.073,5.213 6.854,10.807 11.343,16.781c5.179,6.905 9.357,12.136 12.534,15.693c-2.555,2.693 -6.733,7.907 -12.534,15.641c-4.696,6.284 -8.46,11.913 -11.291,16.885c-0.932,-1.796 -2.21,-3.885 -3.833,-6.267c-2.796,-4.144 -6.267,-8.96 -10.41,-14.45c-0.898,-1.209 -4.057,-5.145 -9.478,-11.809c3.487,-3.971 7.976,-9.634 13.466,-16.988c4.074,-5.456 7.476,-10.618 10.203,-15.486Z" style="fill:#cb0000;fill-rule:nonzero;"/></g><g id="Diamond5" serif:id="Diamond"><path d="M207.143,205.107c3.073,5.213 6.853,10.807 11.342,16.781c5.179,6.905 9.357,12.136 12.534,15.693c-2.555,2.693 -6.733,7.907 -12.534,15.641c-4.696,6.284 -8.459,11.913 -11.291,16.885c-0.932,-1.796 -2.209,-3.885 -3.832,-6.267c-2.797,-4.144 -6.267,-8.96 -10.411,-14.45c-0.897,-1.209 -4.057,-5.145 -9.478,-11.809c3.488,-3.971 7.976,-9.634 13.466,-16.988c4.075,-5.456 7.476,-10.618 10.204,-15.486Z" style="fill:#cb0000;fill-rule:nonzero;"/></g><g id="Diamond6" serif:id="Diamond"><path d="M92.65,280.32c3.073,5.214 6.854,10.807 11.343,16.781c5.179,6.906 9.357,12.137 12.534,15.693c-2.555,2.693 -6.733,7.907 -12.534,15.641c-4.696,6.285 -8.46,11.913 -11.291,16.885c-0.932,-1.796 -2.21,-3.885 -3.833,-6.267c-2.796,-4.143 -6.267,-8.96 -10.41,-14.45c-0.898,-1.209 -4.057,-5.145 -9.478,-11.809c3.487,-3.971 7.976,-9.633 13.466,-16.988c4.074,-5.455 7.476,-10.618 10.203,-15.486Z" style="fill:#cb0000;fill-rule:nonzero;"/></g><g id="Diamond7" serif:id="Diamond"><path d="M207.143,280.32c3.073,5.214 6.853,10.807 11.342,16.781c5.179,6.906 9.357,12.137 12.534,15.693c-2.555,2.693 -6.733,7.907 -12.534,15.641c-4.696,6.285 -8.459,11.913 -11.291,16.885c-0.932,-1.796 -2.209,-3.885 -3.832,-6.267c-2.797,-4.143 -6.267,-8.96 -10.411,-14.45c-0.897,-1.209 -4.057,-5.145 -9.478,-11.809c3.488,-3.971 7.976,-9.633 13.466,-16.988c4.075,-5.455 7.476,-10.618 10.204,-15.486Z" style="fill:#cb0000;fill-rule:nonzero;"/></g></svg>