<?xml version="1.0" encoding="UTF-8" standalone="no"?><!DOCTYPE svg PUBLIC "-//W3C//DTD SVG 1.1//EN" "http://www.w3.org/Graphics/SVG/1.1/DTD/svg11.dtd"><svg width="100%" height="100%" viewBox="0 0 301 400" version="1.1" xmlns="http://www.w3.org/2000/svg" xmlns:xlink="http://www.w3.org/1999/xlink" xml:space="preserve" xmlns:serif="http://www.serif.com/" style="fill-rule:evenodd;clip-rule:evenodd;stroke-linejoin:round;stroke-miterlimit:2;"><rect id="D-9" x="0.958" y="0" width="300" height="400" style="fill:none;"/><path d="M20.959,39.697c-0.047,4.986 1.116,8.631 3.491,10.934c2.374,2.375 5.247,3.538 8.619,3.491c3.063,0.047 6.364,-0.487 9.902,-1.603l0,4.879c-0.143,5.248 -2.576,7.896 -7.302,7.943c-3.348,0 -5.604,-1.448 -6.767,-4.345l-7.658,0c0.784,3.775 2.529,6.66 5.236,8.655c2.683,2.042 5.746,3.087 9.189,3.134c4.037,-0.047 7.468,-1.353 10.294,-3.918c2.873,-2.588 4.357,-6.268 4.452,-11.041l0,-22.902c-0.095,-4.797 -1.579,-8.489 -4.452,-11.077c-2.826,-2.565 -6.257,-3.847 -10.294,-3.847c-3.918,0 -7.289,1.282 -10.115,3.847c-3.016,2.588 -4.547,6.28 -4.595,11.077l0,4.773Zm7.444,-4.31c0.095,-5.2 2.517,-7.848 7.266,-7.943c4.726,0.095 7.159,2.743 7.302,7.943l0,4.238c-0.143,5.248 -2.576,7.896 -7.302,7.943c-4.749,-0.047 -7.171,-2.695 -7.266,-7.943l0,-4.238Z" style="fill:#cb0000;fill-rule:nonzero;"/><path d="M280.956,360.303c0.048,-4.986 -1.116,-8.631 -3.49,-10.934c-2.375,-2.375 -5.248,-3.538 -8.62,-3.491c-3.063,-0.047 -6.363,0.487 -9.901,1.603l0,-4.879c0.142,-5.248 2.576,-7.896 7.301,-7.943c3.348,0 5.604,1.448 6.768,4.345l7.657,0c-0.783,-3.775 -2.528,-6.66 -5.235,-8.655c-2.684,-2.042 -5.747,-3.087 -9.19,-3.134c-4.036,0.047 -7.467,1.353 -10.293,3.918c-2.873,2.588 -4.357,6.268 -4.452,11.041l0,22.902c0.095,4.797 1.579,8.489 4.452,11.077c2.826,2.565 6.257,3.847 10.293,3.847c3.918,0 7.29,-1.282 10.116,-3.847c3.015,-2.588 4.547,-6.28 4.594,-11.077l0,-4.773Zm-7.444,4.31c-0.095,5.2 -2.517,7.848 -7.266,7.943c-4.725,-0.095 -7.159,-2.743 -7.301,-7.943l0,-4.238c0.142,-5.248 2.576,-7.896 7.301,-7.943c4.749,0.047 7.171,2.695 7.266,7.943l0,4.238Z" style="fill:#cb0000;fill-rule:nonzero;"/><g id="Diamond"><path d="M93.608,54.68c3.073,5.214 6.854,10.807 11.343,16.781c5.179,6.906 9.357,12.137 12.534,15.693c-2.556,2.693 -6.734,7.907 -12.534,15.642c-4.696,6.284 -8.46,11.912 -11.291,16.884c-0.932,-1.795 -2.21,-3.884 -3.833,-6.267c-2.797,-4.143 -6.267,-8.96 -10.41,-14.45c-0.898,-1.209 -4.057,-5.145 -9.478,-11.809c3.487,-3.971 7.976,-9.633 13.466,-16.988c4.074,-5.455 7.475,-10.617 10.203,-15.486Z" style="fill:#cb0000;"/></g><g id="Diamond1" serif:id="Diamond"><path d="M208.1,54.68c3.073,5.214 6.854,10.807 11.343,16.781c5.179,6.906 9.357,12.137 12.534,15.693c-2.555,2.693 -6.733,7.907 -12.534,15.642c-4.696,6.284 -8.46,11.912 -11.291,16.884c-0.932,-1.795 -2.21,-3.884 -3.833,-6.267c-2.796,-4.143 -6.266,-8.96 -10.41,-14.45c-0.898,-1.209 -4.057,-5.145 -9.478,-11.809c3.487,-3.971 7.976,-9.633 13.466,-16.988c4.075,-5.455 7.476,-10.617 10.203,-15.486Z" style="fill:#cb0000;"/></g><g id="Diamond2" serif:id="Diamond"><path d="M150.854,167.5c3.073,5.214 6.854,10.807 11.343,16.781c5.179,6.906 9.357,12.137 12.534,15.693c-2.555,2.693 -6.733,7.907 -12.534,15.642c-4.696,6.284 -8.46,11.912 -11.291,16.884c-0.932,-1.795 -2.21,-3.884 -3.833,-6.267c-2.796,-4.143 -6.267,-8.96 -10.41,-14.45c-0.898,-1.209 -4.057,-5.145 -9.478,-11.809c3.487,-3.971 7.976,-9.633 13.466,-16.988c4.074,-5.455 7.475,-10.617 10.203,-15.486Z" style="fill:#cb0000;"/></g><g id="Diamond3" serif:id="Diamond"><path d="M93.608,129.893c3.073,5.214 6.854,10.808 11.343,16.781c5.179,6.906 9.357,12.137 12.534,15.693c-2.556,2.694 -6.734,7.907 -12.534,15.642c-4.696,6.284 -8.46,11.912 -11.291,16.884c-0.932,-1.795 -2.21,-3.884 -3.833,-6.267c-2.797,-4.143 -6.267,-8.96 -10.41,-14.45c-0.898,-1.208 -4.057,-5.145 -9.478,-11.809c3.487,-3.97 7.976,-9.633 13.466,-16.988c4.074,-5.455 7.475,-10.617 10.203,-15.486Z" style="fill:#cb0000;"/></g><g id="Diamond4" serif:id="Diamond"><path d="M208.1,129.893c3.073,5.214 6.854,10.808 11.343,16.781c5.179,6.906 9.357,12.137 12.534,15.693c-2.555,2.694 -6.733,7.907 -12.534,15.642c-4.696,6.284 -8.46,11.912 -11.291,16.884c-0.932,-1.795 -2.21,-3.884 -3.833,-6.267c-2.796,-4.143 -6.266,-8.96 -10.41,-14.45c-0.898,-1.208 -4.057,-5.145 -9.478,-11.809c3.487,-3.97 7.976,-9.633 13.466,-16.988c4.075,-5.455 7.476,-10.617 10.203,-15.486Z" style="fill:#cb0000;"/></g><g id="Diamond5" serif:id="Diamond"><path d="M93.608,205.107c3.073,5.213 6.854,10.807 11.343,16.781c5.179,6.905 9.357,12.136 12.534,15.693c-2.556,2.693 -6.734,7.907 -12.534,15.641c-4.696,6.284 -8.46,11.913 -11.291,16.885c-0.932,-1.796 -2.21,-3.885 -3.833,-6.267c-2.797,-4.144 -6.267,-8.96 -10.41,-14.45c-0.898,-1.209 -4.057,-5.145 -9.478,-11.809c3.487,-3.971 7.976,-9.634 13.466,-16.988c4.074,-5.456 7.475,-10.618 10.203,-15.486Z" style="fill:#cb0000;"/></g><g id="Diamond6" serif:id="Diamond"><path d="M208.1,205.107c3.073,5.213 6.854,10.807 11.343,16.781c5.179,6.905 9.357,12.136 12.534,15.693c-2.555,2.693 -6.733,7.907 -12.534,15.641c-4.696,6.284 -8.46,11.913 -11.291,16.885c-0.932,-1.796 -2.21,-3.885 -3.833,-6.267c-2.796,-4.144 -6.266,-8.96 -10.41,-14.45c-0.898,-1.209 -4.057,-5.145 -9.478,-11.809c3.487,-3.971 7.976,-9.634 13.466,-16.988c4.075,-5.456 7.476,-10.618 10.203,-15.486Z" style="fill:#cb0000;"/></g><g id="Diamond7" serif:id="Diamond"><path d="M93.608,280.32c3.073,5.214 6.854,10.807 11.343,16.781c5.179,6.906 9.357,12.137 12.534,15.693c-2.556,2.693 -6.734,7.907 -12.534,15.641c-4.696,6.285 -8.46,11.913 -11.291,16.885c-0.932,-1.796 -2.21,-3.885 -3.833,-6.267c-2.797,-4.143 -6.267,-8.96 -10.41,-14.45c-0.898,-1.209 -4.057,-5.145 -9.478,-11.809c3.487,-3.971 7.976,-9.633 13.466,-16.988c4.074,-5.455 7.475,-10.618 10.203,-15.486Z" style="fill:#cb0000;"/></g><g id="Diamond8" serif:id="Diamond"><path d="M208.1,280.32c3.073,5.214 6.854,10.807 11.343,16.781c5.179,6.906 9.357,12.137 12.534,15.693c-2.555,2.693 -6.733,7.907 -12.534,15.641c-4.696,6.285 -8.46,11.913 -11.291,16.885c-0.932,-1.796 -2.21,-3.885 -3.833,-6.267c-2.796,-4.143 -6.266,-8.96 -10.41,-14.45c-0.898,-1.209 -4.057,-5.145 -9.478,-11.809c3.487,-3.971 7.976,-9.633 13.466,-16.988c4.075,-5.455 7.476,-10.618 10.203,-15.486Z" style="fill:#cb0000;"/></g></svg>