<?xml version="1.0" encoding="UTF-8" standalone="no"?><!DOCTYPE svg PUBLIC "-//W3C//DTD SVG 1.1//EN" "http://www.w3.org/Graphics/SVG/1.1/DTD/svg11.dtd"><svg width="100%" height="100%" viewBox="0 0 300 400" version="1.1" xmlns="http://www.w3.org/2000/svg" xmlns:xlink="http://www.w3.org/1999/xlink" xml:space="preserve" xmlns:serif="http://www.serif.com/" style="fill-rule:evenodd;clip-rule:evenodd;stroke-linejoin:round;stroke-miterlimit:2;"><rect id="D-A" x="0" y="0" width="300" height="400" style="fill:none;"/><path d="M34.603,53.338l7.516,-22.688l0.142,0l7.515,22.688l-15.173,0Zm21.442,18.592l8.299,0l-18.877,-51.93l-6.59,0l-18.877,51.93l8.335,0l3.989,-11.611l19.696,0l4.025,11.611Z" style="fill:#cb0000;fill-rule:nonzero;"/><path d="M265.397,346.662l-7.516,22.688l-0.142,0l-7.515,-22.688l15.173,0Zm-21.442,-18.592l-8.299,0l18.877,51.93l6.59,0l18.877,-51.93l-8.335,0l-3.989,11.611l-19.696,0l-4.025,-11.611Z" style="fill:#cb0000;fill-rule:nonzero;"/><g id="Diamond"><path d="M149.793,135c6.146,10.428 13.708,21.615 22.685,33.562c10.359,13.811 18.715,24.273 25.068,31.386c-5.11,5.387 -13.466,15.814 -25.068,31.283c-9.392,12.568 -16.919,23.825 -22.582,33.769c-1.864,-3.591 -4.419,-7.769 -7.665,-12.534c-5.594,-8.287 -12.534,-17.92 -20.821,-28.9c-1.795,-2.417 -8.114,-10.29 -18.956,-23.618c6.975,-7.941 15.952,-19.267 26.932,-33.976c8.149,-10.911 14.951,-21.235 20.407,-30.972Z" style="fill:#cb0000;"/></g></svg>