<?xml version="1.0" encoding="UTF-8" standalone="no"?><!DOCTYPE svg PUBLIC "-//W3C//DTD SVG 1.1//EN" "http://www.w3.org/Graphics/SVG/1.1/DTD/svg11.dtd"><svg width="100%" height="100%" viewBox="0 0 301 401" version="1.1" xmlns="http://www.w3.org/2000/svg" xmlns:xlink="http://www.w3.org/1999/xlink" xml:space="preserve" xmlns:serif="http://www.serif.com/" style="fill-rule:evenodd;clip-rule:evenodd;stroke-linejoin:round;stroke-miterlimit:2;"><rect id="D-D" x="0.039" y="0.039" width="300" height="400" style="fill:none;"/><g id="Diamond"><path d="M137.813,141.233c3.782,6.417 8.436,13.302 13.96,20.653c6.375,8.5 11.517,14.938 15.427,19.315c-3.145,3.315 -8.287,9.732 -15.427,19.251c-5.779,7.735 -10.411,14.662 -13.896,20.781c-1.147,-2.21 -2.72,-4.781 -4.717,-7.713c-3.442,-5.1 -7.713,-11.028 -12.813,-17.785c-1.105,-1.487 -4.993,-6.332 -11.665,-14.534c4.292,-4.887 9.816,-11.856 16.573,-20.908c5.015,-6.715 9.201,-13.068 12.558,-19.06Z" style="fill:#cb0000;fill-rule:nonzero;"/></g><path d="M137.096,258.846l27.161,0c5.999,0 11.065,-1.317 15.198,-3.951c4.171,-2.451 7.426,-5.56 9.767,-9.328c0.878,-1.426 1.628,-2.798 2.25,-4.115c0.585,-1.353 1.024,-2.89 1.317,-4.609c0.622,-3.402 0.933,-9.401 0.933,-17.997c0,-8.084 -0.202,-13.773 -0.604,-17.065c-0.512,-3.292 -1.738,-6.438 -3.676,-9.437c-5.414,-8.926 -13.535,-13.425 -24.362,-13.498l-27.984,0l0,80Zm12.126,-68.533l14.486,0c6.145,-0.146 10.901,2.104 14.266,6.749c1.646,1.866 2.689,4.299 3.128,7.298c0.329,3 0.493,7.974 0.493,14.925c0,7.133 -0.164,11.998 -0.493,14.595c-0.366,2.634 -1.226,4.81 -2.579,6.529c-3.073,4.646 -8.011,6.969 -14.815,6.969l-14.486,0l0,-57.065Z" style="fill:#cb0000;fill-rule:nonzero;"/><path d="M165.41,172.849l2.596,0.111l2.542,0.268l2.473,0.427l2.408,0.591l2.339,0.76l2.26,0.926l2.169,1.094l2.077,1.26l1.974,1.42l1.863,1.573l1.751,1.723l1.637,1.864l1.519,1.997l1.999,3.081l1.348,2.465l1.112,2.551l0.864,2.625l0.609,2.691l0.248,1.912l0.228,3.035l0.16,3.64l0.097,4.281l0.038,4.941l0.001,0.762l-0.001,0.811l-0.003,0.797l-0.005,0.783l-0.006,0.768l-0.009,0.754l-0.01,0.739l-0.012,0.724l-0.014,0.711l-0.016,0.695l-0.018,0.682l-0.02,0.668l-0.021,0.652l-0.024,0.639l-0.026,0.625l-0.027,0.611l-0.03,0.597l-0.031,0.583l-0.034,0.57l-0.036,0.556l-0.038,0.543l-0.039,0.525l-0.021,0.265l-0.022,0.256l-0.022,0.254l-0.023,0.251l-0.023,0.247l-0.023,0.243l-0.025,0.242l-0.025,0.238l-0.025,0.235l-0.027,0.233l-0.027,0.23l-0.027,0.226l-0.029,0.223l-0.029,0.221l-0.03,0.219l-0.031,0.216l-0.031,0.212l-0.032,0.21l-0.034,0.21l-0.034,0.206l-0.035,0.203l-0.029,0.164l-0.029,0.164l-0.035,0.197l-0.037,0.197l-0.038,0.196l-0.039,0.194l-0.04,0.194l-0.041,0.195l-0.043,0.193l-0.044,0.192l-0.045,0.192l-0.047,0.191l-0.047,0.189l-0.049,0.19l-0.051,0.19l-0.051,0.188l-0.053,0.188l-0.054,0.186l-0.055,0.185l-0.057,0.185l-0.058,0.185l-0.06,0.185l-0.061,0.185l-0.062,0.181l-0.063,0.18l-0.065,0.182l-0.066,0.179l-0.068,0.18l-0.07,0.18l-0.07,0.178l-0.073,0.177l-0.072,0.175l-0.114,0.266l-0.182,0.381l-0.141,0.29l-0.145,0.291l-0.147,0.292l-0.15,0.292l-0.153,0.291l-0.156,0.293l-0.159,0.294l-0.162,0.293l-0.165,0.294l-0.168,0.295l-0.17,0.295l-0.173,0.296l-0.177,0.297l-0.179,0.297l-0.19,0.311l-0.141,0.225l-0.137,0.215l-0.139,0.215l-0.141,0.213l-0.143,0.212l-0.144,0.211l-0.145,0.208l-0.146,0.207l-0.151,0.211l-0.151,0.206l-0.151,0.203l-0.153,0.202l-0.156,0.203l-0.158,0.202l-0.159,0.201l-0.161,0.198l-0.161,0.197l-0.164,0.196l-0.166,0.196l-0.165,0.192l-0.169,0.194l-0.171,0.191l-0.172,0.191l-0.173,0.189l-0.173,0.185l-0.175,0.185l-0.178,0.186l-0.182,0.186l-0.179,0.18l-0.181,0.18l-0.184,0.18l-0.186,0.179l-0.188,0.178l-0.188,0.175l-0.188,0.174l-0.19,0.171l-0.195,0.174l-0.195,0.171l-0.194,0.168l-0.198,0.168l-0.196,0.165l-0.201,0.166l-0.202,0.164l-0.201,0.161l-0.204,0.162l-0.206,0.16l-0.207,0.159l-0.209,0.157l-0.208,0.155l-0.212,0.155l-0.213,0.153l-0.212,0.151l-0.215,0.151l-0.217,0.149l-0.218,0.148l-0.218,0.145l-0.218,0.144l-0.225,0.146l-0.223,0.143l-0.222,0.139l-0.227,0.141l-0.225,0.137l-0.229,0.138l-0.142,0.084l-0.15,0.095l-0.248,0.152l-0.248,0.15l-0.253,0.148l-0.255,0.147l-0.253,0.141l-0.255,0.14l-0.259,0.139l-0.258,0.134l-0.263,0.134l-0.261,0.129l-0.262,0.127l-0.267,0.125l-0.265,0.122l-0.269,0.121l-0.271,0.118l-0.27,0.114l-0.27,0.111l-0.272,0.109l-0.277,0.108l-0.277,0.105l-0.276,0.101l-0.277,0.099l-0.279,0.097l-0.282,0.094l-0.284,0.092l-0.282,0.089l-0.284,0.087l-0.287,0.084l-0.289,0.082l-0.287,0.079l-0.287,0.076l-0.292,0.074l-0.291,0.072l-0.291,0.069l-0.295,0.067l-0.294,0.063l-0.297,0.063l-0.299,0.059l-0.294,0.056l-0.301,0.055l-0.301,0.052l-0.3,0.05l-0.301,0.047l-0.302,0.044l-0.306,0.043l-0.307,0.04l-0.305,0.038l-0.306,0.035l-0.309,0.033l-0.311,0.031l-0.309,0.028l-0.31,0.026l-0.314,0.024l-0.312,0.021l-0.313,0.019l-0.317,0.017l-0.317,0.015l-0.316,0.012l-0.317,0.01l-0.32,0.008l-0.319,0.005l-0.32,0.004l-0.313,0.001l-27.171,0l-0.428,-0.016l-0.426,-0.045l-0.421,-0.076l-0.415,-0.106l-0.407,-0.136l-0.395,-0.163l-0.383,-0.192l-0.369,-0.219l-0.352,-0.244l-0.333,-0.269l-0.314,-0.292l-0.291,-0.313l-0.269,-0.334l-0.244,-0.351l-0.219,-0.369l-0.192,-0.383l-0.164,-0.395l-0.135,-0.407l-0.106,-0.415l-0.076,-0.421l-0.046,-0.426l-0.015,-0.428l0,-80l0.015,-0.428l0.046,-0.426l0.076,-0.422l0.106,-0.415l0.135,-0.406l0.164,-0.396l0.192,-0.383l0.219,-0.368l0.244,-0.352l0.269,-0.333l0.291,-0.314l0.314,-0.292l0.333,-0.268l0.352,-0.245l0.369,-0.218l0.383,-0.192l0.395,-0.164l0.407,-0.135l0.415,-0.106l0.421,-0.076l0.426,-0.046l0.428,-0.015l28.013,0l0.301,0.003Zm-28.314,5.997l0,80l27.161,0l0.28,-0.001l0.279,-0.003l0.278,-0.005l0.276,-0.007l0.276,-0.008l0.273,-0.011l0.273,-0.013l0.27,-0.014l0.27,-0.016l0.268,-0.019l0.267,-0.02l0.266,-0.022l0.264,-0.024l0.263,-0.026l0.261,-0.028l0.26,-0.03l0.259,-0.032l0.257,-0.034l0.256,-0.036l0.254,-0.037l0.254,-0.04l0.251,-0.041l0.251,-0.044l0.249,-0.045l0.248,-0.047l0.246,-0.049l0.245,-0.051l0.244,-0.054l0.242,-0.054l0.241,-0.057l0.239,-0.059l0.239,-0.061l0.236,-0.063l0.236,-0.064l0.234,-0.067l0.233,-0.068l0.231,-0.071l0.23,-0.072l0.228,-0.074l0.228,-0.077l0.226,-0.078l0.224,-0.08l0.223,-0.082l0.222,-0.084l0.22,-0.085l0.219,-0.088l0.218,-0.09l0.216,-0.092l0.215,-0.093l0.214,-0.096l0.212,-0.097l0.211,-0.099l0.209,-0.102l0.209,-0.103l0.206,-0.105l0.206,-0.107l0.204,-0.109l0.202,-0.111l0.202,-0.113l0.199,-0.115l0.199,-0.116l0.197,-0.119l0.196,-0.12l0.194,-0.123l0.195,-0.115l0.194,-0.117l0.192,-0.117l0.191,-0.118l0.189,-0.119l0.188,-0.121l0.187,-0.121l0.185,-0.122l0.184,-0.123l0.183,-0.124l0.182,-0.125l0.18,-0.126l0.178,-0.127l0.178,-0.128l0.176,-0.129l0.175,-0.13l0.173,-0.13l0.172,-0.132l0.171,-0.133l0.169,-0.134l0.168,-0.134l0.167,-0.136l0.165,-0.136l0.164,-0.138l0.163,-0.138l0.161,-0.14l0.16,-0.14l0.159,-0.142l0.157,-0.142l0.156,-0.143l0.154,-0.145l0.154,-0.145l0.152,-0.146l0.15,-0.147l0.15,-0.149l0.147,-0.149l0.147,-0.15l0.145,-0.151l0.144,-0.152l0.143,-0.153l0.141,-0.154l0.14,-0.155l0.138,-0.156l0.138,-0.156l0.135,-0.158l0.135,-0.159l0.133,-0.16l0.132,-0.16l0.13,-0.162l0.13,-0.163l0.127,-0.163l0.127,-0.165l0.125,-0.165l0.124,-0.167l0.122,-0.167l0.121,-0.169l0.12,-0.169l0.119,-0.17l0.117,-0.172l0.116,-0.172l0.114,-0.173l0.113,-0.174l0.112,-0.176l0.11,-0.176l0.163,-0.267l0.16,-0.265l0.158,-0.264l0.154,-0.263l0.151,-0.262l0.148,-0.261l0.145,-0.259l0.142,-0.258l0.139,-0.256l0.136,-0.255l0.133,-0.254l0.131,-0.253l0.127,-0.251l0.124,-0.251l0.121,-0.248l0.118,-0.248l0.054,-0.127l0.054,-0.129l0.053,-0.13l0.052,-0.13l0.051,-0.132l0.05,-0.133l0.049,-0.133l0.048,-0.135l0.048,-0.136l0.047,-0.137l0.046,-0.139l0.045,-0.139l0.044,-0.14l0.043,-0.141l0.043,-0.143l0.041,-0.143l0.041,-0.145l0.04,-0.146l0.039,-0.146l0.038,-0.148l0.037,-0.149l0.037,-0.15l0.035,-0.151l0.035,-0.152l0.034,-0.153l0.033,-0.154l0.032,-0.156l0.031,-0.156l0.031,-0.157l0.029,-0.159l0.029,-0.159l0.028,-0.161l0.029,-0.161l0.028,-0.166l0.028,-0.169l0.028,-0.172l0.027,-0.177l0.026,-0.18l0.027,-0.185l0.025,-0.188l0.026,-0.191l0.025,-0.196l0.024,-0.199l0.024,-0.204l0.023,-0.207l0.023,-0.21l0.023,-0.215l0.022,-0.218l0.022,-0.223l0.021,-0.226l0.02,-0.23l0.021,-0.233l0.019,-0.238l0.02,-0.241l0.037,-0.494l0.036,-0.509l0.033,-0.524l0.032,-0.54l0.03,-0.555l0.029,-0.57l0.026,-0.585l0.025,-0.601l0.022,-0.615l0.021,-0.631l0.019,-0.646l0.018,-0.662l0.015,-0.676l0.014,-0.692l0.012,-0.707l0.01,-0.722l0.008,-0.737l0.006,-0.753l0.005,-0.768l0.003,-0.783l0.001,-0.798l-0.001,-0.751l-0.002,-0.737l-0.003,-0.723l-0.004,-0.709l-0.005,-0.694l-0.007,-0.681l-0.007,-0.667l-0.009,-0.652l-0.01,-0.639l-0.011,-0.624l-0.013,-0.611l-0.013,-0.596l-0.015,-0.583l-0.016,-0.568l-0.017,-0.554l-0.018,-0.541l-0.02,-0.526l-0.02,-0.512l-0.022,-0.498l-0.023,-0.484l-0.024,-0.47l-0.026,-0.456l-0.026,-0.442l-0.028,-0.428l-0.029,-0.414l-0.03,-0.4l-0.031,-0.386l-0.033,-0.372l-0.033,-0.358l-0.035,-0.343l-0.036,-0.33l-0.037,-0.316l-0.025,-0.154l-0.025,-0.154l-0.027,-0.154l-0.027,-0.153l-0.029,-0.154l-0.03,-0.153l-0.031,-0.153l-0.031,-0.153l-0.033,-0.152l-0.034,-0.152l-0.035,-0.152l-0.036,-0.152l-0.037,-0.152l-0.038,-0.151l-0.04,-0.152l-0.04,-0.151l-0.041,-0.15l-0.042,-0.151l-0.044,-0.15l-0.044,-0.15l-0.046,-0.15l-0.046,-0.15l-0.047,-0.149l-0.049,-0.15l-0.05,-0.149l-0.05,-0.149l-0.052,-0.148l-0.053,-0.149l-0.054,-0.148l-0.054,-0.148l-0.056,-0.148l-0.057,-0.147l-0.058,-0.148l-0.059,-0.147l-0.06,-0.147l-0.061,-0.146l-0.062,-0.147l-0.064,-0.146l-0.064,-0.146l-0.065,-0.146l-0.066,-0.146l-0.068,-0.145l-0.068,-0.145l-0.07,-0.145l-0.07,-0.145l-0.072,-0.145l-0.072,-0.144l-0.074,-0.144l-0.075,-0.144l-0.075,-0.144l-0.077,-0.143l-0.078,-0.144l-0.079,-0.143l-0.08,-0.143l-0.081,-0.142l-0.082,-0.143l-0.083,-0.142l-0.084,-0.142l-0.085,-0.142l-0.086,-0.141l-0.087,-0.142l-0.089,-0.141l-0.089,-0.141l-0.09,-0.14l-0.128,-0.209l-0.128,-0.207l-0.129,-0.205l-0.131,-0.203l-0.131,-0.202l-0.132,-0.2l-0.134,-0.199l-0.134,-0.197l-0.135,-0.195l-0.137,-0.194l-0.137,-0.192l-0.138,-0.191l-0.14,-0.189l-0.14,-0.187l-0.141,-0.186l-0.142,-0.184l-0.144,-0.182l-0.144,-0.181l-0.145,-0.179l-0.146,-0.178l-0.147,-0.176l-0.149,-0.174l-0.149,-0.173l-0.15,-0.171l-0.151,-0.17l-0.152,-0.167l-0.154,-0.167l-0.154,-0.164l-0.155,-0.163l-0.156,-0.162l-0.157,-0.159l-0.158,-0.159l-0.159,-0.156l-0.16,-0.155l-0.161,-0.153l-0.163,-0.152l-0.163,-0.15l-0.164,-0.148l-0.165,-0.147l-0.166,-0.145l-0.167,-0.144l-0.168,-0.142l-0.169,-0.14l-0.17,-0.139l-0.171,-0.137l-0.172,-0.135l-0.173,-0.134l-0.174,-0.132l-0.175,-0.131l-0.176,-0.129l-0.177,-0.127l-0.178,-0.126l-0.179,-0.124l-0.179,-0.122l-0.181,-0.121l-0.182,-0.119l-0.183,-0.118l-0.184,-0.116l-0.185,-0.114l-0.186,-0.113l-0.187,-0.111l-0.187,-0.11l-0.189,-0.108l-0.19,-0.106l-0.191,-0.105l-0.192,-0.103l-0.193,-0.101l-0.193,-0.1l-0.195,-0.098l-0.196,-0.097l-0.197,-0.094l-0.198,-0.094l-0.198,-0.091l-0.2,-0.09l-0.201,-0.089l-0.201,-0.087l-0.203,-0.085l-0.204,-0.083l-0.205,-0.082l-0.205,-0.081l-0.207,-0.078l-0.208,-0.078l-0.208,-0.075l-0.21,-0.074l-0.211,-0.072l-0.211,-0.071l-0.213,-0.069l-0.214,-0.067l-0.214,-0.066l-0.216,-0.064l-0.216,-0.062l-0.218,-0.061l-0.219,-0.06l-0.219,-0.057l-0.221,-0.056l-0.221,-0.055l-0.223,-0.052l-0.223,-0.051l-0.225,-0.05l-0.225,-0.048l-0.227,-0.046l-0.227,-0.045l-0.229,-0.043l-0.229,-0.041l-0.231,-0.04l-0.231,-0.038l-0.233,-0.037l-0.233,-0.035l-0.235,-0.033l-0.235,-0.032l-0.237,-0.03l-0.237,-0.028l-0.238,-0.027l-0.24,-0.025l-0.24,-0.024l-0.242,-0.022l-0.242,-0.02l-0.243,-0.019l-0.245,-0.017l-0.245,-0.016l-0.246,-0.014l-0.248,-0.012l-0.248,-0.01l-0.249,-0.01l-0.251,-0.007l-0.251,-0.006l-0.252,-0.004l-0.253,-0.002l-27.984,0Zm27.326,11.461l2.728,0.195l2.524,0.546l2.321,0.896l2.117,1.248l1.913,1.598l1.71,1.95l1.423,1.929l1.021,2.08l0.702,2.379l0.221,1.232l0.238,3l0.161,3.937l0.082,4.874l0.012,3.114l0,0.662l-0.002,0.648l-0.002,0.636l-0.003,0.622l-0.005,0.609l-0.005,0.596l-0.006,0.582l-0.007,0.569l-0.009,0.556l-0.009,0.542l-0.01,0.53l-0.011,0.516l-0.012,0.502l-0.013,0.489l-0.014,0.477l-0.015,0.462l-0.016,0.45l-0.017,0.436l-0.018,0.423l-0.019,0.409l-0.019,0.397l-0.021,0.383l-0.022,0.369l-0.022,0.357l-0.024,0.343l-0.025,0.33l-0.025,0.316l-0.027,0.304l-0.027,0.29l-0.029,0.276l-0.029,0.264l-0.03,0.25l-0.018,0.123l-0.018,0.123l-0.019,0.121l-0.02,0.121l-0.02,0.121l-0.021,0.12l-0.022,0.119l-0.023,0.118l-0.023,0.118l-0.024,0.117l-0.025,0.116l-0.025,0.116l-0.026,0.115l-0.027,0.115l-0.028,0.113l-0.028,0.114l-0.029,0.112l-0.03,0.112l-0.031,0.111l-0.031,0.11l-0.032,0.11l-0.033,0.109l-0.033,0.108l-0.034,0.108l-0.035,0.107l-0.036,0.106l-0.036,0.106l-0.037,0.105l-0.038,0.105l-0.038,0.103l-0.04,0.103l-0.04,0.103l-0.04,0.101l-0.042,0.101l-0.042,0.101l-0.042,0.099l-0.044,0.099l-0.044,0.099l-0.045,0.097l-0.046,0.097l-0.046,0.097l-0.048,0.095l-0.048,0.095l-0.048,0.095l-0.049,0.093l-0.051,0.093l-0.05,0.093l-0.052,0.091l-0.052,0.091l-0.053,0.091l-0.054,0.089l-0.054,0.089l-0.055,0.088l-0.056,0.088l-0.057,0.087l-0.057,0.086l-0.058,0.086l-0.059,0.085l-0.059,0.084l-0.06,0.084l-0.061,0.083l-0.062,0.082l-0.062,0.082l-0.063,0.08l-0.073,0.109l-0.073,0.108l-0.073,0.106l-0.075,0.106l-0.075,0.105l-0.076,0.104l-0.076,0.104l-0.077,0.102l-0.078,0.102l-0.079,0.101l-0.079,0.1l-0.08,0.099l-0.08,0.098l-0.082,0.097l-0.081,0.097l-0.083,0.096l-0.083,0.095l-0.084,0.094l-0.085,0.093l-0.085,0.092l-0.086,0.091l-0.087,0.091l-0.087,0.09l-0.088,0.089l-0.089,0.088l-0.09,0.087l-0.09,0.086l-0.091,0.086l-0.091,0.084l-0.092,0.084l-0.093,0.083l-0.094,0.082l-0.094,0.081l-0.095,0.081l-0.095,0.079l-0.097,0.079l-0.097,0.078l-0.097,0.077l-0.099,0.076l-0.099,0.075l-0.099,0.075l-0.101,0.073l-0.101,0.073l-0.101,0.072l-0.103,0.071l-0.103,0.07l-0.104,0.069l-0.104,0.069l-0.105,0.067l-0.106,0.067l-0.107,0.066l-0.107,0.065l-0.108,0.064l-0.108,0.064l-0.11,0.062l-0.109,0.062l-0.111,0.061l-0.111,0.06l-0.112,0.059l-0.113,0.058l-0.113,0.058l-0.114,0.056l-0.115,0.056l-0.116,0.055l-0.116,0.054l-0.116,0.053l-0.118,0.052l-0.118,0.052l-0.119,0.05l-0.119,0.05l-0.12,0.049l-0.121,0.048l-0.122,0.047l-0.122,0.047l-0.123,0.045l-0.124,0.045l-0.124,0.044l-0.125,0.043l-0.126,0.042l-0.126,0.041l-0.127,0.04l-0.128,0.04l-0.128,0.039l-0.129,0.037l-0.13,0.037l-0.13,0.037l-0.131,0.035l-0.132,0.034l-0.133,0.034l-0.133,0.033l-0.134,0.032l-0.134,0.031l-0.135,0.03l-0.136,0.029l-0.137,0.029l-0.137,0.027l-0.138,0.027l-0.139,0.026l-0.139,0.025l-0.14,0.024l-0.141,0.024l-0.141,0.022l-0.142,0.022l-0.143,0.021l-0.143,0.02l-0.144,0.019l-0.145,0.018l-0.145,0.018l-0.147,0.016l-0.146,0.016l-0.148,0.015l-0.148,0.014l-0.149,0.013l-0.15,0.013l-0.15,0.011l-0.151,0.011l-0.151,0.009l-0.153,0.009l-0.153,0.008l-0.153,0.008l-0.155,0.006l-0.155,0.006l-0.155,0.004l-0.157,0.004l-0.157,0.003l-0.158,0.002l-0.158,0.001l-0.159,0.001l-14.486,0l0,-57.065l14.486,0l0.144,-0.003l0.143,-0.002l0.143,-0.001l0.142,0l0.142,0Zm-0.253,6l-0.101,0.001l-0.107,0.002l-0.191,0.003l-8.548,0l0,45.065l8.476,0l0.136,0l0.125,-0.001l0.124,-0.002l0.128,-0.003l0.122,-0.003l0.122,-0.003l0.125,-0.005l0.119,-0.005l0.113,-0.005l0.123,-0.006l0.121,-0.007l0.111,-0.008l0.114,-0.008l0.119,-0.009l0.112,-0.009l0.112,-0.01l0.11,-0.01l0.11,-0.012l0.114,-0.012l0.108,-0.012l0.106,-0.013l0.111,-0.014l0.105,-0.014l0.099,-0.013l0.108,-0.016l0.102,-0.016l0.102,-0.016l0.105,-0.017l0.094,-0.017l0.103,-0.018l0.103,-0.02l0.091,-0.017l0.096,-0.02l0.1,-0.02l0.094,-0.021l0.092,-0.02l0.092,-0.022l0.091,-0.021l0.095,-0.024l0.09,-0.022l0.088,-0.023l0.088,-0.024l0.086,-0.024l0.091,-0.026l0.085,-0.025l0.079,-0.024l0.088,-0.027l0.087,-0.028l0.077,-0.025l0.086,-0.029l0.08,-0.027l0.079,-0.028l0.083,-0.03l0.073,-0.027l0.076,-0.029l0.081,-0.031l0.081,-0.032l0.069,-0.028l0.074,-0.031l0.077,-0.033l0.073,-0.032l0.072,-0.032l0.07,-0.032l0.075,-0.035l0.07,-0.033l0.068,-0.033l0.068,-0.034l0.068,-0.034l0.067,-0.035l0.066,-0.035l0.07,-0.038l0.065,-0.035l0.065,-0.036l0.068,-0.039l0.063,-0.037l0.062,-0.037l0.063,-0.038l0.062,-0.039l0.06,-0.038l0.065,-0.042l0.06,-0.039l0.055,-0.037l0.064,-0.043l0.063,-0.044l0.057,-0.04l0.058,-0.042l0.057,-0.042l0.057,-0.042l0.056,-0.043l0.057,-0.044l0.059,-0.047l0.055,-0.043l0.055,-0.046l0.058,-0.048l0.054,-0.045l0.05,-0.044l0.057,-0.049l0.053,-0.048l0.052,-0.048l0.056,-0.051l0.049,-0.046l0.055,-0.053l0.055,-0.053l0.048,-0.048l0.051,-0.052l0.054,-0.055l0.049,-0.051l0.051,-0.054l0.05,-0.054l0.049,-0.055l0.052,-0.058l0.049,-0.055l0.049,-0.058l0.049,-0.057l0.047,-0.057l0.051,-0.061l0.048,-0.061l0.049,-0.06l0.047,-0.061l0.046,-0.061l0.049,-0.065l0.048,-0.064l0.046,-0.064l0.046,-0.065l0.046,-0.065l0.048,-0.069l0.046,-0.068l0.18,-0.27l0.183,-0.235l0.029,-0.037l0.025,-0.033l0.028,-0.039l0.026,-0.036l0.028,-0.04l0.026,-0.038l0.025,-0.037l0.027,-0.041l0.026,-0.04l0.027,-0.041l0.025,-0.041l0.024,-0.039l0.026,-0.042l0.025,-0.044l0.026,-0.045l0.023,-0.041l0.024,-0.043l0.027,-0.051l0.024,-0.045l0.023,-0.045l0.023,-0.046l0.024,-0.048l0.025,-0.051l0.022,-0.048l0.023,-0.05l0.024,-0.052l0.022,-0.05l0.022,-0.051l0.022,-0.055l0.024,-0.057l0.021,-0.054l0.021,-0.053l0.022,-0.057l0.022,-0.059l0.021,-0.059l0.021,-0.058l0.019,-0.057l0.021,-0.062l0.02,-0.062l0.02,-0.064l0.02,-0.062l0.019,-0.066l0.019,-0.066l0.019,-0.064l0.018,-0.067l0.019,-0.069l0.017,-0.069l0.018,-0.07l0.017,-0.07l0.017,-0.071l0.017,-0.075l0.016,-0.073l0.016,-0.074l0.015,-0.076l0.015,-0.077l0.015,-0.076l0.014,-0.078l0.015,-0.082l0.013,-0.081l0.013,-0.08l0.013,-0.083l0.013,-0.084l0.006,-0.042l0.019,-0.16l0.023,-0.21l0.024,-0.227l0.023,-0.244l0.023,-0.261l0.022,-0.278l0.022,-0.295l0.022,-0.311l0.02,-0.326l0.02,-0.341l0.02,-0.357l0.018,-0.372l0.018,-0.386l0.017,-0.402l0.016,-0.416l0.015,-0.43l0.015,-0.444l0.013,-0.459l0.013,-0.473l0.011,-0.488l0.011,-0.501l0.01,-0.516l0.009,-0.529l0.008,-0.543l0.007,-0.557l0.006,-0.571l0.006,-0.585l0.004,-0.598l0.003,-0.613l0.002,-0.626l0.002,-0.639l0,-0.653l0,-0.637l-0.002,-0.625l-0.002,-0.613l-0.003,-0.601l-0.004,-0.589l-0.006,-0.577l-0.006,-0.565l-0.007,-0.553l-0.008,-0.54l-0.009,-0.529l-0.01,-0.517l-0.011,-0.505l-0.011,-0.492l-0.013,-0.48l-0.013,-0.467l-0.015,-0.456l-0.015,-0.442l-0.016,-0.431l-0.017,-0.418l-0.018,-0.405l-0.019,-0.392l-0.02,-0.38l-0.02,-0.366l-0.021,-0.354l-0.022,-0.34l-0.022,-0.327l-0.024,-0.314l-0.023,-0.299l-0.025,-0.285l-0.025,-0.272l-0.025,-0.258l-0.014,-0.132l-0.014,-0.091l-0.016,-0.096l-0.016,-0.095l-0.017,-0.093l-0.018,-0.093l-0.017,-0.091l-0.019,-0.09l-0.018,-0.089l-0.019,-0.087l-0.02,-0.088l-0.02,-0.086l-0.02,-0.083l-0.021,-0.083l-0.022,-0.082l-0.022,-0.082l-0.022,-0.08l-0.022,-0.077l-0.023,-0.079l-0.023,-0.076l-0.024,-0.075l-0.024,-0.075l-0.024,-0.071l-0.025,-0.073l-0.025,-0.073l-0.025,-0.068l-0.025,-0.068l-0.026,-0.069l-0.026,-0.067l-0.026,-0.065l-0.028,-0.066l-0.026,-0.063l-0.028,-0.064l-0.028,-0.062l-0.027,-0.059l-0.029,-0.062l-0.028,-0.059l-0.027,-0.056l-0.03,-0.059l-0.029,-0.057l-0.029,-0.054l-0.03,-0.056l-0.03,-0.054l-0.031,-0.055l-0.029,-0.05l-0.03,-0.051l-0.031,-0.051l-0.032,-0.052l-0.032,-0.05l-0.029,-0.046l-0.033,-0.05l-0.033,-0.048l-0.03,-0.043l-0.034,-0.049l-0.034,-0.047l-0.03,-0.041l-0.035,-0.046l-0.036,-0.046l-0.033,-0.043l-0.033,-0.041l-0.033,-0.04l-0.037,-0.045l-0.035,-0.041l-0.228,-0.261l-0.222,-0.304l-0.056,-0.075l-0.054,-0.073l-0.056,-0.072l-0.055,-0.072l-0.055,-0.07l-0.056,-0.069l-0.055,-0.069l-0.056,-0.068l-0.056,-0.067l-0.056,-0.066l-0.055,-0.065l-0.057,-0.065l-0.054,-0.061l-0.059,-0.066l-0.056,-0.062l-0.054,-0.058l-0.059,-0.063l-0.058,-0.06l-0.057,-0.06l-0.056,-0.056l-0.054,-0.055l-0.058,-0.057l-0.06,-0.059l-0.058,-0.055l-0.055,-0.052l-0.057,-0.053l-0.062,-0.056l-0.057,-0.052l-0.055,-0.048l-0.059,-0.051l-0.062,-0.054l-0.059,-0.049l-0.055,-0.046l-0.059,-0.048l-0.063,-0.05l-0.056,-0.044l-0.059,-0.047l-0.064,-0.048l-0.057,-0.043l-0.059,-0.043l-0.061,-0.044l-0.06,-0.043l-0.065,-0.046l-0.057,-0.039l-0.062,-0.041l-0.066,-0.044l-0.057,-0.038l-0.062,-0.039l-0.062,-0.039l-0.062,-0.039l-0.063,-0.038l-0.063,-0.037l-0.064,-0.038l-0.064,-0.036l-0.064,-0.036l-0.064,-0.036l-0.065,-0.035l-0.065,-0.034l-0.065,-0.034l-0.061,-0.031l-0.071,-0.035l-0.067,-0.033l-0.062,-0.03l-0.072,-0.033l-0.067,-0.031l-0.069,-0.031l-0.068,-0.03l-0.069,-0.029l-0.07,-0.03l-0.064,-0.026l-0.07,-0.028l-0.077,-0.03l-0.071,-0.027l-0.066,-0.025l-0.073,-0.026l-0.078,-0.028l-0.073,-0.025l-0.069,-0.023l-0.074,-0.025l-0.08,-0.025l-0.076,-0.024l-0.07,-0.021l-0.077,-0.023l-0.083,-0.023l-0.078,-0.022l-0.073,-0.019l-0.078,-0.021l-0.086,-0.021l-0.075,-0.019l-0.08,-0.019l-0.087,-0.019l-0.077,-0.017l-0.083,-0.018l-0.083,-0.017l-0.084,-0.016l-0.085,-0.017l-0.086,-0.015l-0.092,-0.016l-0.081,-0.014l-0.087,-0.013l-0.089,-0.014l-0.089,-0.013l-0.089,-0.012l-0.09,-0.012l-0.092,-0.011l-0.091,-0.011l-0.093,-0.01l-0.093,-0.009l-0.094,-0.009l-0.09,-0.008l-0.1,-0.008l-0.097,-0.007l-0.097,-0.007l-0.098,-0.006l-0.098,-0.005l-0.099,-0.005l-0.1,-0.004l-0.101,-0.004l-0.096,-0.003l-0.103,-0.002l-0.108,-0.002l-0.104,-0.001l-0.104,0l-0.106,0Z" style="fill:#fff;"/><path d="M23.681,72.184l17.776,0c3.926,0 7.242,-0.862 9.947,-2.586c2.729,-1.604 4.86,-3.639 6.392,-6.105c0.575,-0.934 1.066,-1.831 1.473,-2.693c0.383,-0.886 0.67,-1.891 0.862,-3.017c0.407,-2.226 0.61,-6.152 0.61,-11.778c0,-5.291 -0.132,-9.014 -0.395,-11.169c-0.335,-2.154 -1.137,-4.213 -2.406,-6.176c-3.543,-5.842 -8.858,-8.786 -15.944,-8.834l-18.315,0l0,52.358Zm7.936,-44.853l9.481,0c4.022,-0.096 7.134,1.377 9.337,4.417c1.077,1.221 1.759,2.813 2.047,4.776c0.215,1.963 0.323,5.219 0.323,9.768c0,4.668 -0.108,7.852 -0.323,9.552c-0.24,1.724 -0.802,3.148 -1.688,4.274c-2.011,3.04 -5.243,4.56 -9.696,4.56l-9.481,0l0,-37.347Z" style="fill:#cb0000;fill-rule:nonzero;"/><path d="M276.397,327.681l-17.776,0c-3.926,0 -7.242,0.862 -9.947,2.586c-2.729,1.604 -4.86,3.639 -6.392,6.105c-0.575,0.934 -1.065,1.831 -1.472,2.693c-0.384,0.886 -0.671,1.892 -0.862,3.017c-0.407,2.226 -0.611,6.152 -0.611,11.778c0,5.291 0.132,9.014 0.395,11.169c0.335,2.154 1.137,4.213 2.406,6.176c3.543,5.842 8.858,8.786 15.945,8.834l18.314,0l0,-52.358Zm-7.936,44.853l-9.481,0c-4.022,0.096 -7.134,-1.377 -9.336,-4.417c-1.078,-1.221 -1.76,-2.813 -2.047,-4.776c-0.216,-1.963 -0.324,-5.219 -0.324,-9.768c0,-4.668 0.108,-7.852 0.324,-9.552c0.239,-1.724 0.802,-3.148 1.687,-4.273c2.011,-3.041 5.243,-4.561 9.696,-4.561l9.481,0l0,37.347Z" style="fill:#cb0000;fill-rule:nonzero;"/></svg>