<?xml version="1.0" encoding="UTF-8" standalone="no"?><!DOCTYPE svg PUBLIC "-//W3C//DTD SVG 1.1//EN" "http://www.w3.org/Graphics/SVG/1.1/DTD/svg11.dtd"><svg width="100%" height="100%" viewBox="0 0 300 401" version="1.1" xmlns="http://www.w3.org/2000/svg" xmlns:xlink="http://www.w3.org/1999/xlink" xml:space="preserve" xmlns:serif="http://www.serif.com/" style="fill-rule:evenodd;clip-rule:evenodd;stroke-linejoin:round;stroke-miterlimit:2;"><rect id="D-J" x="0" y="0.039" width="300" height="400" style="fill:none;"/><g id="Diamond"><path d="M137.774,141.233c3.782,6.417 8.436,13.302 13.96,20.653c6.375,8.5 11.517,14.938 15.427,19.315c-3.145,3.315 -8.287,9.732 -15.427,19.251c-5.779,7.735 -10.411,14.662 -13.896,20.781c-1.148,-2.21 -2.72,-4.781 -4.717,-7.713c-3.443,-5.1 -7.713,-11.028 -12.813,-17.785c-1.105,-1.487 -4.993,-6.332 -11.665,-14.534c4.292,-4.887 9.816,-11.856 16.573,-20.908c5.015,-6.715 9.201,-13.068 12.558,-19.06Z" style="fill:#cb0000;fill-rule:nonzero;"/></g><path d="M157.329,241.485l-9.687,7.021c4.535,6.675 11.41,10.122 20.626,10.34c6.675,-0.073 12.535,-2.34 17.578,-6.803c5.079,-4.354 7.691,-10.522 7.836,-18.503l0,-54.694l-12.027,0l0,53.496c0,2.685 -0.417,4.916 -1.251,6.694c-0.799,1.85 -1.905,3.338 -3.32,4.463c-2.903,2.285 -5.95,3.392 -9.143,3.319c-2.395,0 -4.481,-0.562 -6.259,-1.687c-1.777,-0.943 -3.229,-2.158 -4.353,-3.646Z" style="fill:#cb0000;fill-rule:nonzero;"/><path d="M33.446,60.822l-6.34,4.594c2.968,4.369 7.468,6.625 13.499,6.768c4.369,-0.048 8.204,-1.532 11.504,-4.453c3.325,-2.849 5.034,-6.886 5.129,-12.11l0,-35.795l-7.871,0l0,35.012c0,1.757 -0.273,3.217 -0.819,4.381c-0.523,1.211 -1.247,2.184 -2.173,2.92c-1.9,1.496 -3.894,2.221 -5.984,2.173c-1.567,0 -2.932,-0.368 -4.096,-1.104c-1.163,-0.617 -2.113,-1.413 -2.849,-2.386Z" style="fill:#cb0000;fill-rule:nonzero;"/><path d="M266.554,339.257l6.34,-4.594c-2.968,-4.37 -7.468,-6.625 -13.499,-6.768c-4.369,0.048 -8.204,1.532 -11.504,4.452c-3.325,2.85 -5.034,6.886 -5.129,12.11l0,35.796l7.871,0l0,-35.012c0,-1.757 0.273,-3.217 0.819,-4.381c0.523,-1.211 1.247,-2.185 2.173,-2.921c1.9,-1.496 3.894,-2.22 5.984,-2.172c1.567,0 2.932,0.368 4.096,1.104c1.163,0.617 2.113,1.413 2.849,2.386Z" style="fill:#cb0000;fill-rule:nonzero;"/></svg>