<?xml version="1.0" encoding="UTF-8" standalone="no"?><!DOCTYPE svg PUBLIC "-//W3C//DTD SVG 1.1//EN" "http://www.w3.org/Graphics/SVG/1.1/DTD/svg11.dtd"><svg width="100%" height="100%" viewBox="0 0 300 401" version="1.1" xmlns="http://www.w3.org/2000/svg" xmlns:xlink="http://www.w3.org/1999/xlink" xml:space="preserve" xmlns:serif="http://www.serif.com/" style="fill-rule:evenodd;clip-rule:evenodd;stroke-linejoin:round;stroke-miterlimit:2;"><rect id="D-J" x="0" y="0.039" width="300" height="400" style="fill:none;"/><path d="M146.612,141.233c3.782,6.417 8.435,13.302 13.96,20.653c6.374,8.5 11.516,14.938 15.426,19.315c-3.145,3.315 -8.287,9.732 -15.426,19.251c-5.78,7.735 -10.412,14.662 -13.897,20.781c-1.147,-2.21 -2.719,-4.781 -4.717,-7.713c-3.442,-5.1 -7.713,-11.028 -12.813,-17.785c-1.104,-1.487 -4.993,-6.332 -11.665,-14.534c4.292,-4.887 9.817,-11.856 16.574,-20.908c5.014,-6.715 9.2,-13.068 12.558,-19.06Z" style="fill:#cb0000;fill-rule:nonzero;"/><path d="M173.166,262.679l-9.687,7.02c4.535,6.676 11.411,10.123 20.626,10.34c6.676,-0.072 12.535,-2.34 17.578,-6.802c5.08,-4.354 7.692,-10.522 7.837,-18.504l0,-54.694l-12.027,0l0,53.497c0,2.685 -0.418,4.916 -1.252,6.694c-0.798,1.85 -1.905,3.338 -3.32,4.462c-2.902,2.286 -5.95,3.393 -9.143,3.32c-2.394,0 -4.48,-0.562 -6.258,-1.687c-1.778,-0.943 -3.229,-2.159 -4.354,-3.646Z" style="fill:#cb0000;fill-rule:nonzero;"/><path d="M33.446,60.822l-6.34,4.594c2.968,4.369 7.468,6.625 13.499,6.768c4.369,-0.048 8.204,-1.532 11.504,-4.453c3.325,-2.849 5.034,-6.886 5.129,-12.11l0,-35.795l-7.871,0l0,35.012c0,1.757 -0.273,3.217 -0.819,4.381c-0.523,1.211 -1.247,2.184 -2.173,2.92c-1.9,1.496 -3.894,2.221 -5.984,2.173c-1.567,0 -2.932,-0.368 -4.096,-1.104c-1.163,-0.617 -2.113,-1.413 -2.849,-2.386Z" style="fill:#cb0000;fill-rule:nonzero;"/><path d="M266.554,339.257l6.34,-4.594c-2.968,-4.37 -7.468,-6.625 -13.499,-6.768c-4.369,0.048 -8.204,1.532 -11.504,4.452c-3.325,2.85 -5.034,6.886 -5.129,12.11l0,35.796l7.871,0l0,-35.012c0,-1.757 0.273,-3.217 0.819,-4.381c0.523,-1.211 1.247,-2.185 2.173,-2.921c1.9,-1.496 3.894,-2.22 5.984,-2.172c1.567,0 2.932,0.368 4.096,1.104c1.163,0.617 2.113,1.413 2.849,2.386Z" style="fill:#cb0000;fill-rule:nonzero;"/></svg>