<?xml version="1.0" encoding="UTF-8" standalone="no"?><!DOCTYPE svg PUBLIC "-//W3C//DTD SVG 1.1//EN" "http://www.w3.org/Graphics/SVG/1.1/DTD/svg11.dtd"><svg width="100%" height="100%" viewBox="0 0 301 401" version="1.1" xmlns="http://www.w3.org/2000/svg" xmlns:xlink="http://www.w3.org/1999/xlink" xml:space="preserve" xmlns:serif="http://www.serif.com/" style="fill-rule:evenodd;clip-rule:evenodd;stroke-linejoin:round;stroke-miterlimit:2;"><rect id="D-K" x="0.25" y="0.039" width="300" height="400" style="fill:none;"/><g id="Diamond"><path d="M129.879,141.233c3.782,6.417 8.435,13.302 13.96,20.653c6.374,8.5 11.516,14.938 15.426,19.315c-3.145,3.315 -8.287,9.732 -15.426,19.251c-5.78,7.735 -10.412,14.662 -13.897,20.781c-1.147,-2.21 -2.719,-4.781 -4.717,-7.713c-3.442,-5.1 -7.713,-11.028 -12.812,-17.785c-1.105,-1.487 -4.994,-6.332 -11.666,-14.534c4.292,-4.887 9.817,-11.856 16.574,-20.908c5.015,-6.715 9.2,-13.068 12.558,-19.06Z" style="fill:#cb0000;"/></g><text x="141.855px" y="280.478px" style="font-family:'Arial-BoldMT', 'Arial', sans-serif;font-weight:700;font-size:112.373px;fill:#cb0000;">K</text><path d="M22.191,71.97l7.872,0l0,-15.814l9.118,-9.581l14.14,25.395l9.332,0l-18.379,-31.45l16.634,-20.481l-9.332,0l-21.371,26.749l-0.142,0l0,-26.749l-7.872,0l0,51.931Z" style="fill:#cb0000;fill-rule:nonzero;"/><path d="M278.309,328.109l-7.871,0l0,15.814l-9.119,9.581l-14.14,-25.395l-9.332,0l18.379,31.45l-16.633,20.48l9.331,0l21.371,-26.748l0.143,0l0,26.748l7.871,0l0,-51.93Z" style="fill:#cb0000;fill-rule:nonzero;"/></svg>