<?xml version="1.0" encoding="UTF-8" standalone="no"?><!DOCTYPE svg PUBLIC "-//W3C//DTD SVG 1.1//EN" "http://www.w3.org/Graphics/SVG/1.1/DTD/svg11.dtd"><svg width="100%" height="100%" viewBox="0 0 301 401" version="1.1" xmlns="http://www.w3.org/2000/svg" xmlns:xlink="http://www.w3.org/1999/xlink" xml:space="preserve" xmlns:serif="http://www.serif.com/" style="fill-rule:evenodd;clip-rule:evenodd;stroke-linejoin:round;stroke-miterlimit:2;"><rect id="D-K" x="0.25" y="0.039" width="300" height="400" style="fill:none;"/><g id="Diamond"><path d="M129.879,141.233c3.782,6.417 8.435,13.302 13.96,20.653c6.374,8.5 11.516,14.938 15.426,19.315c-3.145,3.315 -8.287,9.732 -15.426,19.251c-5.78,7.735 -10.412,14.662 -13.897,20.781c-1.147,-2.21 -2.719,-4.781 -4.717,-7.713c-3.442,-5.1 -7.713,-11.028 -12.812,-17.785c-1.105,-1.487 -4.994,-6.332 -11.666,-14.534c4.292,-4.887 9.817,-11.856 16.574,-20.908c5.015,-6.715 9.2,-13.068 12.558,-19.06Z" style="fill:#cb0000;fill-rule:nonzero;"/></g><g transform="matrix(4.81824,0,0,4.81824,-2281.8,-53.3558)"><text x="500.824px" y="64.796px" style="font-family:'DINAlternate-Bold', 'DIN Alternate', sans-serif;font-weight:700;font-size:23.322px;fill:#cb0000;">K</text><path d="M505.184,46.95l0.088,0.01l0.088,0.015l0.086,0.022l0.084,0.028l0.082,0.034l0.08,0.04l0.076,0.046l0.073,0.05l0.069,0.056l0.065,0.061l0.061,0.065l0.056,0.069l0.05,0.073l0.046,0.076l0.04,0.08l0.034,0.082l0.028,0.084l0.022,0.086l0.015,0.088l0.01,0.088l0.003,0.089l0,5.056l4.66,-5.833l0.056,-0.065l0.06,-0.061l0.065,-0.057l0.068,-0.053l0.071,-0.047l0.075,-0.043l0.077,-0.037l0.08,-0.032l0.082,-0.026l0.083,-0.021l0.085,-0.014l0.085,-0.009l0.086,-0.003l2.984,0l0.09,0.003l0.09,0.01l0.089,0.016l0.088,0.023l0.085,0.029l0.084,0.035l0.08,0.042l0.078,0.047l0.073,0.052l0.07,0.058l0.066,0.062l0.06,0.067l0.056,0.072l0.05,0.075l0.045,0.078l0.039,0.082l0.033,0.084l0.026,0.087l0.021,0.088l0.013,0.089l0.008,0.091l0.001,0.09l-0.006,0.09l-0.013,0.09l-0.019,0.089l-0.025,0.086l-0.031,0.085l-0.038,0.083l-0.043,0.079l-0.049,0.076l-0.055,0.072l-4.774,5.879l5.441,9.311l0.043,0.08l0.036,0.082l0.031,0.085l0.025,0.087l0.018,0.088l0.011,0.089l0.006,0.09l-0.002,0.09l-0.007,0.09l-0.015,0.089l-0.02,0.088l-0.027,0.086l-0.033,0.084l-0.039,0.081l-0.045,0.078l-0.051,0.075l-0.055,0.071l-0.061,0.067l-0.065,0.062l-0.07,0.057l-0.074,0.052l-0.077,0.047l-0.08,0.04l-0.083,0.035l-0.086,0.029l-0.087,0.023l-0.089,0.016l-0.089,0.01l-0.09,0.003l-2.984,0l-0.088,-0.003l-0.088,-0.009l-0.087,-0.016l-0.085,-0.022l-0.084,-0.027l-0.081,-0.034l-0.079,-0.039l-0.077,-0.045l-0.072,-0.05l-0.069,-0.055l-0.065,-0.059l-0.061,-0.065l-0.055,-0.068l-0.051,-0.072l-0.046,-0.075l-3.698,-6.641l-1.405,1.476l0,4.559l-0.003,0.089l-0.01,0.088l-0.015,0.087l-0.022,0.087l-0.028,0.084l-0.034,0.082l-0.04,0.08l-0.046,0.076l-0.05,0.073l-0.056,0.069l-0.061,0.065l-0.065,0.061l-0.069,0.056l-0.073,0.05l-0.076,0.046l-0.08,0.04l-0.082,0.034l-0.084,0.028l-0.086,0.022l-0.088,0.015l-0.088,0.01l-0.089,0.003l-2.517,0l-0.089,-0.003l-0.088,-0.01l-0.088,-0.015l-0.086,-0.022l-0.084,-0.028l-0.082,-0.034l-0.08,-0.04l-0.076,-0.046l-0.073,-0.05l-0.069,-0.056l-0.065,-0.061l-0.061,-0.065l-0.056,-0.069l-0.051,-0.073l-0.045,-0.076l-0.04,-0.08l-0.034,-0.082l-0.028,-0.084l-0.022,-0.087l-0.016,-0.087l-0.009,-0.088l-0.003,-0.089l0,-16.604l0.003,-0.089l0.009,-0.088l0.016,-0.088l0.022,-0.086l0.028,-0.084l0.034,-0.082l0.04,-0.08l0.045,-0.076l0.051,-0.073l0.056,-0.069l0.061,-0.065l0.065,-0.061l0.069,-0.056l0.073,-0.05l0.076,-0.046l0.08,-0.04l0.082,-0.034l0.084,-0.028l0.086,-0.022l0.088,-0.015l0.088,-0.01l0.089,-0.003l2.517,0l0.089,0.003Zm-2.606,1.242l0,16.604l2.517,0l0,-5.056l2.915,-3.064l4.521,8.12l2.984,0l-5.876,-10.056l5.318,-6.548l-2.984,0l-6.833,8.553l-0.045,0l0,-8.553l-2.517,0Z" style="fill:#fff;"/></g><path d="M22.191,71.97l7.872,0l0,-15.814l9.118,-9.581l14.14,25.395l9.332,0l-18.379,-31.45l16.634,-20.481l-9.332,0l-21.371,26.749l-0.142,0l0,-26.749l-7.872,0l0,51.931Z" style="fill:#cb0000;fill-rule:nonzero;"/><path d="M278.309,328.109l-7.871,0l0,15.814l-9.119,9.581l-14.14,-25.395l-9.332,0l18.379,31.45l-16.633,20.48l9.331,0l21.371,-26.748l0.143,0l0,26.748l7.871,0l0,-51.93Z" style="fill:#cb0000;fill-rule:nonzero;"/></svg>