<?xml version="1.0" encoding="UTF-8" standalone="no"?><!DOCTYPE svg PUBLIC "-//W3C//DTD SVG 1.1//EN" "http://www.w3.org/Graphics/SVG/1.1/DTD/svg11.dtd"><svg width="100%" height="100%" viewBox="0 0 300 400" version="1.1" xmlns="http://www.w3.org/2000/svg" xmlns:xlink="http://www.w3.org/1999/xlink" xml:space="preserve" xmlns:serif="http://www.serif.com/" style="fill-rule:evenodd;clip-rule:evenodd;stroke-linejoin:round;stroke-miterlimit:2;"><rect id="H-2" x="0" y="0" width="300" height="400" style="fill:none;"/><path d="M22.28,71.93l29.598,0l0,-7.444l-19.839,0l16.704,-20.943c2.09,-2.659 3.135,-5.699 3.135,-9.118c-0.048,-4.274 -1.484,-7.8 -4.31,-10.578c-2.778,-2.802 -6.399,-4.227 -10.863,-4.274c-3.99,0.047 -7.349,1.448 -10.08,4.202c-2.707,2.826 -4.156,6.4 -4.345,10.721l7.408,0c0.261,-2.374 1.092,-4.214 2.493,-5.52c1.354,-1.306 3.051,-1.959 5.094,-1.959c2.303,0.047 4.084,0.795 5.342,2.244c1.211,1.448 1.817,3.146 1.817,5.093c0,0.736 -0.095,1.52 -0.285,2.351c-0.285,0.878 -0.819,1.828 -1.603,2.849l-20.266,25.36l0,7.016Z" style="fill:#cb0000;fill-rule:nonzero;"/><path d="M277.72,328.07l-29.598,0l0,7.444l19.839,0l-16.704,20.943c-2.09,2.659 -3.135,5.699 -3.135,9.118c0.048,4.274 1.484,7.8 4.31,10.578c2.778,2.802 6.399,4.227 10.863,4.274c3.99,-0.047 7.349,-1.448 10.08,-4.202c2.707,-2.826 4.156,-6.4 4.345,-10.721l-7.408,0c-0.261,2.374 -1.092,4.214 -2.493,5.52c-1.354,1.306 -3.051,1.959 -5.094,1.959c-2.303,-0.047 -4.084,-0.795 -5.342,-2.244c-1.211,-1.448 -1.817,-3.146 -1.817,-5.093c0,-0.736 0.095,-1.52 0.285,-2.351c0.285,-0.878 0.819,-1.828 1.603,-2.849l20.266,-25.36l0,-7.016Z" style="fill:#cb0000;fill-rule:nonzero;"/><g id="Heart"><path d="M150.104,134.893c-1.071,-4.074 -2.599,-7.898 -4.584,-11.472c-1.985,-3.573 -5.827,-9.124 -11.524,-16.651c-4.178,-5.525 -6.75,-9.029 -7.717,-10.514c-1.588,-2.417 -2.737,-4.636 -3.444,-6.655c-0.708,-2.02 -1.062,-4.066 -1.062,-6.138c0,-3.833 1.277,-7.044 3.833,-9.633c2.555,-2.59 5.714,-3.885 9.478,-3.885c3.798,0 7.095,1.347 9.892,4.04c2.106,2.003 3.816,4.989 5.128,8.96c1.139,-3.902 2.745,-6.871 4.816,-8.908c2.866,-2.763 6.181,-4.144 9.945,-4.144c3.729,0 6.888,1.287 9.478,3.859c2.589,2.572 3.884,5.637 3.884,9.193c0,3.108 -0.76,6.345 -2.279,9.711c-1.519,3.367 -4.454,7.778 -8.805,13.233c-5.662,7.148 -9.788,13.018 -12.378,17.61c-2.037,3.625 -3.591,7.424 -4.661,11.394Z" style="fill:#cb0000;"/></g><g id="Heart1" serif:id="Heart"><path d="M150.104,330.107c-1.071,-4.075 -2.599,-7.899 -4.584,-11.472c-1.985,-3.574 -5.827,-9.125 -11.524,-16.652c-4.178,-5.524 -6.75,-9.029 -7.717,-10.514c-1.588,-2.417 -2.737,-4.635 -3.444,-6.655c-0.708,-2.02 -1.062,-4.066 -1.062,-6.138c0,-3.832 1.277,-7.043 3.833,-9.633c2.555,-2.59 5.714,-3.885 9.478,-3.885c3.798,0 7.095,1.347 9.892,4.04c2.106,2.003 3.816,4.99 5.128,8.96c1.139,-3.901 2.745,-6.871 4.816,-8.908c2.866,-2.762 6.181,-4.143 9.945,-4.143c3.729,0 6.888,1.286 9.478,3.858c2.589,2.573 3.884,5.637 3.884,9.193c0,3.108 -0.76,6.345 -2.279,9.712c-1.519,3.366 -4.454,7.777 -8.805,13.233c-5.662,7.147 -9.788,13.017 -12.378,17.609c-2.037,3.626 -3.591,7.424 -4.661,11.395Z" style="fill:#cb0000;"/></g></svg>