<?xml version="1.0" encoding="UTF-8" standalone="no"?><!DOCTYPE svg PUBLIC "-//W3C//DTD SVG 1.1//EN" "http://www.w3.org/Graphics/SVG/1.1/DTD/svg11.dtd"><svg width="100%" height="100%" viewBox="0 0 300 400" version="1.1" xmlns="http://www.w3.org/2000/svg" xmlns:xlink="http://www.w3.org/1999/xlink" xml:space="preserve" xmlns:serif="http://www.serif.com/" style="fill-rule:evenodd;clip-rule:evenodd;stroke-linejoin:round;stroke-miterlimit:2;"><rect id="H-3" x="0" y="0" width="300" height="400" style="fill:none;"/><path d="M32.751,48.458l3.134,0c2.304,0 4.203,0.701 5.699,2.102c1.52,1.448 2.304,3.49 2.351,6.126c-0.047,2.588 -0.831,4.583 -2.351,5.984c-1.496,1.496 -3.336,2.244 -5.52,2.244c-2.043,0 -3.681,-0.558 -4.916,-1.674c-1.211,-1.069 -2.149,-2.47 -2.813,-4.203l-7.445,0c0.808,4.322 2.577,7.622 5.307,9.902c2.731,2.279 5.865,3.419 9.404,3.419c4.582,-0.048 8.334,-1.508 11.255,-4.381c2.968,-2.802 4.476,-6.637 4.523,-11.505c0,-2.184 -0.463,-4.274 -1.389,-6.268c-0.974,-1.995 -2.553,-3.704 -4.737,-5.129c2.137,-1.449 3.621,-3.099 4.452,-4.951c0.712,-1.852 1.069,-3.776 1.069,-5.77c-0.048,-3.942 -1.401,-7.361 -4.061,-10.258c-2.778,-2.968 -6.53,-4.476 -11.255,-4.523c-3.728,0.047 -6.934,1.377 -9.617,3.989c-2.73,2.635 -4.286,5.877 -4.666,9.723l7.444,0c0.475,-2.137 1.401,-3.716 2.779,-4.737c1.306,-1.021 2.754,-1.531 4.345,-1.531c2.208,0.047 4.013,0.748 5.414,2.101c1.401,1.401 2.125,3.194 2.173,5.378c0,2.161 -0.701,3.918 -2.102,5.272c-1.401,1.401 -3.372,2.101 -5.912,2.101l-2.565,0l0,6.589Z" style="fill:#cb0000;fill-rule:nonzero;"/><path d="M267.249,351.542l-3.134,0c-2.304,0 -4.203,-0.701 -5.699,-2.102c-1.52,-1.448 -2.304,-3.49 -2.351,-6.126c0.047,-2.588 0.831,-4.583 2.351,-5.984c1.496,-1.496 3.336,-2.244 5.52,-2.244c2.043,0 3.681,0.558 4.916,1.674c1.211,1.069 2.149,2.47 2.813,4.203l7.445,0c-0.808,-4.322 -2.577,-7.622 -5.307,-9.902c-2.731,-2.279 -5.865,-3.419 -9.404,-3.419c-4.582,0.048 -8.334,1.508 -11.255,4.381c-2.968,2.802 -4.476,6.637 -4.523,11.505c0,2.184 0.463,4.274 1.389,6.268c0.974,1.995 2.553,3.704 4.737,5.129c-2.137,1.449 -3.621,3.099 -4.452,4.951c-0.712,1.852 -1.069,3.776 -1.069,5.77c0.048,3.942 1.401,7.361 4.061,10.258c2.778,2.968 6.53,4.476 11.255,4.523c3.728,-0.047 6.934,-1.377 9.617,-3.989c2.73,-2.635 4.286,-5.877 4.666,-9.723l-7.444,0c-0.475,2.137 -1.401,3.716 -2.779,4.737c-1.306,1.021 -2.754,1.531 -4.345,1.531c-2.208,-0.047 -4.013,-0.748 -5.414,-2.101c-1.401,-1.401 -2.125,-3.194 -2.173,-5.378c0,-2.161 0.701,-3.918 2.102,-5.272c1.401,-1.401 3.372,-2.101 5.912,-2.101l2.565,0l0,-6.589Z" style="fill:#cb0000;fill-rule:nonzero;"/><g id="Heart"><path d="M150.104,134.893c-1.071,-4.074 -2.599,-7.898 -4.584,-11.472c-1.985,-3.573 -5.827,-9.124 -11.524,-16.651c-4.178,-5.525 -6.75,-9.029 -7.717,-10.514c-1.588,-2.417 -2.737,-4.636 -3.444,-6.655c-0.708,-2.02 -1.062,-4.066 -1.062,-6.138c0,-3.833 1.277,-7.044 3.833,-9.633c2.555,-2.59 5.714,-3.885 9.478,-3.885c3.798,0 7.095,1.347 9.892,4.04c2.106,2.003 3.816,4.989 5.128,8.96c1.139,-3.902 2.745,-6.871 4.816,-8.908c2.866,-2.763 6.181,-4.144 9.945,-4.144c3.729,0 6.888,1.287 9.478,3.859c2.589,2.572 3.884,5.637 3.884,9.193c0,3.108 -0.76,6.345 -2.279,9.711c-1.519,3.367 -4.454,7.778 -8.805,13.233c-5.662,7.148 -9.788,13.018 -12.378,17.61c-2.037,3.625 -3.591,7.424 -4.661,11.394Z" style="fill:#cb0000;"/></g><g id="Heart1" serif:id="Heart"><path d="M150.104,330.107c-1.071,-4.075 -2.599,-7.899 -4.584,-11.472c-1.985,-3.574 -5.827,-9.125 -11.524,-16.652c-4.178,-5.524 -6.75,-9.029 -7.717,-10.514c-1.588,-2.417 -2.737,-4.635 -3.444,-6.655c-0.708,-2.02 -1.062,-4.066 -1.062,-6.138c0,-3.832 1.277,-7.043 3.833,-9.633c2.555,-2.59 5.714,-3.885 9.478,-3.885c3.798,0 7.095,1.347 9.892,4.04c2.106,2.003 3.816,4.99 5.128,8.96c1.139,-3.901 2.745,-6.871 4.816,-8.908c2.866,-2.762 6.181,-4.143 9.945,-4.143c3.729,0 6.888,1.286 9.478,3.858c2.589,2.573 3.884,5.637 3.884,9.193c0,3.108 -0.76,6.345 -2.279,9.712c-1.519,3.366 -4.454,7.777 -8.805,13.233c-5.662,7.147 -9.788,13.017 -12.378,17.609c-2.037,3.626 -3.591,7.424 -4.661,11.395Z" style="fill:#cb0000;"/></g><g id="Heart2" serif:id="Heart"><path d="M150.104,232.5c-1.071,-4.074 -2.599,-7.898 -4.584,-11.472c-1.985,-3.574 -5.827,-9.124 -11.524,-16.652c-4.178,-5.524 -6.75,-9.029 -7.717,-10.513c-1.588,-2.417 -2.737,-4.636 -3.444,-6.656c-0.708,-2.02 -1.062,-4.066 -1.062,-6.137c0,-3.833 1.277,-7.044 3.833,-9.634c2.555,-2.589 5.714,-3.884 9.478,-3.884c3.798,0 7.095,1.346 9.892,4.04c2.106,2.002 3.816,4.989 5.128,8.96c1.139,-3.902 2.745,-6.871 4.816,-8.909c2.866,-2.762 6.181,-4.143 9.945,-4.143c3.729,0 6.888,1.286 9.478,3.859c2.589,2.572 3.884,5.636 3.884,9.193c0,3.107 -0.76,6.344 -2.279,9.711c-1.519,3.366 -4.454,7.778 -8.805,13.233c-5.662,7.147 -9.788,13.017 -12.378,17.61c-2.037,3.625 -3.591,7.423 -4.661,11.394Z" style="fill:#cb0000;"/></g></svg>