<?xml version="1.0" encoding="UTF-8" standalone="no"?><!DOCTYPE svg PUBLIC "-//W3C//DTD SVG 1.1//EN" "http://www.w3.org/Graphics/SVG/1.1/DTD/svg11.dtd"><svg width="100%" height="100%" viewBox="0 0 300 400" version="1.1" xmlns="http://www.w3.org/2000/svg" xmlns:xlink="http://www.w3.org/1999/xlink" xml:space="preserve" xmlns:serif="http://www.serif.com/" style="fill-rule:evenodd;clip-rule:evenodd;stroke-linejoin:round;stroke-miterlimit:2;"><rect id="H-5" x="0" y="0" width="300" height="400" style="fill:none;"/><path d="M20.926,48.067l7.017,0c0.878,-1.591 1.876,-2.707 2.992,-3.348c1.116,-0.618 2.35,-0.926 3.704,-0.926c1.52,0 2.79,0.213 3.811,0.641c1.021,0.522 1.793,1.223 2.315,2.101c0.974,1.852 1.437,4.262 1.389,7.23c0,1.211 -0.024,2.458 -0.071,3.74c-0.095,1.306 -0.356,2.517 -0.784,3.633c-0.403,1.116 -1.116,2.019 -2.137,2.707c-1.068,0.713 -2.493,1.069 -4.274,1.069c-4.155,-0.048 -6.637,-2.066 -7.444,-6.055l-7.444,0c0.712,4.773 2.553,8.227 5.521,10.365c2.92,2.089 6.138,3.134 9.652,3.134c2.612,-0.048 4.868,-0.653 6.767,-1.817c1.948,-1.116 3.432,-2.35 4.453,-3.704c1.163,-1.377 1.994,-2.956 2.493,-4.737c0.475,-1.805 0.712,-4.393 0.712,-7.765c0,-2.184 -0.071,-4.024 -0.213,-5.52c-0.143,-1.473 -0.38,-2.719 -0.713,-3.74c-0.641,-1.876 -1.686,-3.526 -3.134,-4.951c-0.974,-1.069 -2.244,-1.971 -3.811,-2.707c-1.662,-0.665 -3.491,-1.021 -5.485,-1.069c-3.111,0 -5.877,0.95 -8.299,2.85l0,-11.754l20.658,0l0,-7.444l-27.675,0l0,28.067Z" style="fill:#cb0000;fill-rule:nonzero;"/><path d="M279.074,351.933l-7.017,0c-0.878,1.591 -1.876,2.707 -2.992,3.348c-1.116,0.618 -2.35,0.926 -3.704,0.926c-1.52,0 -2.79,-0.213 -3.811,-0.641c-1.021,-0.522 -1.793,-1.223 -2.315,-2.101c-0.974,-1.852 -1.437,-4.262 -1.389,-7.23c0,-1.211 0.024,-2.458 0.071,-3.74c0.095,-1.306 0.356,-2.517 0.784,-3.633c0.403,-1.116 1.116,-2.019 2.137,-2.707c1.068,-0.713 2.493,-1.069 4.274,-1.069c4.155,0.048 6.637,2.066 7.444,6.055l7.444,0c-0.712,-4.773 -2.553,-8.227 -5.521,-10.365c-2.92,-2.089 -6.138,-3.134 -9.652,-3.134c-2.612,0.048 -4.868,0.653 -6.767,1.817c-1.948,1.116 -3.432,2.35 -4.453,3.704c-1.163,1.377 -1.994,2.956 -2.493,4.737c-0.475,1.805 -0.712,4.393 -0.712,7.765c0,2.184 0.071,4.024 0.213,5.52c0.143,1.473 0.38,2.719 0.713,3.74c0.641,1.876 1.686,3.526 3.134,4.951c0.974,1.069 2.244,1.971 3.811,2.707c1.662,0.665 3.491,1.021 5.485,1.069c3.111,0 5.877,-0.95 8.299,-2.85l0,11.754l-20.658,0l0,7.444l27.675,0l0,-28.067Z" style="fill:#cb0000;fill-rule:nonzero;"/><g id="Heart"><path d="M92.857,134.893c-1.07,-4.074 -2.598,-7.898 -4.583,-11.472c-1.986,-3.573 -5.827,-9.124 -11.524,-16.651c-4.178,-5.525 -6.75,-9.029 -7.717,-10.514c-1.589,-2.417 -2.737,-4.636 -3.444,-6.655c-0.708,-2.02 -1.062,-4.066 -1.062,-6.138c0,-3.833 1.277,-7.044 3.832,-9.633c2.556,-2.59 5.715,-3.885 9.479,-3.885c3.798,0 7.095,1.347 9.892,4.04c2.106,2.003 3.815,4.989 5.127,8.96c1.14,-3.902 2.745,-6.871 4.817,-8.908c2.866,-2.763 6.181,-4.144 9.944,-4.144c3.729,0 6.889,1.287 9.478,3.859c2.59,2.572 3.885,5.637 3.885,9.193c0,3.108 -0.76,6.345 -2.279,9.711c-1.519,3.367 -4.454,7.778 -8.805,13.233c-5.662,7.148 -9.789,13.018 -12.378,17.61c-2.037,3.625 -3.591,7.424 -4.662,11.394Z" style="fill:#cb0000;"/></g><g id="Heart1" serif:id="Heart"><path d="M150.104,232.5c-1.071,-4.074 -2.599,-7.898 -4.584,-11.472c-1.985,-3.574 -5.827,-9.124 -11.524,-16.652c-4.178,-5.524 -6.75,-9.029 -7.717,-10.513c-1.588,-2.417 -2.737,-4.636 -3.444,-6.656c-0.708,-2.02 -1.062,-4.066 -1.062,-6.137c0,-3.833 1.277,-7.044 3.833,-9.634c2.555,-2.589 5.714,-3.884 9.478,-3.884c3.798,0 7.095,1.346 9.892,4.04c2.106,2.002 3.816,4.989 5.128,8.96c1.139,-3.902 2.745,-6.871 4.816,-8.909c2.866,-2.762 6.181,-4.143 9.945,-4.143c3.729,0 6.888,1.286 9.478,3.859c2.589,2.572 3.884,5.636 3.884,9.193c0,3.107 -0.76,6.344 -2.279,9.711c-1.519,3.366 -4.454,7.778 -8.805,13.233c-5.662,7.147 -9.788,13.017 -12.378,17.61c-2.037,3.625 -3.591,7.423 -4.661,11.394Z" style="fill:#cb0000;"/></g><g id="Heart2" serif:id="Heart"><path d="M207.35,134.893c-1.071,-4.074 -2.599,-7.898 -4.584,-11.472c-1.985,-3.573 -5.827,-9.124 -11.524,-16.651c-4.178,-5.525 -6.75,-9.029 -7.717,-10.514c-1.588,-2.417 -2.736,-4.636 -3.444,-6.655c-0.708,-2.02 -1.062,-4.066 -1.062,-6.138c0,-3.833 1.278,-7.044 3.833,-9.633c2.555,-2.59 5.714,-3.885 9.478,-3.885c3.798,0 7.095,1.347 9.892,4.04c2.106,2.003 3.816,4.989 5.128,8.96c1.139,-3.902 2.745,-6.871 4.816,-8.908c2.866,-2.763 6.181,-4.144 9.945,-4.144c3.729,0 6.888,1.287 9.478,3.859c2.589,2.572 3.884,5.637 3.884,9.193c0,3.108 -0.759,6.345 -2.279,9.711c-1.519,3.367 -4.454,7.778 -8.804,13.233c-5.663,7.148 -9.789,13.018 -12.379,17.61c-2.037,3.625 -3.591,7.424 -4.661,11.394Z" style="fill:#cb0000;"/></g><g id="Heart3" serif:id="Heart"><path d="M92.857,330.107c-1.07,-4.075 -2.598,-7.899 -4.583,-11.472c-1.986,-3.574 -5.827,-9.125 -11.524,-16.652c-4.178,-5.524 -6.75,-9.029 -7.717,-10.514c-1.589,-2.417 -2.737,-4.635 -3.444,-6.655c-0.708,-2.02 -1.062,-4.066 -1.062,-6.138c0,-3.832 1.277,-7.043 3.832,-9.633c2.556,-2.59 5.715,-3.885 9.479,-3.885c3.798,0 7.095,1.347 9.892,4.04c2.106,2.003 3.815,4.99 5.127,8.96c1.14,-3.901 2.745,-6.871 4.817,-8.908c2.866,-2.762 6.181,-4.143 9.944,-4.143c3.729,0 6.889,1.286 9.478,3.858c2.59,2.573 3.885,5.637 3.885,9.193c0,3.108 -0.76,6.345 -2.279,9.712c-1.519,3.366 -4.454,7.777 -8.805,13.233c-5.662,7.147 -9.789,13.017 -12.378,17.609c-2.037,3.626 -3.591,7.424 -4.662,11.395Z" style="fill:#cb0000;"/></g><g id="Heart4" serif:id="Heart"><path d="M207.35,330.107c-1.071,-4.075 -2.599,-7.899 -4.584,-11.472c-1.985,-3.574 -5.827,-9.125 -11.524,-16.652c-4.178,-5.524 -6.75,-9.029 -7.717,-10.514c-1.588,-2.417 -2.736,-4.635 -3.444,-6.655c-0.708,-2.02 -1.062,-4.066 -1.062,-6.138c0,-3.832 1.278,-7.043 3.833,-9.633c2.555,-2.59 5.714,-3.885 9.478,-3.885c3.798,0 7.095,1.347 9.892,4.04c2.106,2.003 3.816,4.99 5.128,8.96c1.139,-3.901 2.745,-6.871 4.816,-8.908c2.866,-2.762 6.181,-4.143 9.945,-4.143c3.729,0 6.888,1.286 9.478,3.858c2.589,2.573 3.884,5.637 3.884,9.193c0,3.108 -0.759,6.345 -2.279,9.712c-1.519,3.366 -4.454,7.777 -8.804,13.233c-5.663,7.147 -9.789,13.017 -12.379,17.609c-2.037,3.626 -3.591,7.424 -4.661,11.395Z" style="fill:#cb0000;"/></g></svg>