<?xml version="1.0" encoding="UTF-8" standalone="no"?><!DOCTYPE svg PUBLIC "-//W3C//DTD SVG 1.1//EN" "http://www.w3.org/Graphics/SVG/1.1/DTD/svg11.dtd"><svg width="100%" height="100%" viewBox="0 0 300 400" version="1.1" xmlns="http://www.w3.org/2000/svg" xmlns:xlink="http://www.w3.org/1999/xlink" xml:space="preserve" xmlns:serif="http://www.serif.com/" style="fill-rule:evenodd;clip-rule:evenodd;stroke-linejoin:round;stroke-miterlimit:2;"><rect id="H-6" x="0" y="0" width="300" height="400" style="fill:none;"/><path d="M22.707,57.398c0.047,4.773 1.579,8.454 4.595,11.042c2.825,2.564 6.197,3.87 10.115,3.918c4.037,-0.048 7.468,-1.354 10.294,-3.918c2.873,-2.588 4.357,-6.269 4.452,-11.042l0,-4.737c0.047,-5.01 -1.093,-8.678 -3.42,-11.005c-2.374,-2.28 -5.271,-3.42 -8.69,-3.42c-3.063,-0.047 -6.364,0.487 -9.902,1.603l0,-4.88c0.095,-5.2 2.517,-7.847 7.266,-7.942c3.372,0.047 5.639,1.496 6.803,4.345l7.658,0c-0.736,-3.823 -2.434,-6.755 -5.094,-8.798c-2.73,-1.994 -5.853,-2.991 -9.367,-2.991c-3.918,0 -7.29,1.282 -10.115,3.846c-3.016,2.589 -4.548,6.281 -4.595,11.077l0,22.902Zm7.444,-4.665c0.095,-5.201 2.517,-7.848 7.266,-7.943c4.725,0.095 7.159,2.742 7.302,7.943l0,4.238c-0.143,5.248 -2.577,7.895 -7.302,7.943c-4.749,-0.048 -7.171,-2.695 -7.266,-7.943l0,-4.238Z" style="fill:#cb0000;fill-rule:nonzero;"/><path d="M277.293,342.602c-0.047,-4.773 -1.579,-8.454 -4.595,-11.042c-2.825,-2.564 -6.197,-3.87 -10.115,-3.918c-4.037,0.048 -7.468,1.354 -10.294,3.918c-2.873,2.588 -4.357,6.269 -4.452,11.042l0,4.737c-0.047,5.01 1.093,8.678 3.42,11.005c2.374,2.28 5.271,3.42 8.69,3.42c3.063,0.047 6.364,-0.487 9.902,-1.603l0,4.88c-0.095,5.2 -2.517,7.847 -7.266,7.942c-3.372,-0.047 -5.639,-1.496 -6.803,-4.345l-7.658,0c0.736,3.823 2.434,6.755 5.094,8.798c2.73,1.994 5.853,2.991 9.367,2.991c3.918,0 7.29,-1.282 10.115,-3.846c3.016,-2.589 4.548,-6.281 4.595,-11.077l0,-22.902Zm-7.444,4.665c-0.095,5.201 -2.517,7.848 -7.266,7.943c-4.725,-0.095 -7.159,-2.742 -7.302,-7.943l0,-4.238c0.143,-5.248 2.577,-7.895 7.302,-7.943c4.749,0.048 7.171,2.695 7.266,7.943l0,4.238Z" style="fill:#cb0000;fill-rule:nonzero;"/><g id="Heart"><path d="M92.857,119.68c-1.07,-4.074 -2.598,-7.898 -4.583,-11.472c-1.986,-3.574 -5.827,-9.124 -11.524,-16.651c-4.178,-5.525 -6.75,-9.03 -7.717,-10.514c-1.589,-2.417 -2.737,-4.636 -3.444,-6.656c-0.708,-2.02 -1.062,-4.066 -1.062,-6.137c0,-3.833 1.277,-7.044 3.832,-9.634c2.556,-2.589 5.715,-3.884 9.479,-3.884c3.798,0 7.095,1.346 9.892,4.04c2.106,2.002 3.815,4.989 5.127,8.96c1.14,-3.902 2.745,-6.871 4.817,-8.909c2.866,-2.762 6.181,-4.143 9.944,-4.143c3.729,0 6.889,1.286 9.478,3.859c2.59,2.572 3.885,5.636 3.885,9.193c0,3.107 -0.76,6.344 -2.279,9.711c-1.519,3.367 -4.454,7.778 -8.805,13.233c-5.662,7.147 -9.789,13.017 -12.378,17.61c-2.037,3.625 -3.591,7.423 -4.662,11.394Z" style="fill:#cb0000;"/></g><g id="Heart1" serif:id="Heart"><path d="M92.857,232.5c-1.07,-4.074 -2.598,-7.898 -4.583,-11.472c-1.986,-3.574 -5.827,-9.124 -11.524,-16.652c-4.178,-5.524 -6.75,-9.029 -7.717,-10.513c-1.589,-2.417 -2.737,-4.636 -3.444,-6.656c-0.708,-2.02 -1.062,-4.066 -1.062,-6.137c0,-3.833 1.277,-7.044 3.832,-9.634c2.556,-2.589 5.715,-3.884 9.479,-3.884c3.798,0 7.095,1.346 9.892,4.04c2.106,2.002 3.815,4.989 5.127,8.96c1.14,-3.902 2.745,-6.871 4.817,-8.909c2.866,-2.762 6.181,-4.143 9.944,-4.143c3.729,0 6.889,1.286 9.478,3.859c2.59,2.572 3.885,5.636 3.885,9.193c0,3.107 -0.76,6.344 -2.279,9.711c-1.519,3.366 -4.454,7.778 -8.805,13.233c-5.662,7.147 -9.789,13.017 -12.378,17.61c-2.037,3.625 -3.591,7.423 -4.662,11.394Z" style="fill:#cb0000;"/></g><g id="Heart2" serif:id="Heart"><path d="M92.857,345.32c-1.07,-4.074 -2.598,-7.898 -4.583,-11.472c-1.986,-3.574 -5.827,-9.124 -11.524,-16.652c-4.178,-5.524 -6.75,-9.029 -7.717,-10.513c-1.589,-2.417 -2.737,-4.636 -3.444,-6.656c-0.708,-2.02 -1.062,-4.066 -1.062,-6.137c0,-3.833 1.277,-7.044 3.832,-9.634c2.556,-2.589 5.715,-3.884 9.479,-3.884c3.798,0 7.095,1.346 9.892,4.04c2.106,2.002 3.815,4.989 5.127,8.96c1.14,-3.902 2.745,-6.871 4.817,-8.909c2.866,-2.762 6.181,-4.143 9.944,-4.143c3.729,0 6.889,1.286 9.478,3.859c2.59,2.572 3.885,5.636 3.885,9.193c0,3.107 -0.76,6.344 -2.279,9.711c-1.519,3.366 -4.454,7.777 -8.805,13.233c-5.662,7.147 -9.789,13.017 -12.378,17.61c-2.037,3.625 -3.591,7.423 -4.662,11.394Z" style="fill:#cb0000;"/></g><g id="Heart3" serif:id="Heart"><path d="M207.35,345.32c-1.071,-4.074 -2.599,-7.898 -4.584,-11.472c-1.985,-3.574 -5.827,-9.124 -11.524,-16.652c-4.178,-5.524 -6.75,-9.029 -7.717,-10.513c-1.588,-2.417 -2.736,-4.636 -3.444,-6.656c-0.708,-2.02 -1.062,-4.066 -1.062,-6.137c0,-3.833 1.278,-7.044 3.833,-9.634c2.555,-2.589 5.714,-3.884 9.478,-3.884c3.798,0 7.095,1.346 9.892,4.04c2.106,2.002 3.816,4.989 5.128,8.96c1.139,-3.902 2.745,-6.871 4.816,-8.909c2.866,-2.762 6.181,-4.143 9.945,-4.143c3.729,0 6.888,1.286 9.478,3.859c2.589,2.572 3.884,5.636 3.884,9.193c0,3.107 -0.759,6.344 -2.279,9.711c-1.519,3.366 -4.454,7.777 -8.804,13.233c-5.663,7.147 -9.789,13.017 -12.379,17.61c-2.037,3.625 -3.591,7.423 -4.661,11.394Z" style="fill:#cb0000;"/></g><g id="Heart4" serif:id="Heart"><path d="M207.35,232.5c-1.071,-4.074 -2.599,-7.898 -4.584,-11.472c-1.985,-3.574 -5.827,-9.124 -11.524,-16.652c-4.178,-5.524 -6.75,-9.029 -7.717,-10.513c-1.588,-2.417 -2.736,-4.636 -3.444,-6.656c-0.708,-2.02 -1.062,-4.066 -1.062,-6.137c0,-3.833 1.278,-7.044 3.833,-9.634c2.555,-2.589 5.714,-3.884 9.478,-3.884c3.798,0 7.095,1.346 9.892,4.04c2.106,2.002 3.816,4.989 5.128,8.96c1.139,-3.902 2.745,-6.871 4.816,-8.909c2.866,-2.762 6.181,-4.143 9.945,-4.143c3.729,0 6.888,1.286 9.478,3.859c2.589,2.572 3.884,5.636 3.884,9.193c0,3.107 -0.759,6.344 -2.279,9.711c-1.519,3.366 -4.454,7.778 -8.804,13.233c-5.663,7.147 -9.789,13.017 -12.379,17.61c-2.037,3.625 -3.591,7.423 -4.661,11.394Z" style="fill:#cb0000;"/></g><g id="Heart5" serif:id="Heart"><path d="M207.35,119.68c-1.071,-4.074 -2.599,-7.898 -4.584,-11.472c-1.985,-3.574 -5.827,-9.124 -11.524,-16.651c-4.178,-5.525 -6.75,-9.03 -7.717,-10.514c-1.588,-2.417 -2.736,-4.636 -3.444,-6.656c-0.708,-2.02 -1.062,-4.066 -1.062,-6.137c0,-3.833 1.278,-7.044 3.833,-9.634c2.555,-2.589 5.714,-3.884 9.478,-3.884c3.798,0 7.095,1.346 9.892,4.04c2.106,2.002 3.816,4.989 5.128,8.96c1.139,-3.902 2.745,-6.871 4.816,-8.909c2.866,-2.762 6.181,-4.143 9.945,-4.143c3.729,0 6.888,1.286 9.478,3.859c2.589,2.572 3.884,5.636 3.884,9.193c0,3.107 -0.759,6.344 -2.279,9.711c-1.519,3.367 -4.454,7.778 -8.804,13.233c-5.663,7.147 -9.789,13.017 -12.379,17.61c-2.037,3.625 -3.591,7.423 -4.661,11.394Z" style="fill:#cb0000;"/></g></svg>