<?xml version="1.0" encoding="UTF-8" standalone="no"?><!DOCTYPE svg PUBLIC "-//W3C//DTD SVG 1.1//EN" "http://www.w3.org/Graphics/SVG/1.1/DTD/svg11.dtd"><svg width="100%" height="100%" viewBox="0 0 300 400" version="1.1" xmlns="http://www.w3.org/2000/svg" xmlns:xlink="http://www.w3.org/1999/xlink" xml:space="preserve" xmlns:serif="http://www.serif.com/" style="fill-rule:evenodd;clip-rule:evenodd;stroke-linejoin:round;stroke-miterlimit:2;"><rect id="H-7" x="0" y="0" width="300" height="400" style="fill:none;"/><path d="M23.633,34.959l7.444,0l0,-7.515l13.784,0l-17.559,44.486l8.299,0l17.595,-44.486l0,-7.444l-29.563,0l0,14.959Z" style="fill:#cb0000;fill-rule:nonzero;"/><path d="M276.367,365.041l-7.444,0l0,7.515l-13.784,0l17.559,-44.486l-8.299,0l-17.595,44.486l0,7.444l29.563,0l0,-14.959Z" style="fill:#cb0000;fill-rule:nonzero;"/><g id="Heart"><path d="M92.857,345.32c-1.07,-4.074 -2.598,-7.898 -4.583,-11.472c-1.986,-3.574 -5.827,-9.124 -11.524,-16.652c-4.178,-5.524 -6.75,-9.029 -7.717,-10.513c-1.589,-2.417 -2.737,-4.636 -3.444,-6.656c-0.708,-2.02 -1.062,-4.066 -1.062,-6.137c0,-3.833 1.277,-7.044 3.832,-9.634c2.556,-2.589 5.715,-3.884 9.479,-3.884c3.798,0 7.095,1.346 9.892,4.04c2.106,2.002 3.815,4.989 5.127,8.96c1.14,-3.902 2.745,-6.871 4.817,-8.909c2.866,-2.762 6.181,-4.143 9.944,-4.143c3.729,0 6.889,1.286 9.478,3.859c2.59,2.572 3.885,5.636 3.885,9.193c0,3.107 -0.76,6.344 -2.279,9.711c-1.519,3.366 -4.454,7.777 -8.805,13.233c-5.662,7.147 -9.789,13.017 -12.378,17.61c-2.037,3.625 -3.591,7.423 -4.662,11.394Z" style="fill:#cb0000;"/></g><g id="Heart1" serif:id="Heart"><path d="M207.35,345.32c-1.071,-4.074 -2.599,-7.898 -4.584,-11.472c-1.985,-3.574 -5.827,-9.124 -11.524,-16.652c-4.178,-5.524 -6.75,-9.029 -7.717,-10.513c-1.588,-2.417 -2.736,-4.636 -3.444,-6.656c-0.708,-2.02 -1.062,-4.066 -1.062,-6.137c0,-3.833 1.278,-7.044 3.833,-9.634c2.555,-2.589 5.714,-3.884 9.478,-3.884c3.798,0 7.095,1.346 9.892,4.04c2.106,2.002 3.816,4.989 5.128,8.96c1.139,-3.902 2.745,-6.871 4.816,-8.909c2.866,-2.762 6.181,-4.143 9.945,-4.143c3.729,0 6.888,1.286 9.478,3.859c2.589,2.572 3.884,5.636 3.884,9.193c0,3.107 -0.759,6.344 -2.279,9.711c-1.519,3.366 -4.454,7.777 -8.804,13.233c-5.663,7.147 -9.789,13.017 -12.379,17.61c-2.037,3.625 -3.591,7.423 -4.661,11.394Z" style="fill:#cb0000;"/></g><g id="Heart2" serif:id="Heart"><path d="M92.857,232.5c-1.07,-4.074 -2.598,-7.898 -4.583,-11.472c-1.986,-3.574 -5.827,-9.124 -11.524,-16.652c-4.178,-5.524 -6.75,-9.029 -7.717,-10.513c-1.589,-2.417 -2.737,-4.636 -3.444,-6.656c-0.708,-2.02 -1.062,-4.066 -1.062,-6.137c0,-3.833 1.277,-7.044 3.832,-9.634c2.556,-2.589 5.715,-3.884 9.479,-3.884c3.798,0 7.095,1.346 9.892,4.04c2.106,2.002 3.815,4.989 5.127,8.96c1.14,-3.902 2.745,-6.871 4.817,-8.909c2.866,-2.762 6.181,-4.143 9.944,-4.143c3.729,0 6.889,1.286 9.478,3.859c2.59,2.572 3.885,5.636 3.885,9.193c0,3.107 -0.76,6.344 -2.279,9.711c-1.519,3.366 -4.454,7.778 -8.805,13.233c-5.662,7.147 -9.789,13.017 -12.378,17.61c-2.037,3.625 -3.591,7.423 -4.662,11.394Z" style="fill:#cb0000;"/></g><g id="Heart3" serif:id="Heart"><path d="M207.35,232.5c-1.071,-4.074 -2.599,-7.898 -4.584,-11.472c-1.985,-3.574 -5.827,-9.124 -11.524,-16.652c-4.178,-5.524 -6.75,-9.029 -7.717,-10.513c-1.588,-2.417 -2.736,-4.636 -3.444,-6.656c-0.708,-2.02 -1.062,-4.066 -1.062,-6.137c0,-3.833 1.278,-7.044 3.833,-9.634c2.555,-2.589 5.714,-3.884 9.478,-3.884c3.798,0 7.095,1.346 9.892,4.04c2.106,2.002 3.816,4.989 5.128,8.96c1.139,-3.902 2.745,-6.871 4.816,-8.909c2.866,-2.762 6.181,-4.143 9.945,-4.143c3.729,0 6.888,1.286 9.478,3.859c2.589,2.572 3.884,5.636 3.884,9.193c0,3.107 -0.759,6.344 -2.279,9.711c-1.519,3.366 -4.454,7.778 -8.804,13.233c-5.663,7.147 -9.789,13.017 -12.379,17.61c-2.037,3.625 -3.591,7.423 -4.661,11.394Z" style="fill:#cb0000;"/></g><g id="Heart4" serif:id="Heart"><path d="M92.857,119.68c-1.07,-4.074 -2.598,-7.898 -4.583,-11.472c-1.986,-3.574 -5.827,-9.124 -11.524,-16.651c-4.178,-5.525 -6.75,-9.03 -7.717,-10.514c-1.589,-2.417 -2.737,-4.636 -3.444,-6.656c-0.708,-2.02 -1.062,-4.066 -1.062,-6.137c0,-3.833 1.277,-7.044 3.832,-9.634c2.556,-2.589 5.715,-3.884 9.479,-3.884c3.798,0 7.095,1.346 9.892,4.04c2.106,2.002 3.815,4.989 5.127,8.96c1.14,-3.902 2.745,-6.871 4.817,-8.909c2.866,-2.762 6.181,-4.143 9.944,-4.143c3.729,0 6.889,1.286 9.478,3.859c2.59,2.572 3.885,5.636 3.885,9.193c0,3.107 -0.76,6.344 -2.279,9.711c-1.519,3.367 -4.454,7.778 -8.805,13.233c-5.662,7.147 -9.789,13.017 -12.378,17.61c-2.037,3.625 -3.591,7.423 -4.662,11.394Z" style="fill:#cb0000;"/></g><g id="Heart5" serif:id="Heart"><path d="M207.35,119.68c-1.071,-4.074 -2.599,-7.898 -4.584,-11.472c-1.985,-3.574 -5.827,-9.124 -11.524,-16.651c-4.178,-5.525 -6.75,-9.03 -7.717,-10.514c-1.588,-2.417 -2.736,-4.636 -3.444,-6.656c-0.708,-2.02 -1.062,-4.066 -1.062,-6.137c0,-3.833 1.278,-7.044 3.833,-9.634c2.555,-2.589 5.714,-3.884 9.478,-3.884c3.798,0 7.095,1.346 9.892,4.04c2.106,2.002 3.816,4.989 5.128,8.96c1.139,-3.902 2.745,-6.871 4.816,-8.909c2.866,-2.762 6.181,-4.143 9.945,-4.143c3.729,0 6.888,1.286 9.478,3.859c2.589,2.572 3.884,5.636 3.884,9.193c0,3.107 -0.759,6.344 -2.279,9.711c-1.519,3.367 -4.454,7.778 -8.804,13.233c-5.663,7.147 -9.789,13.017 -12.379,17.61c-2.037,3.625 -3.591,7.423 -4.661,11.394Z" style="fill:#cb0000;"/></g><g id="Heart6" serif:id="Heart"><path d="M150.104,176.09c-1.071,-4.074 -2.599,-7.898 -4.584,-11.472c-1.985,-3.574 -5.827,-9.124 -11.524,-16.651c-4.178,-5.525 -6.75,-9.03 -7.717,-10.514c-1.588,-2.417 -2.737,-4.636 -3.444,-6.656c-0.708,-2.02 -1.062,-4.066 -1.062,-6.137c0,-3.833 1.277,-7.044 3.833,-9.634c2.555,-2.589 5.714,-3.884 9.478,-3.884c3.798,0 7.095,1.346 9.892,4.04c2.106,2.002 3.816,4.989 5.128,8.96c1.139,-3.902 2.745,-6.871 4.816,-8.909c2.866,-2.762 6.181,-4.143 9.945,-4.143c3.729,0 6.888,1.286 9.478,3.859c2.589,2.572 3.884,5.636 3.884,9.193c0,3.107 -0.76,6.344 -2.279,9.711c-1.519,3.367 -4.454,7.778 -8.805,13.233c-5.662,7.147 -9.788,13.017 -12.378,17.61c-2.037,3.625 -3.591,7.423 -4.661,11.394Z" style="fill:#cb0000;"/></g></svg>