<?xml version="1.0" encoding="UTF-8" standalone="no"?><!DOCTYPE svg PUBLIC "-//W3C//DTD SVG 1.1//EN" "http://www.w3.org/Graphics/SVG/1.1/DTD/svg11.dtd"><svg width="100%" height="100%" viewBox="0 0 300 400" version="1.1" xmlns="http://www.w3.org/2000/svg" xmlns:xlink="http://www.w3.org/1999/xlink" xml:space="preserve" xmlns:serif="http://www.serif.com/" style="fill-rule:evenodd;clip-rule:evenodd;stroke-linejoin:round;stroke-miterlimit:2;"><rect id="H-8" x="0" y="0" width="300" height="400" style="fill:none;"/><path d="M28.406,34.853c0.047,-2.47 0.819,-4.334 2.315,-5.592c1.472,-1.211 3.17,-1.817 5.093,-1.817c1.995,0 3.728,0.606 5.2,1.817c1.449,1.258 2.197,3.122 2.244,5.592c-0.047,2.398 -0.795,4.226 -2.244,5.485c-1.472,1.306 -3.205,1.959 -5.2,1.959c-1.923,0 -3.621,-0.653 -5.093,-1.959c-1.496,-1.259 -2.268,-3.087 -2.315,-5.485Zm-8.406,22.332c0.047,4.678 1.627,8.417 4.737,11.219c2.968,2.873 6.661,4.334 11.077,4.381c4.441,-0.047 8.192,-1.508 11.255,-4.381c3.016,-2.802 4.548,-6.541 4.595,-11.219c-0.047,-5.01 -2.09,-8.905 -6.126,-11.683c1.543,-1.353 2.802,-2.909 3.775,-4.666c0.926,-1.638 1.389,-3.585 1.389,-5.841c-0.047,-4.322 -1.46,-7.895 -4.238,-10.721c-2.755,-2.802 -6.304,-4.227 -10.65,-4.274c-4.274,0.047 -7.764,1.472 -10.471,4.274c-2.874,2.826 -4.334,6.399 -4.381,10.721c0,2.256 0.51,4.203 1.531,5.841c0.879,1.757 2.09,3.313 3.633,4.666c-4.036,2.778 -6.079,6.673 -6.126,11.683Zm7.444,-0.071c0.048,-2.422 0.902,-4.393 2.565,-5.913c1.59,-1.496 3.526,-2.268 5.805,-2.315c2.351,0.047 4.322,0.819 5.913,2.315c1.614,1.52 2.445,3.491 2.493,5.913c-0.048,2.374 -0.879,4.321 -2.493,5.841c-1.591,1.591 -3.562,2.386 -5.913,2.386c-2.279,0 -4.215,-0.795 -5.805,-2.386c-1.663,-1.52 -2.517,-3.467 -2.565,-5.841Z" style="fill:#cb0000;fill-rule:nonzero;"/><path d="M271.594,365.147c-0.047,2.47 -0.819,4.334 -2.315,5.592c-1.472,1.211 -3.17,1.817 -5.093,1.817c-1.995,0 -3.728,-0.606 -5.2,-1.817c-1.449,-1.258 -2.197,-3.122 -2.244,-5.592c0.047,-2.398 0.795,-4.226 2.244,-5.485c1.472,-1.306 3.205,-1.959 5.2,-1.959c1.923,0 3.621,0.653 5.093,1.959c1.496,1.259 2.268,3.087 2.315,5.485Zm8.406,-22.332c-0.047,-4.678 -1.627,-8.417 -4.737,-11.219c-2.968,-2.873 -6.661,-4.334 -11.077,-4.381c-4.441,0.047 -8.192,1.508 -11.255,4.381c-3.016,2.802 -4.548,6.541 -4.595,11.219c0.047,5.01 2.09,8.905 6.126,11.683c-1.543,1.353 -2.802,2.909 -3.775,4.666c-0.926,1.638 -1.389,3.585 -1.389,5.841c0.047,4.322 1.46,7.895 4.238,10.721c2.755,2.802 6.304,4.227 10.65,4.274c4.274,-0.047 7.764,-1.472 10.471,-4.274c2.874,-2.826 4.334,-6.399 4.381,-10.721c0,-2.256 -0.51,-4.203 -1.531,-5.841c-0.879,-1.757 -2.09,-3.313 -3.633,-4.666c4.036,-2.778 6.079,-6.673 6.126,-11.683Zm-7.444,0.071c-0.048,2.422 -0.902,4.393 -2.565,5.913c-1.59,1.496 -3.526,2.268 -5.805,2.315c-2.351,-0.047 -4.322,-0.819 -5.913,-2.315c-1.614,-1.52 -2.445,-3.491 -2.493,-5.913c0.048,-2.374 0.879,-4.321 2.493,-5.841c1.591,-1.591 3.562,-2.386 5.913,-2.386c2.279,0 4.215,0.795 5.805,2.386c1.663,1.52 2.517,3.467 2.565,5.841Z" style="fill:#cb0000;fill-rule:nonzero;"/><g id="Heart"><path d="M92.857,119.68c-1.07,-4.074 -2.598,-7.898 -4.583,-11.472c-1.986,-3.574 -5.827,-9.124 -11.524,-16.651c-4.178,-5.525 -6.75,-9.03 -7.717,-10.514c-1.589,-2.417 -2.737,-4.636 -3.444,-6.656c-0.708,-2.02 -1.062,-4.066 -1.062,-6.137c0,-3.833 1.277,-7.044 3.832,-9.634c2.556,-2.589 5.715,-3.884 9.479,-3.884c3.798,0 7.095,1.346 9.892,4.04c2.106,2.002 3.815,4.989 5.127,8.96c1.14,-3.902 2.745,-6.871 4.817,-8.909c2.866,-2.762 6.181,-4.143 9.944,-4.143c3.729,0 6.889,1.286 9.478,3.859c2.59,2.572 3.885,5.636 3.885,9.193c0,3.107 -0.76,6.344 -2.279,9.711c-1.519,3.367 -4.454,7.778 -8.805,13.233c-5.662,7.147 -9.789,13.017 -12.378,17.61c-2.037,3.625 -3.591,7.423 -4.662,11.394Z" style="fill:#cb0000;"/></g><g id="Heart1" serif:id="Heart"><path d="M207.35,119.68c-1.071,-4.074 -2.599,-7.898 -4.584,-11.472c-1.985,-3.574 -5.827,-9.124 -11.524,-16.651c-4.178,-5.525 -6.75,-9.03 -7.717,-10.514c-1.588,-2.417 -2.736,-4.636 -3.444,-6.656c-0.708,-2.02 -1.062,-4.066 -1.062,-6.137c0,-3.833 1.278,-7.044 3.833,-9.634c2.555,-2.589 5.714,-3.884 9.478,-3.884c3.798,0 7.095,1.346 9.892,4.04c2.106,2.002 3.816,4.989 5.128,8.96c1.139,-3.902 2.745,-6.871 4.816,-8.909c2.866,-2.762 6.181,-4.143 9.945,-4.143c3.729,0 6.888,1.286 9.478,3.859c2.589,2.572 3.884,5.636 3.884,9.193c0,3.107 -0.759,6.344 -2.279,9.711c-1.519,3.367 -4.454,7.778 -8.804,13.233c-5.663,7.147 -9.789,13.017 -12.379,17.61c-2.037,3.625 -3.591,7.423 -4.661,11.394Z" style="fill:#cb0000;"/></g><g id="Heart2" serif:id="Heart"><path d="M92.857,194.893c-1.07,-4.074 -2.598,-7.898 -4.583,-11.472c-1.986,-3.573 -5.827,-9.124 -11.524,-16.651c-4.178,-5.525 -6.75,-9.029 -7.717,-10.514c-1.589,-2.417 -2.737,-4.636 -3.444,-6.655c-0.708,-2.02 -1.062,-4.066 -1.062,-6.138c0,-3.833 1.277,-7.044 3.832,-9.633c2.556,-2.59 5.715,-3.885 9.479,-3.885c3.798,0 7.095,1.347 9.892,4.04c2.106,2.003 3.815,4.989 5.127,8.96c1.14,-3.902 2.745,-6.871 4.817,-8.908c2.866,-2.763 6.181,-4.144 9.944,-4.144c3.729,0 6.889,1.287 9.478,3.859c2.59,2.572 3.885,5.637 3.885,9.193c0,3.108 -0.76,6.345 -2.279,9.711c-1.519,3.367 -4.454,7.778 -8.805,13.233c-5.662,7.148 -9.789,13.018 -12.378,17.61c-2.037,3.625 -3.591,7.424 -4.662,11.394Z" style="fill:#cb0000;"/></g><g id="Heart3" serif:id="Heart"><path d="M207.35,194.893c-1.071,-4.074 -2.599,-7.898 -4.584,-11.472c-1.985,-3.573 -5.827,-9.124 -11.524,-16.651c-4.178,-5.525 -6.75,-9.029 -7.717,-10.514c-1.588,-2.417 -2.736,-4.636 -3.444,-6.655c-0.708,-2.02 -1.062,-4.066 -1.062,-6.138c0,-3.833 1.278,-7.044 3.833,-9.633c2.555,-2.59 5.714,-3.885 9.478,-3.885c3.798,0 7.095,1.347 9.892,4.04c2.106,2.003 3.816,4.989 5.128,8.96c1.139,-3.902 2.745,-6.871 4.816,-8.908c2.866,-2.763 6.181,-4.144 9.945,-4.144c3.729,0 6.888,1.287 9.478,3.859c2.589,2.572 3.884,5.637 3.884,9.193c0,3.108 -0.759,6.345 -2.279,9.711c-1.519,3.367 -4.454,7.778 -8.804,13.233c-5.663,7.148 -9.789,13.018 -12.379,17.61c-2.037,3.625 -3.591,7.424 -4.661,11.394Z" style="fill:#cb0000;"/></g><g id="Heart4" serif:id="Heart"><path d="M92.857,270.107c-1.07,-4.075 -2.598,-7.899 -4.583,-11.472c-1.986,-3.574 -5.827,-9.125 -11.524,-16.652c-4.178,-5.524 -6.75,-9.029 -7.717,-10.514c-1.589,-2.417 -2.737,-4.635 -3.444,-6.655c-0.708,-2.02 -1.062,-4.066 -1.062,-6.138c0,-3.832 1.277,-7.043 3.832,-9.633c2.556,-2.59 5.715,-3.885 9.479,-3.885c3.798,0 7.095,1.347 9.892,4.04c2.106,2.003 3.815,4.99 5.127,8.96c1.14,-3.901 2.745,-6.871 4.817,-8.908c2.866,-2.762 6.181,-4.143 9.944,-4.143c3.729,0 6.889,1.286 9.478,3.858c2.59,2.573 3.885,5.637 3.885,9.193c0,3.108 -0.76,6.345 -2.279,9.712c-1.519,3.366 -4.454,7.777 -8.805,13.233c-5.662,7.147 -9.789,13.017 -12.378,17.609c-2.037,3.626 -3.591,7.424 -4.662,11.395Z" style="fill:#cb0000;"/></g><g id="Heart5" serif:id="Heart"><path d="M207.35,270.107c-1.071,-4.075 -2.599,-7.899 -4.584,-11.472c-1.985,-3.574 -5.827,-9.125 -11.524,-16.652c-4.178,-5.524 -6.75,-9.029 -7.717,-10.514c-1.588,-2.417 -2.736,-4.635 -3.444,-6.655c-0.708,-2.02 -1.062,-4.066 -1.062,-6.138c0,-3.832 1.278,-7.043 3.833,-9.633c2.555,-2.59 5.714,-3.885 9.478,-3.885c3.798,0 7.095,1.347 9.892,4.04c2.106,2.003 3.816,4.99 5.128,8.96c1.139,-3.901 2.745,-6.871 4.816,-8.908c2.866,-2.762 6.181,-4.143 9.945,-4.143c3.729,0 6.888,1.286 9.478,3.858c2.589,2.573 3.884,5.637 3.884,9.193c0,3.108 -0.759,6.345 -2.279,9.712c-1.519,3.366 -4.454,7.777 -8.804,13.233c-5.663,7.147 -9.789,13.017 -12.379,17.609c-2.037,3.626 -3.591,7.424 -4.661,11.395Z" style="fill:#cb0000;"/></g><g id="Heart6" serif:id="Heart"><path d="M92.857,345.32c-1.07,-4.074 -2.598,-7.898 -4.583,-11.472c-1.986,-3.574 -5.827,-9.124 -11.524,-16.652c-4.178,-5.524 -6.75,-9.029 -7.717,-10.513c-1.589,-2.417 -2.737,-4.636 -3.444,-6.656c-0.708,-2.02 -1.062,-4.066 -1.062,-6.137c0,-3.833 1.277,-7.044 3.832,-9.634c2.556,-2.589 5.715,-3.884 9.479,-3.884c3.798,0 7.095,1.346 9.892,4.04c2.106,2.002 3.815,4.989 5.127,8.96c1.14,-3.902 2.745,-6.871 4.817,-8.909c2.866,-2.762 6.181,-4.143 9.944,-4.143c3.729,0 6.889,1.286 9.478,3.859c2.59,2.572 3.885,5.636 3.885,9.193c0,3.107 -0.76,6.344 -2.279,9.711c-1.519,3.366 -4.454,7.777 -8.805,13.233c-5.662,7.147 -9.789,13.017 -12.378,17.61c-2.037,3.625 -3.591,7.423 -4.662,11.394Z" style="fill:#cb0000;"/></g><g id="Heart7" serif:id="Heart"><path d="M207.35,345.32c-1.071,-4.074 -2.599,-7.898 -4.584,-11.472c-1.985,-3.574 -5.827,-9.124 -11.524,-16.652c-4.178,-5.524 -6.75,-9.029 -7.717,-10.513c-1.588,-2.417 -2.736,-4.636 -3.444,-6.656c-0.708,-2.02 -1.062,-4.066 -1.062,-6.137c0,-3.833 1.278,-7.044 3.833,-9.634c2.555,-2.589 5.714,-3.884 9.478,-3.884c3.798,0 7.095,1.346 9.892,4.04c2.106,2.002 3.816,4.989 5.128,8.96c1.139,-3.902 2.745,-6.871 4.816,-8.909c2.866,-2.762 6.181,-4.143 9.945,-4.143c3.729,0 6.888,1.286 9.478,3.859c2.589,2.572 3.884,5.636 3.884,9.193c0,3.107 -0.759,6.344 -2.279,9.711c-1.519,3.366 -4.454,7.777 -8.804,13.233c-5.663,7.147 -9.789,13.017 -12.379,17.61c-2.037,3.625 -3.591,7.423 -4.661,11.394Z" style="fill:#cb0000;"/></g></svg>