<?xml version="1.0" encoding="UTF-8" standalone="no"?><!DOCTYPE svg PUBLIC "-//W3C//DTD SVG 1.1//EN" "http://www.w3.org/Graphics/SVG/1.1/DTD/svg11.dtd"><svg width="100%" height="100%" viewBox="0 0 301 400" version="1.1" xmlns="http://www.w3.org/2000/svg" xmlns:xlink="http://www.w3.org/1999/xlink" xml:space="preserve" xmlns:serif="http://www.serif.com/" style="fill-rule:evenodd;clip-rule:evenodd;stroke-linejoin:round;stroke-miterlimit:2;"><rect id="H-9" x="0.958" y="0" width="300" height="400" style="fill:none;"/><path d="M20.959,39.697c-0.047,4.986 1.116,8.631 3.491,10.934c2.374,2.375 5.247,3.538 8.619,3.491c3.063,0.047 6.364,-0.487 9.902,-1.603l0,4.879c-0.143,5.248 -2.576,7.896 -7.302,7.943c-3.348,0 -5.604,-1.448 -6.767,-4.345l-7.658,0c0.784,3.775 2.529,6.66 5.236,8.655c2.683,2.042 5.746,3.087 9.189,3.134c4.037,-0.047 7.468,-1.353 10.294,-3.918c2.873,-2.588 4.357,-6.268 4.452,-11.041l0,-22.902c-0.095,-4.797 -1.579,-8.489 -4.452,-11.077c-2.826,-2.565 -6.257,-3.847 -10.294,-3.847c-3.918,0 -7.289,1.282 -10.115,3.847c-3.016,2.588 -4.547,6.28 -4.595,11.077l0,4.773Zm7.444,-4.31c0.095,-5.2 2.517,-7.848 7.266,-7.943c4.726,0.095 7.159,2.743 7.302,7.943l0,4.238c-0.143,5.248 -2.576,7.896 -7.302,7.943c-4.749,-0.047 -7.171,-2.695 -7.266,-7.943l0,-4.238Z" style="fill:#cb0000;fill-rule:nonzero;"/><path d="M280.956,360.303c0.048,-4.986 -1.116,-8.631 -3.49,-10.934c-2.375,-2.375 -5.248,-3.538 -8.62,-3.491c-3.063,-0.047 -6.363,0.487 -9.901,1.603l0,-4.879c0.142,-5.248 2.576,-7.896 7.301,-7.943c3.348,0 5.604,1.448 6.768,4.345l7.657,0c-0.783,-3.775 -2.528,-6.66 -5.235,-8.655c-2.684,-2.042 -5.747,-3.087 -9.19,-3.134c-4.036,0.047 -7.467,1.353 -10.293,3.918c-2.873,2.588 -4.357,6.268 -4.452,11.041l0,22.902c0.095,4.797 1.579,8.489 4.452,11.077c2.826,2.565 6.257,3.847 10.293,3.847c3.918,0 7.29,-1.282 10.116,-3.847c3.015,-2.588 4.547,-6.28 4.594,-11.077l0,-4.773Zm-7.444,4.31c-0.095,5.2 -2.517,7.848 -7.266,7.943c-4.725,-0.095 -7.159,-2.743 -7.301,-7.943l0,-4.238c0.142,-5.248 2.576,-7.896 7.301,-7.943c4.749,0.047 7.171,2.695 7.266,7.943l0,4.238Z" style="fill:#cb0000;fill-rule:nonzero;"/><g id="Heart"><path d="M93.815,119.68c-1.07,-4.074 -2.598,-7.898 -4.583,-11.472c-1.986,-3.574 -5.827,-9.124 -11.524,-16.651c-4.178,-5.525 -6.751,-9.03 -7.717,-10.514c-1.589,-2.417 -2.737,-4.636 -3.445,-6.656c-0.708,-2.02 -1.061,-4.066 -1.061,-6.137c0,-3.833 1.277,-7.044 3.832,-9.634c2.555,-2.589 5.715,-3.884 9.478,-3.884c3.798,0 7.096,1.346 9.893,4.04c2.106,2.002 3.815,4.989 5.127,8.96c1.14,-3.902 2.745,-6.871 4.817,-8.909c2.866,-2.762 6.181,-4.143 9.944,-4.143c3.729,0 6.889,1.286 9.478,3.859c2.59,2.572 3.885,5.636 3.885,9.193c0,3.107 -0.76,6.344 -2.279,9.711c-1.519,3.367 -4.454,7.778 -8.805,13.233c-5.663,7.147 -9.789,13.017 -12.378,17.61c-2.038,3.625 -3.591,7.423 -4.662,11.394Z" style="fill:#cb0000;"/></g><g id="Heart1" serif:id="Heart"><path d="M208.308,119.68c-1.071,-4.074 -2.599,-7.898 -4.584,-11.472c-1.986,-3.574 -5.827,-9.124 -11.524,-16.651c-4.178,-5.525 -6.75,-9.03 -7.717,-10.514c-1.588,-2.417 -2.737,-4.636 -3.444,-6.656c-0.708,-2.02 -1.062,-4.066 -1.062,-6.137c0,-3.833 1.277,-7.044 3.833,-9.634c2.555,-2.589 5.714,-3.884 9.478,-3.884c3.798,0 7.095,1.346 9.892,4.04c2.106,2.002 3.815,4.989 5.128,8.96c1.139,-3.902 2.745,-6.871 4.816,-8.909c2.866,-2.762 6.181,-4.143 9.944,-4.143c3.73,0 6.889,1.286 9.479,3.859c2.589,2.572 3.884,5.636 3.884,9.193c0,3.107 -0.76,6.344 -2.279,9.711c-1.519,3.367 -4.454,7.778 -8.805,13.233c-5.662,7.147 -9.788,13.017 -12.378,17.61c-2.037,3.625 -3.591,7.423 -4.661,11.394Z" style="fill:#cb0000;"/></g><g id="Heart2" serif:id="Heart"><path d="M151.061,232.5c-1.07,-4.074 -2.598,-7.898 -4.583,-11.472c-1.986,-3.574 -5.827,-9.124 -11.524,-16.652c-4.178,-5.524 -6.751,-9.029 -7.717,-10.513c-1.589,-2.417 -2.737,-4.636 -3.445,-6.656c-0.707,-2.02 -1.061,-4.066 -1.061,-6.137c0,-3.833 1.277,-7.044 3.832,-9.634c2.555,-2.589 5.715,-3.884 9.478,-3.884c3.799,0 7.096,1.346 9.893,4.04c2.106,2.002 3.815,4.989 5.127,8.96c1.14,-3.902 2.745,-6.871 4.817,-8.909c2.866,-2.762 6.181,-4.143 9.944,-4.143c3.729,0 6.889,1.286 9.478,3.859c2.59,2.572 3.885,5.636 3.885,9.193c0,3.107 -0.76,6.344 -2.279,9.711c-1.519,3.366 -4.454,7.778 -8.805,13.233c-5.662,7.147 -9.789,13.017 -12.378,17.61c-2.037,3.625 -3.591,7.423 -4.662,11.394Z" style="fill:#cb0000;"/></g><g id="Heart3" serif:id="Heart"><path d="M93.815,194.893c-1.07,-4.074 -2.598,-7.898 -4.583,-11.472c-1.986,-3.573 -5.827,-9.124 -11.524,-16.651c-4.178,-5.525 -6.751,-9.029 -7.717,-10.514c-1.589,-2.417 -2.737,-4.636 -3.445,-6.655c-0.708,-2.02 -1.061,-4.066 -1.061,-6.138c0,-3.833 1.277,-7.044 3.832,-9.633c2.555,-2.59 5.715,-3.885 9.478,-3.885c3.798,0 7.096,1.347 9.893,4.04c2.106,2.003 3.815,4.989 5.127,8.96c1.14,-3.902 2.745,-6.871 4.817,-8.908c2.866,-2.763 6.181,-4.144 9.944,-4.144c3.729,0 6.889,1.287 9.478,3.859c2.59,2.572 3.885,5.637 3.885,9.193c0,3.108 -0.76,6.345 -2.279,9.711c-1.519,3.367 -4.454,7.778 -8.805,13.233c-5.663,7.148 -9.789,13.018 -12.378,17.61c-2.038,3.625 -3.591,7.424 -4.662,11.394Z" style="fill:#cb0000;"/></g><g id="Heart4" serif:id="Heart"><path d="M208.308,194.893c-1.071,-4.074 -2.599,-7.898 -4.584,-11.472c-1.986,-3.573 -5.827,-9.124 -11.524,-16.651c-4.178,-5.525 -6.75,-9.029 -7.717,-10.514c-1.588,-2.417 -2.737,-4.636 -3.444,-6.655c-0.708,-2.02 -1.062,-4.066 -1.062,-6.138c0,-3.833 1.277,-7.044 3.833,-9.633c2.555,-2.59 5.714,-3.885 9.478,-3.885c3.798,0 7.095,1.347 9.892,4.04c2.106,2.003 3.815,4.989 5.128,8.96c1.139,-3.902 2.745,-6.871 4.816,-8.908c2.866,-2.763 6.181,-4.144 9.944,-4.144c3.73,0 6.889,1.287 9.479,3.859c2.589,2.572 3.884,5.637 3.884,9.193c0,3.108 -0.76,6.345 -2.279,9.711c-1.519,3.367 -4.454,7.778 -8.805,13.233c-5.662,7.148 -9.788,13.018 -12.378,17.61c-2.037,3.625 -3.591,7.424 -4.661,11.394Z" style="fill:#cb0000;"/></g><g id="Heart5" serif:id="Heart"><path d="M93.815,270.107c-1.07,-4.075 -2.598,-7.899 -4.583,-11.472c-1.986,-3.574 -5.827,-9.125 -11.524,-16.652c-4.178,-5.524 -6.751,-9.029 -7.717,-10.514c-1.589,-2.417 -2.737,-4.635 -3.445,-6.655c-0.708,-2.02 -1.061,-4.066 -1.061,-6.138c0,-3.832 1.277,-7.043 3.832,-9.633c2.555,-2.59 5.715,-3.885 9.478,-3.885c3.798,0 7.096,1.347 9.893,4.04c2.106,2.003 3.815,4.99 5.127,8.96c1.14,-3.901 2.745,-6.871 4.817,-8.908c2.866,-2.762 6.181,-4.143 9.944,-4.143c3.729,0 6.889,1.286 9.478,3.858c2.59,2.573 3.885,5.637 3.885,9.193c0,3.108 -0.76,6.345 -2.279,9.712c-1.519,3.366 -4.454,7.777 -8.805,13.233c-5.663,7.147 -9.789,13.017 -12.378,17.609c-2.038,3.626 -3.591,7.424 -4.662,11.395Z" style="fill:#cb0000;"/></g><g id="Heart6" serif:id="Heart"><path d="M208.308,270.107c-1.071,-4.075 -2.599,-7.899 -4.584,-11.472c-1.986,-3.574 -5.827,-9.125 -11.524,-16.652c-4.178,-5.524 -6.75,-9.029 -7.717,-10.514c-1.588,-2.417 -2.737,-4.635 -3.444,-6.655c-0.708,-2.02 -1.062,-4.066 -1.062,-6.138c0,-3.832 1.277,-7.043 3.833,-9.633c2.555,-2.59 5.714,-3.885 9.478,-3.885c3.798,0 7.095,1.347 9.892,4.04c2.106,2.003 3.815,4.99 5.128,8.96c1.139,-3.901 2.745,-6.871 4.816,-8.908c2.866,-2.762 6.181,-4.143 9.944,-4.143c3.73,0 6.889,1.286 9.479,3.858c2.589,2.573 3.884,5.637 3.884,9.193c0,3.108 -0.76,6.345 -2.279,9.712c-1.519,3.366 -4.454,7.777 -8.805,13.233c-5.662,7.147 -9.788,13.017 -12.378,17.609c-2.037,3.626 -3.591,7.424 -4.661,11.395Z" style="fill:#cb0000;"/></g><g id="Heart7" serif:id="Heart"><path d="M93.815,345.32c-1.07,-4.074 -2.598,-7.898 -4.583,-11.472c-1.986,-3.574 -5.827,-9.124 -11.524,-16.652c-4.178,-5.524 -6.751,-9.029 -7.717,-10.513c-1.589,-2.417 -2.737,-4.636 -3.445,-6.656c-0.708,-2.02 -1.061,-4.066 -1.061,-6.137c0,-3.833 1.277,-7.044 3.832,-9.634c2.555,-2.589 5.715,-3.884 9.478,-3.884c3.798,0 7.096,1.346 9.893,4.04c2.106,2.002 3.815,4.989 5.127,8.96c1.14,-3.902 2.745,-6.871 4.817,-8.909c2.866,-2.762 6.181,-4.143 9.944,-4.143c3.729,0 6.889,1.286 9.478,3.859c2.59,2.572 3.885,5.636 3.885,9.193c0,3.107 -0.76,6.344 -2.279,9.711c-1.519,3.366 -4.454,7.777 -8.805,13.233c-5.663,7.147 -9.789,13.017 -12.378,17.61c-2.038,3.625 -3.591,7.423 -4.662,11.394Z" style="fill:#cb0000;"/></g><g id="Heart8" serif:id="Heart"><path d="M208.308,345.32c-1.071,-4.074 -2.599,-7.898 -4.584,-11.472c-1.986,-3.574 -5.827,-9.124 -11.524,-16.652c-4.178,-5.524 -6.75,-9.029 -7.717,-10.513c-1.588,-2.417 -2.737,-4.636 -3.444,-6.656c-0.708,-2.02 -1.062,-4.066 -1.062,-6.137c0,-3.833 1.277,-7.044 3.833,-9.634c2.555,-2.589 5.714,-3.884 9.478,-3.884c3.798,0 7.095,1.346 9.892,4.04c2.106,2.002 3.815,4.989 5.128,8.96c1.139,-3.902 2.745,-6.871 4.816,-8.909c2.866,-2.762 6.181,-4.143 9.944,-4.143c3.73,0 6.889,1.286 9.479,3.859c2.589,2.572 3.884,5.636 3.884,9.193c0,3.107 -0.76,6.344 -2.279,9.711c-1.519,3.366 -4.454,7.777 -8.805,13.233c-5.662,7.147 -9.788,13.017 -12.378,17.61c-2.037,3.625 -3.591,7.423 -4.661,11.394Z" style="fill:#cb0000;"/></g></svg>