<?xml version="1.0" encoding="UTF-8" standalone="no"?><!DOCTYPE svg PUBLIC "-//W3C//DTD SVG 1.1//EN" "http://www.w3.org/Graphics/SVG/1.1/DTD/svg11.dtd"><svg width="100%" height="100%" viewBox="0 0 300 400" version="1.1" xmlns="http://www.w3.org/2000/svg" xmlns:xlink="http://www.w3.org/1999/xlink" xml:space="preserve" xmlns:serif="http://www.serif.com/" style="fill-rule:evenodd;clip-rule:evenodd;stroke-linejoin:round;stroke-miterlimit:2;"><rect id="H-A" x="0" y="0" width="300" height="400" style="fill:none;"/><path d="M34.603,53.338l7.516,-22.688l0.142,0l7.515,22.688l-15.173,0Zm21.442,18.592l8.299,0l-18.877,-51.93l-6.59,0l-18.877,51.93l8.335,0l3.989,-11.611l19.696,0l4.025,11.611Z" style="fill:#cb0000;fill-rule:nonzero;"/><path d="M265.397,346.662l-7.516,22.688l-0.142,0l-7.515,-22.688l15.173,0Zm-21.442,-18.592l-8.299,0l18.877,51.93l6.59,0l18.877,-51.93l-8.335,0l-3.989,11.611l-19.696,0l-4.025,-11.611Z" style="fill:#cb0000;fill-rule:nonzero;"/><g id="Heart"><path d="M150.207,265c-2.141,-8.149 -5.196,-15.797 -9.167,-22.944c-3.971,-7.148 -11.654,-18.249 -23.048,-33.303c-8.356,-11.049 -13.501,-18.058 -15.434,-21.028c-3.177,-4.834 -5.473,-9.271 -6.889,-13.311c-1.415,-4.039 -2.123,-8.131 -2.123,-12.275c0,-7.665 2.555,-14.087 7.665,-19.266c5.11,-5.18 11.429,-7.769 18.956,-7.769c7.597,0 14.192,2.693 19.785,8.079c4.213,4.006 7.631,9.979 10.255,17.921c2.279,-7.804 5.49,-13.743 9.634,-17.817c5.731,-5.525 12.361,-8.287 19.888,-8.287c7.458,0 13.777,2.572 18.956,7.717c5.18,5.145 7.769,11.274 7.769,18.387c0,6.215 -1.519,12.689 -4.558,19.422c-3.038,6.733 -8.908,15.555 -17.609,26.466c-11.326,14.295 -19.578,26.035 -24.757,35.219c-4.074,7.251 -7.182,14.847 -9.323,22.789Z" style="fill:#cb0000;"/></g></svg>