<?xml version="1.0" encoding="UTF-8" standalone="no"?><!DOCTYPE svg PUBLIC "-//W3C//DTD SVG 1.1//EN" "http://www.w3.org/Graphics/SVG/1.1/DTD/svg11.dtd"><svg width="100%" height="100%" viewBox="0 0 301 401" version="1.1" xmlns="http://www.w3.org/2000/svg" xmlns:xlink="http://www.w3.org/1999/xlink" xml:space="preserve" xmlns:serif="http://www.serif.com/" style="fill-rule:evenodd;clip-rule:evenodd;stroke-linejoin:round;stroke-miterlimit:2;"><rect id="H-D" x="0.039" y="0.039" width="300" height="400" style="fill:none;"/><g id="Heart"><path d="M138.068,221.233c-1.317,-5.015 -3.198,-9.721 -5.641,-14.119c-2.444,-4.399 -7.172,-11.23 -14.184,-20.494c-5.142,-6.8 -8.308,-11.113 -9.498,-12.941c-1.954,-2.974 -3.367,-5.705 -4.239,-8.191c-0.871,-2.486 -1.306,-5.004 -1.306,-7.554c0,-4.717 1.572,-8.669 4.717,-11.856c3.145,-3.188 7.033,-4.781 11.665,-4.781c4.675,0 8.733,1.657 12.175,4.972c2.593,2.465 4.696,6.141 6.311,11.028c1.403,-4.802 3.379,-8.457 5.928,-10.964c3.528,-3.4 7.607,-5.1 12.24,-5.1c4.589,0 8.478,1.583 11.665,4.749c3.187,3.166 4.781,6.938 4.781,11.315c0,3.825 -0.935,7.809 -2.805,11.952c-1.87,4.143 -5.482,9.572 -10.837,16.287c-6.969,8.797 -12.048,16.021 -15.235,21.673c-2.507,4.462 -4.419,9.137 -5.737,14.024Z" style="fill:#cb0000;"/></g><path d="M166.096,280.039l27.161,0c5.999,0 11.065,-1.316 15.198,-3.95c4.171,-2.451 7.426,-5.56 9.767,-9.328c0.878,-1.427 1.628,-2.798 2.25,-4.115c0.585,-1.354 1.024,-2.89 1.317,-4.609c0.622,-3.402 0.933,-9.401 0.933,-17.998c0,-8.084 -0.202,-13.772 -0.604,-17.064c-0.512,-3.292 -1.738,-6.438 -3.676,-9.438c-5.414,-8.925 -13.535,-13.424 -24.362,-13.498l-27.984,0l0,80Zm12.126,-68.532l14.486,0c6.145,-0.146 10.901,2.103 14.266,6.749c1.646,1.866 2.689,4.298 3.128,7.298c0.329,2.999 0.493,7.974 0.493,14.924c0,7.133 -0.164,11.999 -0.493,14.596c-0.366,2.633 -1.226,4.81 -2.579,6.529c-3.073,4.646 -8.011,6.969 -14.815,6.969l-14.486,0l0,-57.065Z" style="fill:#cb0000;fill-rule:nonzero;"/><path d="M23.681,72.184l17.776,0c3.926,0 7.242,-0.862 9.947,-2.586c2.729,-1.604 4.86,-3.639 6.392,-6.105c0.575,-0.934 1.066,-1.831 1.473,-2.693c0.383,-0.886 0.67,-1.891 0.862,-3.017c0.407,-2.226 0.61,-6.152 0.61,-11.778c0,-5.291 -0.132,-9.014 -0.395,-11.169c-0.335,-2.154 -1.137,-4.213 -2.406,-6.176c-3.543,-5.842 -8.858,-8.786 -15.944,-8.834l-18.315,0l0,52.358Zm7.936,-44.853l9.481,0c4.022,-0.096 7.134,1.377 9.337,4.417c1.077,1.221 1.759,2.813 2.047,4.776c0.215,1.963 0.323,5.219 0.323,9.768c0,4.668 -0.108,7.852 -0.323,9.552c-0.24,1.724 -0.802,3.148 -1.688,4.274c-2.011,3.04 -5.243,4.56 -9.696,4.56l-9.481,0l0,-37.347Z" style="fill:#cb0000;fill-rule:nonzero;"/><path d="M276.397,327.681l-17.776,0c-3.926,0 -7.242,0.862 -9.947,2.586c-2.729,1.604 -4.86,3.639 -6.392,6.105c-0.575,0.934 -1.065,1.831 -1.472,2.693c-0.384,0.886 -0.671,1.892 -0.862,3.017c-0.407,2.226 -0.611,6.152 -0.611,11.778c0,5.291 0.132,9.014 0.395,11.169c0.335,2.154 1.137,4.213 2.406,6.176c3.543,5.842 8.858,8.786 15.945,8.834l18.314,0l0,-52.358Zm-7.936,44.853l-9.481,0c-4.022,0.096 -7.134,-1.377 -9.336,-4.417c-1.078,-1.221 -1.76,-2.813 -2.047,-4.776c-0.216,-1.963 -0.324,-5.219 -0.324,-9.768c0,-4.668 0.108,-7.852 0.324,-9.552c0.239,-1.724 0.802,-3.148 1.687,-4.273c2.011,-3.041 5.243,-4.561 9.696,-4.561l9.481,0l0,37.347Z" style="fill:#cb0000;fill-rule:nonzero;"/></svg>