<?xml version="1.0" encoding="UTF-8" standalone="no"?><!DOCTYPE svg PUBLIC "-//W3C//DTD SVG 1.1//EN" "http://www.w3.org/Graphics/SVG/1.1/DTD/svg11.dtd"><svg width="100%" height="100%" viewBox="0 0 300 401" version="1.1" xmlns="http://www.w3.org/2000/svg" xmlns:xlink="http://www.w3.org/1999/xlink" xml:space="preserve" xmlns:serif="http://www.serif.com/" style="fill-rule:evenodd;clip-rule:evenodd;stroke-linejoin:round;stroke-miterlimit:2;"><rect id="H-J" x="0" y="0.039" width="300" height="400" style="fill:none;"/><g id="Heart"><path d="M138.029,221.233c-1.317,-5.015 -3.198,-9.721 -5.641,-14.119c-2.444,-4.399 -7.172,-11.23 -14.184,-20.494c-5.142,-6.8 -8.308,-11.113 -9.498,-12.941c-1.954,-2.974 -3.367,-5.705 -4.239,-8.191c-0.871,-2.486 -1.306,-5.004 -1.306,-7.554c0,-4.717 1.572,-8.669 4.717,-11.856c3.144,-3.188 7.033,-4.781 11.665,-4.781c4.675,0 8.733,1.657 12.175,4.972c2.593,2.465 4.696,6.141 6.311,11.028c1.402,-4.802 3.379,-8.457 5.928,-10.964c3.528,-3.4 7.607,-5.1 12.239,-5.1c4.59,0 8.479,1.583 11.666,4.749c3.187,3.166 4.781,6.938 4.781,11.315c0,3.825 -0.935,7.809 -2.805,11.952c-1.87,4.143 -5.482,9.572 -10.837,16.287c-6.969,8.797 -12.048,16.021 -15.235,21.673c-2.507,4.462 -4.42,9.137 -5.737,14.024Z" style="fill:#cb0000;"/></g><path d="M157.329,241.485l-9.687,7.021c4.535,6.675 11.41,10.122 20.626,10.34c6.675,-0.073 12.535,-2.34 17.578,-6.803c5.079,-4.354 7.691,-10.522 7.836,-18.503l0,-54.694l-12.027,0l0,53.496c0,2.685 -0.417,4.916 -1.251,6.694c-0.799,1.85 -1.905,3.338 -3.32,4.463c-2.903,2.285 -5.95,3.392 -9.143,3.319c-2.395,0 -4.481,-0.562 -6.259,-1.687c-1.777,-0.943 -3.229,-2.158 -4.353,-3.646Z" style="fill:#cb0000;fill-rule:nonzero;"/><path d="M33.446,60.822l-6.34,4.594c2.968,4.369 7.468,6.625 13.499,6.768c4.369,-0.048 8.204,-1.532 11.504,-4.453c3.325,-2.849 5.034,-6.886 5.129,-12.11l0,-35.795l-7.871,0l0,35.012c0,1.757 -0.273,3.217 -0.819,4.381c-0.523,1.211 -1.247,2.184 -2.173,2.92c-1.9,1.496 -3.894,2.221 -5.984,2.173c-1.567,0 -2.932,-0.368 -4.096,-1.104c-1.163,-0.617 -2.113,-1.413 -2.849,-2.386Z" style="fill:#cb0000;fill-rule:nonzero;"/><path d="M266.554,339.257l6.34,-4.594c-2.968,-4.37 -7.468,-6.625 -13.499,-6.768c-4.369,0.048 -8.204,1.532 -11.504,4.452c-3.325,2.85 -5.034,6.886 -5.129,12.11l0,35.796l7.871,0l0,-35.012c0,-1.757 0.273,-3.217 0.819,-4.381c0.523,-1.211 1.247,-2.185 2.173,-2.921c1.9,-1.496 3.894,-2.22 5.984,-2.172c1.567,0 2.932,0.368 4.096,1.104c1.163,0.617 2.113,1.413 2.849,2.386Z" style="fill:#cb0000;fill-rule:nonzero;"/></svg>