<?xml version="1.0" encoding="UTF-8" standalone="no"?><!DOCTYPE svg PUBLIC "-//W3C//DTD SVG 1.1//EN" "http://www.w3.org/Graphics/SVG/1.1/DTD/svg11.dtd"><svg width="100%" height="100%" viewBox="0 0 301 401" version="1.1" xmlns="http://www.w3.org/2000/svg" xmlns:xlink="http://www.w3.org/1999/xlink" xml:space="preserve" xmlns:serif="http://www.serif.com/" style="fill-rule:evenodd;clip-rule:evenodd;stroke-linejoin:round;stroke-miterlimit:2;"><rect id="H-K" x="0.25" y="0.039" width="300" height="400" style="fill:none;"/><g id="Heart"><path d="M130.134,221.233c-1.318,-5.015 -3.198,-9.721 -5.642,-14.119c-2.443,-4.399 -7.171,-11.23 -14.183,-20.494c-5.142,-6.8 -8.308,-11.113 -9.498,-12.941c-1.955,-2.974 -3.368,-5.705 -4.239,-8.191c-0.871,-2.486 -1.307,-5.004 -1.307,-7.554c0,-4.717 1.573,-8.669 4.717,-11.856c3.145,-3.188 7.033,-4.781 11.666,-4.781c4.674,0 8.733,1.657 12.175,4.972c2.592,2.465 4.696,6.141 6.311,11.028c1.402,-4.802 3.378,-8.457 5.928,-10.964c3.527,-3.4 7.607,-5.1 12.239,-5.1c4.59,0 8.478,1.583 11.665,4.749c3.188,3.166 4.781,6.938 4.781,11.315c0,3.825 -0.935,7.809 -2.805,11.952c-1.869,4.143 -5.482,9.572 -10.836,16.287c-6.97,8.797 -12.048,16.021 -15.235,21.673c-2.508,4.462 -4.42,9.137 -5.737,14.024Z" style="fill:#cb0000;"/></g><text x="141.855px" y="280.478px" style="font-family:'Arial-BoldMT', 'Arial', sans-serif;font-weight:700;font-size:112.373px;fill:#cb0000;">K</text><path d="M22.191,71.97l7.872,0l0,-15.814l9.118,-9.581l14.14,25.395l9.332,0l-18.379,-31.45l16.634,-20.481l-9.332,0l-21.371,26.749l-0.142,0l0,-26.749l-7.872,0l0,51.931Z" style="fill:#cb0000;fill-rule:nonzero;"/><path d="M278.309,328.109l-7.871,0l0,15.814l-9.119,9.581l-14.14,-25.395l-9.332,0l18.379,31.45l-16.633,20.48l9.331,0l21.371,-26.748l0.143,0l0,26.748l7.871,0l0,-51.93Z" style="fill:#cb0000;fill-rule:nonzero;"/></svg>