<?xml version="1.0" encoding="UTF-8" standalone="no"?><!DOCTYPE svg PUBLIC "-//W3C//DTD SVG 1.1//EN" "http://www.w3.org/Graphics/SVG/1.1/DTD/svg11.dtd"><svg width="100%" height="100%" viewBox="0 0 300 400" version="1.1" xmlns="http://www.w3.org/2000/svg" xmlns:xlink="http://www.w3.org/1999/xlink" xml:space="preserve" xmlns:serif="http://www.serif.com/" style="fill-rule:evenodd;clip-rule:evenodd;stroke-linejoin:round;stroke-miterlimit:2;"><rect id="S-2" x="0" y="0" width="300" height="400" style="fill:none;"/><path d="M22.28,71.93l29.598,0l0,-7.444l-19.839,0l16.704,-20.943c2.09,-2.659 3.135,-5.699 3.135,-9.118c-0.048,-4.274 -1.484,-7.8 -4.31,-10.578c-2.778,-2.802 -6.399,-4.227 -10.863,-4.274c-3.99,0.047 -7.349,1.448 -10.08,4.202c-2.707,2.826 -4.156,6.4 -4.345,10.721l7.408,0c0.261,-2.374 1.092,-4.214 2.493,-5.52c1.354,-1.306 3.051,-1.959 5.094,-1.959c2.303,0.047 4.084,0.795 5.342,2.244c1.211,1.448 1.817,3.146 1.817,5.093c0,0.736 -0.095,1.52 -0.285,2.351c-0.285,0.878 -0.819,1.828 -1.603,2.849l-20.266,25.36l0,7.016Z" style="fill-rule:nonzero;"/><path d="M277.72,328.07l-29.598,0l0,7.444l19.839,0l-16.704,20.943c-2.09,2.659 -3.135,5.699 -3.135,9.118c0.048,4.274 1.484,7.8 4.31,10.578c2.778,2.802 6.399,4.227 10.863,4.274c3.99,-0.047 7.349,-1.448 10.08,-4.202c2.707,-2.826 4.156,-6.4 4.345,-10.721l-7.408,0c-0.261,2.374 -1.092,4.214 -2.493,5.52c-1.354,1.306 -3.051,1.959 -5.094,1.959c-2.303,-0.047 -4.084,-0.795 -5.342,-2.244c-1.211,-1.448 -1.817,-3.146 -1.817,-5.093c0,-0.736 0.095,-1.52 0.285,-2.351c0.285,-0.878 0.819,-1.828 1.603,-2.849l20.266,-25.36l0,-7.016Z" style="fill-rule:nonzero;"/><g id="Spade"><path d="M150.05,71.912c0.858,3.566 2.179,6.752 3.961,9.558c1.783,2.806 4.961,6.281 9.533,10.425c4.573,4.143 7.47,7.321 8.692,9.533c1.221,2.212 1.832,4.457 1.832,6.735c0,3.169 -1.057,5.81 -3.17,7.923c-2.112,2.113 -4.688,3.17 -7.725,3.17c-2.575,0 -4.911,-0.801 -7.007,-2.402c-2.097,-1.601 -3.954,-3.937 -5.572,-7.008c0.033,4.854 0.669,8.708 1.907,11.564c1.238,2.856 3.219,5.101 5.943,6.735c2.723,1.634 6.347,2.6 10.87,2.897l0.346,1.832l-39.271,0l0.396,-1.832c6.075,0 10.788,-1.774 14.139,-5.324c3.351,-3.549 4.96,-8.839 4.828,-15.872c-1.485,3.137 -3.326,5.489 -5.521,7.057c-2.196,1.569 -4.68,2.353 -7.453,2.353c-2.972,0 -5.522,-1.073 -7.652,-3.219c-2.129,-2.146 -3.194,-4.721 -3.194,-7.726c0,-2.41 0.545,-4.589 1.634,-6.537c1.486,-2.707 3.896,-5.431 7.231,-8.171c3.334,-2.74 5.794,-5.002 7.378,-6.784c2.411,-2.741 4.169,-5.184 5.275,-7.33c1.106,-2.146 1.972,-4.671 2.6,-7.577Z"/></g><g id="Spade1" serif:id="Spade"><path d="M150.05,267.126c0.858,3.565 2.179,6.751 3.961,9.557c1.783,2.807 4.961,6.282 9.533,10.425c4.573,4.143 7.47,7.321 8.692,9.533c1.221,2.212 1.832,4.457 1.832,6.735c0,3.169 -1.057,5.811 -3.17,7.924c-2.112,2.113 -4.688,3.169 -7.725,3.169c-2.575,0 -4.911,-0.801 -7.007,-2.402c-2.097,-1.601 -3.954,-3.937 -5.572,-7.007c0.033,4.853 0.669,8.707 1.907,11.563c1.238,2.856 3.219,5.101 5.943,6.735c2.723,1.635 6.347,2.6 10.87,2.897l0.346,1.833l-39.271,0l0.396,-1.833c6.075,0 10.788,-1.774 14.139,-5.323c3.351,-3.549 4.96,-8.84 4.828,-15.872c-1.485,3.136 -3.326,5.489 -5.521,7.057c-2.196,1.568 -4.68,2.352 -7.453,2.352c-2.972,0 -5.522,-1.073 -7.652,-3.219c-2.129,-2.146 -3.194,-4.721 -3.194,-7.725c0,-2.411 0.545,-4.589 1.634,-6.537c1.486,-2.708 3.896,-5.431 7.231,-8.172c3.334,-2.74 5.794,-5.001 7.378,-6.784c2.411,-2.74 4.169,-5.183 5.275,-7.329c1.106,-2.146 1.972,-4.672 2.6,-7.577Z"/></g></svg>