<?xml version="1.0" encoding="UTF-8" standalone="no"?><!DOCTYPE svg PUBLIC "-//W3C//DTD SVG 1.1//EN" "http://www.w3.org/Graphics/SVG/1.1/DTD/svg11.dtd"><svg width="100%" height="100%" viewBox="0 0 300 400" version="1.1" xmlns="http://www.w3.org/2000/svg" xmlns:xlink="http://www.w3.org/1999/xlink" xml:space="preserve" xmlns:serif="http://www.serif.com/" style="fill-rule:evenodd;clip-rule:evenodd;stroke-linejoin:round;stroke-miterlimit:2;"><rect id="S-3" x="0" y="0" width="300" height="400" style="fill:none;"/><path d="M32.751,48.458l3.134,0c2.304,0 4.203,0.701 5.699,2.102c1.52,1.448 2.304,3.49 2.351,6.126c-0.047,2.588 -0.831,4.583 -2.351,5.984c-1.496,1.496 -3.336,2.244 -5.52,2.244c-2.043,0 -3.681,-0.558 -4.916,-1.674c-1.211,-1.069 -2.149,-2.47 -2.813,-4.203l-7.445,0c0.808,4.322 2.577,7.622 5.307,9.902c2.731,2.279 5.865,3.419 9.404,3.419c4.582,-0.048 8.334,-1.508 11.255,-4.381c2.968,-2.802 4.476,-6.637 4.523,-11.505c0,-2.184 -0.463,-4.274 -1.389,-6.268c-0.974,-1.995 -2.553,-3.704 -4.737,-5.129c2.137,-1.449 3.621,-3.099 4.452,-4.951c0.712,-1.852 1.069,-3.776 1.069,-5.77c-0.048,-3.942 -1.401,-7.361 -4.061,-10.258c-2.778,-2.968 -6.53,-4.476 -11.255,-4.523c-3.728,0.047 -6.934,1.377 -9.617,3.989c-2.73,2.635 -4.286,5.877 -4.666,9.723l7.444,0c0.475,-2.137 1.401,-3.716 2.779,-4.737c1.306,-1.021 2.754,-1.531 4.345,-1.531c2.208,0.047 4.013,0.748 5.414,2.101c1.401,1.401 2.125,3.194 2.173,5.378c0,2.161 -0.701,3.918 -2.102,5.272c-1.401,1.401 -3.372,2.101 -5.912,2.101l-2.565,0l0,6.589Z" style="fill-rule:nonzero;"/><path d="M267.249,351.542l-3.134,0c-2.304,0 -4.203,-0.701 -5.699,-2.102c-1.52,-1.448 -2.304,-3.49 -2.351,-6.126c0.047,-2.588 0.831,-4.583 2.351,-5.984c1.496,-1.496 3.336,-2.244 5.52,-2.244c2.043,0 3.681,0.558 4.916,1.674c1.211,1.069 2.149,2.47 2.813,4.203l7.445,0c-0.808,-4.322 -2.577,-7.622 -5.307,-9.902c-2.731,-2.279 -5.865,-3.419 -9.404,-3.419c-4.582,0.048 -8.334,1.508 -11.255,4.381c-2.968,2.802 -4.476,6.637 -4.523,11.505c0,2.184 0.463,4.274 1.389,6.268c0.974,1.995 2.553,3.704 4.737,5.129c-2.137,1.449 -3.621,3.099 -4.452,4.951c-0.712,1.852 -1.069,3.776 -1.069,5.77c0.048,3.942 1.401,7.361 4.061,10.258c2.778,2.968 6.53,4.476 11.255,4.523c3.728,-0.047 6.934,-1.377 9.617,-3.989c2.73,-2.635 4.286,-5.877 4.666,-9.723l-7.444,0c-0.475,2.137 -1.401,3.716 -2.779,4.737c-1.306,1.021 -2.754,1.531 -4.345,1.531c-2.208,-0.047 -4.013,-0.748 -5.414,-2.101c-1.401,-1.401 -2.125,-3.194 -2.173,-5.378c0,-2.161 0.701,-3.918 2.102,-5.272c1.401,-1.401 3.372,-2.101 5.912,-2.101l2.565,0l0,-6.589Z" style="fill-rule:nonzero;"/><g id="Spade"><path d="M150.05,169.519c0.858,3.566 2.179,6.752 3.961,9.558c1.783,2.806 4.961,6.281 9.533,10.424c4.573,4.144 7.47,7.321 8.692,9.533c1.221,2.212 1.832,4.457 1.832,6.735c0,3.17 -1.057,5.811 -3.17,7.924c-2.112,2.113 -4.688,3.169 -7.725,3.169c-2.575,0 -4.911,-0.8 -7.007,-2.401c-2.097,-1.602 -3.954,-3.937 -5.572,-7.008c0.033,4.853 0.669,8.708 1.907,11.564c1.238,2.855 3.219,5.1 5.943,6.735c2.723,1.634 6.347,2.6 10.87,2.897l0.346,1.832l-39.271,0l0.396,-1.832c6.075,0 10.788,-1.775 14.139,-5.324c3.351,-3.549 4.96,-8.84 4.828,-15.872c-1.485,3.137 -3.326,5.489 -5.521,7.057c-2.196,1.568 -4.68,2.352 -7.453,2.352c-2.972,0 -5.522,-1.073 -7.652,-3.219c-2.129,-2.146 -3.194,-4.721 -3.194,-7.725c0,-2.41 0.545,-4.589 1.634,-6.537c1.486,-2.707 3.896,-5.431 7.231,-8.171c3.334,-2.74 5.794,-5.002 7.378,-6.785c2.411,-2.74 4.169,-5.183 5.275,-7.329c1.106,-2.146 1.972,-4.672 2.6,-7.577Z"/></g><g id="Spade1" serif:id="Spade"><path d="M150.05,71.912c0.858,3.566 2.179,6.752 3.961,9.558c1.783,2.806 4.961,6.281 9.533,10.425c4.573,4.143 7.47,7.321 8.692,9.533c1.221,2.212 1.832,4.457 1.832,6.735c0,3.169 -1.057,5.81 -3.17,7.923c-2.112,2.113 -4.688,3.17 -7.725,3.17c-2.575,0 -4.911,-0.801 -7.007,-2.402c-2.097,-1.601 -3.954,-3.937 -5.572,-7.008c0.033,4.854 0.669,8.708 1.907,11.564c1.238,2.856 3.219,5.101 5.943,6.735c2.723,1.634 6.347,2.6 10.87,2.897l0.346,1.832l-39.271,0l0.396,-1.832c6.075,0 10.788,-1.774 14.139,-5.324c3.351,-3.549 4.96,-8.839 4.828,-15.872c-1.485,3.137 -3.326,5.489 -5.521,7.057c-2.196,1.569 -4.68,2.353 -7.453,2.353c-2.972,0 -5.522,-1.073 -7.652,-3.219c-2.129,-2.146 -3.194,-4.721 -3.194,-7.726c0,-2.41 0.545,-4.589 1.634,-6.537c1.486,-2.707 3.896,-5.431 7.231,-8.171c3.334,-2.74 5.794,-5.002 7.378,-6.784c2.411,-2.741 4.169,-5.184 5.275,-7.33c1.106,-2.146 1.972,-4.671 2.6,-7.577Z"/></g><g id="Spade2" serif:id="Spade"><path d="M150.053,265.107c0.915,3.801 2.323,7.198 4.224,10.191c1.901,2.992 5.289,6.697 10.165,11.115c4.875,4.417 7.964,7.805 9.266,10.164c1.303,2.359 1.954,4.752 1.954,7.181c0,3.38 -1.126,6.196 -3.379,8.449c-2.253,2.252 -4.999,3.379 -8.238,3.379c-2.745,0 -5.236,-0.854 -7.471,-2.561c-2.235,-1.707 -4.215,-4.198 -5.94,-7.472c0.035,5.175 0.712,9.285 2.033,12.33c1.32,3.045 3.432,5.439 6.336,7.181c2.904,1.742 6.767,2.772 11.59,3.089l0.37,1.954l-41.873,0l0.423,-1.954c6.477,0 11.502,-1.892 15.075,-5.676c3.573,-3.785 5.289,-9.426 5.148,-16.924c-1.584,3.345 -3.547,5.853 -5.888,7.525c-2.34,1.672 -4.989,2.508 -7.946,2.508c-3.168,0 -5.888,-1.144 -8.158,-3.432c-2.271,-2.288 -3.406,-5.034 -3.406,-8.237c0,-2.57 0.581,-4.893 1.742,-6.97c1.585,-2.887 4.154,-5.791 7.71,-8.713c3.555,-2.922 6.178,-5.333 7.867,-7.234c2.57,-2.922 4.444,-5.526 5.624,-7.815c1.179,-2.288 2.103,-4.981 2.772,-8.078Z" style="fill-rule:nonzero;"/></g></svg>