<?xml version="1.0" encoding="UTF-8" standalone="no"?><!DOCTYPE svg PUBLIC "-//W3C//DTD SVG 1.1//EN" "http://www.w3.org/Graphics/SVG/1.1/DTD/svg11.dtd"><svg width="100%" height="100%" viewBox="0 0 300 400" version="1.1" xmlns="http://www.w3.org/2000/svg" xmlns:xlink="http://www.w3.org/1999/xlink" xml:space="preserve" xmlns:serif="http://www.serif.com/" style="fill-rule:evenodd;clip-rule:evenodd;stroke-linejoin:round;stroke-miterlimit:2;"><rect id="S-5" x="0" y="0" width="300" height="400" style="fill:none;"/><path d="M20.926,48.067l7.017,0c0.878,-1.591 1.876,-2.707 2.992,-3.348c1.116,-0.618 2.35,-0.926 3.704,-0.926c1.52,0 2.79,0.213 3.811,0.641c1.021,0.522 1.793,1.223 2.315,2.101c0.974,1.852 1.437,4.262 1.389,7.23c0,1.211 -0.024,2.458 -0.071,3.74c-0.095,1.306 -0.356,2.517 -0.784,3.633c-0.403,1.116 -1.116,2.019 -2.137,2.707c-1.068,0.713 -2.493,1.069 -4.274,1.069c-4.155,-0.048 -6.637,-2.066 -7.444,-6.055l-7.444,0c0.712,4.773 2.553,8.227 5.521,10.365c2.92,2.089 6.138,3.134 9.652,3.134c2.612,-0.048 4.868,-0.653 6.767,-1.817c1.948,-1.116 3.432,-2.35 4.453,-3.704c1.163,-1.377 1.994,-2.956 2.493,-4.737c0.475,-1.805 0.712,-4.393 0.712,-7.765c0,-2.184 -0.071,-4.024 -0.213,-5.52c-0.143,-1.473 -0.38,-2.719 -0.713,-3.74c-0.641,-1.876 -1.686,-3.526 -3.134,-4.951c-0.974,-1.069 -2.244,-1.971 -3.811,-2.707c-1.662,-0.665 -3.491,-1.021 -5.485,-1.069c-3.111,0 -5.877,0.95 -8.299,2.85l0,-11.754l20.658,0l0,-7.444l-27.675,0l0,28.067Z" style="fill-rule:nonzero;"/><path d="M279.074,351.933l-7.017,0c-0.878,1.591 -1.876,2.707 -2.992,3.348c-1.116,0.618 -2.35,0.926 -3.704,0.926c-1.52,0 -2.79,-0.213 -3.811,-0.641c-1.021,-0.522 -1.793,-1.223 -2.315,-2.101c-0.974,-1.852 -1.437,-4.262 -1.389,-7.23c0,-1.211 0.024,-2.458 0.071,-3.74c0.095,-1.306 0.356,-2.517 0.784,-3.633c0.403,-1.116 1.116,-2.019 2.137,-2.707c1.068,-0.713 2.493,-1.069 4.274,-1.069c4.155,0.048 6.637,2.066 7.444,6.055l7.444,0c-0.712,-4.773 -2.553,-8.227 -5.521,-10.365c-2.92,-2.089 -6.138,-3.134 -9.652,-3.134c-2.612,0.048 -4.868,0.653 -6.767,1.817c-1.948,1.116 -3.432,2.35 -4.453,3.704c-1.163,1.377 -1.994,2.956 -2.493,4.737c-0.475,1.805 -0.712,4.393 -0.712,7.765c0,2.184 0.071,4.024 0.213,5.52c0.143,1.473 0.38,2.719 0.713,3.74c0.641,1.876 1.686,3.526 3.134,4.951c0.974,1.069 2.244,1.971 3.811,2.707c1.662,0.665 3.491,1.021 5.485,1.069c3.111,0 5.877,-0.95 8.299,-2.85l0,11.754l-20.658,0l0,7.444l27.675,0l0,-28.067Z" style="fill-rule:nonzero;"/><g id="Spade"><path d="M150.053,167.5c0.915,3.802 2.323,7.199 4.224,10.191c1.901,2.992 5.289,6.697 10.165,11.115c4.875,4.418 7.964,7.806 9.266,10.164c1.303,2.359 1.954,4.753 1.954,7.182c0,3.379 -1.126,6.195 -3.379,8.448c-2.253,2.253 -4.999,3.379 -8.238,3.379c-2.745,0 -5.236,-0.853 -7.471,-2.561c-2.235,-1.707 -4.215,-4.197 -5.94,-7.471c0.035,5.174 0.712,9.284 2.033,12.329c1.32,3.045 3.432,5.439 6.336,7.181c2.904,1.743 6.767,2.772 11.59,3.089l0.37,1.954l-41.873,0l0.423,-1.954c6.477,0 11.502,-1.892 15.075,-5.676c3.573,-3.784 5.289,-9.425 5.148,-16.923c-1.584,3.344 -3.547,5.852 -5.888,7.524c-2.34,1.672 -4.989,2.508 -7.946,2.508c-3.168,0 -5.888,-1.144 -8.158,-3.432c-2.271,-2.288 -3.406,-5.034 -3.406,-8.237c0,-2.57 0.581,-4.893 1.742,-6.97c1.585,-2.887 4.154,-5.791 7.71,-8.712c3.555,-2.922 6.178,-5.334 7.867,-7.234c2.57,-2.922 4.444,-5.527 5.624,-7.815c1.179,-2.288 2.103,-4.981 2.772,-8.079Z"/></g><g id="Spade1" serif:id="Spade"><path d="M92.807,69.893c0.915,3.802 2.323,7.199 4.224,10.191c1.901,2.992 5.289,6.697 10.164,11.115c4.876,4.418 7.965,7.806 9.267,10.165c1.303,2.358 1.954,4.752 1.954,7.181c0,3.379 -1.127,6.195 -3.379,8.448c-2.253,2.253 -4.999,3.38 -8.238,3.38c-2.745,0 -5.236,-0.854 -7.471,-2.561c-2.236,-1.708 -4.216,-4.198 -5.941,-7.472c0.036,5.175 0.713,9.285 2.033,12.33c1.32,3.044 3.433,5.438 6.337,7.181c2.904,1.742 6.767,2.772 11.59,3.089l0.369,1.953l-41.872,0l0.422,-1.953c6.478,0 11.503,-1.892 15.076,-5.677c3.573,-3.784 5.289,-9.425 5.148,-16.923c-1.584,3.344 -3.547,5.852 -5.888,7.525c-2.341,1.672 -4.989,2.508 -7.946,2.508c-3.169,0 -5.888,-1.144 -8.158,-3.433c-2.271,-2.288 -3.406,-5.033 -3.406,-8.237c0,-2.569 0.581,-4.893 1.742,-6.97c1.584,-2.886 4.154,-5.79 7.709,-8.712c3.556,-2.922 6.178,-5.333 7.868,-7.234c2.57,-2.922 4.444,-5.527 5.624,-7.815c1.179,-2.288 2.103,-4.981 2.772,-8.079Z"/></g><g id="Spade2" serif:id="Spade"><path d="M207.299,69.893c0.915,3.802 2.323,7.199 4.224,10.191c1.901,2.992 5.289,6.697 10.165,11.115c4.875,4.418 7.964,7.806 9.267,10.165c1.302,2.358 1.953,4.752 1.953,7.181c0,3.379 -1.126,6.195 -3.379,8.448c-2.253,2.253 -4.999,3.38 -8.237,3.38c-2.746,0 -5.237,-0.854 -7.472,-2.561c-2.235,-1.708 -4.215,-4.198 -5.94,-7.472c0.035,5.175 0.713,9.285 2.033,12.33c1.32,3.044 3.432,5.438 6.336,7.181c2.904,1.742 6.768,2.772 11.59,3.089l0.37,1.953l-41.873,0l0.423,-1.953c6.477,0 11.502,-1.892 15.075,-5.677c3.573,-3.784 5.289,-9.425 5.148,-16.923c-1.584,3.344 -3.546,5.852 -5.887,7.525c-2.341,1.672 -4.99,2.508 -7.947,2.508c-3.168,0 -5.888,-1.144 -8.158,-3.433c-2.271,-2.288 -3.406,-5.033 -3.406,-8.237c0,-2.569 0.581,-4.893 1.743,-6.97c1.584,-2.886 4.153,-5.79 7.709,-8.712c3.555,-2.922 6.178,-5.333 7.867,-7.234c2.57,-2.922 4.445,-5.527 5.624,-7.815c1.179,-2.288 2.103,-4.981 2.772,-8.079Z"/></g><g id="Spade3" serif:id="Spade"><path d="M92.807,265.107c0.915,3.801 2.323,7.198 4.224,10.191c1.901,2.992 5.289,6.697 10.164,11.115c4.876,4.417 7.965,7.805 9.267,10.164c1.303,2.359 1.954,4.752 1.954,7.181c0,3.38 -1.127,6.196 -3.379,8.449c-2.253,2.252 -4.999,3.379 -8.238,3.379c-2.745,0 -5.236,-0.854 -7.471,-2.561c-2.236,-1.707 -4.216,-4.198 -5.941,-7.472c0.036,5.175 0.713,9.285 2.033,12.33c1.32,3.045 3.433,5.439 6.337,7.181c2.904,1.742 6.767,2.772 11.59,3.089l0.369,1.954l-41.872,0l0.422,-1.954c6.478,0 11.503,-1.892 15.076,-5.676c3.573,-3.785 5.289,-9.426 5.148,-16.924c-1.584,3.345 -3.547,5.853 -5.888,7.525c-2.341,1.672 -4.989,2.508 -7.946,2.508c-3.169,0 -5.888,-1.144 -8.158,-3.432c-2.271,-2.288 -3.406,-5.034 -3.406,-8.237c0,-2.57 0.581,-4.893 1.742,-6.97c1.584,-2.887 4.154,-5.791 7.709,-8.713c3.556,-2.922 6.178,-5.333 7.868,-7.234c2.57,-2.922 4.444,-5.526 5.624,-7.815c1.179,-2.288 2.103,-4.981 2.772,-8.078Z"/></g><g id="Spade4" serif:id="Spade"><path d="M207.299,265.107c0.915,3.801 2.323,7.198 4.224,10.191c1.901,2.992 5.289,6.697 10.165,11.115c4.875,4.417 7.964,7.805 9.267,10.164c1.302,2.359 1.953,4.752 1.953,7.181c0,3.38 -1.126,6.196 -3.379,8.449c-2.253,2.252 -4.999,3.379 -8.237,3.379c-2.746,0 -5.237,-0.854 -7.472,-2.561c-2.235,-1.707 -4.215,-4.198 -5.94,-7.472c0.035,5.175 0.713,9.285 2.033,12.33c1.32,3.045 3.432,5.439 6.336,7.181c2.904,1.742 6.768,2.772 11.59,3.089l0.37,1.954l-41.873,0l0.423,-1.954c6.477,0 11.502,-1.892 15.075,-5.676c3.573,-3.785 5.289,-9.426 5.148,-16.924c-1.584,3.345 -3.546,5.853 -5.887,7.525c-2.341,1.672 -4.99,2.508 -7.947,2.508c-3.168,0 -5.888,-1.144 -8.158,-3.432c-2.271,-2.288 -3.406,-5.034 -3.406,-8.237c0,-2.57 0.581,-4.893 1.743,-6.97c1.584,-2.887 4.153,-5.791 7.709,-8.713c3.555,-2.922 6.178,-5.333 7.867,-7.234c2.57,-2.922 4.445,-5.526 5.624,-7.815c1.179,-2.288 2.103,-4.981 2.772,-8.078Z"/></g></svg>