<?xml version="1.0" encoding="UTF-8" standalone="no"?><!DOCTYPE svg PUBLIC "-//W3C//DTD SVG 1.1//EN" "http://www.w3.org/Graphics/SVG/1.1/DTD/svg11.dtd"><svg width="100%" height="100%" viewBox="0 0 300 400" version="1.1" xmlns="http://www.w3.org/2000/svg" xmlns:xlink="http://www.w3.org/1999/xlink" xml:space="preserve" xmlns:serif="http://www.serif.com/" style="fill-rule:evenodd;clip-rule:evenodd;stroke-linejoin:round;stroke-miterlimit:2;"><rect id="S-7" x="0" y="0" width="300" height="400" style="fill:none;"/><path d="M23.633,34.959l7.444,0l0,-7.515l13.784,0l-17.559,44.486l8.299,0l17.595,-44.486l0,-7.444l-29.563,0l0,14.959Z" style="fill-rule:nonzero;"/><path d="M276.367,365.041l-7.444,0l0,7.515l-13.784,0l17.559,-44.486l-8.299,0l-17.595,44.486l0,7.444l29.563,0l0,-14.959Z" style="fill-rule:nonzero;"/><g id="Spade"><path d="M92.807,54.68c0.915,3.802 2.323,7.199 4.224,10.191c1.901,2.992 5.289,6.697 10.164,11.115c4.876,4.418 7.965,7.806 9.267,10.164c1.303,2.359 1.954,4.753 1.954,7.182c0,3.379 -1.127,6.195 -3.379,8.448c-2.253,2.253 -4.999,3.379 -8.238,3.379c-2.745,0 -5.236,-0.853 -7.471,-2.561c-2.236,-1.707 -4.216,-4.197 -5.941,-7.471c0.036,5.174 0.713,9.284 2.033,12.329c1.32,3.045 3.433,5.439 6.337,7.181c2.904,1.743 6.767,2.773 11.59,3.089l0.369,1.954l-41.872,0l0.422,-1.954c6.478,0 11.503,-1.892 15.076,-5.676c3.573,-3.784 5.289,-9.425 5.148,-16.923c-1.584,3.344 -3.547,5.852 -5.888,7.524c-2.341,1.672 -4.989,2.508 -7.946,2.508c-3.169,0 -5.888,-1.144 -8.158,-3.432c-2.271,-2.288 -3.406,-5.034 -3.406,-8.237c0,-2.57 0.581,-4.893 1.742,-6.97c1.584,-2.887 4.154,-5.791 7.709,-8.712c3.556,-2.922 6.178,-5.333 7.868,-7.234c2.57,-2.922 4.444,-5.527 5.624,-7.815c1.179,-2.288 2.103,-4.981 2.772,-8.079Z"/></g><g id="Spade1" serif:id="Spade"><path d="M150.053,111.09c0.915,3.802 2.323,7.199 4.224,10.191c1.901,2.992 5.289,6.697 10.165,11.115c4.875,4.418 7.964,7.806 9.266,10.164c1.303,2.359 1.954,4.753 1.954,7.182c0,3.379 -1.126,6.195 -3.379,8.448c-2.253,2.253 -4.999,3.379 -8.238,3.379c-2.745,0 -5.236,-0.853 -7.471,-2.561c-2.235,-1.707 -4.215,-4.197 -5.94,-7.471c0.035,5.174 0.712,9.284 2.033,12.329c1.32,3.045 3.432,5.439 6.336,7.181c2.904,1.743 6.767,2.773 11.59,3.089l0.37,1.954l-41.873,0l0.423,-1.954c6.477,0 11.502,-1.892 15.075,-5.676c3.573,-3.784 5.289,-9.425 5.148,-16.923c-1.584,3.344 -3.547,5.852 -5.888,7.524c-2.34,1.672 -4.989,2.508 -7.946,2.508c-3.168,0 -5.888,-1.144 -8.158,-3.432c-2.271,-2.288 -3.406,-5.034 -3.406,-8.237c0,-2.57 0.581,-4.893 1.742,-6.97c1.585,-2.887 4.154,-5.791 7.71,-8.712c3.555,-2.922 6.178,-5.334 7.867,-7.234c2.57,-2.922 4.444,-5.527 5.624,-7.815c1.179,-2.288 2.103,-4.981 2.772,-8.079Z"/></g><g id="Spade2" serif:id="Spade"><path d="M207.299,54.68c0.915,3.802 2.323,7.199 4.224,10.191c1.901,2.992 5.289,6.697 10.165,11.115c4.875,4.418 7.964,7.806 9.267,10.164c1.302,2.359 1.953,4.753 1.953,7.182c0,3.379 -1.126,6.195 -3.379,8.448c-2.253,2.253 -4.999,3.379 -8.237,3.379c-2.746,0 -5.237,-0.853 -7.472,-2.561c-2.235,-1.707 -4.215,-4.197 -5.94,-7.471c0.035,5.174 0.713,9.284 2.033,12.329c1.32,3.045 3.432,5.439 6.336,7.181c2.904,1.743 6.768,2.773 11.59,3.089l0.37,1.954l-41.873,0l0.423,-1.954c6.477,0 11.502,-1.892 15.075,-5.676c3.573,-3.784 5.289,-9.425 5.148,-16.923c-1.584,3.344 -3.546,5.852 -5.887,7.524c-2.341,1.672 -4.99,2.508 -7.947,2.508c-3.168,0 -5.888,-1.144 -8.158,-3.432c-2.271,-2.288 -3.406,-5.034 -3.406,-8.237c0,-2.57 0.581,-4.893 1.743,-6.97c1.584,-2.887 4.153,-5.791 7.709,-8.712c3.555,-2.922 6.178,-5.333 7.867,-7.234c2.57,-2.922 4.445,-5.527 5.624,-7.815c1.179,-2.288 2.103,-4.981 2.772,-8.079Z"/></g><g id="Spade3" serif:id="Spade"><path d="M92.807,167.5c0.915,3.802 2.323,7.199 4.224,10.191c1.901,2.992 5.289,6.697 10.164,11.115c4.876,4.418 7.965,7.806 9.267,10.164c1.303,2.359 1.954,4.753 1.954,7.182c0,3.379 -1.127,6.195 -3.379,8.448c-2.253,2.253 -4.999,3.379 -8.238,3.379c-2.745,0 -5.236,-0.853 -7.471,-2.561c-2.236,-1.707 -4.216,-4.197 -5.941,-7.471c0.036,5.174 0.713,9.284 2.033,12.329c1.32,3.045 3.433,5.439 6.337,7.181c2.904,1.743 6.767,2.772 11.59,3.089l0.369,1.954l-41.872,0l0.422,-1.954c6.478,0 11.503,-1.892 15.076,-5.676c3.573,-3.784 5.289,-9.425 5.148,-16.923c-1.584,3.344 -3.547,5.852 -5.888,7.524c-2.341,1.672 -4.989,2.508 -7.946,2.508c-3.169,0 -5.888,-1.144 -8.158,-3.432c-2.271,-2.288 -3.406,-5.034 -3.406,-8.237c0,-2.57 0.581,-4.893 1.742,-6.97c1.584,-2.887 4.154,-5.791 7.709,-8.712c3.556,-2.922 6.178,-5.334 7.868,-7.234c2.57,-2.922 4.444,-5.527 5.624,-7.815c1.179,-2.288 2.103,-4.981 2.772,-8.079Z"/></g><g id="Spade4" serif:id="Spade"><path d="M207.299,167.5c0.915,3.802 2.323,7.199 4.224,10.191c1.901,2.992 5.289,6.697 10.165,11.115c4.875,4.418 7.964,7.806 9.267,10.164c1.302,2.359 1.953,4.753 1.953,7.182c0,3.379 -1.126,6.195 -3.379,8.448c-2.253,2.253 -4.999,3.379 -8.237,3.379c-2.746,0 -5.237,-0.853 -7.472,-2.561c-2.235,-1.707 -4.215,-4.197 -5.94,-7.471c0.035,5.174 0.713,9.284 2.033,12.329c1.32,3.045 3.432,5.439 6.336,7.181c2.904,1.743 6.768,2.772 11.59,3.089l0.37,1.954l-41.873,0l0.423,-1.954c6.477,0 11.502,-1.892 15.075,-5.676c3.573,-3.784 5.289,-9.425 5.148,-16.923c-1.584,3.344 -3.546,5.852 -5.887,7.524c-2.341,1.672 -4.99,2.508 -7.947,2.508c-3.168,0 -5.888,-1.144 -8.158,-3.432c-2.271,-2.288 -3.406,-5.034 -3.406,-8.237c0,-2.57 0.581,-4.893 1.743,-6.97c1.584,-2.887 4.153,-5.791 7.709,-8.712c3.555,-2.922 6.178,-5.334 7.867,-7.234c2.57,-2.922 4.445,-5.527 5.624,-7.815c1.179,-2.288 2.103,-4.981 2.772,-8.079Z"/></g><g id="Spade5" serif:id="Spade"><path d="M92.807,280.32c0.915,3.802 2.323,7.199 4.224,10.191c1.901,2.992 5.289,6.697 10.164,11.115c4.876,4.418 7.965,7.806 9.267,10.164c1.303,2.359 1.954,4.753 1.954,7.181c0,3.38 -1.127,6.196 -3.379,8.449c-2.253,2.253 -4.999,3.379 -8.238,3.379c-2.745,0 -5.236,-0.853 -7.471,-2.561c-2.236,-1.707 -4.216,-4.197 -5.941,-7.471c0.036,5.174 0.713,9.284 2.033,12.329c1.32,3.045 3.433,5.439 6.337,7.181c2.904,1.743 6.767,2.772 11.59,3.089l0.369,1.954l-41.872,0l0.422,-1.954c6.478,0 11.503,-1.892 15.076,-5.676c3.573,-3.784 5.289,-9.425 5.148,-16.923c-1.584,3.344 -3.547,5.852 -5.888,7.524c-2.341,1.672 -4.989,2.508 -7.946,2.508c-3.169,0 -5.888,-1.144 -8.158,-3.432c-2.271,-2.288 -3.406,-5.034 -3.406,-8.237c0,-2.57 0.581,-4.893 1.742,-6.97c1.584,-2.887 4.154,-5.791 7.709,-8.713c3.556,-2.921 6.178,-5.333 7.868,-7.233c2.57,-2.922 4.444,-5.527 5.624,-7.815c1.179,-2.288 2.103,-4.981 2.772,-8.079Z"/></g><g id="Spade6" serif:id="Spade"><path d="M207.299,280.32c0.915,3.802 2.323,7.199 4.224,10.191c1.901,2.992 5.289,6.697 10.165,11.115c4.875,4.418 7.964,7.806 9.267,10.164c1.302,2.359 1.953,4.753 1.953,7.181c0,3.38 -1.126,6.196 -3.379,8.449c-2.253,2.253 -4.999,3.379 -8.237,3.379c-2.746,0 -5.237,-0.853 -7.472,-2.561c-2.235,-1.707 -4.215,-4.197 -5.94,-7.471c0.035,5.174 0.713,9.284 2.033,12.329c1.32,3.045 3.432,5.439 6.336,7.181c2.904,1.743 6.768,2.772 11.59,3.089l0.37,1.954l-41.873,0l0.423,-1.954c6.477,0 11.502,-1.892 15.075,-5.676c3.573,-3.784 5.289,-9.425 5.148,-16.923c-1.584,3.344 -3.546,5.852 -5.887,7.524c-2.341,1.672 -4.99,2.508 -7.947,2.508c-3.168,0 -5.888,-1.144 -8.158,-3.432c-2.271,-2.288 -3.406,-5.034 -3.406,-8.237c0,-2.57 0.581,-4.893 1.743,-6.97c1.584,-2.887 4.153,-5.791 7.709,-8.713c3.555,-2.921 6.178,-5.333 7.867,-7.233c2.57,-2.922 4.445,-5.527 5.624,-7.815c1.179,-2.288 2.103,-4.981 2.772,-8.079Z"/></g></svg>