<?xml version="1.0" encoding="UTF-8" standalone="no"?><!DOCTYPE svg PUBLIC "-//W3C//DTD SVG 1.1//EN" "http://www.w3.org/Graphics/SVG/1.1/DTD/svg11.dtd"><svg width="100%" height="100%" viewBox="0 0 300 400" version="1.1" xmlns="http://www.w3.org/2000/svg" xmlns:xlink="http://www.w3.org/1999/xlink" xml:space="preserve" xmlns:serif="http://www.serif.com/" style="fill-rule:evenodd;clip-rule:evenodd;stroke-linejoin:round;stroke-miterlimit:2;"><rect id="S-8" x="0" y="0" width="300" height="400" style="fill:none;"/><path d="M28.406,34.853c0.047,-2.47 0.819,-4.334 2.315,-5.592c1.472,-1.211 3.17,-1.817 5.093,-1.817c1.995,0 3.728,0.606 5.2,1.817c1.449,1.258 2.197,3.122 2.244,5.592c-0.047,2.398 -0.795,4.226 -2.244,5.485c-1.472,1.306 -3.205,1.959 -5.2,1.959c-1.923,0 -3.621,-0.653 -5.093,-1.959c-1.496,-1.259 -2.268,-3.087 -2.315,-5.485Zm-8.406,22.332c0.047,4.678 1.627,8.417 4.737,11.219c2.968,2.873 6.661,4.334 11.077,4.381c4.441,-0.047 8.192,-1.508 11.255,-4.381c3.016,-2.802 4.548,-6.541 4.595,-11.219c-0.047,-5.01 -2.09,-8.905 -6.126,-11.683c1.543,-1.353 2.802,-2.909 3.775,-4.666c0.926,-1.638 1.389,-3.585 1.389,-5.841c-0.047,-4.322 -1.46,-7.895 -4.238,-10.721c-2.755,-2.802 -6.304,-4.227 -10.65,-4.274c-4.274,0.047 -7.764,1.472 -10.471,4.274c-2.874,2.826 -4.334,6.399 -4.381,10.721c0,2.256 0.51,4.203 1.531,5.841c0.879,1.757 2.09,3.313 3.633,4.666c-4.036,2.778 -6.079,6.673 -6.126,11.683Zm7.444,-0.071c0.048,-2.422 0.902,-4.393 2.565,-5.913c1.59,-1.496 3.526,-2.268 5.805,-2.315c2.351,0.047 4.322,0.819 5.913,2.315c1.614,1.52 2.445,3.491 2.493,5.913c-0.048,2.374 -0.879,4.321 -2.493,5.841c-1.591,1.591 -3.562,2.386 -5.913,2.386c-2.279,0 -4.215,-0.795 -5.805,-2.386c-1.663,-1.52 -2.517,-3.467 -2.565,-5.841Z" style="fill-rule:nonzero;"/><path d="M271.594,365.147c-0.047,2.47 -0.819,4.334 -2.315,5.592c-1.472,1.211 -3.17,1.817 -5.093,1.817c-1.995,0 -3.728,-0.606 -5.2,-1.817c-1.449,-1.258 -2.197,-3.122 -2.244,-5.592c0.047,-2.398 0.795,-4.226 2.244,-5.485c1.472,-1.306 3.205,-1.959 5.2,-1.959c1.923,0 3.621,0.653 5.093,1.959c1.496,1.259 2.268,3.087 2.315,5.485Zm8.406,-22.332c-0.047,-4.678 -1.627,-8.417 -4.737,-11.219c-2.968,-2.873 -6.661,-4.334 -11.077,-4.381c-4.441,0.047 -8.192,1.508 -11.255,4.381c-3.016,2.802 -4.548,6.541 -4.595,11.219c0.047,5.01 2.09,8.905 6.126,11.683c-1.543,1.353 -2.802,2.909 -3.775,4.666c-0.926,1.638 -1.389,3.585 -1.389,5.841c0.047,4.322 1.46,7.895 4.238,10.721c2.755,2.802 6.304,4.227 10.65,4.274c4.274,-0.047 7.764,-1.472 10.471,-4.274c2.874,-2.826 4.334,-6.399 4.381,-10.721c0,-2.256 -0.51,-4.203 -1.531,-5.841c-0.879,-1.757 -2.09,-3.313 -3.633,-4.666c4.036,-2.778 6.079,-6.673 6.126,-11.683Zm-7.444,0.071c-0.048,2.422 -0.902,4.393 -2.565,5.913c-1.59,1.496 -3.526,2.268 -5.805,2.315c-2.351,-0.047 -4.322,-0.819 -5.913,-2.315c-1.614,-1.52 -2.445,-3.491 -2.493,-5.913c0.048,-2.374 0.879,-4.321 2.493,-5.841c1.591,-1.591 3.562,-2.386 5.913,-2.386c2.279,0 4.215,0.795 5.805,2.386c1.663,1.52 2.517,3.467 2.565,5.841Z" style="fill-rule:nonzero;"/><g id="Spade"><path d="M92.807,54.68c0.915,3.802 2.323,7.199 4.224,10.191c1.901,2.992 5.289,6.697 10.164,11.115c4.876,4.418 7.965,7.806 9.267,10.164c1.303,2.359 1.954,4.753 1.954,7.182c0,3.379 -1.127,6.195 -3.379,8.448c-2.253,2.253 -4.999,3.379 -8.238,3.379c-2.745,0 -5.236,-0.853 -7.471,-2.561c-2.236,-1.707 -4.216,-4.197 -5.941,-7.471c0.036,5.174 0.713,9.284 2.033,12.329c1.32,3.045 3.433,5.439 6.337,7.181c2.904,1.743 6.767,2.773 11.59,3.089l0.369,1.954l-41.872,0l0.422,-1.954c6.478,0 11.503,-1.892 15.076,-5.676c3.573,-3.784 5.289,-9.425 5.148,-16.923c-1.584,3.344 -3.547,5.852 -5.888,7.524c-2.341,1.672 -4.989,2.508 -7.946,2.508c-3.169,0 -5.888,-1.144 -8.158,-3.432c-2.271,-2.288 -3.406,-5.034 -3.406,-8.237c0,-2.57 0.581,-4.893 1.742,-6.97c1.584,-2.887 4.154,-5.791 7.709,-8.712c3.556,-2.922 6.178,-5.333 7.868,-7.234c2.57,-2.922 4.444,-5.527 5.624,-7.815c1.179,-2.288 2.103,-4.981 2.772,-8.079Z"/></g><g id="Spade1" serif:id="Spade"><path d="M207.299,54.68c0.915,3.802 2.323,7.199 4.224,10.191c1.901,2.992 5.289,6.697 10.165,11.115c4.875,4.418 7.964,7.806 9.267,10.164c1.302,2.359 1.953,4.753 1.953,7.182c0,3.379 -1.126,6.195 -3.379,8.448c-2.253,2.253 -4.999,3.379 -8.237,3.379c-2.746,0 -5.237,-0.853 -7.472,-2.561c-2.235,-1.707 -4.215,-4.197 -5.94,-7.471c0.035,5.174 0.713,9.284 2.033,12.329c1.32,3.045 3.432,5.439 6.336,7.181c2.904,1.743 6.768,2.773 11.59,3.089l0.37,1.954l-41.873,0l0.423,-1.954c6.477,0 11.502,-1.892 15.075,-5.676c3.573,-3.784 5.289,-9.425 5.148,-16.923c-1.584,3.344 -3.546,5.852 -5.887,7.524c-2.341,1.672 -4.99,2.508 -7.947,2.508c-3.168,0 -5.888,-1.144 -8.158,-3.432c-2.271,-2.288 -3.406,-5.034 -3.406,-8.237c0,-2.57 0.581,-4.893 1.743,-6.97c1.584,-2.887 4.153,-5.791 7.709,-8.712c3.555,-2.922 6.178,-5.333 7.867,-7.234c2.57,-2.922 4.445,-5.527 5.624,-7.815c1.179,-2.288 2.103,-4.981 2.772,-8.079Z"/></g><g id="Spade2" serif:id="Spade"><path d="M92.807,129.893c0.915,3.802 2.323,7.199 4.224,10.191c1.901,2.992 5.289,6.697 10.164,11.115c4.876,4.418 7.965,7.806 9.267,10.165c1.303,2.358 1.954,4.752 1.954,7.181c0,3.379 -1.127,6.195 -3.379,8.448c-2.253,2.253 -4.999,3.38 -8.238,3.38c-2.745,0 -5.236,-0.854 -7.471,-2.561c-2.236,-1.708 -4.216,-4.198 -5.941,-7.472c0.036,5.175 0.713,9.285 2.033,12.33c1.32,3.044 3.433,5.438 6.337,7.181c2.904,1.742 6.767,2.772 11.59,3.089l0.369,1.953l-41.872,0l0.422,-1.953c6.478,0 11.503,-1.892 15.076,-5.677c3.573,-3.784 5.289,-9.425 5.148,-16.923c-1.584,3.344 -3.547,5.852 -5.888,7.525c-2.341,1.672 -4.989,2.508 -7.946,2.508c-3.169,0 -5.888,-1.144 -8.158,-3.433c-2.271,-2.288 -3.406,-5.033 -3.406,-8.237c0,-2.569 0.581,-4.893 1.742,-6.97c1.584,-2.886 4.154,-5.79 7.709,-8.712c3.556,-2.922 6.178,-5.333 7.868,-7.234c2.57,-2.922 4.444,-5.527 5.624,-7.815c1.179,-2.288 2.103,-4.981 2.772,-8.079Z"/></g><g id="Spade3" serif:id="Spade"><path d="M207.299,129.893c0.915,3.802 2.323,7.199 4.224,10.191c1.901,2.992 5.289,6.697 10.165,11.115c4.875,4.418 7.964,7.806 9.267,10.165c1.302,2.358 1.953,4.752 1.953,7.181c0,3.379 -1.126,6.195 -3.379,8.448c-2.253,2.253 -4.999,3.38 -8.237,3.38c-2.746,0 -5.237,-0.854 -7.472,-2.561c-2.235,-1.708 -4.215,-4.198 -5.94,-7.472c0.035,5.175 0.713,9.285 2.033,12.33c1.32,3.044 3.432,5.438 6.336,7.181c2.904,1.742 6.768,2.772 11.59,3.089l0.37,1.953l-41.873,0l0.423,-1.953c6.477,0 11.502,-1.892 15.075,-5.677c3.573,-3.784 5.289,-9.425 5.148,-16.923c-1.584,3.344 -3.546,5.852 -5.887,7.525c-2.341,1.672 -4.99,2.508 -7.947,2.508c-3.168,0 -5.888,-1.144 -8.158,-3.433c-2.271,-2.288 -3.406,-5.033 -3.406,-8.237c0,-2.569 0.581,-4.893 1.743,-6.97c1.584,-2.886 4.153,-5.79 7.709,-8.712c3.555,-2.922 6.178,-5.333 7.867,-7.234c2.57,-2.922 4.445,-5.527 5.624,-7.815c1.179,-2.288 2.103,-4.981 2.772,-8.079Z"/></g><g id="Spade4" serif:id="Spade"><path d="M92.807,205.107c0.915,3.801 2.323,7.198 4.224,10.191c1.901,2.992 5.289,6.697 10.164,11.115c4.876,4.417 7.965,7.805 9.267,10.164c1.303,2.359 1.954,4.752 1.954,7.181c0,3.38 -1.127,6.196 -3.379,8.449c-2.253,2.252 -4.999,3.379 -8.238,3.379c-2.745,0 -5.236,-0.854 -7.471,-2.561c-2.236,-1.707 -4.216,-4.198 -5.941,-7.472c0.036,5.175 0.713,9.285 2.033,12.33c1.32,3.045 3.433,5.439 6.337,7.181c2.904,1.742 6.767,2.772 11.59,3.089l0.369,1.954l-41.872,0l0.422,-1.954c6.478,0 11.503,-1.892 15.076,-5.676c3.573,-3.785 5.289,-9.426 5.148,-16.924c-1.584,3.345 -3.547,5.853 -5.888,7.525c-2.341,1.672 -4.989,2.508 -7.946,2.508c-3.169,0 -5.888,-1.144 -8.158,-3.432c-2.271,-2.288 -3.406,-5.034 -3.406,-8.237c0,-2.57 0.581,-4.893 1.742,-6.97c1.584,-2.887 4.154,-5.791 7.709,-8.713c3.556,-2.922 6.178,-5.333 7.868,-7.234c2.57,-2.922 4.444,-5.526 5.624,-7.815c1.179,-2.288 2.103,-4.981 2.772,-8.078Z"/></g><g id="Spade5" serif:id="Spade"><path d="M207.299,205.107c0.915,3.801 2.323,7.198 4.224,10.191c1.901,2.992 5.289,6.697 10.165,11.115c4.875,4.417 7.964,7.805 9.267,10.164c1.302,2.359 1.953,4.752 1.953,7.181c0,3.38 -1.126,6.196 -3.379,8.449c-2.253,2.252 -4.999,3.379 -8.237,3.379c-2.746,0 -5.237,-0.854 -7.472,-2.561c-2.235,-1.707 -4.215,-4.198 -5.94,-7.472c0.035,5.175 0.713,9.285 2.033,12.33c1.32,3.045 3.432,5.439 6.336,7.181c2.904,1.742 6.768,2.772 11.59,3.089l0.37,1.954l-41.873,0l0.423,-1.954c6.477,0 11.502,-1.892 15.075,-5.676c3.573,-3.785 5.289,-9.426 5.148,-16.924c-1.584,3.345 -3.546,5.853 -5.887,7.525c-2.341,1.672 -4.99,2.508 -7.947,2.508c-3.168,0 -5.888,-1.144 -8.158,-3.432c-2.271,-2.288 -3.406,-5.034 -3.406,-8.237c0,-2.57 0.581,-4.893 1.743,-6.97c1.584,-2.887 4.153,-5.791 7.709,-8.713c3.555,-2.922 6.178,-5.333 7.867,-7.234c2.57,-2.922 4.445,-5.526 5.624,-7.815c1.179,-2.288 2.103,-4.981 2.772,-8.078Z"/></g><g id="Spade6" serif:id="Spade"><path d="M92.807,280.32c0.915,3.802 2.323,7.199 4.224,10.191c1.901,2.992 5.289,6.697 10.164,11.115c4.876,4.418 7.965,7.806 9.267,10.164c1.303,2.359 1.954,4.753 1.954,7.181c0,3.38 -1.127,6.196 -3.379,8.449c-2.253,2.253 -4.999,3.379 -8.238,3.379c-2.745,0 -5.236,-0.853 -7.471,-2.561c-2.236,-1.707 -4.216,-4.197 -5.941,-7.471c0.036,5.174 0.713,9.284 2.033,12.329c1.32,3.045 3.433,5.439 6.337,7.181c2.904,1.743 6.767,2.772 11.59,3.089l0.369,1.954l-41.872,0l0.422,-1.954c6.478,0 11.503,-1.892 15.076,-5.676c3.573,-3.784 5.289,-9.425 5.148,-16.923c-1.584,3.344 -3.547,5.852 -5.888,7.524c-2.341,1.672 -4.989,2.508 -7.946,2.508c-3.169,0 -5.888,-1.144 -8.158,-3.432c-2.271,-2.288 -3.406,-5.034 -3.406,-8.237c0,-2.57 0.581,-4.893 1.742,-6.97c1.584,-2.887 4.154,-5.791 7.709,-8.713c3.556,-2.921 6.178,-5.333 7.868,-7.233c2.57,-2.922 4.444,-5.527 5.624,-7.815c1.179,-2.288 2.103,-4.981 2.772,-8.079Z"/></g><g id="Spade7" serif:id="Spade"><path d="M207.299,280.32c0.915,3.802 2.323,7.199 4.224,10.191c1.901,2.992 5.289,6.697 10.165,11.115c4.875,4.418 7.964,7.806 9.267,10.164c1.302,2.359 1.953,4.753 1.953,7.181c0,3.38 -1.126,6.196 -3.379,8.449c-2.253,2.253 -4.999,3.379 -8.237,3.379c-2.746,0 -5.237,-0.853 -7.472,-2.561c-2.235,-1.707 -4.215,-4.197 -5.94,-7.471c0.035,5.174 0.713,9.284 2.033,12.329c1.32,3.045 3.432,5.439 6.336,7.181c2.904,1.743 6.768,2.772 11.59,3.089l0.37,1.954l-41.873,0l0.423,-1.954c6.477,0 11.502,-1.892 15.075,-5.676c3.573,-3.784 5.289,-9.425 5.148,-16.923c-1.584,3.344 -3.546,5.852 -5.887,7.524c-2.341,1.672 -4.99,2.508 -7.947,2.508c-3.168,0 -5.888,-1.144 -8.158,-3.432c-2.271,-2.288 -3.406,-5.034 -3.406,-8.237c0,-2.57 0.581,-4.893 1.743,-6.97c1.584,-2.887 4.153,-5.791 7.709,-8.713c3.555,-2.921 6.178,-5.333 7.867,-7.233c2.57,-2.922 4.445,-5.527 5.624,-7.815c1.179,-2.288 2.103,-4.981 2.772,-8.079Z"/></g></svg>