<?xml version="1.0" encoding="UTF-8" standalone="no"?><!DOCTYPE svg PUBLIC "-//W3C//DTD SVG 1.1//EN" "http://www.w3.org/Graphics/SVG/1.1/DTD/svg11.dtd"><svg width="100%" height="100%" viewBox="0 0 301 400" version="1.1" xmlns="http://www.w3.org/2000/svg" xmlns:xlink="http://www.w3.org/1999/xlink" xml:space="preserve" xmlns:serif="http://www.serif.com/" style="fill-rule:evenodd;clip-rule:evenodd;stroke-linejoin:round;stroke-miterlimit:2;"><rect id="S-9" x="0.958" y="0" width="300" height="400" style="fill:none;"/><path d="M20.959,39.697c-0.047,4.986 1.116,8.631 3.491,10.934c2.374,2.375 5.247,3.538 8.619,3.491c3.063,0.047 6.364,-0.487 9.902,-1.603l0,4.879c-0.143,5.248 -2.576,7.896 -7.302,7.943c-3.348,0 -5.604,-1.448 -6.767,-4.345l-7.658,0c0.784,3.775 2.529,6.66 5.236,8.655c2.683,2.042 5.746,3.087 9.189,3.134c4.037,-0.047 7.468,-1.353 10.294,-3.918c2.873,-2.588 4.357,-6.268 4.452,-11.041l0,-22.902c-0.095,-4.797 -1.579,-8.489 -4.452,-11.077c-2.826,-2.565 -6.257,-3.847 -10.294,-3.847c-3.918,0 -7.289,1.282 -10.115,3.847c-3.016,2.588 -4.547,6.28 -4.595,11.077l0,4.773Zm7.444,-4.31c0.095,-5.2 2.517,-7.848 7.266,-7.943c4.726,0.095 7.159,2.743 7.302,7.943l0,4.238c-0.143,5.248 -2.576,7.896 -7.302,7.943c-4.749,-0.047 -7.171,-2.695 -7.266,-7.943l0,-4.238Z" style="fill-rule:nonzero;"/><path d="M280.956,360.303c0.048,-4.986 -1.116,-8.631 -3.49,-10.934c-2.375,-2.375 -5.248,-3.538 -8.62,-3.491c-3.063,-0.047 -6.363,0.487 -9.901,1.603l0,-4.879c0.142,-5.248 2.576,-7.896 7.301,-7.943c3.348,0 5.604,1.448 6.768,4.345l7.657,0c-0.783,-3.775 -2.528,-6.66 -5.235,-8.655c-2.684,-2.042 -5.747,-3.087 -9.19,-3.134c-4.036,0.047 -7.467,1.353 -10.293,3.918c-2.873,2.588 -4.357,6.268 -4.452,11.041l0,22.902c0.095,4.797 1.579,8.489 4.452,11.077c2.826,2.565 6.257,3.847 10.293,3.847c3.918,0 7.29,-1.282 10.116,-3.847c3.015,-2.588 4.547,-6.28 4.594,-11.077l0,-4.773Zm-7.444,4.31c-0.095,5.2 -2.517,7.848 -7.266,7.943c-4.725,-0.095 -7.159,-2.743 -7.301,-7.943l0,-4.238c0.142,-5.248 2.576,-7.896 7.301,-7.943c4.749,0.047 7.171,2.695 7.266,7.943l0,4.238Z" style="fill-rule:nonzero;"/><g id="Spade"><path d="M93.764,54.68c0.916,3.802 2.324,7.199 4.225,10.191c1.901,2.992 5.289,6.697 10.164,11.115c4.876,4.418 7.965,7.806 9.267,10.164c1.302,2.359 1.954,4.753 1.954,7.182c0,3.379 -1.127,6.195 -3.38,8.448c-2.253,2.253 -4.998,3.379 -8.237,3.379c-2.746,0 -5.236,-0.853 -7.471,-2.561c-2.236,-1.707 -4.216,-4.197 -5.941,-7.471c0.035,5.174 0.713,9.284 2.033,12.329c1.32,3.045 3.432,5.439 6.337,7.181c2.904,1.743 6.767,2.773 11.59,3.089l0.369,1.954l-41.872,0l0.422,-1.954c6.477,0 11.502,-1.892 15.075,-5.676c3.573,-3.784 5.289,-9.425 5.149,-16.923c-1.584,3.344 -3.547,5.852 -5.888,7.524c-2.341,1.672 -4.99,2.508 -7.947,2.508c-3.168,0 -5.887,-1.144 -8.158,-3.432c-2.27,-2.288 -3.405,-5.034 -3.405,-8.237c0,-2.57 0.58,-4.893 1.742,-6.97c1.584,-2.887 4.154,-5.791 7.709,-8.712c3.556,-2.922 6.178,-5.333 7.868,-7.234c2.57,-2.922 4.444,-5.527 5.623,-7.815c1.18,-2.288 2.104,-4.981 2.772,-8.079Z"/></g><g id="Spade1" serif:id="Spade"><path d="M151.011,167.5c0.915,3.802 2.323,7.199 4.224,10.191c1.901,2.992 5.289,6.697 10.164,11.115c4.876,4.418 7.965,7.806 9.267,10.164c1.303,2.359 1.954,4.753 1.954,7.182c0,3.379 -1.127,6.195 -3.38,8.448c-2.252,2.253 -4.998,3.379 -8.237,3.379c-2.745,0 -5.236,-0.853 -7.471,-2.561c-2.236,-1.707 -4.216,-4.197 -5.941,-7.471c0.036,5.174 0.713,9.284 2.033,12.329c1.32,3.045 3.433,5.439 6.337,7.181c2.904,1.743 6.767,2.772 11.59,3.089l0.369,1.954l-41.872,0l0.422,-1.954c6.478,0 11.503,-1.892 15.076,-5.676c3.573,-3.784 5.289,-9.425 5.148,-16.923c-1.584,3.344 -3.547,5.852 -5.888,7.524c-2.341,1.672 -4.99,2.508 -7.946,2.508c-3.169,0 -5.888,-1.144 -8.158,-3.432c-2.271,-2.288 -3.406,-5.034 -3.406,-8.237c0,-2.57 0.581,-4.893 1.742,-6.97c1.584,-2.887 4.154,-5.791 7.709,-8.712c3.556,-2.922 6.178,-5.334 7.868,-7.234c2.57,-2.922 4.444,-5.527 5.623,-7.815c1.18,-2.288 2.104,-4.981 2.773,-8.079Z"/></g><g id="Spade2" serif:id="Spade"><path d="M208.257,54.68c0.915,3.802 2.323,7.199 4.224,10.191c1.901,2.992 5.289,6.697 10.164,11.115c4.876,4.418 7.965,7.806 9.267,10.164c1.303,2.359 1.954,4.753 1.954,7.182c0,3.379 -1.126,6.195 -3.379,8.448c-2.253,2.253 -4.999,3.379 -8.238,3.379c-2.745,0 -5.236,-0.853 -7.471,-2.561c-2.235,-1.707 -4.216,-4.197 -5.94,-7.471c0.035,5.174 0.712,9.284 2.032,12.329c1.321,3.045 3.433,5.439 6.337,7.181c2.904,1.743 6.767,2.773 11.59,3.089l0.37,1.954l-41.873,0l0.423,-1.954c6.477,0 11.502,-1.892 15.075,-5.676c3.573,-3.784 5.289,-9.425 5.148,-16.923c-1.584,3.344 -3.547,5.852 -5.888,7.524c-2.34,1.672 -4.989,2.508 -7.946,2.508c-3.169,0 -5.888,-1.144 -8.158,-3.432c-2.271,-2.288 -3.406,-5.034 -3.406,-8.237c0,-2.57 0.581,-4.893 1.742,-6.97c1.584,-2.887 4.154,-5.791 7.71,-8.712c3.555,-2.922 6.177,-5.333 7.867,-7.234c2.57,-2.922 4.444,-5.527 5.624,-7.815c1.179,-2.288 2.103,-4.981 2.772,-8.079Z"/></g><g id="Spade3" serif:id="Spade"><path d="M93.764,129.893c0.916,3.802 2.324,7.199 4.225,10.191c1.901,2.992 5.289,6.697 10.164,11.115c4.876,4.418 7.965,7.806 9.267,10.165c1.302,2.358 1.954,4.752 1.954,7.181c0,3.379 -1.127,6.195 -3.38,8.448c-2.253,2.253 -4.998,3.38 -8.237,3.38c-2.746,0 -5.236,-0.854 -7.471,-2.561c-2.236,-1.708 -4.216,-4.198 -5.941,-7.472c0.035,5.175 0.713,9.285 2.033,12.33c1.32,3.044 3.432,5.438 6.337,7.181c2.904,1.742 6.767,2.772 11.59,3.089l0.369,1.953l-41.872,0l0.422,-1.953c6.477,0 11.502,-1.892 15.075,-5.677c3.573,-3.784 5.289,-9.425 5.149,-16.923c-1.584,3.344 -3.547,5.852 -5.888,7.525c-2.341,1.672 -4.99,2.508 -7.947,2.508c-3.168,0 -5.887,-1.144 -8.158,-3.433c-2.27,-2.288 -3.405,-5.033 -3.405,-8.237c0,-2.569 0.58,-4.893 1.742,-6.97c1.584,-2.886 4.154,-5.79 7.709,-8.712c3.556,-2.922 6.178,-5.333 7.868,-7.234c2.57,-2.922 4.444,-5.527 5.623,-7.815c1.18,-2.288 2.104,-4.981 2.772,-8.079Z"/></g><g id="Spade4" serif:id="Spade"><path d="M208.257,129.893c0.915,3.802 2.323,7.199 4.224,10.191c1.901,2.992 5.289,6.697 10.164,11.115c4.876,4.418 7.965,7.806 9.267,10.165c1.303,2.358 1.954,4.752 1.954,7.181c0,3.379 -1.126,6.195 -3.379,8.448c-2.253,2.253 -4.999,3.38 -8.238,3.38c-2.745,0 -5.236,-0.854 -7.471,-2.561c-2.235,-1.708 -4.216,-4.198 -5.94,-7.472c0.035,5.175 0.712,9.285 2.032,12.33c1.321,3.044 3.433,5.438 6.337,7.181c2.904,1.742 6.767,2.772 11.59,3.089l0.37,1.953l-41.873,0l0.423,-1.953c6.477,0 11.502,-1.892 15.075,-5.677c3.573,-3.784 5.289,-9.425 5.148,-16.923c-1.584,3.344 -3.547,5.852 -5.888,7.525c-2.34,1.672 -4.989,2.508 -7.946,2.508c-3.169,0 -5.888,-1.144 -8.158,-3.433c-2.271,-2.288 -3.406,-5.033 -3.406,-8.237c0,-2.569 0.581,-4.893 1.742,-6.97c1.584,-2.886 4.154,-5.79 7.71,-8.712c3.555,-2.922 6.177,-5.333 7.867,-7.234c2.57,-2.922 4.444,-5.527 5.624,-7.815c1.179,-2.288 2.103,-4.981 2.772,-8.079Z"/></g><g id="Spade5" serif:id="Spade"><path d="M93.764,205.107c0.916,3.801 2.324,7.198 4.225,10.191c1.901,2.992 5.289,6.697 10.164,11.115c4.876,4.417 7.965,7.805 9.267,10.164c1.302,2.359 1.954,4.752 1.954,7.181c0,3.38 -1.127,6.196 -3.38,8.449c-2.253,2.252 -4.998,3.379 -8.237,3.379c-2.746,0 -5.236,-0.854 -7.471,-2.561c-2.236,-1.707 -4.216,-4.198 -5.941,-7.472c0.035,5.175 0.713,9.285 2.033,12.33c1.32,3.045 3.432,5.439 6.337,7.181c2.904,1.742 6.767,2.772 11.59,3.089l0.369,1.954l-41.872,0l0.422,-1.954c6.477,0 11.502,-1.892 15.075,-5.676c3.573,-3.785 5.289,-9.426 5.149,-16.924c-1.584,3.345 -3.547,5.853 -5.888,7.525c-2.341,1.672 -4.99,2.508 -7.947,2.508c-3.168,0 -5.887,-1.144 -8.158,-3.432c-2.27,-2.288 -3.405,-5.034 -3.405,-8.237c0,-2.57 0.58,-4.893 1.742,-6.97c1.584,-2.887 4.154,-5.791 7.709,-8.713c3.556,-2.922 6.178,-5.333 7.868,-7.234c2.57,-2.922 4.444,-5.526 5.623,-7.815c1.18,-2.288 2.104,-4.981 2.772,-8.078Z"/></g><g id="Spade6" serif:id="Spade"><path d="M208.257,205.107c0.915,3.801 2.323,7.198 4.224,10.191c1.901,2.992 5.289,6.697 10.164,11.115c4.876,4.417 7.965,7.805 9.267,10.164c1.303,2.359 1.954,4.752 1.954,7.181c0,3.38 -1.126,6.196 -3.379,8.449c-2.253,2.252 -4.999,3.379 -8.238,3.379c-2.745,0 -5.236,-0.854 -7.471,-2.561c-2.235,-1.707 -4.216,-4.198 -5.94,-7.472c0.035,5.175 0.712,9.285 2.032,12.33c1.321,3.045 3.433,5.439 6.337,7.181c2.904,1.742 6.767,2.772 11.59,3.089l0.37,1.954l-41.873,0l0.423,-1.954c6.477,0 11.502,-1.892 15.075,-5.676c3.573,-3.785 5.289,-9.426 5.148,-16.924c-1.584,3.345 -3.547,5.853 -5.888,7.525c-2.34,1.672 -4.989,2.508 -7.946,2.508c-3.169,0 -5.888,-1.144 -8.158,-3.432c-2.271,-2.288 -3.406,-5.034 -3.406,-8.237c0,-2.57 0.581,-4.893 1.742,-6.97c1.584,-2.887 4.154,-5.791 7.71,-8.713c3.555,-2.922 6.177,-5.333 7.867,-7.234c2.57,-2.922 4.444,-5.526 5.624,-7.815c1.179,-2.288 2.103,-4.981 2.772,-8.078Z"/></g><g id="Spade7" serif:id="Spade"><path d="M93.764,280.32c0.916,3.802 2.324,7.199 4.225,10.191c1.901,2.992 5.289,6.697 10.164,11.115c4.876,4.418 7.965,7.806 9.267,10.164c1.302,2.359 1.954,4.753 1.954,7.181c0,3.38 -1.127,6.196 -3.38,8.449c-2.253,2.253 -4.998,3.379 -8.237,3.379c-2.746,0 -5.236,-0.853 -7.471,-2.561c-2.236,-1.707 -4.216,-4.197 -5.941,-7.471c0.035,5.174 0.713,9.284 2.033,12.329c1.32,3.045 3.432,5.439 6.337,7.181c2.904,1.743 6.767,2.772 11.59,3.089l0.369,1.954l-41.872,0l0.422,-1.954c6.477,0 11.502,-1.892 15.075,-5.676c3.573,-3.784 5.289,-9.425 5.149,-16.923c-1.584,3.344 -3.547,5.852 -5.888,7.524c-2.341,1.672 -4.99,2.508 -7.947,2.508c-3.168,0 -5.887,-1.144 -8.158,-3.432c-2.27,-2.288 -3.405,-5.034 -3.405,-8.237c0,-2.57 0.58,-4.893 1.742,-6.97c1.584,-2.887 4.154,-5.791 7.709,-8.713c3.556,-2.921 6.178,-5.333 7.868,-7.233c2.57,-2.922 4.444,-5.527 5.623,-7.815c1.18,-2.288 2.104,-4.981 2.772,-8.079Z"/></g><g id="Spade8" serif:id="Spade"><path d="M208.257,280.32c0.915,3.802 2.323,7.199 4.224,10.191c1.901,2.992 5.289,6.697 10.164,11.115c4.876,4.418 7.965,7.806 9.267,10.164c1.303,2.359 1.954,4.753 1.954,7.181c0,3.38 -1.126,6.196 -3.379,8.449c-2.253,2.253 -4.999,3.379 -8.238,3.379c-2.745,0 -5.236,-0.853 -7.471,-2.561c-2.235,-1.707 -4.216,-4.197 -5.94,-7.471c0.035,5.174 0.712,9.284 2.032,12.329c1.321,3.045 3.433,5.439 6.337,7.181c2.904,1.743 6.767,2.772 11.59,3.089l0.37,1.954l-41.873,0l0.423,-1.954c6.477,0 11.502,-1.892 15.075,-5.676c3.573,-3.784 5.289,-9.425 5.148,-16.923c-1.584,3.344 -3.547,5.852 -5.888,7.524c-2.34,1.672 -4.989,2.508 -7.946,2.508c-3.169,0 -5.888,-1.144 -8.158,-3.432c-2.271,-2.288 -3.406,-5.034 -3.406,-8.237c0,-2.57 0.581,-4.893 1.742,-6.97c1.584,-2.887 4.154,-5.791 7.71,-8.713c3.555,-2.921 6.177,-5.333 7.867,-7.233c2.57,-2.922 4.444,-5.527 5.624,-7.815c1.179,-2.288 2.103,-4.981 2.772,-8.079Z"/></g></svg>