<?xml version="1.0" encoding="UTF-8" standalone="no"?><!DOCTYPE svg PUBLIC "-//W3C//DTD SVG 1.1//EN" "http://www.w3.org/Graphics/SVG/1.1/DTD/svg11.dtd">
<svg width="100%" height="100%" viewBox="0 0 300 400" version="1.1"
    xmlns="http://www.w3.org/2000/svg"
    xmlns:xlink="http://www.w3.org/1999/xlink" xml:space="preserve"
    xmlns:serif="http://www.serif.com/" style="fill-rule:evenodd;clip-rule:evenodd;stroke-linejoin:round;stroke-miterlimit:2;">
    <rect id="S-A" x="0" y="0" width="300" height="400" style="fill:none;"/>
    <g id="Spade">
        <path d="M150.106,135c1.83,7.604 4.646,14.398 8.448,20.382c3.802,5.984 10.578,13.394 20.329,22.23c9.751,8.835 15.929,15.612 18.534,20.329c2.605,4.717 3.907,9.504 3.907,14.362c0,6.759 -2.253,12.391 -6.759,16.897c-4.505,4.506 -9.997,6.759 -16.474,6.759c-5.491,0 -10.473,-1.708 -14.943,-5.122c-4.471,-3.415 -8.431,-8.396 -11.881,-14.943c0.071,10.349 1.426,18.568 4.066,24.658c2.64,6.09 6.864,10.878 12.673,14.363c5.808,3.485 13.535,5.544 23.18,6.178l0.739,3.907l-83.745,0l0.845,-3.907c12.954,0 23.005,-3.785 30.15,-11.353c7.146,-7.568 10.579,-18.85 10.297,-33.846c-3.168,6.688 -7.093,11.704 -11.775,15.048c-4.682,3.344 -9.98,5.017 -15.894,5.017c-6.336,0 -11.775,-2.289 -16.316,-6.865c-4.541,-4.576 -6.811,-10.067 -6.811,-16.474c0,-5.14 1.162,-9.786 3.485,-13.94c3.168,-5.773 8.307,-11.581 15.418,-17.425c7.111,-5.843 12.356,-10.666 15.735,-14.468c5.14,-5.843 8.889,-11.053 11.247,-15.629c2.359,-4.577 4.207,-9.962 5.545,-16.158Z"/>
    </g>
    <path d="M34.603,53.338l7.516,-22.688l0.142,0l7.515,22.688l-15.173,0Zm21.442,18.592l8.299,0l-18.877,-51.93l-6.59,0l-18.877,51.93l8.335,0l3.989,-11.611l19.696,0l4.025,11.611Z" style="fill-rule:nonzero;"/>
    <path d="M265.397,346.662l-7.516,22.688l-0.142,0l-7.515,-22.688l15.173,0Zm-21.442,-18.592l-8.299,0l18.877,51.93l6.59,0l18.877,-51.93l-8.335,0l-3.989,11.611l-19.696,0l-4.025,-11.611Z" style="fill-rule:nonzero;"/>
</svg>