<?xml version="1.0" encoding="UTF-8" standalone="no"?><!DOCTYPE svg PUBLIC "-//W3C//DTD SVG 1.1//EN" "http://www.w3.org/Graphics/SVG/1.1/DTD/svg11.dtd"><svg width="100%" height="100%" viewBox="0 0 301 401" version="1.1" xmlns="http://www.w3.org/2000/svg" xmlns:xlink="http://www.w3.org/1999/xlink" xml:space="preserve" xmlns:serif="http://www.serif.com/" style="fill-rule:evenodd;clip-rule:evenodd;stroke-linejoin:round;stroke-miterlimit:2;"><rect id="S-D" x="0.039" y="0.387" width="300" height="400" style="fill:none;"/><g id="Spade"><path d="M138.006,141.581c1.126,4.679 2.859,8.86 5.199,12.543c2.339,3.682 6.509,8.242 12.51,13.68c6,5.437 9.802,9.607 11.405,12.51c1.603,2.903 2.405,5.849 2.405,8.838c0,4.159 -1.387,7.625 -4.159,10.398c-2.773,2.773 -6.153,4.159 -10.139,4.159c-3.379,0 -6.444,-1.05 -9.195,-3.151c-2.751,-2.102 -5.189,-5.167 -7.311,-9.196c0.043,6.369 0.877,11.427 2.502,15.174c1.624,3.748 4.224,6.694 7.798,8.839c3.574,2.144 8.329,3.412 14.265,3.802l0.455,2.404l-51.535,0l0.519,-2.404c7.972,0 14.157,-2.329 18.554,-6.987c4.398,-4.657 6.51,-11.6 6.337,-20.828c-1.95,4.116 -4.365,7.203 -7.246,9.261c-2.882,2.058 -6.142,3.086 -9.781,3.086c-3.899,0 -7.246,-1.408 -10.041,-4.224c-2.794,-2.816 -4.191,-6.195 -4.191,-10.138c0,-3.163 0.714,-6.022 2.144,-8.578c1.95,-3.553 5.113,-7.127 9.488,-10.723c4.376,-3.596 7.604,-6.564 9.684,-8.904c3.162,-3.596 5.469,-6.802 6.921,-9.618c1.451,-2.816 2.589,-6.13 3.412,-9.943Z"/></g><path d="M173.096,302.194l27.161,0c5.999,0 11.065,-1.317 15.198,-3.951c4.171,-2.451 7.426,-5.56 9.767,-9.328c0.878,-1.426 1.628,-2.798 2.25,-4.115c0.585,-1.353 1.024,-2.89 1.317,-4.609c0.622,-3.402 0.933,-9.401 0.933,-17.997c0,-8.084 -0.202,-13.773 -0.604,-17.065c-0.512,-3.292 -1.738,-6.438 -3.676,-9.437c-5.414,-8.926 -13.535,-13.425 -24.362,-13.498l-27.984,0l0,80Zm12.126,-68.533l14.486,0c6.145,-0.146 10.901,2.104 14.266,6.749c1.646,1.866 2.689,4.299 3.128,7.298c0.329,3 0.493,7.975 0.493,14.925c0,7.133 -0.164,11.998 -0.493,14.595c-0.366,2.634 -1.226,4.81 -2.579,6.529c-3.073,4.646 -8.011,6.969 -14.815,6.969l-14.486,0l0,-57.065Z" style="fill-rule:nonzero;"/><path d="M23.681,72.532l17.776,0c3.926,0 7.242,-0.862 9.947,-2.586c2.729,-1.604 4.86,-3.639 6.392,-6.105c0.575,-0.933 1.066,-1.831 1.473,-2.693c0.383,-0.886 0.67,-1.891 0.862,-3.017c0.407,-2.226 0.61,-6.152 0.61,-11.778c0,-5.291 -0.132,-9.014 -0.395,-11.169c-0.335,-2.154 -1.137,-4.213 -2.406,-6.176c-3.543,-5.842 -8.858,-8.786 -15.944,-8.834l-18.315,0l0,52.358Zm7.936,-44.853l9.481,0c4.022,-0.096 7.134,1.377 9.337,4.417c1.077,1.221 1.759,2.813 2.047,4.776c0.215,1.963 0.323,5.219 0.323,9.768c0,4.668 -0.108,7.852 -0.323,9.552c-0.24,1.724 -0.802,3.148 -1.688,4.274c-2.011,3.04 -5.243,4.56 -9.696,4.56l-9.481,0l0,-37.347Z" style="fill-rule:nonzero;"/><path d="M276.397,328.03l-17.776,0c-3.926,0 -7.242,0.861 -9.947,2.585c-2.729,1.604 -4.86,3.639 -6.392,6.105c-0.575,0.934 -1.065,1.831 -1.472,2.693c-0.384,0.886 -0.671,1.892 -0.862,3.017c-0.407,2.226 -0.611,6.152 -0.611,11.778c0,5.291 0.132,9.014 0.395,11.169c0.335,2.154 1.137,4.213 2.406,6.176c3.543,5.842 8.858,8.787 15.945,8.834l18.314,0l0,-52.357Zm-7.936,44.852l-9.481,0c-4.022,0.096 -7.134,-1.377 -9.336,-4.417c-1.078,-1.221 -1.76,-2.813 -2.047,-4.776c-0.216,-1.963 -0.324,-5.219 -0.324,-9.768c0,-4.668 0.108,-7.852 0.324,-9.552c0.239,-1.724 0.802,-3.148 1.687,-4.273c2.011,-3.041 5.243,-4.561 9.696,-4.561l9.481,0l0,37.347Z" style="fill-rule:nonzero;"/></svg>