<?xml version="1.0" encoding="UTF-8" standalone="no"?><!DOCTYPE svg PUBLIC "-//W3C//DTD SVG 1.1//EN" "http://www.w3.org/Graphics/SVG/1.1/DTD/svg11.dtd"><svg width="100%" height="100%" viewBox="0 0 300 401" version="1.1" xmlns="http://www.w3.org/2000/svg" xmlns:xlink="http://www.w3.org/1999/xlink" xml:space="preserve" xmlns:serif="http://www.serif.com/" style="fill-rule:evenodd;clip-rule:evenodd;stroke-linejoin:round;stroke-miterlimit:2;"><rect id="S-J" x="0" y="0.387" width="300" height="400" style="fill:none;"/><g id="Spade"><path d="M137.967,141.581c1.126,4.679 2.859,8.86 5.199,12.543c2.339,3.682 6.509,8.242 12.51,13.68c6,5.437 9.802,9.607 11.405,12.51c1.603,2.903 2.405,5.849 2.405,8.838c0,4.159 -1.387,7.625 -4.16,10.398c-2.772,2.773 -6.152,4.159 -10.138,4.159c-3.379,0 -6.444,-1.05 -9.195,-3.151c-2.752,-2.102 -5.189,-5.167 -7.312,-9.196c0.044,6.369 0.878,11.427 2.502,15.174c1.625,3.748 4.225,6.694 7.799,8.839c3.574,2.144 8.329,3.412 14.265,3.802l0.455,2.404l-51.536,0l0.52,-2.404c7.972,0 14.157,-2.329 18.554,-6.987c4.398,-4.657 6.51,-11.6 6.337,-20.828c-1.95,4.116 -4.365,7.203 -7.246,9.261c-2.882,2.058 -6.142,3.086 -9.781,3.086c-3.899,0 -7.246,-1.408 -10.041,-4.224c-2.794,-2.816 -4.191,-6.195 -4.191,-10.138c0,-3.163 0.714,-6.022 2.144,-8.578c1.95,-3.553 5.113,-7.127 9.488,-10.723c4.376,-3.596 7.604,-6.564 9.684,-8.904c3.162,-3.596 5.469,-6.802 6.921,-9.618c1.451,-2.816 2.588,-6.13 3.412,-9.943Z"/></g><path d="M157.329,241.833l-9.687,7.021c4.535,6.675 11.41,10.122 20.626,10.34c6.675,-0.073 12.535,-2.34 17.578,-6.803c5.079,-4.354 7.691,-10.522 7.836,-18.503l0,-54.694l-12.027,0l0,53.496c0,2.685 -0.417,4.916 -1.251,6.694c-0.799,1.851 -1.905,3.338 -3.32,4.463c-2.903,2.285 -5.95,3.392 -9.143,3.32c-2.395,0 -4.481,-0.563 -6.259,-1.688c-1.777,-0.943 -3.229,-2.158 -4.353,-3.646Z" style="fill-rule:nonzero;"/><path d="M33.446,61.17l-6.34,4.594c2.968,4.369 7.468,6.625 13.499,6.768c4.369,-0.048 8.204,-1.532 11.504,-4.453c3.325,-2.849 5.034,-6.886 5.129,-12.11l0,-35.795l-7.871,0l0,35.012c0,1.757 -0.273,3.217 -0.819,4.381c-0.523,1.211 -1.247,2.184 -2.173,2.92c-1.9,1.496 -3.894,2.221 -5.984,2.173c-1.567,0 -2.932,-0.368 -4.096,-1.104c-1.163,-0.617 -2.113,-1.413 -2.849,-2.386Z" style="fill-rule:nonzero;"/><path d="M266.554,339.605l6.34,-4.594c-2.968,-4.37 -7.468,-6.625 -13.499,-6.768c-4.369,0.048 -8.204,1.532 -11.504,4.452c-3.325,2.85 -5.034,6.887 -5.129,12.11l0,35.796l7.871,0l0,-35.012c0,-1.757 0.273,-3.217 0.819,-4.381c0.523,-1.211 1.247,-2.184 2.173,-2.921c1.9,-1.496 3.894,-2.22 5.984,-2.172c1.567,0 2.932,0.368 4.096,1.104c1.163,0.617 2.113,1.413 2.849,2.386Z" style="fill-rule:nonzero;"/></svg>