<?xml version="1.0" encoding="UTF-8" standalone="no"?><!DOCTYPE svg PUBLIC "-//W3C//DTD SVG 1.1//EN" "http://www.w3.org/Graphics/SVG/1.1/DTD/svg11.dtd"><svg width="100%" height="100%" viewBox="0 0 301 401" version="1.1" xmlns="http://www.w3.org/2000/svg" xmlns:xlink="http://www.w3.org/1999/xlink" xml:space="preserve" xmlns:serif="http://www.serif.com/" style="fill-rule:evenodd;clip-rule:evenodd;stroke-linejoin:round;stroke-miterlimit:2;"><rect id="S-K" x="0.25" y="0.387" width="300" height="400" style="fill:none;"/><g id="Spade"><path d="M130.071,141.581c1.127,4.679 2.86,8.86 5.199,12.543c2.34,3.682 6.51,8.242 12.51,13.68c6.001,5.437 9.803,9.607 11.406,12.51c1.603,2.903 2.404,5.849 2.404,8.838c0,4.159 -1.386,7.625 -4.159,10.398c-2.773,2.773 -6.152,4.159 -10.138,4.159c-3.379,0 -6.445,-1.05 -9.196,-3.151c-2.751,-2.102 -5.188,-5.167 -7.311,-9.196c0.043,6.369 0.877,11.427 2.502,15.174c1.625,3.748 4.224,6.694 7.799,8.839c3.574,2.144 8.329,3.412 14.264,3.802l0.455,2.404l-51.535,0l0.52,-2.404c7.972,0 14.156,-2.329 18.554,-6.987c4.397,-4.657 6.51,-11.6 6.336,-20.828c-1.949,4.116 -4.365,7.203 -7.246,9.261c-2.881,2.058 -6.141,3.086 -9.781,3.086c-3.899,0 -7.246,-1.408 -10.04,-4.224c-2.795,-2.816 -4.192,-6.195 -4.192,-10.138c0,-3.163 0.715,-6.022 2.145,-8.578c1.949,-3.553 5.112,-7.127 9.488,-10.723c4.376,-3.596 7.604,-6.564 9.683,-8.904c3.163,-3.596 5.47,-6.802 6.921,-9.618c1.452,-2.816 2.589,-6.13 3.412,-9.943Z"/></g><g transform="matrix(4.81824,0,0,4.81824,-2281.8,-53.0078)"><text x="500.824px" y="64.796px" style="font-family:'DINAlternate-Bold', 'DIN Alternate', sans-serif;font-weight:700;font-size:23.322px;">K</text><path d="M505.184,46.95l0.088,0.01l0.088,0.015l0.086,0.022l0.084,0.028l0.082,0.034l0.08,0.04l0.076,0.046l0.073,0.05l0.069,0.056l0.065,0.061l0.061,0.065l0.056,0.069l0.05,0.073l0.046,0.076l0.04,0.08l0.034,0.082l0.028,0.084l0.022,0.086l0.015,0.088l0.01,0.088l0.003,0.089l0,5.056l4.66,-5.833l0.056,-0.065l0.06,-0.061l0.065,-0.057l0.068,-0.053l0.071,-0.047l0.075,-0.043l0.077,-0.037l0.08,-0.032l0.082,-0.026l0.083,-0.021l0.085,-0.014l0.085,-0.009l0.086,-0.003l2.984,0l0.09,0.003l0.09,0.01l0.089,0.016l0.088,0.023l0.085,0.029l0.084,0.035l0.08,0.042l0.078,0.047l0.073,0.052l0.07,0.058l0.066,0.062l0.06,0.067l0.056,0.072l0.05,0.075l0.045,0.078l0.039,0.082l0.033,0.084l0.026,0.087l0.021,0.088l0.013,0.089l0.008,0.091l0.001,0.09l-0.006,0.09l-0.013,0.09l-0.019,0.089l-0.025,0.086l-0.031,0.085l-0.038,0.083l-0.043,0.079l-0.049,0.076l-0.055,0.072l-4.774,5.879l5.441,9.311l0.043,0.08l0.036,0.082l0.031,0.085l0.025,0.087l0.018,0.088l0.011,0.089l0.006,0.09l-0.002,0.09l-0.007,0.09l-0.015,0.089l-0.02,0.088l-0.027,0.086l-0.033,0.084l-0.039,0.081l-0.045,0.078l-0.051,0.075l-0.055,0.071l-0.061,0.067l-0.065,0.062l-0.07,0.057l-0.074,0.052l-0.077,0.046l-0.08,0.041l-0.083,0.035l-0.086,0.029l-0.087,0.023l-0.089,0.016l-0.089,0.01l-0.09,0.003l-2.984,0l-0.088,-0.003l-0.088,-0.009l-0.087,-0.016l-0.085,-0.022l-0.084,-0.027l-0.081,-0.034l-0.079,-0.039l-0.077,-0.045l-0.072,-0.05l-0.069,-0.055l-0.065,-0.059l-0.061,-0.065l-0.055,-0.068l-0.051,-0.072l-0.046,-0.075l-3.698,-6.641l-1.405,1.476l0,4.559l-0.003,0.089l-0.01,0.088l-0.015,0.087l-0.022,0.087l-0.028,0.084l-0.034,0.082l-0.04,0.08l-0.046,0.076l-0.05,0.073l-0.056,0.069l-0.061,0.065l-0.065,0.061l-0.069,0.056l-0.073,0.05l-0.076,0.046l-0.08,0.039l-0.082,0.035l-0.084,0.028l-0.086,0.022l-0.088,0.015l-0.088,0.01l-0.089,0.003l-2.517,0l-0.089,-0.003l-0.088,-0.01l-0.088,-0.015l-0.086,-0.022l-0.084,-0.028l-0.082,-0.035l-0.08,-0.039l-0.076,-0.046l-0.073,-0.05l-0.069,-0.056l-0.065,-0.061l-0.061,-0.065l-0.056,-0.069l-0.051,-0.073l-0.045,-0.076l-0.04,-0.08l-0.034,-0.082l-0.028,-0.084l-0.022,-0.087l-0.016,-0.087l-0.009,-0.088l-0.003,-0.089l0,-16.604l0.003,-0.089l0.009,-0.088l0.016,-0.088l0.022,-0.086l0.028,-0.084l0.034,-0.082l0.04,-0.08l0.045,-0.076l0.051,-0.073l0.056,-0.069l0.061,-0.065l0.065,-0.061l0.069,-0.056l0.073,-0.05l0.076,-0.046l0.08,-0.04l0.082,-0.034l0.084,-0.028l0.086,-0.022l0.088,-0.015l0.088,-0.01l0.089,-0.003l2.517,0l0.089,0.003Zm-2.606,1.242l0,16.604l2.517,0l0,-5.056l2.915,-3.064l4.521,8.12l2.984,0l-5.876,-10.056l5.318,-6.548l-2.984,0l-6.833,8.553l-0.045,0l0,-8.553l-2.517,0Z" style="fill:#fff;"/></g><path d="M22.191,72.318l7.872,0l0,-15.814l9.118,-9.581l14.14,25.395l9.332,0l-18.379,-31.45l16.634,-20.481l-9.332,0l-21.371,26.749l-0.142,0l0,-26.749l-7.872,0l0,51.931Z" style="fill-rule:nonzero;"/><path d="M278.309,328.457l-7.871,0l0,15.814l-9.119,9.581l-14.14,-25.395l-9.332,0l18.379,31.45l-16.633,20.48l9.331,0l21.371,-26.748l0.143,0l0,26.748l7.871,0l0,-51.93Z" style="fill-rule:nonzero;"/></svg>