<?xml version="1.0" encoding="UTF-8" standalone="no"?><!DOCTYPE svg PUBLIC "-//W3C//DTD SVG 1.1//EN" "http://www.w3.org/Graphics/SVG/1.1/DTD/svg11.dtd"><svg width="100%" height="100%" viewBox="0 0 301 401" version="1.1" xmlns="http://www.w3.org/2000/svg" xmlns:xlink="http://www.w3.org/1999/xlink" xml:space="preserve" xmlns:serif="http://www.serif.com/" style="fill-rule:evenodd;clip-rule:evenodd;stroke-linejoin:round;stroke-miterlimit:2;"><rect id="S-K" x="0.25" y="0.387" width="300" height="400" style="fill:none;"/><g id="Spade"><path d="M130.071,141.581c1.127,4.679 2.86,8.86 5.199,12.543c2.34,3.682 6.51,8.242 12.51,13.68c6.001,5.437 9.803,9.607 11.406,12.51c1.603,2.903 2.404,5.849 2.404,8.838c0,4.159 -1.386,7.625 -4.159,10.398c-2.773,2.773 -6.152,4.159 -10.138,4.159c-3.379,0 -6.445,-1.05 -9.196,-3.151c-2.751,-2.102 -5.188,-5.167 -7.311,-9.196c0.043,6.369 0.877,11.427 2.502,15.174c1.625,3.748 4.224,6.694 7.799,8.839c3.574,2.144 8.329,3.412 14.264,3.802l0.455,2.404l-51.535,0l0.52,-2.404c7.972,0 14.156,-2.329 18.554,-6.987c4.397,-4.657 6.51,-11.6 6.336,-20.828c-1.949,4.116 -4.365,7.203 -7.246,9.261c-2.881,2.058 -6.141,3.086 -9.781,3.086c-3.899,0 -7.246,-1.408 -10.04,-4.224c-2.795,-2.816 -4.192,-6.195 -4.192,-10.138c0,-3.163 0.715,-6.022 2.145,-8.578c1.949,-3.553 5.112,-7.127 9.488,-10.723c4.376,-3.596 7.604,-6.564 9.683,-8.904c3.163,-3.596 5.47,-6.802 6.921,-9.618c1.452,-2.816 2.589,-6.13 3.412,-9.943Z"/></g><text x="160.855px" y="296.826px" style="font-family:'Arial-BoldMT', 'Arial', sans-serif;font-weight:700;font-size:112.373px;">K</text><path d="M22.191,72.318l7.872,0l0,-15.814l9.118,-9.581l14.14,25.395l9.332,0l-18.379,-31.45l16.634,-20.481l-9.332,0l-21.371,26.749l-0.142,0l0,-26.749l-7.872,0l0,51.931Z" style="fill-rule:nonzero;"/><path d="M278.309,328.457l-7.871,0l0,15.814l-9.119,9.581l-14.14,-25.395l-9.332,0l18.379,31.45l-16.633,20.48l9.331,0l21.371,-26.748l0.143,0l0,26.748l7.871,0l0,-51.93Z" style="fill-rule:nonzero;"/></svg>